M48
; DRILL file {KiCad 5.1.12} date Mon 20 Dec 2021 01:46:43 PM MST
; FORMAT={-:-/ absolute / metric / decimal}
; #@! TF.CreationDate,2021-12-20T13:46:43-07:00
; #@! TF.GenerationSoftware,Kicad,Pcbnew,5.1.12
; #@! TF.FileFunction,Plated,1,2,PTH
FMAT,2
METRIC
T1C0.400
T2C0.600
T3C0.750
T4C0.762
T5C0.800
T6C0.850
T7C1.000
T8C1.520
T9C1.800
%
G90
G05
T1
X89.662Y-93.345
X90.241Y-59.238
X95.504Y-77.343
X98.044Y-63.119
X98.044Y-80.518
X99.314Y-70.739
X99.441Y-76.327
X103.251Y-67.183
T2
X77.883Y-77.089
X79.883Y-77.089
T3
X129.286Y-76.835
X129.286Y-78.835
X129.286Y-80.835
X129.286Y-82.835
X129.286Y-91.44
X129.286Y-93.44
X129.286Y-95.44
X129.286Y-97.44
X129.286Y-99.44
T4
X67.945Y-85.132
X67.945Y-103.632
X70.485Y-85.132
X70.485Y-103.632
X79.445Y-85.132
X79.445Y-103.632
X81.945Y-85.132
X81.945Y-103.632
X87.249Y-60.325
X87.249Y-62.865
X87.249Y-65.405
X87.249Y-67.945
X87.249Y-70.485
X87.249Y-73.025
X87.249Y-75.565
X87.249Y-78.105
X87.249Y-80.645
X87.249Y-83.185
X87.249Y-85.725
X87.249Y-88.265
X87.249Y-90.805
X87.249Y-93.345
X87.249Y-95.885
X112.649Y-60.325
X112.649Y-62.865
X112.649Y-65.405
X112.649Y-67.945
X112.649Y-70.485
X112.649Y-73.025
X112.649Y-75.565
X112.649Y-78.105
X112.649Y-80.645
X112.649Y-83.185
X112.649Y-85.725
X112.649Y-88.265
X112.649Y-90.805
X112.649Y-93.345
X112.649Y-95.885
T5
X59.528Y-74.965
X61.324Y-73.169
X63.12Y-71.373
X64.916Y-69.577
X64.916Y-80.354
X66.712Y-67.781
X66.712Y-78.558
X68.508Y-65.985
X68.508Y-76.762
X70.304Y-64.189
X70.304Y-74.965
X72.1Y-62.393
X72.1Y-73.169
X73.896Y-60.597
X73.896Y-71.373
X75.692Y-58.801
X75.692Y-69.577
X77.488Y-67.781
X79.284Y-65.985
X81.08Y-64.189
T6
X54.279Y-96.81
X54.787Y-105.12
X56.386Y-113.042
X56.769Y-97.028
X57.277Y-104.902
X58.801Y-112.395
X59.202Y-120.691
X59.259Y-97.246
X59.767Y-104.684
X61.216Y-111.748
X61.468Y-119.634
X63.611Y-127.799
X63.734Y-118.577
X65.659Y-126.365
X67.707Y-124.931
T7
X80.01Y-136.097
X80.01Y-141.097
X92.71Y-136.097
X92.71Y-141.097
X106.68Y-136.097
X106.68Y-141.097
X119.38Y-136.097
X119.38Y-141.097
T8
X135.89Y-114.935
X140.051Y-117.849
T9
X75.199Y-109.253
X75.199Y-129.253
X124.699Y-109.253
X124.699Y-129.253
T0
M30
