%TF.GenerationSoftware,KiCad,Pcbnew,5.1.12*%
%TF.CreationDate,2021-12-20T13:43:48-07:00*%
%TF.ProjectId,claw,636c6177-2e6b-4696-9361-645f70636258,rev?*%
%TF.SameCoordinates,Original*%
%TF.FileFunction,Legend,Top*%
%TF.FilePolarity,Positive*%
%FSLAX46Y46*%
G04 Gerber Fmt 4.6, Leading zero omitted, Abs format (unit mm)*
G04 Created by KiCad (PCBNEW 5.1.12) date 2021-12-20 13:43:48*
%MOMM*%
%LPD*%
G01*
G04 APERTURE LIST*
%ADD10C,0.300000*%
%ADD11C,0.150000*%
%ADD12C,0.100000*%
%ADD13C,0.120000*%
%ADD14C,0.500000*%
%ADD15C,0.400000*%
%ADD16C,2.500000*%
%ADD17C,1.524000*%
%ADD18C,1.600000*%
%ADD19R,3.000000X3.000000*%
%ADD20R,2.000000X2.000000*%
%ADD21C,2.000000*%
%ADD22C,3.000000*%
%ADD23R,1.200000X1.200000*%
%ADD24C,1.200000*%
%ADD25O,1.750000X1.200000*%
G04 APERTURE END LIST*
D10*
X120185571Y-101526857D02*
X118685571Y-101526857D01*
X120185571Y-100669714D01*
X118685571Y-100669714D01*
X120185571Y-99955428D02*
X119185571Y-99955428D01*
X118685571Y-99955428D02*
X118757000Y-100026857D01*
X118828428Y-99955428D01*
X118757000Y-99884000D01*
X118685571Y-99955428D01*
X118828428Y-99955428D01*
X120114142Y-98598285D02*
X120185571Y-98741142D01*
X120185571Y-99026857D01*
X120114142Y-99169714D01*
X120042714Y-99241142D01*
X119899857Y-99312571D01*
X119471285Y-99312571D01*
X119328428Y-99241142D01*
X119257000Y-99169714D01*
X119185571Y-99026857D01*
X119185571Y-98741142D01*
X119257000Y-98598285D01*
X120185571Y-97955428D02*
X118685571Y-97955428D01*
X119614142Y-97812571D02*
X120185571Y-97384000D01*
X119185571Y-97384000D02*
X119757000Y-97955428D01*
X118685571Y-95741142D02*
X120185571Y-95384000D01*
X119114142Y-95098285D01*
X120185571Y-94812571D01*
X118685571Y-94455428D01*
X120185571Y-93241142D02*
X119399857Y-93241142D01*
X119257000Y-93312571D01*
X119185571Y-93455428D01*
X119185571Y-93741142D01*
X119257000Y-93884000D01*
X120114142Y-93241142D02*
X120185571Y-93384000D01*
X120185571Y-93741142D01*
X120114142Y-93884000D01*
X119971285Y-93955428D01*
X119828428Y-93955428D01*
X119685571Y-93884000D01*
X119614142Y-93741142D01*
X119614142Y-93384000D01*
X119542714Y-93241142D01*
X120185571Y-92312571D02*
X120114142Y-92455428D01*
X119971285Y-92526857D01*
X118685571Y-92526857D01*
X120185571Y-91526857D02*
X120114142Y-91669714D01*
X119971285Y-91741142D01*
X118685571Y-91741142D01*
X120185571Y-90955428D02*
X119185571Y-90955428D01*
X118685571Y-90955428D02*
X118757000Y-91026857D01*
X118828428Y-90955428D01*
X118757000Y-90884000D01*
X118685571Y-90955428D01*
X118828428Y-90955428D01*
X120114142Y-89598285D02*
X120185571Y-89741142D01*
X120185571Y-90026857D01*
X120114142Y-90169714D01*
X120042714Y-90241142D01*
X119899857Y-90312571D01*
X119471285Y-90312571D01*
X119328428Y-90241142D01*
X119257000Y-90169714D01*
X119185571Y-90026857D01*
X119185571Y-89741142D01*
X119257000Y-89598285D01*
X120185571Y-88955428D02*
X118685571Y-88955428D01*
X119614142Y-88812571D02*
X120185571Y-88384000D01*
X119185571Y-88384000D02*
X119757000Y-88955428D01*
X119399857Y-86598285D02*
X119399857Y-86098285D01*
X120185571Y-85884000D02*
X120185571Y-86598285D01*
X118685571Y-86598285D01*
X118685571Y-85884000D01*
X119185571Y-85241142D02*
X120185571Y-85241142D01*
X119328428Y-85241142D02*
X119257000Y-85169714D01*
X119185571Y-85026857D01*
X119185571Y-84812571D01*
X119257000Y-84669714D01*
X119399857Y-84598285D01*
X120185571Y-84598285D01*
X119185571Y-83241142D02*
X120399857Y-83241142D01*
X120542714Y-83312571D01*
X120614142Y-83384000D01*
X120685571Y-83526857D01*
X120685571Y-83741142D01*
X120614142Y-83884000D01*
X120114142Y-83241142D02*
X120185571Y-83384000D01*
X120185571Y-83669714D01*
X120114142Y-83812571D01*
X120042714Y-83884000D01*
X119899857Y-83955428D01*
X119471285Y-83955428D01*
X119328428Y-83884000D01*
X119257000Y-83812571D01*
X119185571Y-83669714D01*
X119185571Y-83384000D01*
X119257000Y-83241142D01*
X120185571Y-82526857D02*
X119185571Y-82526857D01*
X118685571Y-82526857D02*
X118757000Y-82598285D01*
X118828428Y-82526857D01*
X118757000Y-82455428D01*
X118685571Y-82526857D01*
X118828428Y-82526857D01*
X119185571Y-81812571D02*
X120185571Y-81812571D01*
X119328428Y-81812571D02*
X119257000Y-81741142D01*
X119185571Y-81598285D01*
X119185571Y-81384000D01*
X119257000Y-81241142D01*
X119399857Y-81169714D01*
X120185571Y-81169714D01*
X120114142Y-79884000D02*
X120185571Y-80026857D01*
X120185571Y-80312571D01*
X120114142Y-80455428D01*
X119971285Y-80526857D01*
X119399857Y-80526857D01*
X119257000Y-80455428D01*
X119185571Y-80312571D01*
X119185571Y-80026857D01*
X119257000Y-79884000D01*
X119399857Y-79812571D01*
X119542714Y-79812571D01*
X119685571Y-80526857D01*
X120114142Y-78598285D02*
X120185571Y-78741142D01*
X120185571Y-79026857D01*
X120114142Y-79169714D01*
X119971285Y-79241142D01*
X119399857Y-79241142D01*
X119257000Y-79169714D01*
X119185571Y-79026857D01*
X119185571Y-78741142D01*
X119257000Y-78598285D01*
X119399857Y-78526857D01*
X119542714Y-78526857D01*
X119685571Y-79241142D01*
X120185571Y-77884000D02*
X119185571Y-77884000D01*
X119471285Y-77884000D02*
X119328428Y-77812571D01*
X119257000Y-77741142D01*
X119185571Y-77598285D01*
X119185571Y-77455428D01*
X120185571Y-76955428D02*
X119185571Y-76955428D01*
X118685571Y-76955428D02*
X118757000Y-77026857D01*
X118828428Y-76955428D01*
X118757000Y-76884000D01*
X118685571Y-76955428D01*
X118828428Y-76955428D01*
X119185571Y-76241142D02*
X120185571Y-76241142D01*
X119328428Y-76241142D02*
X119257000Y-76169714D01*
X119185571Y-76026857D01*
X119185571Y-75812571D01*
X119257000Y-75669714D01*
X119399857Y-75598285D01*
X120185571Y-75598285D01*
X119185571Y-74241142D02*
X120399857Y-74241142D01*
X120542714Y-74312571D01*
X120614142Y-74384000D01*
X120685571Y-74526857D01*
X120685571Y-74741142D01*
X120614142Y-74884000D01*
X120114142Y-74241142D02*
X120185571Y-74384000D01*
X120185571Y-74669714D01*
X120114142Y-74812571D01*
X120042714Y-74884000D01*
X119899857Y-74955428D01*
X119471285Y-74955428D01*
X119328428Y-74884000D01*
X119257000Y-74812571D01*
X119185571Y-74669714D01*
X119185571Y-74384000D01*
X119257000Y-74241142D01*
D11*
X95202952Y-108672380D02*
X95202952Y-109386666D01*
X95155333Y-109529523D01*
X95060095Y-109624761D01*
X94917238Y-109672380D01*
X94822000Y-109672380D01*
X96155333Y-109672380D02*
X95679142Y-109672380D01*
X95679142Y-108672380D01*
X97060095Y-109577142D02*
X97012476Y-109624761D01*
X96869619Y-109672380D01*
X96774380Y-109672380D01*
X96631523Y-109624761D01*
X96536285Y-109529523D01*
X96488666Y-109434285D01*
X96441047Y-109243809D01*
X96441047Y-109100952D01*
X96488666Y-108910476D01*
X96536285Y-108815238D01*
X96631523Y-108720000D01*
X96774380Y-108672380D01*
X96869619Y-108672380D01*
X97012476Y-108720000D01*
X97060095Y-108767619D01*
X97774380Y-108672380D02*
X97774380Y-109386666D01*
X97726761Y-109529523D01*
X97631523Y-109624761D01*
X97488666Y-109672380D01*
X97393428Y-109672380D01*
X98726761Y-109672380D02*
X98250571Y-109672380D01*
X98250571Y-108672380D01*
X99631523Y-109577142D02*
X99583904Y-109624761D01*
X99441047Y-109672380D01*
X99345809Y-109672380D01*
X99202952Y-109624761D01*
X99107714Y-109529523D01*
X99060095Y-109434285D01*
X99012476Y-109243809D01*
X99012476Y-109100952D01*
X99060095Y-108910476D01*
X99107714Y-108815238D01*
X99202952Y-108720000D01*
X99345809Y-108672380D01*
X99441047Y-108672380D01*
X99583904Y-108720000D01*
X99631523Y-108767619D01*
X100345809Y-108672380D02*
X100345809Y-109386666D01*
X100298190Y-109529523D01*
X100202952Y-109624761D01*
X100060095Y-109672380D01*
X99964857Y-109672380D01*
X101298190Y-109672380D02*
X100822000Y-109672380D01*
X100822000Y-108672380D01*
X102202952Y-109577142D02*
X102155333Y-109624761D01*
X102012476Y-109672380D01*
X101917238Y-109672380D01*
X101774380Y-109624761D01*
X101679142Y-109529523D01*
X101631523Y-109434285D01*
X101583904Y-109243809D01*
X101583904Y-109100952D01*
X101631523Y-108910476D01*
X101679142Y-108815238D01*
X101774380Y-108720000D01*
X101917238Y-108672380D01*
X102012476Y-108672380D01*
X102155333Y-108720000D01*
X102202952Y-108767619D01*
X102917238Y-108672380D02*
X102917238Y-109386666D01*
X102869619Y-109529523D01*
X102774380Y-109624761D01*
X102631523Y-109672380D01*
X102536285Y-109672380D01*
X103869619Y-109672380D02*
X103393428Y-109672380D01*
X103393428Y-108672380D01*
X104774380Y-109577142D02*
X104726761Y-109624761D01*
X104583904Y-109672380D01*
X104488666Y-109672380D01*
X104345809Y-109624761D01*
X104250571Y-109529523D01*
X104202952Y-109434285D01*
X104155333Y-109243809D01*
X104155333Y-109100952D01*
X104202952Y-108910476D01*
X104250571Y-108815238D01*
X104345809Y-108720000D01*
X104488666Y-108672380D01*
X104583904Y-108672380D01*
X104726761Y-108720000D01*
X104774380Y-108767619D01*
D12*
X95482333Y-148587666D02*
X95149000Y-148587666D01*
X95115666Y-148921000D01*
X95149000Y-148887666D01*
X95215666Y-148854333D01*
X95382333Y-148854333D01*
X95449000Y-148887666D01*
X95482333Y-148921000D01*
X95515666Y-148987666D01*
X95515666Y-149154333D01*
X95482333Y-149221000D01*
X95449000Y-149254333D01*
X95382333Y-149287666D01*
X95215666Y-149287666D01*
X95149000Y-149254333D01*
X95115666Y-149221000D01*
X95782333Y-148654333D02*
X95815666Y-148621000D01*
X95882333Y-148587666D01*
X96049000Y-148587666D01*
X96115666Y-148621000D01*
X96149000Y-148654333D01*
X96182333Y-148721000D01*
X96182333Y-148787666D01*
X96149000Y-148887666D01*
X95749000Y-149287666D01*
X96182333Y-149287666D01*
X96482333Y-149287666D02*
X96482333Y-148821000D01*
X96482333Y-148887666D02*
X96515666Y-148854333D01*
X96582333Y-148821000D01*
X96682333Y-148821000D01*
X96749000Y-148854333D01*
X96782333Y-148921000D01*
X96782333Y-149287666D01*
X96782333Y-148921000D02*
X96815666Y-148854333D01*
X96882333Y-148821000D01*
X96982333Y-148821000D01*
X97049000Y-148854333D01*
X97082333Y-148921000D01*
X97082333Y-149287666D01*
X97415666Y-149287666D02*
X97415666Y-148821000D01*
X97415666Y-148887666D02*
X97449000Y-148854333D01*
X97515666Y-148821000D01*
X97615666Y-148821000D01*
X97682333Y-148854333D01*
X97715666Y-148921000D01*
X97715666Y-149287666D01*
X97715666Y-148921000D02*
X97749000Y-148854333D01*
X97815666Y-148821000D01*
X97915666Y-148821000D01*
X97982333Y-148854333D01*
X98015666Y-148921000D01*
X98015666Y-149287666D01*
X98782333Y-148821000D02*
X99049000Y-148821000D01*
X98882333Y-149287666D02*
X98882333Y-148687666D01*
X98915666Y-148621000D01*
X98982333Y-148587666D01*
X99049000Y-148587666D01*
X99282333Y-149287666D02*
X99282333Y-148821000D01*
X99282333Y-148954333D02*
X99315666Y-148887666D01*
X99349000Y-148854333D01*
X99415666Y-148821000D01*
X99482333Y-148821000D01*
X99815666Y-149287666D02*
X99749000Y-149254333D01*
X99715666Y-149221000D01*
X99682333Y-149154333D01*
X99682333Y-148954333D01*
X99715666Y-148887666D01*
X99749000Y-148854333D01*
X99815666Y-148821000D01*
X99915666Y-148821000D01*
X99982333Y-148854333D01*
X100015666Y-148887666D01*
X100049000Y-148954333D01*
X100049000Y-149154333D01*
X100015666Y-149221000D01*
X99982333Y-149254333D01*
X99915666Y-149287666D01*
X99815666Y-149287666D01*
X100349000Y-149287666D02*
X100349000Y-148821000D01*
X100349000Y-148887666D02*
X100382333Y-148854333D01*
X100449000Y-148821000D01*
X100549000Y-148821000D01*
X100615666Y-148854333D01*
X100649000Y-148921000D01*
X100649000Y-149287666D01*
X100649000Y-148921000D02*
X100682333Y-148854333D01*
X100749000Y-148821000D01*
X100849000Y-148821000D01*
X100915666Y-148854333D01*
X100949000Y-148921000D01*
X100949000Y-149287666D01*
X102115666Y-149254333D02*
X102049000Y-149287666D01*
X101915666Y-149287666D01*
X101849000Y-149254333D01*
X101815666Y-149221000D01*
X101782333Y-149154333D01*
X101782333Y-148954333D01*
X101815666Y-148887666D01*
X101849000Y-148854333D01*
X101915666Y-148821000D01*
X102049000Y-148821000D01*
X102115666Y-148854333D01*
X102682333Y-149254333D02*
X102615666Y-149287666D01*
X102482333Y-149287666D01*
X102415666Y-149254333D01*
X102382333Y-149187666D01*
X102382333Y-148921000D01*
X102415666Y-148854333D01*
X102482333Y-148821000D01*
X102615666Y-148821000D01*
X102682333Y-148854333D01*
X102715666Y-148921000D01*
X102715666Y-148987666D01*
X102382333Y-149054333D01*
X103015666Y-148821000D02*
X103015666Y-149287666D01*
X103015666Y-148887666D02*
X103049000Y-148854333D01*
X103115666Y-148821000D01*
X103215666Y-148821000D01*
X103282333Y-148854333D01*
X103315666Y-148921000D01*
X103315666Y-149287666D01*
X103549000Y-148821000D02*
X103815666Y-148821000D01*
X103649000Y-148587666D02*
X103649000Y-149187666D01*
X103682333Y-149254333D01*
X103749000Y-149287666D01*
X103815666Y-149287666D01*
X104315666Y-149254333D02*
X104249000Y-149287666D01*
X104115666Y-149287666D01*
X104049000Y-149254333D01*
X104015666Y-149187666D01*
X104015666Y-148921000D01*
X104049000Y-148854333D01*
X104115666Y-148821000D01*
X104249000Y-148821000D01*
X104315666Y-148854333D01*
X104349000Y-148921000D01*
X104349000Y-148987666D01*
X104015666Y-149054333D01*
X104649000Y-149287666D02*
X104649000Y-148821000D01*
X104649000Y-148954333D02*
X104682333Y-148887666D01*
X104715666Y-148854333D01*
X104782333Y-148821000D01*
X104849000Y-148821000D01*
X132135666Y-95432571D02*
X132278523Y-95480190D01*
X132326142Y-95527809D01*
X132373761Y-95623047D01*
X132373761Y-95765904D01*
X132326142Y-95861142D01*
X132278523Y-95908761D01*
X132183285Y-95956380D01*
X131802333Y-95956380D01*
X131802333Y-94956380D01*
X132135666Y-94956380D01*
X132230904Y-95004000D01*
X132278523Y-95051619D01*
X132326142Y-95146857D01*
X132326142Y-95242095D01*
X132278523Y-95337333D01*
X132230904Y-95384952D01*
X132135666Y-95432571D01*
X131802333Y-95432571D01*
X132659476Y-94956380D02*
X133230904Y-94956380D01*
X132945190Y-95956380D02*
X132945190Y-94956380D01*
X133564238Y-95956380D02*
X133564238Y-94956380D01*
X134135666Y-95956380D01*
X134135666Y-94956380D01*
X131707190Y-94051380D02*
X131707190Y-93051380D01*
X132088142Y-93051380D01*
X132183380Y-93099000D01*
X132231000Y-93146619D01*
X132278619Y-93241857D01*
X132278619Y-93384714D01*
X132231000Y-93479952D01*
X132183380Y-93527571D01*
X132088142Y-93575190D01*
X131707190Y-93575190D01*
X132897666Y-93051380D02*
X133088142Y-93051380D01*
X133183380Y-93099000D01*
X133278619Y-93194238D01*
X133326238Y-93384714D01*
X133326238Y-93718047D01*
X133278619Y-93908523D01*
X133183380Y-94003761D01*
X133088142Y-94051380D01*
X132897666Y-94051380D01*
X132802428Y-94003761D01*
X132707190Y-93908523D01*
X132659571Y-93718047D01*
X132659571Y-93384714D01*
X132707190Y-93194238D01*
X132802428Y-93099000D01*
X132897666Y-93051380D01*
X133611952Y-93051380D02*
X134183380Y-93051380D01*
X133897666Y-94051380D02*
X133897666Y-93051380D01*
X134278619Y-94146619D02*
X135040523Y-94146619D01*
X135183380Y-93051380D02*
X135850047Y-93051380D01*
X135183380Y-94051380D01*
X135850047Y-94051380D01*
X132334095Y-99068000D02*
X132238857Y-99020380D01*
X132096000Y-99020380D01*
X131953142Y-99068000D01*
X131857904Y-99163238D01*
X131810285Y-99258476D01*
X131762666Y-99448952D01*
X131762666Y-99591809D01*
X131810285Y-99782285D01*
X131857904Y-99877523D01*
X131953142Y-99972761D01*
X132096000Y-100020380D01*
X132191238Y-100020380D01*
X132334095Y-99972761D01*
X132381714Y-99925142D01*
X132381714Y-99591809D01*
X132191238Y-99591809D01*
X132810285Y-100020380D02*
X132810285Y-99020380D01*
X133381714Y-100020380D01*
X133381714Y-99020380D01*
X133857904Y-100020380D02*
X133857904Y-99020380D01*
X134096000Y-99020380D01*
X134238857Y-99068000D01*
X134334095Y-99163238D01*
X134381714Y-99258476D01*
X134429333Y-99448952D01*
X134429333Y-99591809D01*
X134381714Y-99782285D01*
X134334095Y-99877523D01*
X134238857Y-99972761D01*
X134096000Y-100020380D01*
X133857904Y-100020380D01*
X132334095Y-97036000D02*
X132238857Y-96988380D01*
X132096000Y-96988380D01*
X131953142Y-97036000D01*
X131857904Y-97131238D01*
X131810285Y-97226476D01*
X131762666Y-97416952D01*
X131762666Y-97559809D01*
X131810285Y-97750285D01*
X131857904Y-97845523D01*
X131953142Y-97940761D01*
X132096000Y-97988380D01*
X132191238Y-97988380D01*
X132334095Y-97940761D01*
X132381714Y-97893142D01*
X132381714Y-97559809D01*
X132191238Y-97559809D01*
X132810285Y-97988380D02*
X132810285Y-96988380D01*
X133381714Y-97988380D01*
X133381714Y-96988380D01*
X133857904Y-97988380D02*
X133857904Y-96988380D01*
X134096000Y-96988380D01*
X134238857Y-97036000D01*
X134334095Y-97131238D01*
X134381714Y-97226476D01*
X134429333Y-97416952D01*
X134429333Y-97559809D01*
X134381714Y-97750285D01*
X134334095Y-97845523D01*
X134238857Y-97940761D01*
X134096000Y-97988380D01*
X133857904Y-97988380D01*
X131857904Y-90892380D02*
X132476952Y-90892380D01*
X132143619Y-91273333D01*
X132286476Y-91273333D01*
X132381714Y-91320952D01*
X132429333Y-91368571D01*
X132476952Y-91463809D01*
X132476952Y-91701904D01*
X132429333Y-91797142D01*
X132381714Y-91844761D01*
X132286476Y-91892380D01*
X132000761Y-91892380D01*
X131905523Y-91844761D01*
X131857904Y-91797142D01*
X132762666Y-90892380D02*
X133096000Y-91892380D01*
X133429333Y-90892380D01*
X133667428Y-90892380D02*
X134286476Y-90892380D01*
X133953142Y-91273333D01*
X134096000Y-91273333D01*
X134191238Y-91320952D01*
X134238857Y-91368571D01*
X134286476Y-91463809D01*
X134286476Y-91701904D01*
X134238857Y-91797142D01*
X134191238Y-91844761D01*
X134096000Y-91892380D01*
X133810285Y-91892380D01*
X133715047Y-91844761D01*
X133667428Y-91797142D01*
X131754809Y-83383380D02*
X131754809Y-82383380D01*
X132135761Y-82383380D01*
X132231000Y-82431000D01*
X132278619Y-82478619D01*
X132326238Y-82573857D01*
X132326238Y-82716714D01*
X132278619Y-82811952D01*
X132231000Y-82859571D01*
X132135761Y-82907190D01*
X131754809Y-82907190D01*
X132945285Y-82383380D02*
X133135761Y-82383380D01*
X133231000Y-82431000D01*
X133326238Y-82526238D01*
X133373857Y-82716714D01*
X133373857Y-83050047D01*
X133326238Y-83240523D01*
X133231000Y-83335761D01*
X133135761Y-83383380D01*
X132945285Y-83383380D01*
X132850047Y-83335761D01*
X132754809Y-83240523D01*
X132707190Y-83050047D01*
X132707190Y-82716714D01*
X132754809Y-82526238D01*
X132850047Y-82431000D01*
X132945285Y-82383380D01*
X133659571Y-82383380D02*
X134231000Y-82383380D01*
X133945285Y-83383380D02*
X133945285Y-82383380D01*
X134326238Y-83478619D02*
X135088142Y-83478619D01*
X135516714Y-82907190D02*
X135516714Y-83383380D01*
X135183380Y-82383380D02*
X135516714Y-82907190D01*
X135850047Y-82383380D01*
X131834190Y-81351380D02*
X131834190Y-80351380D01*
X132215142Y-80351380D01*
X132310380Y-80399000D01*
X132358000Y-80446619D01*
X132405619Y-80541857D01*
X132405619Y-80684714D01*
X132358000Y-80779952D01*
X132310380Y-80827571D01*
X132215142Y-80875190D01*
X131834190Y-80875190D01*
X133024666Y-80351380D02*
X133215142Y-80351380D01*
X133310380Y-80399000D01*
X133405619Y-80494238D01*
X133453238Y-80684714D01*
X133453238Y-81018047D01*
X133405619Y-81208523D01*
X133310380Y-81303761D01*
X133215142Y-81351380D01*
X133024666Y-81351380D01*
X132929428Y-81303761D01*
X132834190Y-81208523D01*
X132786571Y-81018047D01*
X132786571Y-80684714D01*
X132834190Y-80494238D01*
X132929428Y-80399000D01*
X133024666Y-80351380D01*
X133738952Y-80351380D02*
X134310380Y-80351380D01*
X134024666Y-81351380D02*
X134024666Y-80351380D01*
X134405619Y-81446619D02*
X135167523Y-81446619D01*
X135310380Y-80351380D02*
X135977047Y-81351380D01*
X135977047Y-80351380D02*
X135310380Y-81351380D01*
X132334095Y-78367000D02*
X132238857Y-78319380D01*
X132096000Y-78319380D01*
X131953142Y-78367000D01*
X131857904Y-78462238D01*
X131810285Y-78557476D01*
X131762666Y-78747952D01*
X131762666Y-78890809D01*
X131810285Y-79081285D01*
X131857904Y-79176523D01*
X131953142Y-79271761D01*
X132096000Y-79319380D01*
X132191238Y-79319380D01*
X132334095Y-79271761D01*
X132381714Y-79224142D01*
X132381714Y-78890809D01*
X132191238Y-78890809D01*
X132810285Y-79319380D02*
X132810285Y-78319380D01*
X133381714Y-79319380D01*
X133381714Y-78319380D01*
X133857904Y-79319380D02*
X133857904Y-78319380D01*
X134096000Y-78319380D01*
X134238857Y-78367000D01*
X134334095Y-78462238D01*
X134381714Y-78557476D01*
X134429333Y-78747952D01*
X134429333Y-78890809D01*
X134381714Y-79081285D01*
X134334095Y-79176523D01*
X134238857Y-79271761D01*
X134096000Y-79319380D01*
X133857904Y-79319380D01*
X131857904Y-76414380D02*
X132476952Y-76414380D01*
X132143619Y-76795333D01*
X132286476Y-76795333D01*
X132381714Y-76842952D01*
X132429333Y-76890571D01*
X132476952Y-76985809D01*
X132476952Y-77223904D01*
X132429333Y-77319142D01*
X132381714Y-77366761D01*
X132286476Y-77414380D01*
X132000761Y-77414380D01*
X131905523Y-77366761D01*
X131857904Y-77319142D01*
X132762666Y-76414380D02*
X133096000Y-77414380D01*
X133429333Y-76414380D01*
X133667428Y-76414380D02*
X134286476Y-76414380D01*
X133953142Y-76795333D01*
X134096000Y-76795333D01*
X134191238Y-76842952D01*
X134238857Y-76890571D01*
X134286476Y-76985809D01*
X134286476Y-77223904D01*
X134238857Y-77319142D01*
X134191238Y-77366761D01*
X134096000Y-77414380D01*
X133810285Y-77414380D01*
X133715047Y-77366761D01*
X133667428Y-77319142D01*
D10*
X138176142Y-108851000D02*
X138033285Y-108779571D01*
X137819000Y-108779571D01*
X137604714Y-108851000D01*
X137461857Y-108993857D01*
X137390428Y-109136714D01*
X137319000Y-109422428D01*
X137319000Y-109636714D01*
X137390428Y-109922428D01*
X137461857Y-110065285D01*
X137604714Y-110208142D01*
X137819000Y-110279571D01*
X137961857Y-110279571D01*
X138176142Y-110208142D01*
X138247571Y-110136714D01*
X138247571Y-109636714D01*
X137961857Y-109636714D01*
X138890428Y-110279571D02*
X138890428Y-108779571D01*
X139747571Y-110279571D01*
X139747571Y-108779571D01*
X140461857Y-110279571D02*
X140461857Y-108779571D01*
X140819000Y-108779571D01*
X141033285Y-108851000D01*
X141176142Y-108993857D01*
X141247571Y-109136714D01*
X141319000Y-109422428D01*
X141319000Y-109636714D01*
X141247571Y-109922428D01*
X141176142Y-110065285D01*
X141033285Y-110208142D01*
X140819000Y-110279571D01*
X140461857Y-110279571D01*
X142137142Y-113264142D02*
X143280000Y-113264142D01*
X142708571Y-113835571D02*
X142708571Y-112692714D01*
X144780000Y-113835571D02*
X143922857Y-113835571D01*
X144351428Y-113835571D02*
X144351428Y-112335571D01*
X144208571Y-112549857D01*
X144065714Y-112692714D01*
X143922857Y-112764142D01*
X145351428Y-112478428D02*
X145422857Y-112407000D01*
X145565714Y-112335571D01*
X145922857Y-112335571D01*
X146065714Y-112407000D01*
X146137142Y-112478428D01*
X146208571Y-112621285D01*
X146208571Y-112764142D01*
X146137142Y-112978428D01*
X145280000Y-113835571D01*
X146208571Y-113835571D01*
X146637142Y-112335571D02*
X147137142Y-113835571D01*
X147637142Y-112335571D01*
D13*
%TO.C,C2*%
X97534000Y-65391420D02*
X97534000Y-65672580D01*
X98554000Y-65391420D02*
X98554000Y-65672580D01*
%TO.C,C1*%
X98554000Y-77964420D02*
X98554000Y-78245580D01*
X97534000Y-77964420D02*
X97534000Y-78245580D01*
%TO.C,R1*%
X102124742Y-77865500D02*
X102599258Y-77865500D01*
X102124742Y-76820500D02*
X102599258Y-76820500D01*
%TO.C,U3*%
X78619422Y-59847518D02*
X77452696Y-58680792D01*
X77452696Y-58680792D02*
X59407331Y-76726157D01*
X59407331Y-76726157D02*
X63154997Y-80473823D01*
X63154997Y-80473823D02*
X81200362Y-62428458D01*
X81200362Y-62428458D02*
X80033636Y-61261732D01*
X75734426Y-56877670D02*
X57604209Y-75007887D01*
X57604209Y-75007887D02*
X64873266Y-82276945D01*
X64873266Y-82276945D02*
X83003484Y-64146727D01*
X83003484Y-64146727D02*
X75734426Y-56877670D01*
X80033636Y-61261732D02*
G75*
G02*
X78619422Y-59847518I-707107J707107D01*
G01*
D14*
%TO.C,U1*%
X114249000Y-101925000D02*
X85649000Y-101925000D01*
X85649000Y-50325000D02*
X114249000Y-50325000D01*
X114249000Y-50325000D02*
X114249000Y-101925000D01*
X85649000Y-101925000D02*
X85649000Y-50325000D01*
D13*
%TO.C,U2*%
X96945000Y-71755000D02*
X96945000Y-75355000D01*
X96945000Y-71755000D02*
X96945000Y-69555000D01*
X103715000Y-71755000D02*
X103715000Y-73955000D01*
X103715000Y-71755000D02*
X103715000Y-69555000D01*
%TO.C,R2*%
X82348303Y-58957230D02*
X82012770Y-58621697D01*
X83087230Y-58218303D02*
X82751697Y-57882770D01*
%TO.C,J1*%
X70041548Y-123906694D02*
X68034031Y-121039662D01*
X69673185Y-125995787D02*
X70041548Y-123906694D01*
X62710393Y-130871186D02*
X69673185Y-125995787D01*
X59842510Y-126775426D02*
X68034031Y-121039662D01*
X62710393Y-130871186D02*
X59842510Y-126775426D01*
%TO.C,J2*%
X57781698Y-123559707D02*
X55668606Y-119028168D01*
X55668606Y-119028168D02*
X64731684Y-114801985D01*
X57781698Y-123559707D02*
X65485314Y-119967452D01*
X65485314Y-119967452D02*
X66210848Y-117974063D01*
X66210848Y-117974063D02*
X64731684Y-114801985D01*
%TO.C,J3*%
X63760039Y-111583868D02*
X62854172Y-108203127D01*
X62699378Y-113420985D02*
X63760039Y-111583868D01*
X54489009Y-115620947D02*
X62699378Y-113420985D01*
X53194914Y-110791318D02*
X62854172Y-108203127D01*
X54489009Y-115620947D02*
X53194914Y-110791318D01*
%TO.C,J4*%
X52470338Y-107330168D02*
X52034559Y-102349195D01*
X52034559Y-102349195D02*
X61996506Y-101477637D01*
X52470338Y-107330168D02*
X60937993Y-106589344D01*
X60937993Y-106589344D02*
X62301551Y-104964319D01*
X62301551Y-104964319D02*
X61996506Y-101477637D01*
%TO.C,J5*%
X61706396Y-97961876D02*
X62011441Y-94475195D01*
X60081370Y-99325434D02*
X61706396Y-97961876D01*
X51613715Y-98584611D02*
X60081370Y-99325434D01*
X52049494Y-93603637D02*
X62011441Y-94475195D01*
X51613715Y-98584611D02*
X52049494Y-93603637D01*
%TO.C,A1*%
X65945000Y-105632000D02*
X83945000Y-105632000D01*
X65945000Y-83132000D02*
X83945000Y-83132000D01*
X83945000Y-105632000D02*
X83945000Y-83132000D01*
X65945000Y-105632000D02*
X65945000Y-83132000D01*
D15*
%TO.C,A2*%
X72949000Y-131253000D02*
X72949000Y-107253000D01*
X126949000Y-107253000D02*
X126949000Y-131253000D01*
X126949000Y-107253000D02*
X72949000Y-107253000D01*
X126949000Y-131253000D02*
X72949000Y-131253000D01*
D13*
%TO.C,C3*%
X85130000Y-138597000D02*
G75*
G03*
X85130000Y-138597000I-5120000J0D01*
G01*
X74930000Y-138597000D02*
X85090000Y-138597000D01*
X74930000Y-138557000D02*
X85090000Y-138557000D01*
X74930000Y-138517000D02*
X85090000Y-138517000D01*
X74931000Y-138477000D02*
X85089000Y-138477000D01*
X74932000Y-138437000D02*
X85088000Y-138437000D01*
X74933000Y-138397000D02*
X85087000Y-138397000D01*
X74935000Y-138357000D02*
X85085000Y-138357000D01*
X74937000Y-138317000D02*
X85083000Y-138317000D01*
X74940000Y-138277000D02*
X85080000Y-138277000D01*
X74942000Y-138237000D02*
X85078000Y-138237000D01*
X74945000Y-138197000D02*
X85075000Y-138197000D01*
X74948000Y-138157000D02*
X85072000Y-138157000D01*
X74952000Y-138117000D02*
X85068000Y-138117000D01*
X74956000Y-138077000D02*
X85064000Y-138077000D01*
X74960000Y-138037000D02*
X85060000Y-138037000D01*
X74965000Y-137997000D02*
X85055000Y-137997000D01*
X74970000Y-137957000D02*
X85050000Y-137957000D01*
X74975000Y-137917000D02*
X85045000Y-137917000D01*
X74980000Y-137876000D02*
X85040000Y-137876000D01*
X74986000Y-137836000D02*
X85034000Y-137836000D01*
X74992000Y-137796000D02*
X85028000Y-137796000D01*
X74999000Y-137756000D02*
X85021000Y-137756000D01*
X75006000Y-137716000D02*
X85014000Y-137716000D01*
X75013000Y-137676000D02*
X85007000Y-137676000D01*
X75020000Y-137636000D02*
X85000000Y-137636000D01*
X75028000Y-137596000D02*
X84992000Y-137596000D01*
X75036000Y-137556000D02*
X84984000Y-137556000D01*
X75045000Y-137516000D02*
X84975000Y-137516000D01*
X75054000Y-137476000D02*
X84966000Y-137476000D01*
X75063000Y-137436000D02*
X84957000Y-137436000D01*
X75072000Y-137396000D02*
X84948000Y-137396000D01*
X75082000Y-137356000D02*
X84938000Y-137356000D01*
X75092000Y-137316000D02*
X78769000Y-137316000D01*
X81251000Y-137316000D02*
X84928000Y-137316000D01*
X75103000Y-137276000D02*
X78769000Y-137276000D01*
X81251000Y-137276000D02*
X84917000Y-137276000D01*
X75113000Y-137236000D02*
X78769000Y-137236000D01*
X81251000Y-137236000D02*
X84907000Y-137236000D01*
X75125000Y-137196000D02*
X78769000Y-137196000D01*
X81251000Y-137196000D02*
X84895000Y-137196000D01*
X75136000Y-137156000D02*
X78769000Y-137156000D01*
X81251000Y-137156000D02*
X84884000Y-137156000D01*
X75148000Y-137116000D02*
X78769000Y-137116000D01*
X81251000Y-137116000D02*
X84872000Y-137116000D01*
X75160000Y-137076000D02*
X78769000Y-137076000D01*
X81251000Y-137076000D02*
X84860000Y-137076000D01*
X75173000Y-137036000D02*
X78769000Y-137036000D01*
X81251000Y-137036000D02*
X84847000Y-137036000D01*
X75186000Y-136996000D02*
X78769000Y-136996000D01*
X81251000Y-136996000D02*
X84834000Y-136996000D01*
X75199000Y-136956000D02*
X78769000Y-136956000D01*
X81251000Y-136956000D02*
X84821000Y-136956000D01*
X75213000Y-136916000D02*
X78769000Y-136916000D01*
X81251000Y-136916000D02*
X84807000Y-136916000D01*
X75227000Y-136876000D02*
X78769000Y-136876000D01*
X81251000Y-136876000D02*
X84793000Y-136876000D01*
X75242000Y-136836000D02*
X78769000Y-136836000D01*
X81251000Y-136836000D02*
X84778000Y-136836000D01*
X75256000Y-136796000D02*
X78769000Y-136796000D01*
X81251000Y-136796000D02*
X84764000Y-136796000D01*
X75272000Y-136756000D02*
X78769000Y-136756000D01*
X81251000Y-136756000D02*
X84748000Y-136756000D01*
X75287000Y-136716000D02*
X78769000Y-136716000D01*
X81251000Y-136716000D02*
X84733000Y-136716000D01*
X75303000Y-136676000D02*
X78769000Y-136676000D01*
X81251000Y-136676000D02*
X84717000Y-136676000D01*
X75320000Y-136636000D02*
X78769000Y-136636000D01*
X81251000Y-136636000D02*
X84700000Y-136636000D01*
X75336000Y-136596000D02*
X78769000Y-136596000D01*
X81251000Y-136596000D02*
X84684000Y-136596000D01*
X75353000Y-136556000D02*
X78769000Y-136556000D01*
X81251000Y-136556000D02*
X84667000Y-136556000D01*
X75371000Y-136516000D02*
X78769000Y-136516000D01*
X81251000Y-136516000D02*
X84649000Y-136516000D01*
X75389000Y-136476000D02*
X78769000Y-136476000D01*
X81251000Y-136476000D02*
X84631000Y-136476000D01*
X75407000Y-136436000D02*
X78769000Y-136436000D01*
X81251000Y-136436000D02*
X84613000Y-136436000D01*
X75426000Y-136396000D02*
X78769000Y-136396000D01*
X81251000Y-136396000D02*
X84594000Y-136396000D01*
X75446000Y-136356000D02*
X78769000Y-136356000D01*
X81251000Y-136356000D02*
X84574000Y-136356000D01*
X75465000Y-136316000D02*
X78769000Y-136316000D01*
X81251000Y-136316000D02*
X84555000Y-136316000D01*
X75485000Y-136276000D02*
X78769000Y-136276000D01*
X81251000Y-136276000D02*
X84535000Y-136276000D01*
X75506000Y-136236000D02*
X78769000Y-136236000D01*
X81251000Y-136236000D02*
X84514000Y-136236000D01*
X75527000Y-136196000D02*
X78769000Y-136196000D01*
X81251000Y-136196000D02*
X84493000Y-136196000D01*
X75548000Y-136156000D02*
X78769000Y-136156000D01*
X81251000Y-136156000D02*
X84472000Y-136156000D01*
X75570000Y-136116000D02*
X78769000Y-136116000D01*
X81251000Y-136116000D02*
X84450000Y-136116000D01*
X75593000Y-136076000D02*
X78769000Y-136076000D01*
X81251000Y-136076000D02*
X84427000Y-136076000D01*
X75615000Y-136036000D02*
X78769000Y-136036000D01*
X81251000Y-136036000D02*
X84405000Y-136036000D01*
X75639000Y-135996000D02*
X78769000Y-135996000D01*
X81251000Y-135996000D02*
X84381000Y-135996000D01*
X75663000Y-135956000D02*
X78769000Y-135956000D01*
X81251000Y-135956000D02*
X84357000Y-135956000D01*
X75687000Y-135916000D02*
X78769000Y-135916000D01*
X81251000Y-135916000D02*
X84333000Y-135916000D01*
X75712000Y-135876000D02*
X78769000Y-135876000D01*
X81251000Y-135876000D02*
X84308000Y-135876000D01*
X75737000Y-135836000D02*
X78769000Y-135836000D01*
X81251000Y-135836000D02*
X84283000Y-135836000D01*
X75763000Y-135796000D02*
X78769000Y-135796000D01*
X81251000Y-135796000D02*
X84257000Y-135796000D01*
X75789000Y-135756000D02*
X78769000Y-135756000D01*
X81251000Y-135756000D02*
X84231000Y-135756000D01*
X75816000Y-135716000D02*
X78769000Y-135716000D01*
X81251000Y-135716000D02*
X84204000Y-135716000D01*
X75844000Y-135676000D02*
X78769000Y-135676000D01*
X81251000Y-135676000D02*
X84176000Y-135676000D01*
X75872000Y-135636000D02*
X78769000Y-135636000D01*
X81251000Y-135636000D02*
X84148000Y-135636000D01*
X75900000Y-135596000D02*
X78769000Y-135596000D01*
X81251000Y-135596000D02*
X84120000Y-135596000D01*
X75930000Y-135556000D02*
X78769000Y-135556000D01*
X81251000Y-135556000D02*
X84090000Y-135556000D01*
X75960000Y-135516000D02*
X78769000Y-135516000D01*
X81251000Y-135516000D02*
X84060000Y-135516000D01*
X75990000Y-135476000D02*
X78769000Y-135476000D01*
X81251000Y-135476000D02*
X84030000Y-135476000D01*
X76021000Y-135436000D02*
X78769000Y-135436000D01*
X81251000Y-135436000D02*
X83999000Y-135436000D01*
X76053000Y-135396000D02*
X78769000Y-135396000D01*
X81251000Y-135396000D02*
X83967000Y-135396000D01*
X76085000Y-135356000D02*
X78769000Y-135356000D01*
X81251000Y-135356000D02*
X83935000Y-135356000D01*
X76118000Y-135316000D02*
X78769000Y-135316000D01*
X81251000Y-135316000D02*
X83902000Y-135316000D01*
X76152000Y-135276000D02*
X78769000Y-135276000D01*
X81251000Y-135276000D02*
X83868000Y-135276000D01*
X76186000Y-135236000D02*
X78769000Y-135236000D01*
X81251000Y-135236000D02*
X83834000Y-135236000D01*
X76221000Y-135196000D02*
X78769000Y-135196000D01*
X81251000Y-135196000D02*
X83799000Y-135196000D01*
X76257000Y-135156000D02*
X78769000Y-135156000D01*
X81251000Y-135156000D02*
X83763000Y-135156000D01*
X76294000Y-135116000D02*
X78769000Y-135116000D01*
X81251000Y-135116000D02*
X83726000Y-135116000D01*
X76331000Y-135076000D02*
X78769000Y-135076000D01*
X81251000Y-135076000D02*
X83689000Y-135076000D01*
X76370000Y-135036000D02*
X78769000Y-135036000D01*
X81251000Y-135036000D02*
X83650000Y-135036000D01*
X76409000Y-134996000D02*
X78769000Y-134996000D01*
X81251000Y-134996000D02*
X83611000Y-134996000D01*
X76449000Y-134956000D02*
X78769000Y-134956000D01*
X81251000Y-134956000D02*
X83571000Y-134956000D01*
X76490000Y-134916000D02*
X78769000Y-134916000D01*
X81251000Y-134916000D02*
X83530000Y-134916000D01*
X76532000Y-134876000D02*
X78769000Y-134876000D01*
X81251000Y-134876000D02*
X83488000Y-134876000D01*
X76574000Y-134836000D02*
X83446000Y-134836000D01*
X76618000Y-134796000D02*
X83402000Y-134796000D01*
X76663000Y-134756000D02*
X83357000Y-134756000D01*
X76709000Y-134716000D02*
X83311000Y-134716000D01*
X76756000Y-134676000D02*
X83264000Y-134676000D01*
X76804000Y-134636000D02*
X83216000Y-134636000D01*
X76854000Y-134596000D02*
X83166000Y-134596000D01*
X76904000Y-134556000D02*
X83116000Y-134556000D01*
X76956000Y-134516000D02*
X83064000Y-134516000D01*
X77010000Y-134476000D02*
X83010000Y-134476000D01*
X77065000Y-134436000D02*
X82955000Y-134436000D01*
X77121000Y-134396000D02*
X82899000Y-134396000D01*
X77180000Y-134356000D02*
X82840000Y-134356000D01*
X77240000Y-134316000D02*
X82780000Y-134316000D01*
X77301000Y-134276000D02*
X82719000Y-134276000D01*
X77365000Y-134236000D02*
X82655000Y-134236000D01*
X77431000Y-134196000D02*
X82589000Y-134196000D01*
X77500000Y-134156000D02*
X82520000Y-134156000D01*
X77571000Y-134116000D02*
X82449000Y-134116000D01*
X77645000Y-134076000D02*
X82375000Y-134076000D01*
X77721000Y-134036000D02*
X82299000Y-134036000D01*
X77801000Y-133996000D02*
X82219000Y-133996000D01*
X77885000Y-133956000D02*
X82135000Y-133956000D01*
X77973000Y-133916000D02*
X82047000Y-133916000D01*
X78066000Y-133876000D02*
X81954000Y-133876000D01*
X78164000Y-133836000D02*
X81856000Y-133836000D01*
X78268000Y-133796000D02*
X81752000Y-133796000D01*
X78380000Y-133756000D02*
X81640000Y-133756000D01*
X78500000Y-133716000D02*
X81520000Y-133716000D01*
X78632000Y-133676000D02*
X81388000Y-133676000D01*
X78780000Y-133636000D02*
X81240000Y-133636000D01*
X78948000Y-133596000D02*
X81072000Y-133596000D01*
X79148000Y-133556000D02*
X80872000Y-133556000D01*
X79411000Y-133516000D02*
X80609000Y-133516000D01*
X77135000Y-144076646D02*
X77135000Y-143076646D01*
X76635000Y-143576646D02*
X77635000Y-143576646D01*
%TO.C,C4*%
X89335000Y-143576646D02*
X90335000Y-143576646D01*
X89835000Y-144076646D02*
X89835000Y-143076646D01*
X92111000Y-133516000D02*
X93309000Y-133516000D01*
X91848000Y-133556000D02*
X93572000Y-133556000D01*
X91648000Y-133596000D02*
X93772000Y-133596000D01*
X91480000Y-133636000D02*
X93940000Y-133636000D01*
X91332000Y-133676000D02*
X94088000Y-133676000D01*
X91200000Y-133716000D02*
X94220000Y-133716000D01*
X91080000Y-133756000D02*
X94340000Y-133756000D01*
X90968000Y-133796000D02*
X94452000Y-133796000D01*
X90864000Y-133836000D02*
X94556000Y-133836000D01*
X90766000Y-133876000D02*
X94654000Y-133876000D01*
X90673000Y-133916000D02*
X94747000Y-133916000D01*
X90585000Y-133956000D02*
X94835000Y-133956000D01*
X90501000Y-133996000D02*
X94919000Y-133996000D01*
X90421000Y-134036000D02*
X94999000Y-134036000D01*
X90345000Y-134076000D02*
X95075000Y-134076000D01*
X90271000Y-134116000D02*
X95149000Y-134116000D01*
X90200000Y-134156000D02*
X95220000Y-134156000D01*
X90131000Y-134196000D02*
X95289000Y-134196000D01*
X90065000Y-134236000D02*
X95355000Y-134236000D01*
X90001000Y-134276000D02*
X95419000Y-134276000D01*
X89940000Y-134316000D02*
X95480000Y-134316000D01*
X89880000Y-134356000D02*
X95540000Y-134356000D01*
X89821000Y-134396000D02*
X95599000Y-134396000D01*
X89765000Y-134436000D02*
X95655000Y-134436000D01*
X89710000Y-134476000D02*
X95710000Y-134476000D01*
X89656000Y-134516000D02*
X95764000Y-134516000D01*
X89604000Y-134556000D02*
X95816000Y-134556000D01*
X89554000Y-134596000D02*
X95866000Y-134596000D01*
X89504000Y-134636000D02*
X95916000Y-134636000D01*
X89456000Y-134676000D02*
X95964000Y-134676000D01*
X89409000Y-134716000D02*
X96011000Y-134716000D01*
X89363000Y-134756000D02*
X96057000Y-134756000D01*
X89318000Y-134796000D02*
X96102000Y-134796000D01*
X89274000Y-134836000D02*
X96146000Y-134836000D01*
X93951000Y-134876000D02*
X96188000Y-134876000D01*
X89232000Y-134876000D02*
X91469000Y-134876000D01*
X93951000Y-134916000D02*
X96230000Y-134916000D01*
X89190000Y-134916000D02*
X91469000Y-134916000D01*
X93951000Y-134956000D02*
X96271000Y-134956000D01*
X89149000Y-134956000D02*
X91469000Y-134956000D01*
X93951000Y-134996000D02*
X96311000Y-134996000D01*
X89109000Y-134996000D02*
X91469000Y-134996000D01*
X93951000Y-135036000D02*
X96350000Y-135036000D01*
X89070000Y-135036000D02*
X91469000Y-135036000D01*
X93951000Y-135076000D02*
X96389000Y-135076000D01*
X89031000Y-135076000D02*
X91469000Y-135076000D01*
X93951000Y-135116000D02*
X96426000Y-135116000D01*
X88994000Y-135116000D02*
X91469000Y-135116000D01*
X93951000Y-135156000D02*
X96463000Y-135156000D01*
X88957000Y-135156000D02*
X91469000Y-135156000D01*
X93951000Y-135196000D02*
X96499000Y-135196000D01*
X88921000Y-135196000D02*
X91469000Y-135196000D01*
X93951000Y-135236000D02*
X96534000Y-135236000D01*
X88886000Y-135236000D02*
X91469000Y-135236000D01*
X93951000Y-135276000D02*
X96568000Y-135276000D01*
X88852000Y-135276000D02*
X91469000Y-135276000D01*
X93951000Y-135316000D02*
X96602000Y-135316000D01*
X88818000Y-135316000D02*
X91469000Y-135316000D01*
X93951000Y-135356000D02*
X96635000Y-135356000D01*
X88785000Y-135356000D02*
X91469000Y-135356000D01*
X93951000Y-135396000D02*
X96667000Y-135396000D01*
X88753000Y-135396000D02*
X91469000Y-135396000D01*
X93951000Y-135436000D02*
X96699000Y-135436000D01*
X88721000Y-135436000D02*
X91469000Y-135436000D01*
X93951000Y-135476000D02*
X96730000Y-135476000D01*
X88690000Y-135476000D02*
X91469000Y-135476000D01*
X93951000Y-135516000D02*
X96760000Y-135516000D01*
X88660000Y-135516000D02*
X91469000Y-135516000D01*
X93951000Y-135556000D02*
X96790000Y-135556000D01*
X88630000Y-135556000D02*
X91469000Y-135556000D01*
X93951000Y-135596000D02*
X96820000Y-135596000D01*
X88600000Y-135596000D02*
X91469000Y-135596000D01*
X93951000Y-135636000D02*
X96848000Y-135636000D01*
X88572000Y-135636000D02*
X91469000Y-135636000D01*
X93951000Y-135676000D02*
X96876000Y-135676000D01*
X88544000Y-135676000D02*
X91469000Y-135676000D01*
X93951000Y-135716000D02*
X96904000Y-135716000D01*
X88516000Y-135716000D02*
X91469000Y-135716000D01*
X93951000Y-135756000D02*
X96931000Y-135756000D01*
X88489000Y-135756000D02*
X91469000Y-135756000D01*
X93951000Y-135796000D02*
X96957000Y-135796000D01*
X88463000Y-135796000D02*
X91469000Y-135796000D01*
X93951000Y-135836000D02*
X96983000Y-135836000D01*
X88437000Y-135836000D02*
X91469000Y-135836000D01*
X93951000Y-135876000D02*
X97008000Y-135876000D01*
X88412000Y-135876000D02*
X91469000Y-135876000D01*
X93951000Y-135916000D02*
X97033000Y-135916000D01*
X88387000Y-135916000D02*
X91469000Y-135916000D01*
X93951000Y-135956000D02*
X97057000Y-135956000D01*
X88363000Y-135956000D02*
X91469000Y-135956000D01*
X93951000Y-135996000D02*
X97081000Y-135996000D01*
X88339000Y-135996000D02*
X91469000Y-135996000D01*
X93951000Y-136036000D02*
X97105000Y-136036000D01*
X88315000Y-136036000D02*
X91469000Y-136036000D01*
X93951000Y-136076000D02*
X97127000Y-136076000D01*
X88293000Y-136076000D02*
X91469000Y-136076000D01*
X93951000Y-136116000D02*
X97150000Y-136116000D01*
X88270000Y-136116000D02*
X91469000Y-136116000D01*
X93951000Y-136156000D02*
X97172000Y-136156000D01*
X88248000Y-136156000D02*
X91469000Y-136156000D01*
X93951000Y-136196000D02*
X97193000Y-136196000D01*
X88227000Y-136196000D02*
X91469000Y-136196000D01*
X93951000Y-136236000D02*
X97214000Y-136236000D01*
X88206000Y-136236000D02*
X91469000Y-136236000D01*
X93951000Y-136276000D02*
X97235000Y-136276000D01*
X88185000Y-136276000D02*
X91469000Y-136276000D01*
X93951000Y-136316000D02*
X97255000Y-136316000D01*
X88165000Y-136316000D02*
X91469000Y-136316000D01*
X93951000Y-136356000D02*
X97274000Y-136356000D01*
X88146000Y-136356000D02*
X91469000Y-136356000D01*
X93951000Y-136396000D02*
X97294000Y-136396000D01*
X88126000Y-136396000D02*
X91469000Y-136396000D01*
X93951000Y-136436000D02*
X97313000Y-136436000D01*
X88107000Y-136436000D02*
X91469000Y-136436000D01*
X93951000Y-136476000D02*
X97331000Y-136476000D01*
X88089000Y-136476000D02*
X91469000Y-136476000D01*
X93951000Y-136516000D02*
X97349000Y-136516000D01*
X88071000Y-136516000D02*
X91469000Y-136516000D01*
X93951000Y-136556000D02*
X97367000Y-136556000D01*
X88053000Y-136556000D02*
X91469000Y-136556000D01*
X93951000Y-136596000D02*
X97384000Y-136596000D01*
X88036000Y-136596000D02*
X91469000Y-136596000D01*
X93951000Y-136636000D02*
X97400000Y-136636000D01*
X88020000Y-136636000D02*
X91469000Y-136636000D01*
X93951000Y-136676000D02*
X97417000Y-136676000D01*
X88003000Y-136676000D02*
X91469000Y-136676000D01*
X93951000Y-136716000D02*
X97433000Y-136716000D01*
X87987000Y-136716000D02*
X91469000Y-136716000D01*
X93951000Y-136756000D02*
X97448000Y-136756000D01*
X87972000Y-136756000D02*
X91469000Y-136756000D01*
X93951000Y-136796000D02*
X97464000Y-136796000D01*
X87956000Y-136796000D02*
X91469000Y-136796000D01*
X93951000Y-136836000D02*
X97478000Y-136836000D01*
X87942000Y-136836000D02*
X91469000Y-136836000D01*
X93951000Y-136876000D02*
X97493000Y-136876000D01*
X87927000Y-136876000D02*
X91469000Y-136876000D01*
X93951000Y-136916000D02*
X97507000Y-136916000D01*
X87913000Y-136916000D02*
X91469000Y-136916000D01*
X93951000Y-136956000D02*
X97521000Y-136956000D01*
X87899000Y-136956000D02*
X91469000Y-136956000D01*
X93951000Y-136996000D02*
X97534000Y-136996000D01*
X87886000Y-136996000D02*
X91469000Y-136996000D01*
X93951000Y-137036000D02*
X97547000Y-137036000D01*
X87873000Y-137036000D02*
X91469000Y-137036000D01*
X93951000Y-137076000D02*
X97560000Y-137076000D01*
X87860000Y-137076000D02*
X91469000Y-137076000D01*
X93951000Y-137116000D02*
X97572000Y-137116000D01*
X87848000Y-137116000D02*
X91469000Y-137116000D01*
X93951000Y-137156000D02*
X97584000Y-137156000D01*
X87836000Y-137156000D02*
X91469000Y-137156000D01*
X93951000Y-137196000D02*
X97595000Y-137196000D01*
X87825000Y-137196000D02*
X91469000Y-137196000D01*
X93951000Y-137236000D02*
X97607000Y-137236000D01*
X87813000Y-137236000D02*
X91469000Y-137236000D01*
X93951000Y-137276000D02*
X97617000Y-137276000D01*
X87803000Y-137276000D02*
X91469000Y-137276000D01*
X93951000Y-137316000D02*
X97628000Y-137316000D01*
X87792000Y-137316000D02*
X91469000Y-137316000D01*
X87782000Y-137356000D02*
X97638000Y-137356000D01*
X87772000Y-137396000D02*
X97648000Y-137396000D01*
X87763000Y-137436000D02*
X97657000Y-137436000D01*
X87754000Y-137476000D02*
X97666000Y-137476000D01*
X87745000Y-137516000D02*
X97675000Y-137516000D01*
X87736000Y-137556000D02*
X97684000Y-137556000D01*
X87728000Y-137596000D02*
X97692000Y-137596000D01*
X87720000Y-137636000D02*
X97700000Y-137636000D01*
X87713000Y-137676000D02*
X97707000Y-137676000D01*
X87706000Y-137716000D02*
X97714000Y-137716000D01*
X87699000Y-137756000D02*
X97721000Y-137756000D01*
X87692000Y-137796000D02*
X97728000Y-137796000D01*
X87686000Y-137836000D02*
X97734000Y-137836000D01*
X87680000Y-137876000D02*
X97740000Y-137876000D01*
X87675000Y-137917000D02*
X97745000Y-137917000D01*
X87670000Y-137957000D02*
X97750000Y-137957000D01*
X87665000Y-137997000D02*
X97755000Y-137997000D01*
X87660000Y-138037000D02*
X97760000Y-138037000D01*
X87656000Y-138077000D02*
X97764000Y-138077000D01*
X87652000Y-138117000D02*
X97768000Y-138117000D01*
X87648000Y-138157000D02*
X97772000Y-138157000D01*
X87645000Y-138197000D02*
X97775000Y-138197000D01*
X87642000Y-138237000D02*
X97778000Y-138237000D01*
X87640000Y-138277000D02*
X97780000Y-138277000D01*
X87637000Y-138317000D02*
X97783000Y-138317000D01*
X87635000Y-138357000D02*
X97785000Y-138357000D01*
X87633000Y-138397000D02*
X97787000Y-138397000D01*
X87632000Y-138437000D02*
X97788000Y-138437000D01*
X87631000Y-138477000D02*
X97789000Y-138477000D01*
X87630000Y-138517000D02*
X97790000Y-138517000D01*
X87630000Y-138557000D02*
X97790000Y-138557000D01*
X87630000Y-138597000D02*
X97790000Y-138597000D01*
X97830000Y-138597000D02*
G75*
G03*
X97830000Y-138597000I-5120000J0D01*
G01*
%TO.C,C5*%
X111800000Y-138597000D02*
G75*
G03*
X111800000Y-138597000I-5120000J0D01*
G01*
X101600000Y-138597000D02*
X111760000Y-138597000D01*
X101600000Y-138557000D02*
X111760000Y-138557000D01*
X101600000Y-138517000D02*
X111760000Y-138517000D01*
X101601000Y-138477000D02*
X111759000Y-138477000D01*
X101602000Y-138437000D02*
X111758000Y-138437000D01*
X101603000Y-138397000D02*
X111757000Y-138397000D01*
X101605000Y-138357000D02*
X111755000Y-138357000D01*
X101607000Y-138317000D02*
X111753000Y-138317000D01*
X101610000Y-138277000D02*
X111750000Y-138277000D01*
X101612000Y-138237000D02*
X111748000Y-138237000D01*
X101615000Y-138197000D02*
X111745000Y-138197000D01*
X101618000Y-138157000D02*
X111742000Y-138157000D01*
X101622000Y-138117000D02*
X111738000Y-138117000D01*
X101626000Y-138077000D02*
X111734000Y-138077000D01*
X101630000Y-138037000D02*
X111730000Y-138037000D01*
X101635000Y-137997000D02*
X111725000Y-137997000D01*
X101640000Y-137957000D02*
X111720000Y-137957000D01*
X101645000Y-137917000D02*
X111715000Y-137917000D01*
X101650000Y-137876000D02*
X111710000Y-137876000D01*
X101656000Y-137836000D02*
X111704000Y-137836000D01*
X101662000Y-137796000D02*
X111698000Y-137796000D01*
X101669000Y-137756000D02*
X111691000Y-137756000D01*
X101676000Y-137716000D02*
X111684000Y-137716000D01*
X101683000Y-137676000D02*
X111677000Y-137676000D01*
X101690000Y-137636000D02*
X111670000Y-137636000D01*
X101698000Y-137596000D02*
X111662000Y-137596000D01*
X101706000Y-137556000D02*
X111654000Y-137556000D01*
X101715000Y-137516000D02*
X111645000Y-137516000D01*
X101724000Y-137476000D02*
X111636000Y-137476000D01*
X101733000Y-137436000D02*
X111627000Y-137436000D01*
X101742000Y-137396000D02*
X111618000Y-137396000D01*
X101752000Y-137356000D02*
X111608000Y-137356000D01*
X101762000Y-137316000D02*
X105439000Y-137316000D01*
X107921000Y-137316000D02*
X111598000Y-137316000D01*
X101773000Y-137276000D02*
X105439000Y-137276000D01*
X107921000Y-137276000D02*
X111587000Y-137276000D01*
X101783000Y-137236000D02*
X105439000Y-137236000D01*
X107921000Y-137236000D02*
X111577000Y-137236000D01*
X101795000Y-137196000D02*
X105439000Y-137196000D01*
X107921000Y-137196000D02*
X111565000Y-137196000D01*
X101806000Y-137156000D02*
X105439000Y-137156000D01*
X107921000Y-137156000D02*
X111554000Y-137156000D01*
X101818000Y-137116000D02*
X105439000Y-137116000D01*
X107921000Y-137116000D02*
X111542000Y-137116000D01*
X101830000Y-137076000D02*
X105439000Y-137076000D01*
X107921000Y-137076000D02*
X111530000Y-137076000D01*
X101843000Y-137036000D02*
X105439000Y-137036000D01*
X107921000Y-137036000D02*
X111517000Y-137036000D01*
X101856000Y-136996000D02*
X105439000Y-136996000D01*
X107921000Y-136996000D02*
X111504000Y-136996000D01*
X101869000Y-136956000D02*
X105439000Y-136956000D01*
X107921000Y-136956000D02*
X111491000Y-136956000D01*
X101883000Y-136916000D02*
X105439000Y-136916000D01*
X107921000Y-136916000D02*
X111477000Y-136916000D01*
X101897000Y-136876000D02*
X105439000Y-136876000D01*
X107921000Y-136876000D02*
X111463000Y-136876000D01*
X101912000Y-136836000D02*
X105439000Y-136836000D01*
X107921000Y-136836000D02*
X111448000Y-136836000D01*
X101926000Y-136796000D02*
X105439000Y-136796000D01*
X107921000Y-136796000D02*
X111434000Y-136796000D01*
X101942000Y-136756000D02*
X105439000Y-136756000D01*
X107921000Y-136756000D02*
X111418000Y-136756000D01*
X101957000Y-136716000D02*
X105439000Y-136716000D01*
X107921000Y-136716000D02*
X111403000Y-136716000D01*
X101973000Y-136676000D02*
X105439000Y-136676000D01*
X107921000Y-136676000D02*
X111387000Y-136676000D01*
X101990000Y-136636000D02*
X105439000Y-136636000D01*
X107921000Y-136636000D02*
X111370000Y-136636000D01*
X102006000Y-136596000D02*
X105439000Y-136596000D01*
X107921000Y-136596000D02*
X111354000Y-136596000D01*
X102023000Y-136556000D02*
X105439000Y-136556000D01*
X107921000Y-136556000D02*
X111337000Y-136556000D01*
X102041000Y-136516000D02*
X105439000Y-136516000D01*
X107921000Y-136516000D02*
X111319000Y-136516000D01*
X102059000Y-136476000D02*
X105439000Y-136476000D01*
X107921000Y-136476000D02*
X111301000Y-136476000D01*
X102077000Y-136436000D02*
X105439000Y-136436000D01*
X107921000Y-136436000D02*
X111283000Y-136436000D01*
X102096000Y-136396000D02*
X105439000Y-136396000D01*
X107921000Y-136396000D02*
X111264000Y-136396000D01*
X102116000Y-136356000D02*
X105439000Y-136356000D01*
X107921000Y-136356000D02*
X111244000Y-136356000D01*
X102135000Y-136316000D02*
X105439000Y-136316000D01*
X107921000Y-136316000D02*
X111225000Y-136316000D01*
X102155000Y-136276000D02*
X105439000Y-136276000D01*
X107921000Y-136276000D02*
X111205000Y-136276000D01*
X102176000Y-136236000D02*
X105439000Y-136236000D01*
X107921000Y-136236000D02*
X111184000Y-136236000D01*
X102197000Y-136196000D02*
X105439000Y-136196000D01*
X107921000Y-136196000D02*
X111163000Y-136196000D01*
X102218000Y-136156000D02*
X105439000Y-136156000D01*
X107921000Y-136156000D02*
X111142000Y-136156000D01*
X102240000Y-136116000D02*
X105439000Y-136116000D01*
X107921000Y-136116000D02*
X111120000Y-136116000D01*
X102263000Y-136076000D02*
X105439000Y-136076000D01*
X107921000Y-136076000D02*
X111097000Y-136076000D01*
X102285000Y-136036000D02*
X105439000Y-136036000D01*
X107921000Y-136036000D02*
X111075000Y-136036000D01*
X102309000Y-135996000D02*
X105439000Y-135996000D01*
X107921000Y-135996000D02*
X111051000Y-135996000D01*
X102333000Y-135956000D02*
X105439000Y-135956000D01*
X107921000Y-135956000D02*
X111027000Y-135956000D01*
X102357000Y-135916000D02*
X105439000Y-135916000D01*
X107921000Y-135916000D02*
X111003000Y-135916000D01*
X102382000Y-135876000D02*
X105439000Y-135876000D01*
X107921000Y-135876000D02*
X110978000Y-135876000D01*
X102407000Y-135836000D02*
X105439000Y-135836000D01*
X107921000Y-135836000D02*
X110953000Y-135836000D01*
X102433000Y-135796000D02*
X105439000Y-135796000D01*
X107921000Y-135796000D02*
X110927000Y-135796000D01*
X102459000Y-135756000D02*
X105439000Y-135756000D01*
X107921000Y-135756000D02*
X110901000Y-135756000D01*
X102486000Y-135716000D02*
X105439000Y-135716000D01*
X107921000Y-135716000D02*
X110874000Y-135716000D01*
X102514000Y-135676000D02*
X105439000Y-135676000D01*
X107921000Y-135676000D02*
X110846000Y-135676000D01*
X102542000Y-135636000D02*
X105439000Y-135636000D01*
X107921000Y-135636000D02*
X110818000Y-135636000D01*
X102570000Y-135596000D02*
X105439000Y-135596000D01*
X107921000Y-135596000D02*
X110790000Y-135596000D01*
X102600000Y-135556000D02*
X105439000Y-135556000D01*
X107921000Y-135556000D02*
X110760000Y-135556000D01*
X102630000Y-135516000D02*
X105439000Y-135516000D01*
X107921000Y-135516000D02*
X110730000Y-135516000D01*
X102660000Y-135476000D02*
X105439000Y-135476000D01*
X107921000Y-135476000D02*
X110700000Y-135476000D01*
X102691000Y-135436000D02*
X105439000Y-135436000D01*
X107921000Y-135436000D02*
X110669000Y-135436000D01*
X102723000Y-135396000D02*
X105439000Y-135396000D01*
X107921000Y-135396000D02*
X110637000Y-135396000D01*
X102755000Y-135356000D02*
X105439000Y-135356000D01*
X107921000Y-135356000D02*
X110605000Y-135356000D01*
X102788000Y-135316000D02*
X105439000Y-135316000D01*
X107921000Y-135316000D02*
X110572000Y-135316000D01*
X102822000Y-135276000D02*
X105439000Y-135276000D01*
X107921000Y-135276000D02*
X110538000Y-135276000D01*
X102856000Y-135236000D02*
X105439000Y-135236000D01*
X107921000Y-135236000D02*
X110504000Y-135236000D01*
X102891000Y-135196000D02*
X105439000Y-135196000D01*
X107921000Y-135196000D02*
X110469000Y-135196000D01*
X102927000Y-135156000D02*
X105439000Y-135156000D01*
X107921000Y-135156000D02*
X110433000Y-135156000D01*
X102964000Y-135116000D02*
X105439000Y-135116000D01*
X107921000Y-135116000D02*
X110396000Y-135116000D01*
X103001000Y-135076000D02*
X105439000Y-135076000D01*
X107921000Y-135076000D02*
X110359000Y-135076000D01*
X103040000Y-135036000D02*
X105439000Y-135036000D01*
X107921000Y-135036000D02*
X110320000Y-135036000D01*
X103079000Y-134996000D02*
X105439000Y-134996000D01*
X107921000Y-134996000D02*
X110281000Y-134996000D01*
X103119000Y-134956000D02*
X105439000Y-134956000D01*
X107921000Y-134956000D02*
X110241000Y-134956000D01*
X103160000Y-134916000D02*
X105439000Y-134916000D01*
X107921000Y-134916000D02*
X110200000Y-134916000D01*
X103202000Y-134876000D02*
X105439000Y-134876000D01*
X107921000Y-134876000D02*
X110158000Y-134876000D01*
X103244000Y-134836000D02*
X110116000Y-134836000D01*
X103288000Y-134796000D02*
X110072000Y-134796000D01*
X103333000Y-134756000D02*
X110027000Y-134756000D01*
X103379000Y-134716000D02*
X109981000Y-134716000D01*
X103426000Y-134676000D02*
X109934000Y-134676000D01*
X103474000Y-134636000D02*
X109886000Y-134636000D01*
X103524000Y-134596000D02*
X109836000Y-134596000D01*
X103574000Y-134556000D02*
X109786000Y-134556000D01*
X103626000Y-134516000D02*
X109734000Y-134516000D01*
X103680000Y-134476000D02*
X109680000Y-134476000D01*
X103735000Y-134436000D02*
X109625000Y-134436000D01*
X103791000Y-134396000D02*
X109569000Y-134396000D01*
X103850000Y-134356000D02*
X109510000Y-134356000D01*
X103910000Y-134316000D02*
X109450000Y-134316000D01*
X103971000Y-134276000D02*
X109389000Y-134276000D01*
X104035000Y-134236000D02*
X109325000Y-134236000D01*
X104101000Y-134196000D02*
X109259000Y-134196000D01*
X104170000Y-134156000D02*
X109190000Y-134156000D01*
X104241000Y-134116000D02*
X109119000Y-134116000D01*
X104315000Y-134076000D02*
X109045000Y-134076000D01*
X104391000Y-134036000D02*
X108969000Y-134036000D01*
X104471000Y-133996000D02*
X108889000Y-133996000D01*
X104555000Y-133956000D02*
X108805000Y-133956000D01*
X104643000Y-133916000D02*
X108717000Y-133916000D01*
X104736000Y-133876000D02*
X108624000Y-133876000D01*
X104834000Y-133836000D02*
X108526000Y-133836000D01*
X104938000Y-133796000D02*
X108422000Y-133796000D01*
X105050000Y-133756000D02*
X108310000Y-133756000D01*
X105170000Y-133716000D02*
X108190000Y-133716000D01*
X105302000Y-133676000D02*
X108058000Y-133676000D01*
X105450000Y-133636000D02*
X107910000Y-133636000D01*
X105618000Y-133596000D02*
X107742000Y-133596000D01*
X105818000Y-133556000D02*
X107542000Y-133556000D01*
X106081000Y-133516000D02*
X107279000Y-133516000D01*
X103805000Y-144076646D02*
X103805000Y-143076646D01*
X103305000Y-143576646D02*
X104305000Y-143576646D01*
%TO.C,C6*%
X116005000Y-143576646D02*
X117005000Y-143576646D01*
X116505000Y-144076646D02*
X116505000Y-143076646D01*
X118781000Y-133516000D02*
X119979000Y-133516000D01*
X118518000Y-133556000D02*
X120242000Y-133556000D01*
X118318000Y-133596000D02*
X120442000Y-133596000D01*
X118150000Y-133636000D02*
X120610000Y-133636000D01*
X118002000Y-133676000D02*
X120758000Y-133676000D01*
X117870000Y-133716000D02*
X120890000Y-133716000D01*
X117750000Y-133756000D02*
X121010000Y-133756000D01*
X117638000Y-133796000D02*
X121122000Y-133796000D01*
X117534000Y-133836000D02*
X121226000Y-133836000D01*
X117436000Y-133876000D02*
X121324000Y-133876000D01*
X117343000Y-133916000D02*
X121417000Y-133916000D01*
X117255000Y-133956000D02*
X121505000Y-133956000D01*
X117171000Y-133996000D02*
X121589000Y-133996000D01*
X117091000Y-134036000D02*
X121669000Y-134036000D01*
X117015000Y-134076000D02*
X121745000Y-134076000D01*
X116941000Y-134116000D02*
X121819000Y-134116000D01*
X116870000Y-134156000D02*
X121890000Y-134156000D01*
X116801000Y-134196000D02*
X121959000Y-134196000D01*
X116735000Y-134236000D02*
X122025000Y-134236000D01*
X116671000Y-134276000D02*
X122089000Y-134276000D01*
X116610000Y-134316000D02*
X122150000Y-134316000D01*
X116550000Y-134356000D02*
X122210000Y-134356000D01*
X116491000Y-134396000D02*
X122269000Y-134396000D01*
X116435000Y-134436000D02*
X122325000Y-134436000D01*
X116380000Y-134476000D02*
X122380000Y-134476000D01*
X116326000Y-134516000D02*
X122434000Y-134516000D01*
X116274000Y-134556000D02*
X122486000Y-134556000D01*
X116224000Y-134596000D02*
X122536000Y-134596000D01*
X116174000Y-134636000D02*
X122586000Y-134636000D01*
X116126000Y-134676000D02*
X122634000Y-134676000D01*
X116079000Y-134716000D02*
X122681000Y-134716000D01*
X116033000Y-134756000D02*
X122727000Y-134756000D01*
X115988000Y-134796000D02*
X122772000Y-134796000D01*
X115944000Y-134836000D02*
X122816000Y-134836000D01*
X120621000Y-134876000D02*
X122858000Y-134876000D01*
X115902000Y-134876000D02*
X118139000Y-134876000D01*
X120621000Y-134916000D02*
X122900000Y-134916000D01*
X115860000Y-134916000D02*
X118139000Y-134916000D01*
X120621000Y-134956000D02*
X122941000Y-134956000D01*
X115819000Y-134956000D02*
X118139000Y-134956000D01*
X120621000Y-134996000D02*
X122981000Y-134996000D01*
X115779000Y-134996000D02*
X118139000Y-134996000D01*
X120621000Y-135036000D02*
X123020000Y-135036000D01*
X115740000Y-135036000D02*
X118139000Y-135036000D01*
X120621000Y-135076000D02*
X123059000Y-135076000D01*
X115701000Y-135076000D02*
X118139000Y-135076000D01*
X120621000Y-135116000D02*
X123096000Y-135116000D01*
X115664000Y-135116000D02*
X118139000Y-135116000D01*
X120621000Y-135156000D02*
X123133000Y-135156000D01*
X115627000Y-135156000D02*
X118139000Y-135156000D01*
X120621000Y-135196000D02*
X123169000Y-135196000D01*
X115591000Y-135196000D02*
X118139000Y-135196000D01*
X120621000Y-135236000D02*
X123204000Y-135236000D01*
X115556000Y-135236000D02*
X118139000Y-135236000D01*
X120621000Y-135276000D02*
X123238000Y-135276000D01*
X115522000Y-135276000D02*
X118139000Y-135276000D01*
X120621000Y-135316000D02*
X123272000Y-135316000D01*
X115488000Y-135316000D02*
X118139000Y-135316000D01*
X120621000Y-135356000D02*
X123305000Y-135356000D01*
X115455000Y-135356000D02*
X118139000Y-135356000D01*
X120621000Y-135396000D02*
X123337000Y-135396000D01*
X115423000Y-135396000D02*
X118139000Y-135396000D01*
X120621000Y-135436000D02*
X123369000Y-135436000D01*
X115391000Y-135436000D02*
X118139000Y-135436000D01*
X120621000Y-135476000D02*
X123400000Y-135476000D01*
X115360000Y-135476000D02*
X118139000Y-135476000D01*
X120621000Y-135516000D02*
X123430000Y-135516000D01*
X115330000Y-135516000D02*
X118139000Y-135516000D01*
X120621000Y-135556000D02*
X123460000Y-135556000D01*
X115300000Y-135556000D02*
X118139000Y-135556000D01*
X120621000Y-135596000D02*
X123490000Y-135596000D01*
X115270000Y-135596000D02*
X118139000Y-135596000D01*
X120621000Y-135636000D02*
X123518000Y-135636000D01*
X115242000Y-135636000D02*
X118139000Y-135636000D01*
X120621000Y-135676000D02*
X123546000Y-135676000D01*
X115214000Y-135676000D02*
X118139000Y-135676000D01*
X120621000Y-135716000D02*
X123574000Y-135716000D01*
X115186000Y-135716000D02*
X118139000Y-135716000D01*
X120621000Y-135756000D02*
X123601000Y-135756000D01*
X115159000Y-135756000D02*
X118139000Y-135756000D01*
X120621000Y-135796000D02*
X123627000Y-135796000D01*
X115133000Y-135796000D02*
X118139000Y-135796000D01*
X120621000Y-135836000D02*
X123653000Y-135836000D01*
X115107000Y-135836000D02*
X118139000Y-135836000D01*
X120621000Y-135876000D02*
X123678000Y-135876000D01*
X115082000Y-135876000D02*
X118139000Y-135876000D01*
X120621000Y-135916000D02*
X123703000Y-135916000D01*
X115057000Y-135916000D02*
X118139000Y-135916000D01*
X120621000Y-135956000D02*
X123727000Y-135956000D01*
X115033000Y-135956000D02*
X118139000Y-135956000D01*
X120621000Y-135996000D02*
X123751000Y-135996000D01*
X115009000Y-135996000D02*
X118139000Y-135996000D01*
X120621000Y-136036000D02*
X123775000Y-136036000D01*
X114985000Y-136036000D02*
X118139000Y-136036000D01*
X120621000Y-136076000D02*
X123797000Y-136076000D01*
X114963000Y-136076000D02*
X118139000Y-136076000D01*
X120621000Y-136116000D02*
X123820000Y-136116000D01*
X114940000Y-136116000D02*
X118139000Y-136116000D01*
X120621000Y-136156000D02*
X123842000Y-136156000D01*
X114918000Y-136156000D02*
X118139000Y-136156000D01*
X120621000Y-136196000D02*
X123863000Y-136196000D01*
X114897000Y-136196000D02*
X118139000Y-136196000D01*
X120621000Y-136236000D02*
X123884000Y-136236000D01*
X114876000Y-136236000D02*
X118139000Y-136236000D01*
X120621000Y-136276000D02*
X123905000Y-136276000D01*
X114855000Y-136276000D02*
X118139000Y-136276000D01*
X120621000Y-136316000D02*
X123925000Y-136316000D01*
X114835000Y-136316000D02*
X118139000Y-136316000D01*
X120621000Y-136356000D02*
X123944000Y-136356000D01*
X114816000Y-136356000D02*
X118139000Y-136356000D01*
X120621000Y-136396000D02*
X123964000Y-136396000D01*
X114796000Y-136396000D02*
X118139000Y-136396000D01*
X120621000Y-136436000D02*
X123983000Y-136436000D01*
X114777000Y-136436000D02*
X118139000Y-136436000D01*
X120621000Y-136476000D02*
X124001000Y-136476000D01*
X114759000Y-136476000D02*
X118139000Y-136476000D01*
X120621000Y-136516000D02*
X124019000Y-136516000D01*
X114741000Y-136516000D02*
X118139000Y-136516000D01*
X120621000Y-136556000D02*
X124037000Y-136556000D01*
X114723000Y-136556000D02*
X118139000Y-136556000D01*
X120621000Y-136596000D02*
X124054000Y-136596000D01*
X114706000Y-136596000D02*
X118139000Y-136596000D01*
X120621000Y-136636000D02*
X124070000Y-136636000D01*
X114690000Y-136636000D02*
X118139000Y-136636000D01*
X120621000Y-136676000D02*
X124087000Y-136676000D01*
X114673000Y-136676000D02*
X118139000Y-136676000D01*
X120621000Y-136716000D02*
X124103000Y-136716000D01*
X114657000Y-136716000D02*
X118139000Y-136716000D01*
X120621000Y-136756000D02*
X124118000Y-136756000D01*
X114642000Y-136756000D02*
X118139000Y-136756000D01*
X120621000Y-136796000D02*
X124134000Y-136796000D01*
X114626000Y-136796000D02*
X118139000Y-136796000D01*
X120621000Y-136836000D02*
X124148000Y-136836000D01*
X114612000Y-136836000D02*
X118139000Y-136836000D01*
X120621000Y-136876000D02*
X124163000Y-136876000D01*
X114597000Y-136876000D02*
X118139000Y-136876000D01*
X120621000Y-136916000D02*
X124177000Y-136916000D01*
X114583000Y-136916000D02*
X118139000Y-136916000D01*
X120621000Y-136956000D02*
X124191000Y-136956000D01*
X114569000Y-136956000D02*
X118139000Y-136956000D01*
X120621000Y-136996000D02*
X124204000Y-136996000D01*
X114556000Y-136996000D02*
X118139000Y-136996000D01*
X120621000Y-137036000D02*
X124217000Y-137036000D01*
X114543000Y-137036000D02*
X118139000Y-137036000D01*
X120621000Y-137076000D02*
X124230000Y-137076000D01*
X114530000Y-137076000D02*
X118139000Y-137076000D01*
X120621000Y-137116000D02*
X124242000Y-137116000D01*
X114518000Y-137116000D02*
X118139000Y-137116000D01*
X120621000Y-137156000D02*
X124254000Y-137156000D01*
X114506000Y-137156000D02*
X118139000Y-137156000D01*
X120621000Y-137196000D02*
X124265000Y-137196000D01*
X114495000Y-137196000D02*
X118139000Y-137196000D01*
X120621000Y-137236000D02*
X124277000Y-137236000D01*
X114483000Y-137236000D02*
X118139000Y-137236000D01*
X120621000Y-137276000D02*
X124287000Y-137276000D01*
X114473000Y-137276000D02*
X118139000Y-137276000D01*
X120621000Y-137316000D02*
X124298000Y-137316000D01*
X114462000Y-137316000D02*
X118139000Y-137316000D01*
X114452000Y-137356000D02*
X124308000Y-137356000D01*
X114442000Y-137396000D02*
X124318000Y-137396000D01*
X114433000Y-137436000D02*
X124327000Y-137436000D01*
X114424000Y-137476000D02*
X124336000Y-137476000D01*
X114415000Y-137516000D02*
X124345000Y-137516000D01*
X114406000Y-137556000D02*
X124354000Y-137556000D01*
X114398000Y-137596000D02*
X124362000Y-137596000D01*
X114390000Y-137636000D02*
X124370000Y-137636000D01*
X114383000Y-137676000D02*
X124377000Y-137676000D01*
X114376000Y-137716000D02*
X124384000Y-137716000D01*
X114369000Y-137756000D02*
X124391000Y-137756000D01*
X114362000Y-137796000D02*
X124398000Y-137796000D01*
X114356000Y-137836000D02*
X124404000Y-137836000D01*
X114350000Y-137876000D02*
X124410000Y-137876000D01*
X114345000Y-137917000D02*
X124415000Y-137917000D01*
X114340000Y-137957000D02*
X124420000Y-137957000D01*
X114335000Y-137997000D02*
X124425000Y-137997000D01*
X114330000Y-138037000D02*
X124430000Y-138037000D01*
X114326000Y-138077000D02*
X124434000Y-138077000D01*
X114322000Y-138117000D02*
X124438000Y-138117000D01*
X114318000Y-138157000D02*
X124442000Y-138157000D01*
X114315000Y-138197000D02*
X124445000Y-138197000D01*
X114312000Y-138237000D02*
X124448000Y-138237000D01*
X114310000Y-138277000D02*
X124450000Y-138277000D01*
X114307000Y-138317000D02*
X124453000Y-138317000D01*
X114305000Y-138357000D02*
X124455000Y-138357000D01*
X114303000Y-138397000D02*
X124457000Y-138397000D01*
X114302000Y-138437000D02*
X124458000Y-138437000D01*
X114301000Y-138477000D02*
X124459000Y-138477000D01*
X114300000Y-138517000D02*
X124460000Y-138517000D01*
X114300000Y-138557000D02*
X124460000Y-138557000D01*
X114300000Y-138597000D02*
X124460000Y-138597000D01*
X124500000Y-138597000D02*
G75*
G03*
X124500000Y-138597000I-5120000J0D01*
G01*
%TO.C,J6*%
X140675054Y-121386299D02*
X132352470Y-115558762D01*
X139946612Y-122426622D02*
X144317265Y-116184683D01*
X144317265Y-116184683D02*
X135994680Y-110357147D01*
X135994680Y-110357147D02*
X131624028Y-116599085D01*
X131624028Y-116599085D02*
X139946612Y-122426622D01*
%TO.C,C7*%
X80952801Y-78484000D02*
X80952801Y-78084000D01*
X81152801Y-78284000D02*
X80752801Y-78284000D01*
X76802000Y-77459000D02*
X76802000Y-76719000D01*
X76842000Y-77626000D02*
X76842000Y-76552000D01*
X76882000Y-77753000D02*
X76882000Y-76425000D01*
X76922000Y-77857000D02*
X76922000Y-76321000D01*
X76962000Y-77948000D02*
X76962000Y-76230000D01*
X77002000Y-78029000D02*
X77002000Y-76149000D01*
X77042000Y-78102000D02*
X77042000Y-76076000D01*
X77082000Y-76249000D02*
X77082000Y-76009000D01*
X77082000Y-78169000D02*
X77082000Y-77929000D01*
X77122000Y-76249000D02*
X77122000Y-75947000D01*
X77122000Y-78231000D02*
X77122000Y-77929000D01*
X77162000Y-76249000D02*
X77162000Y-75889000D01*
X77162000Y-78289000D02*
X77162000Y-77929000D01*
X77202000Y-76249000D02*
X77202000Y-75835000D01*
X77202000Y-78343000D02*
X77202000Y-77929000D01*
X77242000Y-76249000D02*
X77242000Y-75785000D01*
X77242000Y-78393000D02*
X77242000Y-77929000D01*
X77282000Y-76249000D02*
X77282000Y-75738000D01*
X77282000Y-78440000D02*
X77282000Y-77929000D01*
X77322000Y-76249000D02*
X77322000Y-75693000D01*
X77322000Y-78485000D02*
X77322000Y-77929000D01*
X77362000Y-76249000D02*
X77362000Y-75651000D01*
X77362000Y-78527000D02*
X77362000Y-77929000D01*
X77402000Y-76249000D02*
X77402000Y-75611000D01*
X77402000Y-78567000D02*
X77402000Y-77929000D01*
X77442000Y-76249000D02*
X77442000Y-75573000D01*
X77442000Y-78605000D02*
X77442000Y-77929000D01*
X77482000Y-76249000D02*
X77482000Y-75537000D01*
X77482000Y-78641000D02*
X77482000Y-77929000D01*
X77522000Y-76249000D02*
X77522000Y-75502000D01*
X77522000Y-78676000D02*
X77522000Y-77929000D01*
X77562000Y-76249000D02*
X77562000Y-75470000D01*
X77562000Y-78708000D02*
X77562000Y-77929000D01*
X77602000Y-76249000D02*
X77602000Y-75439000D01*
X77602000Y-78739000D02*
X77602000Y-77929000D01*
X77642000Y-76249000D02*
X77642000Y-75409000D01*
X77642000Y-78769000D02*
X77642000Y-77929000D01*
X77682000Y-76249000D02*
X77682000Y-75381000D01*
X77682000Y-78797000D02*
X77682000Y-77929000D01*
X77722000Y-76249000D02*
X77722000Y-75354000D01*
X77722000Y-78824000D02*
X77722000Y-77929000D01*
X77762000Y-76249000D02*
X77762000Y-75329000D01*
X77762000Y-78849000D02*
X77762000Y-77929000D01*
X77802000Y-76249000D02*
X77802000Y-75304000D01*
X77802000Y-78874000D02*
X77802000Y-77929000D01*
X77842000Y-76249000D02*
X77842000Y-75281000D01*
X77842000Y-78897000D02*
X77842000Y-77929000D01*
X77882000Y-76249000D02*
X77882000Y-75259000D01*
X77882000Y-78919000D02*
X77882000Y-77929000D01*
X77922000Y-76249000D02*
X77922000Y-75238000D01*
X77922000Y-78940000D02*
X77922000Y-77929000D01*
X77962000Y-76249000D02*
X77962000Y-75219000D01*
X77962000Y-78959000D02*
X77962000Y-77929000D01*
X78002000Y-76249000D02*
X78002000Y-75200000D01*
X78002000Y-78978000D02*
X78002000Y-77929000D01*
X78042000Y-76249000D02*
X78042000Y-75182000D01*
X78042000Y-78996000D02*
X78042000Y-77929000D01*
X78082000Y-76249000D02*
X78082000Y-75165000D01*
X78082000Y-79013000D02*
X78082000Y-77929000D01*
X78122000Y-76249000D02*
X78122000Y-75149000D01*
X78122000Y-79029000D02*
X78122000Y-77929000D01*
X78162000Y-76249000D02*
X78162000Y-75135000D01*
X78162000Y-79043000D02*
X78162000Y-77929000D01*
X78203000Y-76249000D02*
X78203000Y-75121000D01*
X78203000Y-79057000D02*
X78203000Y-77929000D01*
X78243000Y-76249000D02*
X78243000Y-75107000D01*
X78243000Y-79071000D02*
X78243000Y-77929000D01*
X78283000Y-76249000D02*
X78283000Y-75095000D01*
X78283000Y-79083000D02*
X78283000Y-77929000D01*
X78323000Y-76249000D02*
X78323000Y-75084000D01*
X78323000Y-79094000D02*
X78323000Y-77929000D01*
X78363000Y-76249000D02*
X78363000Y-75073000D01*
X78363000Y-79105000D02*
X78363000Y-77929000D01*
X78403000Y-76249000D02*
X78403000Y-75064000D01*
X78403000Y-79114000D02*
X78403000Y-77929000D01*
X78443000Y-76249000D02*
X78443000Y-75055000D01*
X78443000Y-79123000D02*
X78443000Y-77929000D01*
X78483000Y-76249000D02*
X78483000Y-75047000D01*
X78483000Y-79131000D02*
X78483000Y-77929000D01*
X78523000Y-76249000D02*
X78523000Y-75039000D01*
X78523000Y-79139000D02*
X78523000Y-77929000D01*
X78563000Y-76249000D02*
X78563000Y-75033000D01*
X78563000Y-79145000D02*
X78563000Y-77929000D01*
X78603000Y-76249000D02*
X78603000Y-75027000D01*
X78603000Y-79151000D02*
X78603000Y-77929000D01*
X78643000Y-76249000D02*
X78643000Y-75022000D01*
X78643000Y-79156000D02*
X78643000Y-77929000D01*
X78683000Y-76249000D02*
X78683000Y-75018000D01*
X78683000Y-79160000D02*
X78683000Y-77929000D01*
X78723000Y-79163000D02*
X78723000Y-75015000D01*
X78763000Y-79166000D02*
X78763000Y-75012000D01*
X78803000Y-79168000D02*
X78803000Y-75010000D01*
X78843000Y-79169000D02*
X78843000Y-75009000D01*
X78883000Y-79169000D02*
X78883000Y-75009000D01*
X81003000Y-77089000D02*
G75*
G03*
X81003000Y-77089000I-2120000J0D01*
G01*
%TO.C,J7*%
X131396000Y-74475000D02*
X130146000Y-74475000D01*
X131396000Y-75725000D02*
X131396000Y-74475000D01*
X126986000Y-81835000D02*
X127486000Y-81835000D01*
X127486000Y-81935000D02*
X126986000Y-81935000D01*
X127486000Y-81735000D02*
X127486000Y-81935000D01*
X126986000Y-81735000D02*
X127486000Y-81735000D01*
X126986000Y-79835000D02*
X127486000Y-79835000D01*
X127486000Y-79935000D02*
X126986000Y-79935000D01*
X127486000Y-79735000D02*
X127486000Y-79935000D01*
X126986000Y-79735000D02*
X127486000Y-79735000D01*
X126986000Y-77835000D02*
X127486000Y-77835000D01*
X127486000Y-77935000D02*
X126986000Y-77935000D01*
X127486000Y-77735000D02*
X127486000Y-77935000D01*
X126986000Y-77735000D02*
X127486000Y-77735000D01*
X128486000Y-84895000D02*
X128486000Y-84285000D01*
X129786000Y-84895000D02*
X129786000Y-84285000D01*
X128486000Y-74775000D02*
X128486000Y-75385000D01*
X129786000Y-74775000D02*
X129786000Y-75385000D01*
X130486000Y-82335000D02*
X131096000Y-82335000D01*
X130486000Y-84285000D02*
X130486000Y-82335000D01*
X126986000Y-84285000D02*
X130486000Y-84285000D01*
X126986000Y-75385000D02*
X126986000Y-84285000D01*
X130486000Y-75385000D02*
X126986000Y-75385000D01*
X130486000Y-77335000D02*
X130486000Y-75385000D01*
X131096000Y-77335000D02*
X130486000Y-77335000D01*
X131196000Y-76535000D02*
X131196000Y-76235000D01*
X131296000Y-76235000D02*
X131096000Y-76235000D01*
X131296000Y-76535000D02*
X131296000Y-76235000D01*
X131096000Y-76535000D02*
X131296000Y-76535000D01*
X131096000Y-84895000D02*
X131096000Y-74775000D01*
X126376000Y-84895000D02*
X131096000Y-84895000D01*
X126376000Y-74775000D02*
X126376000Y-84895000D01*
X131096000Y-74775000D02*
X126376000Y-74775000D01*
%TO.C,J8*%
X131396000Y-89080000D02*
X130146000Y-89080000D01*
X131396000Y-90330000D02*
X131396000Y-89080000D01*
X126986000Y-98440000D02*
X127486000Y-98440000D01*
X127486000Y-98540000D02*
X126986000Y-98540000D01*
X127486000Y-98340000D02*
X127486000Y-98540000D01*
X126986000Y-98340000D02*
X127486000Y-98340000D01*
X126986000Y-96440000D02*
X127486000Y-96440000D01*
X127486000Y-96540000D02*
X126986000Y-96540000D01*
X127486000Y-96340000D02*
X127486000Y-96540000D01*
X126986000Y-96340000D02*
X127486000Y-96340000D01*
X126986000Y-94440000D02*
X127486000Y-94440000D01*
X127486000Y-94540000D02*
X126986000Y-94540000D01*
X127486000Y-94340000D02*
X127486000Y-94540000D01*
X126986000Y-94340000D02*
X127486000Y-94340000D01*
X126986000Y-92440000D02*
X127486000Y-92440000D01*
X127486000Y-92540000D02*
X126986000Y-92540000D01*
X127486000Y-92340000D02*
X127486000Y-92540000D01*
X126986000Y-92340000D02*
X127486000Y-92340000D01*
X128486000Y-101500000D02*
X128486000Y-100890000D01*
X129786000Y-101500000D02*
X129786000Y-100890000D01*
X128486000Y-89380000D02*
X128486000Y-89990000D01*
X129786000Y-89380000D02*
X129786000Y-89990000D01*
X130486000Y-98940000D02*
X131096000Y-98940000D01*
X130486000Y-100890000D02*
X130486000Y-98940000D01*
X126986000Y-100890000D02*
X130486000Y-100890000D01*
X126986000Y-89990000D02*
X126986000Y-100890000D01*
X130486000Y-89990000D02*
X126986000Y-89990000D01*
X130486000Y-91940000D02*
X130486000Y-89990000D01*
X131096000Y-91940000D02*
X130486000Y-91940000D01*
X131196000Y-91140000D02*
X131196000Y-90840000D01*
X131296000Y-90840000D02*
X131096000Y-90840000D01*
X131296000Y-91140000D02*
X131296000Y-90840000D01*
X131096000Y-91140000D02*
X131296000Y-91140000D01*
X131096000Y-101500000D02*
X131096000Y-89380000D01*
X126376000Y-101500000D02*
X131096000Y-101500000D01*
X126376000Y-89380000D02*
X126376000Y-101500000D01*
X131096000Y-89380000D02*
X126376000Y-89380000D01*
%TO.C,REF\u002A\u002A*%
D11*
X49541727Y-126700264D02*
X49208394Y-126224074D01*
X48970299Y-126700264D02*
X48970299Y-125700264D01*
X49351251Y-125700264D01*
X49446489Y-125747884D01*
X49494108Y-125795503D01*
X49541727Y-125890741D01*
X49541727Y-126033598D01*
X49494108Y-126128836D01*
X49446489Y-126176455D01*
X49351251Y-126224074D01*
X48970299Y-126224074D01*
X49970299Y-126176455D02*
X50303632Y-126176455D01*
X50446489Y-126700264D02*
X49970299Y-126700264D01*
X49970299Y-125700264D01*
X50446489Y-125700264D01*
X51208394Y-126176455D02*
X50875061Y-126176455D01*
X50875061Y-126700264D02*
X50875061Y-125700264D01*
X51351251Y-125700264D01*
X51875061Y-125700264D02*
X51875061Y-125938360D01*
X51636965Y-125843122D02*
X51875061Y-125938360D01*
X52113156Y-125843122D01*
X51732203Y-126128836D02*
X51875061Y-125938360D01*
X52017918Y-126128836D01*
X52636965Y-125700264D02*
X52636965Y-125938360D01*
X52398870Y-125843122D02*
X52636965Y-125938360D01*
X52875061Y-125843122D01*
X52494108Y-126128836D02*
X52636965Y-125938360D01*
X52779822Y-126128836D01*
X66992666Y-53284380D02*
X66659333Y-52808190D01*
X66421238Y-53284380D02*
X66421238Y-52284380D01*
X66802190Y-52284380D01*
X66897428Y-52332000D01*
X66945047Y-52379619D01*
X66992666Y-52474857D01*
X66992666Y-52617714D01*
X66945047Y-52712952D01*
X66897428Y-52760571D01*
X66802190Y-52808190D01*
X66421238Y-52808190D01*
X67421238Y-52760571D02*
X67754571Y-52760571D01*
X67897428Y-53284380D02*
X67421238Y-53284380D01*
X67421238Y-52284380D01*
X67897428Y-52284380D01*
X68659333Y-52760571D02*
X68326000Y-52760571D01*
X68326000Y-53284380D02*
X68326000Y-52284380D01*
X68802190Y-52284380D01*
X69326000Y-52284380D02*
X69326000Y-52522476D01*
X69087904Y-52427238D02*
X69326000Y-52522476D01*
X69564095Y-52427238D01*
X69183142Y-52712952D02*
X69326000Y-52522476D01*
X69468857Y-52712952D01*
X70087904Y-52284380D02*
X70087904Y-52522476D01*
X69849809Y-52427238D02*
X70087904Y-52522476D01*
X70326000Y-52427238D01*
X69945047Y-52712952D02*
X70087904Y-52522476D01*
X70230761Y-52712952D01*
X134048666Y-54427380D02*
X133715333Y-53951190D01*
X133477238Y-54427380D02*
X133477238Y-53427380D01*
X133858190Y-53427380D01*
X133953428Y-53475000D01*
X134001047Y-53522619D01*
X134048666Y-53617857D01*
X134048666Y-53760714D01*
X134001047Y-53855952D01*
X133953428Y-53903571D01*
X133858190Y-53951190D01*
X133477238Y-53951190D01*
X134477238Y-53903571D02*
X134810571Y-53903571D01*
X134953428Y-54427380D02*
X134477238Y-54427380D01*
X134477238Y-53427380D01*
X134953428Y-53427380D01*
X135715333Y-53903571D02*
X135382000Y-53903571D01*
X135382000Y-54427380D02*
X135382000Y-53427380D01*
X135858190Y-53427380D01*
X136382000Y-53427380D02*
X136382000Y-53665476D01*
X136143904Y-53570238D02*
X136382000Y-53665476D01*
X136620095Y-53570238D01*
X136239142Y-53855952D02*
X136382000Y-53665476D01*
X136524857Y-53855952D01*
X137143904Y-53427380D02*
X137143904Y-53665476D01*
X136905809Y-53570238D02*
X137143904Y-53665476D01*
X137382000Y-53570238D01*
X137001047Y-53855952D02*
X137143904Y-53665476D01*
X137286761Y-53855952D01*
X148451605Y-126700264D02*
X148118272Y-126224074D01*
X147880177Y-126700264D02*
X147880177Y-125700264D01*
X148261129Y-125700264D01*
X148356367Y-125747884D01*
X148403986Y-125795503D01*
X148451605Y-125890741D01*
X148451605Y-126033598D01*
X148403986Y-126128836D01*
X148356367Y-126176455D01*
X148261129Y-126224074D01*
X147880177Y-126224074D01*
X148880177Y-126176455D02*
X149213510Y-126176455D01*
X149356367Y-126700264D02*
X148880177Y-126700264D01*
X148880177Y-125700264D01*
X149356367Y-125700264D01*
X150118272Y-126176455D02*
X149784939Y-126176455D01*
X149784939Y-126700264D02*
X149784939Y-125700264D01*
X150261129Y-125700264D01*
X150784939Y-125700264D02*
X150784939Y-125938360D01*
X150546843Y-125843122D02*
X150784939Y-125938360D01*
X151023034Y-125843122D01*
X150642081Y-126128836D02*
X150784939Y-125938360D01*
X150927796Y-126128836D01*
X151546843Y-125700264D02*
X151546843Y-125938360D01*
X151308748Y-125843122D02*
X151546843Y-125938360D01*
X151784939Y-125843122D01*
X151403986Y-126128836D02*
X151546843Y-125938360D01*
X151689700Y-126128836D01*
X98996666Y-162631380D02*
X98663333Y-162155190D01*
X98425238Y-162631380D02*
X98425238Y-161631380D01*
X98806190Y-161631380D01*
X98901428Y-161679000D01*
X98949047Y-161726619D01*
X98996666Y-161821857D01*
X98996666Y-161964714D01*
X98949047Y-162059952D01*
X98901428Y-162107571D01*
X98806190Y-162155190D01*
X98425238Y-162155190D01*
X99425238Y-162107571D02*
X99758571Y-162107571D01*
X99901428Y-162631380D02*
X99425238Y-162631380D01*
X99425238Y-161631380D01*
X99901428Y-161631380D01*
X100663333Y-162107571D02*
X100330000Y-162107571D01*
X100330000Y-162631380D02*
X100330000Y-161631380D01*
X100806190Y-161631380D01*
X101330000Y-161631380D02*
X101330000Y-161869476D01*
X101091904Y-161774238D02*
X101330000Y-161869476D01*
X101568095Y-161774238D01*
X101187142Y-162059952D02*
X101330000Y-161869476D01*
X101472857Y-162059952D01*
X102091904Y-161631380D02*
X102091904Y-161869476D01*
X101853809Y-161774238D02*
X102091904Y-161869476D01*
X102330000Y-161774238D01*
X101949047Y-162059952D02*
X102091904Y-161869476D01*
X102234761Y-162059952D01*
%TO.C,C2*%
X99831142Y-65698666D02*
X99878761Y-65746285D01*
X99926380Y-65889142D01*
X99926380Y-65984380D01*
X99878761Y-66127238D01*
X99783523Y-66222476D01*
X99688285Y-66270095D01*
X99497809Y-66317714D01*
X99354952Y-66317714D01*
X99164476Y-66270095D01*
X99069238Y-66222476D01*
X98974000Y-66127238D01*
X98926380Y-65984380D01*
X98926380Y-65889142D01*
X98974000Y-65746285D01*
X99021619Y-65698666D01*
X99021619Y-65317714D02*
X98974000Y-65270095D01*
X98926380Y-65174857D01*
X98926380Y-64936761D01*
X98974000Y-64841523D01*
X99021619Y-64793904D01*
X99116857Y-64746285D01*
X99212095Y-64746285D01*
X99354952Y-64793904D01*
X99926380Y-65365333D01*
X99926380Y-64746285D01*
%TO.C,C1*%
X99831142Y-78271666D02*
X99878761Y-78319285D01*
X99926380Y-78462142D01*
X99926380Y-78557380D01*
X99878761Y-78700238D01*
X99783523Y-78795476D01*
X99688285Y-78843095D01*
X99497809Y-78890714D01*
X99354952Y-78890714D01*
X99164476Y-78843095D01*
X99069238Y-78795476D01*
X98974000Y-78700238D01*
X98926380Y-78557380D01*
X98926380Y-78462142D01*
X98974000Y-78319285D01*
X99021619Y-78271666D01*
X99926380Y-77319285D02*
X99926380Y-77890714D01*
X99926380Y-77605000D02*
X98926380Y-77605000D01*
X99069238Y-77700238D01*
X99164476Y-77795476D01*
X99212095Y-77890714D01*
%TO.C,R1*%
X102195333Y-79319380D02*
X101862000Y-78843190D01*
X101623904Y-79319380D02*
X101623904Y-78319380D01*
X102004857Y-78319380D01*
X102100095Y-78367000D01*
X102147714Y-78414619D01*
X102195333Y-78509857D01*
X102195333Y-78652714D01*
X102147714Y-78747952D01*
X102100095Y-78795571D01*
X102004857Y-78843190D01*
X101623904Y-78843190D01*
X103147714Y-79319380D02*
X102576285Y-79319380D01*
X102862000Y-79319380D02*
X102862000Y-78319380D01*
X102766761Y-78462238D01*
X102671523Y-78557476D01*
X102576285Y-78605095D01*
%TO.C,U3*%
X79882113Y-58921544D02*
X79309693Y-59493964D01*
X79276021Y-59594979D01*
X79276021Y-59662323D01*
X79309693Y-59763338D01*
X79444380Y-59898025D01*
X79545395Y-59931697D01*
X79612739Y-59931697D01*
X79713754Y-59898025D01*
X80286174Y-59325605D01*
X80555548Y-59594979D02*
X80993280Y-60032712D01*
X80488204Y-60066384D01*
X80589219Y-60167399D01*
X80622891Y-60268414D01*
X80622891Y-60335758D01*
X80589219Y-60436773D01*
X80420861Y-60605132D01*
X80319845Y-60638804D01*
X80252502Y-60638804D01*
X80151487Y-60605132D01*
X79949456Y-60403101D01*
X79915784Y-60302086D01*
X79915784Y-60234743D01*
%TO.C,U1*%
X109561380Y-78866904D02*
X110370904Y-78866904D01*
X110466142Y-78819285D01*
X110513761Y-78771666D01*
X110561380Y-78676428D01*
X110561380Y-78485952D01*
X110513761Y-78390714D01*
X110466142Y-78343095D01*
X110370904Y-78295476D01*
X109561380Y-78295476D01*
X110561380Y-77295476D02*
X110561380Y-77866904D01*
X110561380Y-77581190D02*
X109561380Y-77581190D01*
X109704238Y-77676428D01*
X109799476Y-77771666D01*
X109847095Y-77866904D01*
X88421857Y-56372142D02*
X89088523Y-56372142D01*
X89374238Y-57419761D02*
X88421857Y-57419761D01*
X88421857Y-55419761D01*
X89374238Y-55419761D01*
X90136142Y-57324523D02*
X90421857Y-57419761D01*
X90898047Y-57419761D01*
X91088523Y-57324523D01*
X91183761Y-57229285D01*
X91278999Y-57038809D01*
X91278999Y-56848333D01*
X91183761Y-56657857D01*
X91088523Y-56562619D01*
X90898047Y-56467380D01*
X90517095Y-56372142D01*
X90326619Y-56276904D01*
X90231380Y-56181666D01*
X90136142Y-55991190D01*
X90136142Y-55800714D01*
X90231380Y-55610238D01*
X90326619Y-55515000D01*
X90517095Y-55419761D01*
X90993285Y-55419761D01*
X91278999Y-55515000D01*
X92136142Y-57419761D02*
X92136142Y-55419761D01*
X92898047Y-55419761D01*
X93088523Y-55515000D01*
X93183761Y-55610238D01*
X93278999Y-55800714D01*
X93278999Y-56086428D01*
X93183761Y-56276904D01*
X93088523Y-56372142D01*
X92898047Y-56467380D01*
X92136142Y-56467380D01*
X93945666Y-55419761D02*
X95183761Y-55419761D01*
X94517095Y-56181666D01*
X94802809Y-56181666D01*
X94993285Y-56276904D01*
X95088523Y-56372142D01*
X95183761Y-56562619D01*
X95183761Y-57038809D01*
X95088523Y-57229285D01*
X94993285Y-57324523D01*
X94802809Y-57419761D01*
X94231380Y-57419761D01*
X94040904Y-57324523D01*
X93945666Y-57229285D01*
X95945666Y-55610238D02*
X96040904Y-55515000D01*
X96231380Y-55419761D01*
X96707571Y-55419761D01*
X96898047Y-55515000D01*
X96993285Y-55610238D01*
X97088523Y-55800714D01*
X97088523Y-55991190D01*
X96993285Y-56276904D01*
X95850428Y-57419761D01*
X97088523Y-57419761D01*
X99469476Y-57419761D02*
X99469476Y-55419761D01*
X99945666Y-55419761D01*
X100231380Y-55515000D01*
X100421857Y-55705476D01*
X100517095Y-55895952D01*
X100612333Y-56276904D01*
X100612333Y-56562619D01*
X100517095Y-56943571D01*
X100421857Y-57134047D01*
X100231380Y-57324523D01*
X99945666Y-57419761D01*
X99469476Y-57419761D01*
X101469476Y-56372142D02*
X102136142Y-56372142D01*
X102421857Y-57419761D02*
X101469476Y-57419761D01*
X101469476Y-55419761D01*
X102421857Y-55419761D01*
X102993285Y-55419761D02*
X103659952Y-57419761D01*
X104326619Y-55419761D01*
X104993285Y-57419761D02*
X104993285Y-55419761D01*
X106136142Y-57419761D02*
X105278999Y-56276904D01*
X106136142Y-55419761D02*
X104993285Y-56562619D01*
X106993285Y-57419761D02*
X106993285Y-55419761D01*
X107659952Y-55419761D02*
X108802809Y-55419761D01*
X108231380Y-57419761D02*
X108231380Y-55419761D01*
X109183761Y-55419761D02*
X109850428Y-57419761D01*
X110517095Y-55419761D01*
X112231380Y-57419761D02*
X111088523Y-57419761D01*
X111659952Y-57419761D02*
X111659952Y-55419761D01*
X111469476Y-55705476D01*
X111278999Y-55895952D01*
X111088523Y-55991190D01*
X96710904Y-52157380D02*
X96710904Y-52966904D01*
X96758523Y-53062142D01*
X96806142Y-53109761D01*
X96901380Y-53157380D01*
X97091857Y-53157380D01*
X97187095Y-53109761D01*
X97234714Y-53062142D01*
X97282333Y-52966904D01*
X97282333Y-52157380D01*
X97710904Y-53109761D02*
X97853761Y-53157380D01*
X98091857Y-53157380D01*
X98187095Y-53109761D01*
X98234714Y-53062142D01*
X98282333Y-52966904D01*
X98282333Y-52871666D01*
X98234714Y-52776428D01*
X98187095Y-52728809D01*
X98091857Y-52681190D01*
X97901380Y-52633571D01*
X97806142Y-52585952D01*
X97758523Y-52538333D01*
X97710904Y-52443095D01*
X97710904Y-52347857D01*
X97758523Y-52252619D01*
X97806142Y-52205000D01*
X97901380Y-52157380D01*
X98139476Y-52157380D01*
X98282333Y-52205000D01*
X99044238Y-52633571D02*
X99187095Y-52681190D01*
X99234714Y-52728809D01*
X99282333Y-52824047D01*
X99282333Y-52966904D01*
X99234714Y-53062142D01*
X99187095Y-53109761D01*
X99091857Y-53157380D01*
X98710904Y-53157380D01*
X98710904Y-52157380D01*
X99044238Y-52157380D01*
X99139476Y-52205000D01*
X99187095Y-52252619D01*
X99234714Y-52347857D01*
X99234714Y-52443095D01*
X99187095Y-52538333D01*
X99139476Y-52585952D01*
X99044238Y-52633571D01*
X98710904Y-52633571D01*
X100425190Y-53109761D02*
X100568047Y-53157380D01*
X100806142Y-53157380D01*
X100901380Y-53109761D01*
X100949000Y-53062142D01*
X100996619Y-52966904D01*
X100996619Y-52871666D01*
X100949000Y-52776428D01*
X100901380Y-52728809D01*
X100806142Y-52681190D01*
X100615666Y-52633571D01*
X100520428Y-52585952D01*
X100472809Y-52538333D01*
X100425190Y-52443095D01*
X100425190Y-52347857D01*
X100472809Y-52252619D01*
X100520428Y-52205000D01*
X100615666Y-52157380D01*
X100853761Y-52157380D01*
X100996619Y-52205000D01*
X101425190Y-53157380D02*
X101425190Y-52490714D01*
X101425190Y-52157380D02*
X101377571Y-52205000D01*
X101425190Y-52252619D01*
X101472809Y-52205000D01*
X101425190Y-52157380D01*
X101425190Y-52252619D01*
X102329952Y-53157380D02*
X102329952Y-52157380D01*
X102329952Y-53109761D02*
X102234714Y-53157380D01*
X102044238Y-53157380D01*
X101949000Y-53109761D01*
X101901380Y-53062142D01*
X101853761Y-52966904D01*
X101853761Y-52681190D01*
X101901380Y-52585952D01*
X101949000Y-52538333D01*
X102044238Y-52490714D01*
X102234714Y-52490714D01*
X102329952Y-52538333D01*
X103187095Y-53109761D02*
X103091857Y-53157380D01*
X102901380Y-53157380D01*
X102806142Y-53109761D01*
X102758523Y-53014523D01*
X102758523Y-52633571D01*
X102806142Y-52538333D01*
X102901380Y-52490714D01*
X103091857Y-52490714D01*
X103187095Y-52538333D01*
X103234714Y-52633571D01*
X103234714Y-52728809D01*
X102758523Y-52824047D01*
%TO.C,U2*%
X95582380Y-72516904D02*
X96391904Y-72516904D01*
X96487142Y-72469285D01*
X96534761Y-72421666D01*
X96582380Y-72326428D01*
X96582380Y-72135952D01*
X96534761Y-72040714D01*
X96487142Y-71993095D01*
X96391904Y-71945476D01*
X95582380Y-71945476D01*
X95677619Y-71516904D02*
X95630000Y-71469285D01*
X95582380Y-71374047D01*
X95582380Y-71135952D01*
X95630000Y-71040714D01*
X95677619Y-70993095D01*
X95772857Y-70945476D01*
X95868095Y-70945476D01*
X96010952Y-70993095D01*
X96582380Y-71564523D01*
X96582380Y-70945476D01*
%TO.C,R2*%
X81101104Y-59633193D02*
X81202119Y-59060773D01*
X80697043Y-59229132D02*
X81404149Y-58522025D01*
X81673524Y-58791399D01*
X81707195Y-58892414D01*
X81707195Y-58959758D01*
X81673524Y-59060773D01*
X81572508Y-59161788D01*
X81471493Y-59195460D01*
X81404149Y-59195460D01*
X81303134Y-59161788D01*
X81033760Y-58892414D01*
X82010241Y-59262804D02*
X82077585Y-59262804D01*
X82178600Y-59296475D01*
X82346959Y-59464834D01*
X82380630Y-59565850D01*
X82380630Y-59633193D01*
X82346959Y-59734208D01*
X82279615Y-59801552D01*
X82144928Y-59868895D01*
X81336806Y-59868895D01*
X81774539Y-60306628D01*
%TO.C,J1*%
X69617543Y-121563515D02*
X70027241Y-122148624D01*
X70070173Y-122292959D01*
X70046785Y-122425600D01*
X69957076Y-122546546D01*
X69879062Y-122601173D01*
X71010272Y-121809091D02*
X70542185Y-122136849D01*
X70776228Y-121972970D02*
X70202652Y-121153818D01*
X70206577Y-121325466D01*
X70183189Y-121458107D01*
X70132488Y-121551740D01*
%TO.C,J2*%
X66102971Y-115384404D02*
X66404841Y-116031767D01*
X66422058Y-116181364D01*
X66375992Y-116307928D01*
X66266644Y-116411460D01*
X66180329Y-116451709D01*
X66531638Y-115289597D02*
X66554671Y-115226315D01*
X66620861Y-115142908D01*
X66836649Y-115042284D01*
X66943089Y-115045192D01*
X67006371Y-115068225D01*
X67089778Y-115134416D01*
X67130027Y-115220731D01*
X67147243Y-115370328D01*
X66870849Y-116129714D01*
X67431897Y-115868093D01*
%TO.C,J3*%
X64306569Y-109695449D02*
X64491440Y-110385396D01*
X64482417Y-110535710D01*
X64415074Y-110652353D01*
X64289409Y-110735323D01*
X64197416Y-110759973D01*
X64674541Y-109596851D02*
X65272495Y-109436630D01*
X65049117Y-109890875D01*
X65187107Y-109853901D01*
X65291424Y-109875248D01*
X65349746Y-109908919D01*
X65420391Y-109988588D01*
X65482015Y-110218570D01*
X65460668Y-110322888D01*
X65426996Y-110381209D01*
X65347328Y-110451855D01*
X65071349Y-110525803D01*
X64967032Y-110504456D01*
X64908710Y-110470784D01*
%TO.C,J4*%
X63167698Y-103199493D02*
X63229953Y-103911061D01*
X63194966Y-104057525D01*
X63108390Y-104160701D01*
X62970227Y-104220590D01*
X62875351Y-104228890D01*
X64098069Y-103452703D02*
X64156173Y-104116833D01*
X63827678Y-103093952D02*
X63652743Y-103826271D01*
X64269435Y-103772317D01*
%TO.C,J5*%
X62865843Y-96374267D02*
X62803589Y-97085835D01*
X62743700Y-97223998D01*
X62640524Y-97310573D01*
X62494060Y-97345560D01*
X62399184Y-97337260D01*
X63814600Y-96457273D02*
X63340221Y-96415770D01*
X63251281Y-96885998D01*
X63302869Y-96842711D01*
X63401895Y-96803573D01*
X63639084Y-96824325D01*
X63729809Y-96880063D01*
X63773097Y-96931651D01*
X63812234Y-97030677D01*
X63791483Y-97267866D01*
X63735744Y-97358592D01*
X63684156Y-97401879D01*
X63585130Y-97441017D01*
X63347941Y-97420265D01*
X63257216Y-97364527D01*
X63213928Y-97312939D01*
%TO.C,A1*%
X68111666Y-94846285D02*
X68111666Y-94370095D01*
X68397380Y-94941523D02*
X67397380Y-94608190D01*
X68397380Y-94274857D01*
X68397380Y-93417714D02*
X68397380Y-93989142D01*
X68397380Y-93703428D02*
X67397380Y-93703428D01*
X67540238Y-93798666D01*
X67635476Y-93893904D01*
X67683095Y-93989142D01*
X69897380Y-101774857D02*
X68897380Y-101774857D01*
X69897380Y-101298666D02*
X68897380Y-101298666D01*
X69897380Y-100727238D01*
X68897380Y-100727238D01*
X69516428Y-100251047D02*
X69516428Y-99489142D01*
X80897380Y-101774857D02*
X79897380Y-101774857D01*
X80897380Y-101298666D02*
X79897380Y-101298666D01*
X80897380Y-100727238D01*
X79897380Y-100727238D01*
X80516428Y-100251047D02*
X80516428Y-99489142D01*
X80897380Y-99870095D02*
X80135476Y-99870095D01*
X79897380Y-89751047D02*
X79897380Y-89560571D01*
X79945000Y-89465333D01*
X80040238Y-89370095D01*
X80230714Y-89322476D01*
X80564047Y-89322476D01*
X80754523Y-89370095D01*
X80849761Y-89465333D01*
X80897380Y-89560571D01*
X80897380Y-89751047D01*
X80849761Y-89846285D01*
X80754523Y-89941523D01*
X80564047Y-89989142D01*
X80230714Y-89989142D01*
X80040238Y-89941523D01*
X79945000Y-89846285D01*
X79897380Y-89751047D01*
X79897380Y-88893904D02*
X80706904Y-88893904D01*
X80802142Y-88846285D01*
X80849761Y-88798666D01*
X80897380Y-88703428D01*
X80897380Y-88512952D01*
X80849761Y-88417714D01*
X80802142Y-88370095D01*
X80706904Y-88322476D01*
X79897380Y-88322476D01*
X79897380Y-87989142D02*
X79897380Y-87417714D01*
X80897380Y-87703428D02*
X79897380Y-87703428D01*
X80516428Y-87084380D02*
X80516428Y-86322476D01*
X80897380Y-86703428D02*
X80135476Y-86703428D01*
X68897380Y-89751047D02*
X68897380Y-89560571D01*
X68945000Y-89465333D01*
X69040238Y-89370095D01*
X69230714Y-89322476D01*
X69564047Y-89322476D01*
X69754523Y-89370095D01*
X69849761Y-89465333D01*
X69897380Y-89560571D01*
X69897380Y-89751047D01*
X69849761Y-89846285D01*
X69754523Y-89941523D01*
X69564047Y-89989142D01*
X69230714Y-89989142D01*
X69040238Y-89941523D01*
X68945000Y-89846285D01*
X68897380Y-89751047D01*
X68897380Y-88893904D02*
X69706904Y-88893904D01*
X69802142Y-88846285D01*
X69849761Y-88798666D01*
X69897380Y-88703428D01*
X69897380Y-88512952D01*
X69849761Y-88417714D01*
X69802142Y-88370095D01*
X69706904Y-88322476D01*
X68897380Y-88322476D01*
X68897380Y-87989142D02*
X68897380Y-87417714D01*
X69897380Y-87703428D02*
X68897380Y-87703428D01*
X69516428Y-87084380D02*
X69516428Y-86322476D01*
%TO.C,A2*%
X99234714Y-132919666D02*
X99710904Y-132919666D01*
X99139476Y-133205380D02*
X99472809Y-132205380D01*
X99806142Y-133205380D01*
X100091857Y-132300619D02*
X100139476Y-132253000D01*
X100234714Y-132205380D01*
X100472809Y-132205380D01*
X100568047Y-132253000D01*
X100615666Y-132300619D01*
X100663285Y-132395857D01*
X100663285Y-132491095D01*
X100615666Y-132633952D01*
X100044238Y-133205380D01*
X100663285Y-133205380D01*
X119806142Y-109705380D02*
X119806142Y-108705380D01*
X120282333Y-109705380D02*
X120282333Y-108705380D01*
X120853761Y-109705380D01*
X120853761Y-108705380D01*
X121329952Y-109324428D02*
X122091857Y-109324428D01*
X120306142Y-129705380D02*
X120306142Y-128705380D01*
X120782333Y-129705380D02*
X120782333Y-128705380D01*
X121353761Y-129705380D01*
X121353761Y-128705380D01*
X121829952Y-129324428D02*
X122591857Y-129324428D01*
X122210904Y-129705380D02*
X122210904Y-128943476D01*
X77829952Y-108705380D02*
X78020428Y-108705380D01*
X78115666Y-108753000D01*
X78210904Y-108848238D01*
X78258523Y-109038714D01*
X78258523Y-109372047D01*
X78210904Y-109562523D01*
X78115666Y-109657761D01*
X78020428Y-109705380D01*
X77829952Y-109705380D01*
X77734714Y-109657761D01*
X77639476Y-109562523D01*
X77591857Y-109372047D01*
X77591857Y-109038714D01*
X77639476Y-108848238D01*
X77734714Y-108753000D01*
X77829952Y-108705380D01*
X78687095Y-108705380D02*
X78687095Y-109514904D01*
X78734714Y-109610142D01*
X78782333Y-109657761D01*
X78877571Y-109705380D01*
X79068047Y-109705380D01*
X79163285Y-109657761D01*
X79210904Y-109610142D01*
X79258523Y-109514904D01*
X79258523Y-108705380D01*
X79591857Y-108705380D02*
X80163285Y-108705380D01*
X79877571Y-109705380D02*
X79877571Y-108705380D01*
X80496619Y-109324428D02*
X81258523Y-109324428D01*
X77829952Y-128705380D02*
X78020428Y-128705380D01*
X78115666Y-128753000D01*
X78210904Y-128848238D01*
X78258523Y-129038714D01*
X78258523Y-129372047D01*
X78210904Y-129562523D01*
X78115666Y-129657761D01*
X78020428Y-129705380D01*
X77829952Y-129705380D01*
X77734714Y-129657761D01*
X77639476Y-129562523D01*
X77591857Y-129372047D01*
X77591857Y-129038714D01*
X77639476Y-128848238D01*
X77734714Y-128753000D01*
X77829952Y-128705380D01*
X78687095Y-128705380D02*
X78687095Y-129514904D01*
X78734714Y-129610142D01*
X78782333Y-129657761D01*
X78877571Y-129705380D01*
X79068047Y-129705380D01*
X79163285Y-129657761D01*
X79210904Y-129610142D01*
X79258523Y-129514904D01*
X79258523Y-128705380D01*
X79591857Y-128705380D02*
X80163285Y-128705380D01*
X79877571Y-129705380D02*
X79877571Y-128705380D01*
X80496619Y-129324428D02*
X81258523Y-129324428D01*
X80877571Y-129705380D02*
X80877571Y-128943476D01*
%TO.C,C3*%
X74117142Y-138763666D02*
X74164761Y-138811285D01*
X74212380Y-138954142D01*
X74212380Y-139049380D01*
X74164761Y-139192238D01*
X74069523Y-139287476D01*
X73974285Y-139335095D01*
X73783809Y-139382714D01*
X73640952Y-139382714D01*
X73450476Y-139335095D01*
X73355238Y-139287476D01*
X73260000Y-139192238D01*
X73212380Y-139049380D01*
X73212380Y-138954142D01*
X73260000Y-138811285D01*
X73307619Y-138763666D01*
X73212380Y-138430333D02*
X73212380Y-137811285D01*
X73593333Y-138144619D01*
X73593333Y-138001761D01*
X73640952Y-137906523D01*
X73688571Y-137858904D01*
X73783809Y-137811285D01*
X74021904Y-137811285D01*
X74117142Y-137858904D01*
X74164761Y-137906523D01*
X74212380Y-138001761D01*
X74212380Y-138287476D01*
X74164761Y-138382714D01*
X74117142Y-138430333D01*
%TO.C,C4*%
X86817142Y-138763666D02*
X86864761Y-138811285D01*
X86912380Y-138954142D01*
X86912380Y-139049380D01*
X86864761Y-139192238D01*
X86769523Y-139287476D01*
X86674285Y-139335095D01*
X86483809Y-139382714D01*
X86340952Y-139382714D01*
X86150476Y-139335095D01*
X86055238Y-139287476D01*
X85960000Y-139192238D01*
X85912380Y-139049380D01*
X85912380Y-138954142D01*
X85960000Y-138811285D01*
X86007619Y-138763666D01*
X86245714Y-137906523D02*
X86912380Y-137906523D01*
X85864761Y-138144619D02*
X86579047Y-138382714D01*
X86579047Y-137763666D01*
%TO.C,C5*%
X100787142Y-138763666D02*
X100834761Y-138811285D01*
X100882380Y-138954142D01*
X100882380Y-139049380D01*
X100834761Y-139192238D01*
X100739523Y-139287476D01*
X100644285Y-139335095D01*
X100453809Y-139382714D01*
X100310952Y-139382714D01*
X100120476Y-139335095D01*
X100025238Y-139287476D01*
X99930000Y-139192238D01*
X99882380Y-139049380D01*
X99882380Y-138954142D01*
X99930000Y-138811285D01*
X99977619Y-138763666D01*
X99882380Y-137858904D02*
X99882380Y-138335095D01*
X100358571Y-138382714D01*
X100310952Y-138335095D01*
X100263333Y-138239857D01*
X100263333Y-138001761D01*
X100310952Y-137906523D01*
X100358571Y-137858904D01*
X100453809Y-137811285D01*
X100691904Y-137811285D01*
X100787142Y-137858904D01*
X100834761Y-137906523D01*
X100882380Y-138001761D01*
X100882380Y-138239857D01*
X100834761Y-138335095D01*
X100787142Y-138382714D01*
%TO.C,C6*%
X113487142Y-138763666D02*
X113534761Y-138811285D01*
X113582380Y-138954142D01*
X113582380Y-139049380D01*
X113534761Y-139192238D01*
X113439523Y-139287476D01*
X113344285Y-139335095D01*
X113153809Y-139382714D01*
X113010952Y-139382714D01*
X112820476Y-139335095D01*
X112725238Y-139287476D01*
X112630000Y-139192238D01*
X112582380Y-139049380D01*
X112582380Y-138954142D01*
X112630000Y-138811285D01*
X112677619Y-138763666D01*
X112582380Y-137906523D02*
X112582380Y-138097000D01*
X112630000Y-138192238D01*
X112677619Y-138239857D01*
X112820476Y-138335095D01*
X113010952Y-138382714D01*
X113391904Y-138382714D01*
X113487142Y-138335095D01*
X113534761Y-138287476D01*
X113582380Y-138192238D01*
X113582380Y-138001761D01*
X113534761Y-137906523D01*
X113487142Y-137858904D01*
X113391904Y-137811285D01*
X113153809Y-137811285D01*
X113058571Y-137858904D01*
X113010952Y-137906523D01*
X112963333Y-138001761D01*
X112963333Y-138192238D01*
X113010952Y-138287476D01*
X113058571Y-138335095D01*
X113153809Y-138382714D01*
%TO.C,J6*%
X140925464Y-111590816D02*
X140515767Y-112175925D01*
X140394820Y-112265633D01*
X140262179Y-112289021D01*
X140117844Y-112246089D01*
X140039830Y-112191463D01*
X141666602Y-112109766D02*
X141510573Y-112000514D01*
X141405245Y-111984894D01*
X141338925Y-111996589D01*
X141178971Y-112058984D01*
X141030711Y-112187700D01*
X140812206Y-112499758D01*
X140796586Y-112605085D01*
X140808281Y-112671406D01*
X140858982Y-112765039D01*
X141015011Y-112874292D01*
X141120338Y-112889911D01*
X141186659Y-112878217D01*
X141280292Y-112827516D01*
X141416858Y-112632479D01*
X141432477Y-112527152D01*
X141420783Y-112460831D01*
X141370082Y-112367198D01*
X141214053Y-112257945D01*
X141108725Y-112242326D01*
X141042405Y-112254020D01*
X140948771Y-112304721D01*
%TO.C,C7*%
X78716333Y-80696142D02*
X78668714Y-80743761D01*
X78525857Y-80791380D01*
X78430619Y-80791380D01*
X78287761Y-80743761D01*
X78192523Y-80648523D01*
X78144904Y-80553285D01*
X78097285Y-80362809D01*
X78097285Y-80219952D01*
X78144904Y-80029476D01*
X78192523Y-79934238D01*
X78287761Y-79839000D01*
X78430619Y-79791380D01*
X78525857Y-79791380D01*
X78668714Y-79839000D01*
X78716333Y-79886619D01*
X79049666Y-79791380D02*
X79716333Y-79791380D01*
X79287761Y-80791380D01*
%TO.C,J7*%
X128825666Y-72985380D02*
X128825666Y-73699666D01*
X128778047Y-73842523D01*
X128682809Y-73937761D01*
X128539952Y-73985380D01*
X128444714Y-73985380D01*
X129206619Y-72985380D02*
X129873285Y-72985380D01*
X129444714Y-73985380D01*
%TO.C,J8*%
X128698666Y-87463380D02*
X128698666Y-88177666D01*
X128651047Y-88320523D01*
X128555809Y-88415761D01*
X128412952Y-88463380D01*
X128317714Y-88463380D01*
X129317714Y-87891952D02*
X129222476Y-87844333D01*
X129174857Y-87796714D01*
X129127238Y-87701476D01*
X129127238Y-87653857D01*
X129174857Y-87558619D01*
X129222476Y-87511000D01*
X129317714Y-87463380D01*
X129508190Y-87463380D01*
X129603428Y-87511000D01*
X129651047Y-87558619D01*
X129698666Y-87653857D01*
X129698666Y-87701476D01*
X129651047Y-87796714D01*
X129603428Y-87844333D01*
X129508190Y-87891952D01*
X129317714Y-87891952D01*
X129222476Y-87939571D01*
X129174857Y-87987190D01*
X129127238Y-88082428D01*
X129127238Y-88272904D01*
X129174857Y-88368142D01*
X129222476Y-88415761D01*
X129317714Y-88463380D01*
X129508190Y-88463380D01*
X129603428Y-88415761D01*
X129651047Y-88368142D01*
X129698666Y-88272904D01*
X129698666Y-88082428D01*
X129651047Y-87987190D01*
X129603428Y-87939571D01*
X129508190Y-87891952D01*
%TD*%
%LPC*%
D16*
%TO.C,REF\u002A\u002A*%
X50545061Y-116068884D03*
%TD*%
%TO.C,REF\u002A\u002A*%
X69435167Y-57931116D03*
%TD*%
%TO.C,REF\u002A\u002A*%
X130564833Y-57931116D03*
%TD*%
%TO.C,REF\u002A\u002A*%
X149454939Y-116068884D03*
%TD*%
%TO.C,REF\u002A\u002A*%
X100000000Y-152000000D03*
%TD*%
%TO.C,C2*%
G36*
G01*
X97794000Y-65857000D02*
X98294000Y-65857000D01*
G75*
G02*
X98519000Y-66082000I0J-225000D01*
G01*
X98519000Y-66532000D01*
G75*
G02*
X98294000Y-66757000I-225000J0D01*
G01*
X97794000Y-66757000D01*
G75*
G02*
X97569000Y-66532000I0J225000D01*
G01*
X97569000Y-66082000D01*
G75*
G02*
X97794000Y-65857000I225000J0D01*
G01*
G37*
G36*
G01*
X97794000Y-64307000D02*
X98294000Y-64307000D01*
G75*
G02*
X98519000Y-64532000I0J-225000D01*
G01*
X98519000Y-64982000D01*
G75*
G02*
X98294000Y-65207000I-225000J0D01*
G01*
X97794000Y-65207000D01*
G75*
G02*
X97569000Y-64982000I0J225000D01*
G01*
X97569000Y-64532000D01*
G75*
G02*
X97794000Y-64307000I225000J0D01*
G01*
G37*
%TD*%
%TO.C,C1*%
G36*
G01*
X97794000Y-76880000D02*
X98294000Y-76880000D01*
G75*
G02*
X98519000Y-77105000I0J-225000D01*
G01*
X98519000Y-77555000D01*
G75*
G02*
X98294000Y-77780000I-225000J0D01*
G01*
X97794000Y-77780000D01*
G75*
G02*
X97569000Y-77555000I0J225000D01*
G01*
X97569000Y-77105000D01*
G75*
G02*
X97794000Y-76880000I225000J0D01*
G01*
G37*
G36*
G01*
X97794000Y-78430000D02*
X98294000Y-78430000D01*
G75*
G02*
X98519000Y-78655000I0J-225000D01*
G01*
X98519000Y-79105000D01*
G75*
G02*
X98294000Y-79330000I-225000J0D01*
G01*
X97794000Y-79330000D01*
G75*
G02*
X97569000Y-79105000I0J225000D01*
G01*
X97569000Y-78655000D01*
G75*
G02*
X97794000Y-78430000I225000J0D01*
G01*
G37*
%TD*%
%TO.C,R1*%
G36*
G01*
X102787000Y-77618000D02*
X102787000Y-77068000D01*
G75*
G02*
X102987000Y-76868000I200000J0D01*
G01*
X103387000Y-76868000D01*
G75*
G02*
X103587000Y-77068000I0J-200000D01*
G01*
X103587000Y-77618000D01*
G75*
G02*
X103387000Y-77818000I-200000J0D01*
G01*
X102987000Y-77818000D01*
G75*
G02*
X102787000Y-77618000I0J200000D01*
G01*
G37*
G36*
G01*
X101137000Y-77618000D02*
X101137000Y-77068000D01*
G75*
G02*
X101337000Y-76868000I200000J0D01*
G01*
X101737000Y-76868000D01*
G75*
G02*
X101937000Y-77068000I0J-200000D01*
G01*
X101937000Y-77618000D01*
G75*
G02*
X101737000Y-77818000I-200000J0D01*
G01*
X101337000Y-77818000D01*
G75*
G02*
X101137000Y-77618000I0J200000D01*
G01*
G37*
%TD*%
D12*
%TO.C,U3*%
G36*
X74560629Y-58801000D02*
G01*
X75692000Y-57669629D01*
X76823371Y-58801000D01*
X75692000Y-59932371D01*
X74560629Y-58801000D01*
G37*
G36*
G01*
X64350008Y-79787930D02*
X64350008Y-79787930D01*
G75*
G02*
X65481378Y-79787930I565685J-565685D01*
G01*
X65481378Y-79787930D01*
G75*
G02*
X65481378Y-80919300I-565685J-565685D01*
G01*
X65481378Y-80919300D01*
G75*
G02*
X64350008Y-80919300I-565685J565685D01*
G01*
X64350008Y-80919300D01*
G75*
G02*
X64350008Y-79787930I565685J565685D01*
G01*
G37*
G36*
G01*
X73330264Y-60031366D02*
X73330264Y-60031366D01*
G75*
G02*
X74461634Y-60031366I565685J-565685D01*
G01*
X74461634Y-60031366D01*
G75*
G02*
X74461634Y-61162736I-565685J-565685D01*
G01*
X74461634Y-61162736D01*
G75*
G02*
X73330264Y-61162736I-565685J565685D01*
G01*
X73330264Y-61162736D01*
G75*
G02*
X73330264Y-60031366I565685J565685D01*
G01*
G37*
G36*
G01*
X66146059Y-77991878D02*
X66146059Y-77991878D01*
G75*
G02*
X67277429Y-77991878I565685J-565685D01*
G01*
X67277429Y-77991878D01*
G75*
G02*
X67277429Y-79123248I-565685J-565685D01*
G01*
X67277429Y-79123248D01*
G75*
G02*
X66146059Y-79123248I-565685J565685D01*
G01*
X66146059Y-79123248D01*
G75*
G02*
X66146059Y-77991878I565685J565685D01*
G01*
G37*
G36*
G01*
X71534213Y-61827417D02*
X71534213Y-61827417D01*
G75*
G02*
X72665583Y-61827417I565685J-565685D01*
G01*
X72665583Y-61827417D01*
G75*
G02*
X72665583Y-62958787I-565685J-565685D01*
G01*
X72665583Y-62958787D01*
G75*
G02*
X71534213Y-62958787I-565685J565685D01*
G01*
X71534213Y-62958787D01*
G75*
G02*
X71534213Y-61827417I565685J565685D01*
G01*
G37*
G36*
G01*
X67942110Y-76195827D02*
X67942110Y-76195827D01*
G75*
G02*
X69073480Y-76195827I565685J-565685D01*
G01*
X69073480Y-76195827D01*
G75*
G02*
X69073480Y-77327197I-565685J-565685D01*
G01*
X69073480Y-77327197D01*
G75*
G02*
X67942110Y-77327197I-565685J565685D01*
G01*
X67942110Y-77327197D01*
G75*
G02*
X67942110Y-76195827I565685J565685D01*
G01*
G37*
G36*
G01*
X69738161Y-63623469D02*
X69738161Y-63623469D01*
G75*
G02*
X70869531Y-63623469I565685J-565685D01*
G01*
X70869531Y-63623469D01*
G75*
G02*
X70869531Y-64754839I-565685J-565685D01*
G01*
X70869531Y-64754839D01*
G75*
G02*
X69738161Y-64754839I-565685J565685D01*
G01*
X69738161Y-64754839D01*
G75*
G02*
X69738161Y-63623469I565685J565685D01*
G01*
G37*
G36*
G01*
X69738161Y-74399776D02*
X69738161Y-74399776D01*
G75*
G02*
X70869531Y-74399776I565685J-565685D01*
G01*
X70869531Y-74399776D01*
G75*
G02*
X70869531Y-75531146I-565685J-565685D01*
G01*
X70869531Y-75531146D01*
G75*
G02*
X69738161Y-75531146I-565685J565685D01*
G01*
X69738161Y-75531146D01*
G75*
G02*
X69738161Y-74399776I565685J565685D01*
G01*
G37*
G36*
G01*
X67942110Y-65419520D02*
X67942110Y-65419520D01*
G75*
G02*
X69073480Y-65419520I565685J-565685D01*
G01*
X69073480Y-65419520D01*
G75*
G02*
X69073480Y-66550890I-565685J-565685D01*
G01*
X69073480Y-66550890D01*
G75*
G02*
X67942110Y-66550890I-565685J565685D01*
G01*
X67942110Y-66550890D01*
G75*
G02*
X67942110Y-65419520I565685J565685D01*
G01*
G37*
G36*
G01*
X71534213Y-72603725D02*
X71534213Y-72603725D01*
G75*
G02*
X72665583Y-72603725I565685J-565685D01*
G01*
X72665583Y-72603725D01*
G75*
G02*
X72665583Y-73735095I-565685J-565685D01*
G01*
X72665583Y-73735095D01*
G75*
G02*
X71534213Y-73735095I-565685J565685D01*
G01*
X71534213Y-73735095D01*
G75*
G02*
X71534213Y-72603725I565685J565685D01*
G01*
G37*
G36*
G01*
X66146059Y-67215571D02*
X66146059Y-67215571D01*
G75*
G02*
X67277429Y-67215571I565685J-565685D01*
G01*
X67277429Y-67215571D01*
G75*
G02*
X67277429Y-68346941I-565685J-565685D01*
G01*
X67277429Y-68346941D01*
G75*
G02*
X66146059Y-68346941I-565685J565685D01*
G01*
X66146059Y-68346941D01*
G75*
G02*
X66146059Y-67215571I565685J565685D01*
G01*
G37*
G36*
G01*
X73330264Y-70807674D02*
X73330264Y-70807674D01*
G75*
G02*
X74461634Y-70807674I565685J-565685D01*
G01*
X74461634Y-70807674D01*
G75*
G02*
X74461634Y-71939044I-565685J-565685D01*
G01*
X74461634Y-71939044D01*
G75*
G02*
X73330264Y-71939044I-565685J565685D01*
G01*
X73330264Y-71939044D01*
G75*
G02*
X73330264Y-70807674I565685J565685D01*
G01*
G37*
G36*
G01*
X64350008Y-69011622D02*
X64350008Y-69011622D01*
G75*
G02*
X65481378Y-69011622I565685J-565685D01*
G01*
X65481378Y-69011622D01*
G75*
G02*
X65481378Y-70142992I-565685J-565685D01*
G01*
X65481378Y-70142992D01*
G75*
G02*
X64350008Y-70142992I-565685J565685D01*
G01*
X64350008Y-70142992D01*
G75*
G02*
X64350008Y-69011622I565685J565685D01*
G01*
G37*
G36*
G01*
X75126315Y-69011622D02*
X75126315Y-69011622D01*
G75*
G02*
X76257685Y-69011622I565685J-565685D01*
G01*
X76257685Y-69011622D01*
G75*
G02*
X76257685Y-70142992I-565685J-565685D01*
G01*
X76257685Y-70142992D01*
G75*
G02*
X75126315Y-70142992I-565685J565685D01*
G01*
X75126315Y-70142992D01*
G75*
G02*
X75126315Y-69011622I565685J565685D01*
G01*
G37*
G36*
G01*
X62553956Y-70807674D02*
X62553956Y-70807674D01*
G75*
G02*
X63685326Y-70807674I565685J-565685D01*
G01*
X63685326Y-70807674D01*
G75*
G02*
X63685326Y-71939044I-565685J-565685D01*
G01*
X63685326Y-71939044D01*
G75*
G02*
X62553956Y-71939044I-565685J565685D01*
G01*
X62553956Y-71939044D01*
G75*
G02*
X62553956Y-70807674I565685J565685D01*
G01*
G37*
G36*
G01*
X76922366Y-67215571D02*
X76922366Y-67215571D01*
G75*
G02*
X78053736Y-67215571I565685J-565685D01*
G01*
X78053736Y-67215571D01*
G75*
G02*
X78053736Y-68346941I-565685J-565685D01*
G01*
X78053736Y-68346941D01*
G75*
G02*
X76922366Y-68346941I-565685J565685D01*
G01*
X76922366Y-68346941D01*
G75*
G02*
X76922366Y-67215571I565685J565685D01*
G01*
G37*
G36*
G01*
X60757905Y-72603725D02*
X60757905Y-72603725D01*
G75*
G02*
X61889275Y-72603725I565685J-565685D01*
G01*
X61889275Y-72603725D01*
G75*
G02*
X61889275Y-73735095I-565685J-565685D01*
G01*
X61889275Y-73735095D01*
G75*
G02*
X60757905Y-73735095I-565685J565685D01*
G01*
X60757905Y-73735095D01*
G75*
G02*
X60757905Y-72603725I565685J565685D01*
G01*
G37*
G36*
G01*
X78718417Y-65419520D02*
X78718417Y-65419520D01*
G75*
G02*
X79849787Y-65419520I565685J-565685D01*
G01*
X79849787Y-65419520D01*
G75*
G02*
X79849787Y-66550890I-565685J-565685D01*
G01*
X79849787Y-66550890D01*
G75*
G02*
X78718417Y-66550890I-565685J565685D01*
G01*
X78718417Y-66550890D01*
G75*
G02*
X78718417Y-65419520I565685J565685D01*
G01*
G37*
G36*
G01*
X58961854Y-74399776D02*
X58961854Y-74399776D01*
G75*
G02*
X60093224Y-74399776I565685J-565685D01*
G01*
X60093224Y-74399776D01*
G75*
G02*
X60093224Y-75531146I-565685J-565685D01*
G01*
X60093224Y-75531146D01*
G75*
G02*
X58961854Y-75531146I-565685J565685D01*
G01*
X58961854Y-75531146D01*
G75*
G02*
X58961854Y-74399776I565685J565685D01*
G01*
G37*
G36*
G01*
X80514469Y-63623469D02*
X80514469Y-63623469D01*
G75*
G02*
X81645839Y-63623469I565685J-565685D01*
G01*
X81645839Y-63623469D01*
G75*
G02*
X81645839Y-64754839I-565685J-565685D01*
G01*
X81645839Y-64754839D01*
G75*
G02*
X80514469Y-64754839I-565685J565685D01*
G01*
X80514469Y-64754839D01*
G75*
G02*
X80514469Y-63623469I565685J565685D01*
G01*
G37*
%TD*%
D17*
%TO.C,U1*%
X87249000Y-60325000D03*
X87249000Y-62865000D03*
X87249000Y-65405000D03*
X87249000Y-67945000D03*
X87249000Y-70485000D03*
X87249000Y-73025000D03*
X87249000Y-75565000D03*
X87249000Y-78105000D03*
X87249000Y-80645000D03*
X87249000Y-83185000D03*
X87249000Y-85725000D03*
X87249000Y-88265000D03*
X87249000Y-90805000D03*
X87249000Y-93345000D03*
X87249000Y-95885000D03*
X112649000Y-95885000D03*
X112649000Y-93345000D03*
X112649000Y-90805000D03*
X112649000Y-88265000D03*
X112649000Y-85725000D03*
X112649000Y-83185000D03*
X112649000Y-80645000D03*
X112649000Y-78105000D03*
X112649000Y-75565000D03*
X112649000Y-73025000D03*
X112649000Y-70485000D03*
X112649000Y-67945000D03*
X112649000Y-65405000D03*
X112649000Y-62865000D03*
X112649000Y-60325000D03*
%TD*%
%TO.C,U2*%
G36*
G01*
X97505000Y-75355000D02*
X97305000Y-75355000D01*
G75*
G02*
X97205000Y-75255000I0J100000D01*
G01*
X97205000Y-73980000D01*
G75*
G02*
X97305000Y-73880000I100000J0D01*
G01*
X97505000Y-73880000D01*
G75*
G02*
X97605000Y-73980000I0J-100000D01*
G01*
X97605000Y-75255000D01*
G75*
G02*
X97505000Y-75355000I-100000J0D01*
G01*
G37*
G36*
G01*
X98155000Y-75355000D02*
X97955000Y-75355000D01*
G75*
G02*
X97855000Y-75255000I0J100000D01*
G01*
X97855000Y-73980000D01*
G75*
G02*
X97955000Y-73880000I100000J0D01*
G01*
X98155000Y-73880000D01*
G75*
G02*
X98255000Y-73980000I0J-100000D01*
G01*
X98255000Y-75255000D01*
G75*
G02*
X98155000Y-75355000I-100000J0D01*
G01*
G37*
G36*
G01*
X98805000Y-75355000D02*
X98605000Y-75355000D01*
G75*
G02*
X98505000Y-75255000I0J100000D01*
G01*
X98505000Y-73980000D01*
G75*
G02*
X98605000Y-73880000I100000J0D01*
G01*
X98805000Y-73880000D01*
G75*
G02*
X98905000Y-73980000I0J-100000D01*
G01*
X98905000Y-75255000D01*
G75*
G02*
X98805000Y-75355000I-100000J0D01*
G01*
G37*
G36*
G01*
X99455000Y-75355000D02*
X99255000Y-75355000D01*
G75*
G02*
X99155000Y-75255000I0J100000D01*
G01*
X99155000Y-73980000D01*
G75*
G02*
X99255000Y-73880000I100000J0D01*
G01*
X99455000Y-73880000D01*
G75*
G02*
X99555000Y-73980000I0J-100000D01*
G01*
X99555000Y-75255000D01*
G75*
G02*
X99455000Y-75355000I-100000J0D01*
G01*
G37*
G36*
G01*
X100105000Y-75355000D02*
X99905000Y-75355000D01*
G75*
G02*
X99805000Y-75255000I0J100000D01*
G01*
X99805000Y-73980000D01*
G75*
G02*
X99905000Y-73880000I100000J0D01*
G01*
X100105000Y-73880000D01*
G75*
G02*
X100205000Y-73980000I0J-100000D01*
G01*
X100205000Y-75255000D01*
G75*
G02*
X100105000Y-75355000I-100000J0D01*
G01*
G37*
G36*
G01*
X100755000Y-75355000D02*
X100555000Y-75355000D01*
G75*
G02*
X100455000Y-75255000I0J100000D01*
G01*
X100455000Y-73980000D01*
G75*
G02*
X100555000Y-73880000I100000J0D01*
G01*
X100755000Y-73880000D01*
G75*
G02*
X100855000Y-73980000I0J-100000D01*
G01*
X100855000Y-75255000D01*
G75*
G02*
X100755000Y-75355000I-100000J0D01*
G01*
G37*
G36*
G01*
X101405000Y-75355000D02*
X101205000Y-75355000D01*
G75*
G02*
X101105000Y-75255000I0J100000D01*
G01*
X101105000Y-73980000D01*
G75*
G02*
X101205000Y-73880000I100000J0D01*
G01*
X101405000Y-73880000D01*
G75*
G02*
X101505000Y-73980000I0J-100000D01*
G01*
X101505000Y-75255000D01*
G75*
G02*
X101405000Y-75355000I-100000J0D01*
G01*
G37*
G36*
G01*
X102055000Y-75355000D02*
X101855000Y-75355000D01*
G75*
G02*
X101755000Y-75255000I0J100000D01*
G01*
X101755000Y-73980000D01*
G75*
G02*
X101855000Y-73880000I100000J0D01*
G01*
X102055000Y-73880000D01*
G75*
G02*
X102155000Y-73980000I0J-100000D01*
G01*
X102155000Y-75255000D01*
G75*
G02*
X102055000Y-75355000I-100000J0D01*
G01*
G37*
G36*
G01*
X102705000Y-75355000D02*
X102505000Y-75355000D01*
G75*
G02*
X102405000Y-75255000I0J100000D01*
G01*
X102405000Y-73980000D01*
G75*
G02*
X102505000Y-73880000I100000J0D01*
G01*
X102705000Y-73880000D01*
G75*
G02*
X102805000Y-73980000I0J-100000D01*
G01*
X102805000Y-75255000D01*
G75*
G02*
X102705000Y-75355000I-100000J0D01*
G01*
G37*
G36*
G01*
X103355000Y-75355000D02*
X103155000Y-75355000D01*
G75*
G02*
X103055000Y-75255000I0J100000D01*
G01*
X103055000Y-73980000D01*
G75*
G02*
X103155000Y-73880000I100000J0D01*
G01*
X103355000Y-73880000D01*
G75*
G02*
X103455000Y-73980000I0J-100000D01*
G01*
X103455000Y-75255000D01*
G75*
G02*
X103355000Y-75355000I-100000J0D01*
G01*
G37*
G36*
G01*
X103355000Y-69630000D02*
X103155000Y-69630000D01*
G75*
G02*
X103055000Y-69530000I0J100000D01*
G01*
X103055000Y-68255000D01*
G75*
G02*
X103155000Y-68155000I100000J0D01*
G01*
X103355000Y-68155000D01*
G75*
G02*
X103455000Y-68255000I0J-100000D01*
G01*
X103455000Y-69530000D01*
G75*
G02*
X103355000Y-69630000I-100000J0D01*
G01*
G37*
G36*
G01*
X102705000Y-69630000D02*
X102505000Y-69630000D01*
G75*
G02*
X102405000Y-69530000I0J100000D01*
G01*
X102405000Y-68255000D01*
G75*
G02*
X102505000Y-68155000I100000J0D01*
G01*
X102705000Y-68155000D01*
G75*
G02*
X102805000Y-68255000I0J-100000D01*
G01*
X102805000Y-69530000D01*
G75*
G02*
X102705000Y-69630000I-100000J0D01*
G01*
G37*
G36*
G01*
X102055000Y-69630000D02*
X101855000Y-69630000D01*
G75*
G02*
X101755000Y-69530000I0J100000D01*
G01*
X101755000Y-68255000D01*
G75*
G02*
X101855000Y-68155000I100000J0D01*
G01*
X102055000Y-68155000D01*
G75*
G02*
X102155000Y-68255000I0J-100000D01*
G01*
X102155000Y-69530000D01*
G75*
G02*
X102055000Y-69630000I-100000J0D01*
G01*
G37*
G36*
G01*
X101405000Y-69630000D02*
X101205000Y-69630000D01*
G75*
G02*
X101105000Y-69530000I0J100000D01*
G01*
X101105000Y-68255000D01*
G75*
G02*
X101205000Y-68155000I100000J0D01*
G01*
X101405000Y-68155000D01*
G75*
G02*
X101505000Y-68255000I0J-100000D01*
G01*
X101505000Y-69530000D01*
G75*
G02*
X101405000Y-69630000I-100000J0D01*
G01*
G37*
G36*
G01*
X100755000Y-69630000D02*
X100555000Y-69630000D01*
G75*
G02*
X100455000Y-69530000I0J100000D01*
G01*
X100455000Y-68255000D01*
G75*
G02*
X100555000Y-68155000I100000J0D01*
G01*
X100755000Y-68155000D01*
G75*
G02*
X100855000Y-68255000I0J-100000D01*
G01*
X100855000Y-69530000D01*
G75*
G02*
X100755000Y-69630000I-100000J0D01*
G01*
G37*
G36*
G01*
X100105000Y-69630000D02*
X99905000Y-69630000D01*
G75*
G02*
X99805000Y-69530000I0J100000D01*
G01*
X99805000Y-68255000D01*
G75*
G02*
X99905000Y-68155000I100000J0D01*
G01*
X100105000Y-68155000D01*
G75*
G02*
X100205000Y-68255000I0J-100000D01*
G01*
X100205000Y-69530000D01*
G75*
G02*
X100105000Y-69630000I-100000J0D01*
G01*
G37*
G36*
G01*
X99455000Y-69630000D02*
X99255000Y-69630000D01*
G75*
G02*
X99155000Y-69530000I0J100000D01*
G01*
X99155000Y-68255000D01*
G75*
G02*
X99255000Y-68155000I100000J0D01*
G01*
X99455000Y-68155000D01*
G75*
G02*
X99555000Y-68255000I0J-100000D01*
G01*
X99555000Y-69530000D01*
G75*
G02*
X99455000Y-69630000I-100000J0D01*
G01*
G37*
G36*
G01*
X98805000Y-69630000D02*
X98605000Y-69630000D01*
G75*
G02*
X98505000Y-69530000I0J100000D01*
G01*
X98505000Y-68255000D01*
G75*
G02*
X98605000Y-68155000I100000J0D01*
G01*
X98805000Y-68155000D01*
G75*
G02*
X98905000Y-68255000I0J-100000D01*
G01*
X98905000Y-69530000D01*
G75*
G02*
X98805000Y-69630000I-100000J0D01*
G01*
G37*
G36*
G01*
X98155000Y-69630000D02*
X97955000Y-69630000D01*
G75*
G02*
X97855000Y-69530000I0J100000D01*
G01*
X97855000Y-68255000D01*
G75*
G02*
X97955000Y-68155000I100000J0D01*
G01*
X98155000Y-68155000D01*
G75*
G02*
X98255000Y-68255000I0J-100000D01*
G01*
X98255000Y-69530000D01*
G75*
G02*
X98155000Y-69630000I-100000J0D01*
G01*
G37*
G36*
G01*
X97505000Y-69630000D02*
X97305000Y-69630000D01*
G75*
G02*
X97205000Y-69530000I0J100000D01*
G01*
X97205000Y-68255000D01*
G75*
G02*
X97305000Y-68155000I100000J0D01*
G01*
X97505000Y-68155000D01*
G75*
G02*
X97605000Y-68255000I0J-100000D01*
G01*
X97605000Y-69530000D01*
G75*
G02*
X97505000Y-69630000I-100000J0D01*
G01*
G37*
%TD*%
%TO.C,R2*%
G36*
G01*
X83610660Y-59091751D02*
X83221751Y-59480660D01*
G75*
G02*
X82938909Y-59480660I-141421J141421D01*
G01*
X82656066Y-59197817D01*
G75*
G02*
X82656066Y-58914975I141421J141421D01*
G01*
X83044975Y-58526066D01*
G75*
G02*
X83327817Y-58526066I141421J-141421D01*
G01*
X83610660Y-58808909D01*
G75*
G02*
X83610660Y-59091751I-141421J-141421D01*
G01*
G37*
G36*
G01*
X82443934Y-57925025D02*
X82055025Y-58313934D01*
G75*
G02*
X81772183Y-58313934I-141421J141421D01*
G01*
X81489340Y-58031091D01*
G75*
G02*
X81489340Y-57748249I141421J141421D01*
G01*
X81878249Y-57359340D01*
G75*
G02*
X82161091Y-57359340I141421J-141421D01*
G01*
X82443934Y-57642183D01*
G75*
G02*
X82443934Y-57925025I-141421J-141421D01*
G01*
G37*
%TD*%
D18*
%TO.C,J1*%
X67706880Y-124931059D03*
X65659000Y-126365000D03*
X63611120Y-127798941D03*
%TD*%
%TO.C,J2*%
X59202231Y-120690546D03*
X61468000Y-119634000D03*
X63733769Y-118577454D03*
%TD*%
%TO.C,J3*%
X61215815Y-111747952D03*
X58801000Y-112395000D03*
X56386185Y-113042048D03*
%TD*%
%TO.C,J4*%
X54786513Y-105119889D03*
X57277000Y-104902000D03*
X59767487Y-104684111D03*
%TD*%
%TO.C,J5*%
X59259487Y-97245889D03*
X56769000Y-97028000D03*
X54278513Y-96810111D03*
%TD*%
D17*
%TO.C,A1*%
X67945000Y-103632000D03*
X70485000Y-103632000D03*
X79445000Y-103632000D03*
X81945000Y-103632000D03*
X67945000Y-85132000D03*
X81945000Y-85132000D03*
X70485000Y-85132000D03*
X79445000Y-85132000D03*
%TD*%
D19*
%TO.C,A2*%
X124699000Y-129253000D03*
X75199000Y-129253000D03*
X124699000Y-109253000D03*
X75199000Y-109253000D03*
%TD*%
D20*
%TO.C,C3*%
X80010000Y-141097000D03*
D21*
X80010000Y-136097000D03*
%TD*%
%TO.C,C4*%
X92710000Y-136097000D03*
D20*
X92710000Y-141097000D03*
%TD*%
%TO.C,C5*%
X106680000Y-141097000D03*
D21*
X106680000Y-136097000D03*
%TD*%
%TO.C,C6*%
X119380000Y-136097000D03*
D20*
X119380000Y-141097000D03*
%TD*%
D12*
%TO.C,J6*%
G36*
X133800907Y-115303363D02*
G01*
X135521637Y-112845907D01*
X137979093Y-114566637D01*
X136258363Y-117024093D01*
X133800907Y-115303363D01*
G37*
D22*
X140051292Y-117848768D03*
%TD*%
D23*
%TO.C,C7*%
X79883000Y-77089000D03*
D24*
X77883000Y-77089000D03*
%TD*%
%TO.C,J7*%
G36*
G01*
X128660999Y-76235000D02*
X129911001Y-76235000D01*
G75*
G02*
X130161000Y-76484999I0J-249999D01*
G01*
X130161000Y-77185001D01*
G75*
G02*
X129911001Y-77435000I-249999J0D01*
G01*
X128660999Y-77435000D01*
G75*
G02*
X128411000Y-77185001I0J249999D01*
G01*
X128411000Y-76484999D01*
G75*
G02*
X128660999Y-76235000I249999J0D01*
G01*
G37*
D25*
X129286000Y-78835000D03*
X129286000Y-80835000D03*
X129286000Y-82835000D03*
%TD*%
%TO.C,J8*%
G36*
G01*
X128660999Y-90840000D02*
X129911001Y-90840000D01*
G75*
G02*
X130161000Y-91089999I0J-249999D01*
G01*
X130161000Y-91790001D01*
G75*
G02*
X129911001Y-92040000I-249999J0D01*
G01*
X128660999Y-92040000D01*
G75*
G02*
X128411000Y-91790001I0J249999D01*
G01*
X128411000Y-91089999D01*
G75*
G02*
X128660999Y-90840000I249999J0D01*
G01*
G37*
X129286000Y-93440000D03*
X129286000Y-95440000D03*
X129286000Y-97440000D03*
X129286000Y-99440000D03*
%TD*%
M02*
