%TF.GenerationSoftware,KiCad,Pcbnew,5.1.12*%
%TF.CreationDate,2021-12-20T13:43:48-07:00*%
%TF.ProjectId,claw,636c6177-2e6b-4696-9361-645f70636258,rev?*%
%TF.SameCoordinates,Original*%
%TF.FileFunction,Legend,Bot*%
%TF.FilePolarity,Positive*%
%FSLAX46Y46*%
G04 Gerber Fmt 4.6, Leading zero omitted, Abs format (unit mm)*
G04 Created by KiCad (PCBNEW 5.1.12) date 2021-12-20 13:43:48*
%MOMM*%
%LPD*%
G01*
G04 APERTURE LIST*
%ADD10C,2.500000*%
%ADD11C,0.100000*%
%ADD12C,1.524000*%
%ADD13C,1.600000*%
%ADD14R,3.000000X3.000000*%
%ADD15R,2.000000X2.000000*%
%ADD16C,2.000000*%
%ADD17C,3.000000*%
%ADD18R,1.200000X1.200000*%
%ADD19C,1.200000*%
%ADD20O,1.750000X1.200000*%
G04 APERTURE END LIST*
%LPC*%
D10*
%TO.C,REF\u002A\u002A*%
X50545061Y-116068884D03*
%TD*%
%TO.C,REF\u002A\u002A*%
X69435167Y-57931116D03*
%TD*%
%TO.C,REF\u002A\u002A*%
X130564833Y-57931116D03*
%TD*%
%TO.C,REF\u002A\u002A*%
X149454939Y-116068884D03*
%TD*%
%TO.C,REF\u002A\u002A*%
X100000000Y-152000000D03*
%TD*%
D11*
%TO.C,U3*%
G36*
X74560629Y-58801000D02*
G01*
X75692000Y-57669629D01*
X76823371Y-58801000D01*
X75692000Y-59932371D01*
X74560629Y-58801000D01*
G37*
G36*
G01*
X64350008Y-79787930D02*
X64350008Y-79787930D01*
G75*
G02*
X65481378Y-79787930I565685J-565685D01*
G01*
X65481378Y-79787930D01*
G75*
G02*
X65481378Y-80919300I-565685J-565685D01*
G01*
X65481378Y-80919300D01*
G75*
G02*
X64350008Y-80919300I-565685J565685D01*
G01*
X64350008Y-80919300D01*
G75*
G02*
X64350008Y-79787930I565685J565685D01*
G01*
G37*
G36*
G01*
X73330264Y-60031366D02*
X73330264Y-60031366D01*
G75*
G02*
X74461634Y-60031366I565685J-565685D01*
G01*
X74461634Y-60031366D01*
G75*
G02*
X74461634Y-61162736I-565685J-565685D01*
G01*
X74461634Y-61162736D01*
G75*
G02*
X73330264Y-61162736I-565685J565685D01*
G01*
X73330264Y-61162736D01*
G75*
G02*
X73330264Y-60031366I565685J565685D01*
G01*
G37*
G36*
G01*
X66146059Y-77991878D02*
X66146059Y-77991878D01*
G75*
G02*
X67277429Y-77991878I565685J-565685D01*
G01*
X67277429Y-77991878D01*
G75*
G02*
X67277429Y-79123248I-565685J-565685D01*
G01*
X67277429Y-79123248D01*
G75*
G02*
X66146059Y-79123248I-565685J565685D01*
G01*
X66146059Y-79123248D01*
G75*
G02*
X66146059Y-77991878I565685J565685D01*
G01*
G37*
G36*
G01*
X71534213Y-61827417D02*
X71534213Y-61827417D01*
G75*
G02*
X72665583Y-61827417I565685J-565685D01*
G01*
X72665583Y-61827417D01*
G75*
G02*
X72665583Y-62958787I-565685J-565685D01*
G01*
X72665583Y-62958787D01*
G75*
G02*
X71534213Y-62958787I-565685J565685D01*
G01*
X71534213Y-62958787D01*
G75*
G02*
X71534213Y-61827417I565685J565685D01*
G01*
G37*
G36*
G01*
X67942110Y-76195827D02*
X67942110Y-76195827D01*
G75*
G02*
X69073480Y-76195827I565685J-565685D01*
G01*
X69073480Y-76195827D01*
G75*
G02*
X69073480Y-77327197I-565685J-565685D01*
G01*
X69073480Y-77327197D01*
G75*
G02*
X67942110Y-77327197I-565685J565685D01*
G01*
X67942110Y-77327197D01*
G75*
G02*
X67942110Y-76195827I565685J565685D01*
G01*
G37*
G36*
G01*
X69738161Y-63623469D02*
X69738161Y-63623469D01*
G75*
G02*
X70869531Y-63623469I565685J-565685D01*
G01*
X70869531Y-63623469D01*
G75*
G02*
X70869531Y-64754839I-565685J-565685D01*
G01*
X70869531Y-64754839D01*
G75*
G02*
X69738161Y-64754839I-565685J565685D01*
G01*
X69738161Y-64754839D01*
G75*
G02*
X69738161Y-63623469I565685J565685D01*
G01*
G37*
G36*
G01*
X69738161Y-74399776D02*
X69738161Y-74399776D01*
G75*
G02*
X70869531Y-74399776I565685J-565685D01*
G01*
X70869531Y-74399776D01*
G75*
G02*
X70869531Y-75531146I-565685J-565685D01*
G01*
X70869531Y-75531146D01*
G75*
G02*
X69738161Y-75531146I-565685J565685D01*
G01*
X69738161Y-75531146D01*
G75*
G02*
X69738161Y-74399776I565685J565685D01*
G01*
G37*
G36*
G01*
X67942110Y-65419520D02*
X67942110Y-65419520D01*
G75*
G02*
X69073480Y-65419520I565685J-565685D01*
G01*
X69073480Y-65419520D01*
G75*
G02*
X69073480Y-66550890I-565685J-565685D01*
G01*
X69073480Y-66550890D01*
G75*
G02*
X67942110Y-66550890I-565685J565685D01*
G01*
X67942110Y-66550890D01*
G75*
G02*
X67942110Y-65419520I565685J565685D01*
G01*
G37*
G36*
G01*
X71534213Y-72603725D02*
X71534213Y-72603725D01*
G75*
G02*
X72665583Y-72603725I565685J-565685D01*
G01*
X72665583Y-72603725D01*
G75*
G02*
X72665583Y-73735095I-565685J-565685D01*
G01*
X72665583Y-73735095D01*
G75*
G02*
X71534213Y-73735095I-565685J565685D01*
G01*
X71534213Y-73735095D01*
G75*
G02*
X71534213Y-72603725I565685J565685D01*
G01*
G37*
G36*
G01*
X66146059Y-67215571D02*
X66146059Y-67215571D01*
G75*
G02*
X67277429Y-67215571I565685J-565685D01*
G01*
X67277429Y-67215571D01*
G75*
G02*
X67277429Y-68346941I-565685J-565685D01*
G01*
X67277429Y-68346941D01*
G75*
G02*
X66146059Y-68346941I-565685J565685D01*
G01*
X66146059Y-68346941D01*
G75*
G02*
X66146059Y-67215571I565685J565685D01*
G01*
G37*
G36*
G01*
X73330264Y-70807674D02*
X73330264Y-70807674D01*
G75*
G02*
X74461634Y-70807674I565685J-565685D01*
G01*
X74461634Y-70807674D01*
G75*
G02*
X74461634Y-71939044I-565685J-565685D01*
G01*
X74461634Y-71939044D01*
G75*
G02*
X73330264Y-71939044I-565685J565685D01*
G01*
X73330264Y-71939044D01*
G75*
G02*
X73330264Y-70807674I565685J565685D01*
G01*
G37*
G36*
G01*
X64350008Y-69011622D02*
X64350008Y-69011622D01*
G75*
G02*
X65481378Y-69011622I565685J-565685D01*
G01*
X65481378Y-69011622D01*
G75*
G02*
X65481378Y-70142992I-565685J-565685D01*
G01*
X65481378Y-70142992D01*
G75*
G02*
X64350008Y-70142992I-565685J565685D01*
G01*
X64350008Y-70142992D01*
G75*
G02*
X64350008Y-69011622I565685J565685D01*
G01*
G37*
G36*
G01*
X75126315Y-69011622D02*
X75126315Y-69011622D01*
G75*
G02*
X76257685Y-69011622I565685J-565685D01*
G01*
X76257685Y-69011622D01*
G75*
G02*
X76257685Y-70142992I-565685J-565685D01*
G01*
X76257685Y-70142992D01*
G75*
G02*
X75126315Y-70142992I-565685J565685D01*
G01*
X75126315Y-70142992D01*
G75*
G02*
X75126315Y-69011622I565685J565685D01*
G01*
G37*
G36*
G01*
X62553956Y-70807674D02*
X62553956Y-70807674D01*
G75*
G02*
X63685326Y-70807674I565685J-565685D01*
G01*
X63685326Y-70807674D01*
G75*
G02*
X63685326Y-71939044I-565685J-565685D01*
G01*
X63685326Y-71939044D01*
G75*
G02*
X62553956Y-71939044I-565685J565685D01*
G01*
X62553956Y-71939044D01*
G75*
G02*
X62553956Y-70807674I565685J565685D01*
G01*
G37*
G36*
G01*
X76922366Y-67215571D02*
X76922366Y-67215571D01*
G75*
G02*
X78053736Y-67215571I565685J-565685D01*
G01*
X78053736Y-67215571D01*
G75*
G02*
X78053736Y-68346941I-565685J-565685D01*
G01*
X78053736Y-68346941D01*
G75*
G02*
X76922366Y-68346941I-565685J565685D01*
G01*
X76922366Y-68346941D01*
G75*
G02*
X76922366Y-67215571I565685J565685D01*
G01*
G37*
G36*
G01*
X60757905Y-72603725D02*
X60757905Y-72603725D01*
G75*
G02*
X61889275Y-72603725I565685J-565685D01*
G01*
X61889275Y-72603725D01*
G75*
G02*
X61889275Y-73735095I-565685J-565685D01*
G01*
X61889275Y-73735095D01*
G75*
G02*
X60757905Y-73735095I-565685J565685D01*
G01*
X60757905Y-73735095D01*
G75*
G02*
X60757905Y-72603725I565685J565685D01*
G01*
G37*
G36*
G01*
X78718417Y-65419520D02*
X78718417Y-65419520D01*
G75*
G02*
X79849787Y-65419520I565685J-565685D01*
G01*
X79849787Y-65419520D01*
G75*
G02*
X79849787Y-66550890I-565685J-565685D01*
G01*
X79849787Y-66550890D01*
G75*
G02*
X78718417Y-66550890I-565685J565685D01*
G01*
X78718417Y-66550890D01*
G75*
G02*
X78718417Y-65419520I565685J565685D01*
G01*
G37*
G36*
G01*
X58961854Y-74399776D02*
X58961854Y-74399776D01*
G75*
G02*
X60093224Y-74399776I565685J-565685D01*
G01*
X60093224Y-74399776D01*
G75*
G02*
X60093224Y-75531146I-565685J-565685D01*
G01*
X60093224Y-75531146D01*
G75*
G02*
X58961854Y-75531146I-565685J565685D01*
G01*
X58961854Y-75531146D01*
G75*
G02*
X58961854Y-74399776I565685J565685D01*
G01*
G37*
G36*
G01*
X80514469Y-63623469D02*
X80514469Y-63623469D01*
G75*
G02*
X81645839Y-63623469I565685J-565685D01*
G01*
X81645839Y-63623469D01*
G75*
G02*
X81645839Y-64754839I-565685J-565685D01*
G01*
X81645839Y-64754839D01*
G75*
G02*
X80514469Y-64754839I-565685J565685D01*
G01*
X80514469Y-64754839D01*
G75*
G02*
X80514469Y-63623469I565685J565685D01*
G01*
G37*
%TD*%
D12*
%TO.C,U1*%
X87249000Y-60325000D03*
X87249000Y-62865000D03*
X87249000Y-65405000D03*
X87249000Y-67945000D03*
X87249000Y-70485000D03*
X87249000Y-73025000D03*
X87249000Y-75565000D03*
X87249000Y-78105000D03*
X87249000Y-80645000D03*
X87249000Y-83185000D03*
X87249000Y-85725000D03*
X87249000Y-88265000D03*
X87249000Y-90805000D03*
X87249000Y-93345000D03*
X87249000Y-95885000D03*
X112649000Y-95885000D03*
X112649000Y-93345000D03*
X112649000Y-90805000D03*
X112649000Y-88265000D03*
X112649000Y-85725000D03*
X112649000Y-83185000D03*
X112649000Y-80645000D03*
X112649000Y-78105000D03*
X112649000Y-75565000D03*
X112649000Y-73025000D03*
X112649000Y-70485000D03*
X112649000Y-67945000D03*
X112649000Y-65405000D03*
X112649000Y-62865000D03*
X112649000Y-60325000D03*
%TD*%
D13*
%TO.C,J1*%
X67706880Y-124931059D03*
X65659000Y-126365000D03*
X63611120Y-127798941D03*
%TD*%
%TO.C,J2*%
X59202231Y-120690546D03*
X61468000Y-119634000D03*
X63733769Y-118577454D03*
%TD*%
%TO.C,J3*%
X61215815Y-111747952D03*
X58801000Y-112395000D03*
X56386185Y-113042048D03*
%TD*%
%TO.C,J4*%
X54786513Y-105119889D03*
X57277000Y-104902000D03*
X59767487Y-104684111D03*
%TD*%
%TO.C,J5*%
X59259487Y-97245889D03*
X56769000Y-97028000D03*
X54278513Y-96810111D03*
%TD*%
D12*
%TO.C,A1*%
X67945000Y-103632000D03*
X70485000Y-103632000D03*
X79445000Y-103632000D03*
X81945000Y-103632000D03*
X67945000Y-85132000D03*
X81945000Y-85132000D03*
X70485000Y-85132000D03*
X79445000Y-85132000D03*
%TD*%
D14*
%TO.C,A2*%
X124699000Y-129253000D03*
X75199000Y-129253000D03*
X124699000Y-109253000D03*
X75199000Y-109253000D03*
%TD*%
D15*
%TO.C,C3*%
X80010000Y-141097000D03*
D16*
X80010000Y-136097000D03*
%TD*%
%TO.C,C4*%
X92710000Y-136097000D03*
D15*
X92710000Y-141097000D03*
%TD*%
%TO.C,C5*%
X106680000Y-141097000D03*
D16*
X106680000Y-136097000D03*
%TD*%
%TO.C,C6*%
X119380000Y-136097000D03*
D15*
X119380000Y-141097000D03*
%TD*%
D11*
%TO.C,J6*%
G36*
X133800907Y-115303363D02*
G01*
X135521637Y-112845907D01*
X137979093Y-114566637D01*
X136258363Y-117024093D01*
X133800907Y-115303363D01*
G37*
D17*
X140051292Y-117848768D03*
%TD*%
D18*
%TO.C,C7*%
X79883000Y-77089000D03*
D19*
X77883000Y-77089000D03*
%TD*%
%TO.C,J7*%
G36*
G01*
X128660999Y-76235000D02*
X129911001Y-76235000D01*
G75*
G02*
X130161000Y-76484999I0J-249999D01*
G01*
X130161000Y-77185001D01*
G75*
G02*
X129911001Y-77435000I-249999J0D01*
G01*
X128660999Y-77435000D01*
G75*
G02*
X128411000Y-77185001I0J249999D01*
G01*
X128411000Y-76484999D01*
G75*
G02*
X128660999Y-76235000I249999J0D01*
G01*
G37*
D20*
X129286000Y-78835000D03*
X129286000Y-80835000D03*
X129286000Y-82835000D03*
%TD*%
%TO.C,J8*%
G36*
G01*
X128660999Y-90840000D02*
X129911001Y-90840000D01*
G75*
G02*
X130161000Y-91089999I0J-249999D01*
G01*
X130161000Y-91790001D01*
G75*
G02*
X129911001Y-92040000I-249999J0D01*
G01*
X128660999Y-92040000D01*
G75*
G02*
X128411000Y-91790001I0J249999D01*
G01*
X128411000Y-91089999D01*
G75*
G02*
X128660999Y-90840000I249999J0D01*
G01*
G37*
X129286000Y-93440000D03*
X129286000Y-95440000D03*
X129286000Y-97440000D03*
X129286000Y-99440000D03*
%TD*%
M02*
