%TF.GenerationSoftware,KiCad,Pcbnew,5.1.12*%
%TF.CreationDate,2021-12-20T13:43:48-07:00*%
%TF.ProjectId,claw,636c6177-2e6b-4696-9361-645f70636258,rev?*%
%TF.SameCoordinates,Original*%
%TF.FileFunction,Copper,L2,Bot*%
%TF.FilePolarity,Positive*%
%FSLAX46Y46*%
G04 Gerber Fmt 4.6, Leading zero omitted, Abs format (unit mm)*
G04 Created by KiCad (PCBNEW 5.1.12) date 2021-12-20 13:43:48*
%MOMM*%
%LPD*%
G01*
G04 APERTURE LIST*
%TA.AperFunction,ComponentPad*%
%ADD10C,0.100000*%
%TD*%
%TA.AperFunction,ComponentPad*%
%ADD11C,1.524000*%
%TD*%
%TA.AperFunction,ComponentPad*%
%ADD12C,1.600000*%
%TD*%
%TA.AperFunction,ComponentPad*%
%ADD13R,3.000000X3.000000*%
%TD*%
%TA.AperFunction,ComponentPad*%
%ADD14R,2.000000X2.000000*%
%TD*%
%TA.AperFunction,ComponentPad*%
%ADD15C,2.000000*%
%TD*%
%TA.AperFunction,ComponentPad*%
%ADD16C,3.000000*%
%TD*%
%TA.AperFunction,ComponentPad*%
%ADD17R,1.200000X1.200000*%
%TD*%
%TA.AperFunction,ComponentPad*%
%ADD18C,1.200000*%
%TD*%
%TA.AperFunction,ComponentPad*%
%ADD19O,1.750000X1.200000*%
%TD*%
%TA.AperFunction,ViaPad*%
%ADD20C,0.800000*%
%TD*%
%TA.AperFunction,Conductor*%
%ADD21C,0.250000*%
%TD*%
%TA.AperFunction,Conductor*%
%ADD22C,0.254000*%
%TD*%
%TA.AperFunction,Conductor*%
%ADD23C,0.100000*%
%TD*%
G04 APERTURE END LIST*
%TA.AperFunction,ComponentPad*%
D10*
%TO.P,U3,1*%
%TO.N,DIR_5V*%
G36*
X74560629Y-58801000D02*
G01*
X75692000Y-57669629D01*
X76823371Y-58801000D01*
X75692000Y-59932371D01*
X74560629Y-58801000D01*
G37*
%TD.AperFunction*%
%TO.P,U3,11*%
%TO.N,Net-(U3-Pad11)*%
%TA.AperFunction,ComponentPad*%
G36*
G01*
X64350008Y-79787930D02*
X64350008Y-79787930D01*
G75*
G02*
X65481378Y-79787930I565685J-565685D01*
G01*
X65481378Y-79787930D01*
G75*
G02*
X65481378Y-80919300I-565685J-565685D01*
G01*
X65481378Y-80919300D01*
G75*
G02*
X64350008Y-80919300I-565685J565685D01*
G01*
X64350008Y-80919300D01*
G75*
G02*
X64350008Y-79787930I565685J565685D01*
G01*
G37*
%TD.AperFunction*%
%TO.P,U3,2*%
%TO.N,MOTOR_SIGNAL*%
%TA.AperFunction,ComponentPad*%
G36*
G01*
X73330264Y-60031366D02*
X73330264Y-60031366D01*
G75*
G02*
X74461634Y-60031366I565685J-565685D01*
G01*
X74461634Y-60031366D01*
G75*
G02*
X74461634Y-61162736I-565685J-565685D01*
G01*
X74461634Y-61162736D01*
G75*
G02*
X73330264Y-61162736I-565685J565685D01*
G01*
X73330264Y-61162736D01*
G75*
G02*
X73330264Y-60031366I565685J565685D01*
G01*
G37*
%TD.AperFunction*%
%TO.P,U3,12*%
%TO.N,Net-(U3-Pad12)*%
%TA.AperFunction,ComponentPad*%
G36*
G01*
X66146059Y-77991878D02*
X66146059Y-77991878D01*
G75*
G02*
X67277429Y-77991878I565685J-565685D01*
G01*
X67277429Y-77991878D01*
G75*
G02*
X67277429Y-79123248I-565685J-565685D01*
G01*
X67277429Y-79123248D01*
G75*
G02*
X66146059Y-79123248I-565685J565685D01*
G01*
X66146059Y-79123248D01*
G75*
G02*
X66146059Y-77991878I565685J565685D01*
G01*
G37*
%TD.AperFunction*%
%TO.P,U3,3*%
%TO.N,MOTOR_SIGNAL*%
%TA.AperFunction,ComponentPad*%
G36*
G01*
X71534213Y-61827417D02*
X71534213Y-61827417D01*
G75*
G02*
X72665583Y-61827417I565685J-565685D01*
G01*
X72665583Y-61827417D01*
G75*
G02*
X72665583Y-62958787I-565685J-565685D01*
G01*
X72665583Y-62958787D01*
G75*
G02*
X71534213Y-62958787I-565685J565685D01*
G01*
X71534213Y-62958787D01*
G75*
G02*
X71534213Y-61827417I565685J565685D01*
G01*
G37*
%TD.AperFunction*%
%TO.P,U3,13*%
%TO.N,Net-(U3-Pad13)*%
%TA.AperFunction,ComponentPad*%
G36*
G01*
X67942110Y-76195827D02*
X67942110Y-76195827D01*
G75*
G02*
X69073480Y-76195827I565685J-565685D01*
G01*
X69073480Y-76195827D01*
G75*
G02*
X69073480Y-77327197I-565685J-565685D01*
G01*
X69073480Y-77327197D01*
G75*
G02*
X67942110Y-77327197I-565685J565685D01*
G01*
X67942110Y-77327197D01*
G75*
G02*
X67942110Y-76195827I565685J565685D01*
G01*
G37*
%TD.AperFunction*%
%TO.P,U3,4*%
%TO.N,Net-(U3-Pad4)*%
%TA.AperFunction,ComponentPad*%
G36*
G01*
X69738161Y-63623469D02*
X69738161Y-63623469D01*
G75*
G02*
X70869531Y-63623469I565685J-565685D01*
G01*
X70869531Y-63623469D01*
G75*
G02*
X70869531Y-64754839I-565685J-565685D01*
G01*
X70869531Y-64754839D01*
G75*
G02*
X69738161Y-64754839I-565685J565685D01*
G01*
X69738161Y-64754839D01*
G75*
G02*
X69738161Y-63623469I565685J565685D01*
G01*
G37*
%TD.AperFunction*%
%TO.P,U3,14*%
%TO.N,Net-(U3-Pad14)*%
%TA.AperFunction,ComponentPad*%
G36*
G01*
X69738161Y-74399776D02*
X69738161Y-74399776D01*
G75*
G02*
X70869531Y-74399776I565685J-565685D01*
G01*
X70869531Y-74399776D01*
G75*
G02*
X70869531Y-75531146I-565685J-565685D01*
G01*
X70869531Y-75531146D01*
G75*
G02*
X69738161Y-75531146I-565685J565685D01*
G01*
X69738161Y-75531146D01*
G75*
G02*
X69738161Y-74399776I565685J565685D01*
G01*
G37*
%TD.AperFunction*%
%TO.P,U3,5*%
%TO.N,Net-(U3-Pad5)*%
%TA.AperFunction,ComponentPad*%
G36*
G01*
X67942110Y-65419520D02*
X67942110Y-65419520D01*
G75*
G02*
X69073480Y-65419520I565685J-565685D01*
G01*
X69073480Y-65419520D01*
G75*
G02*
X69073480Y-66550890I-565685J-565685D01*
G01*
X69073480Y-66550890D01*
G75*
G02*
X67942110Y-66550890I-565685J565685D01*
G01*
X67942110Y-66550890D01*
G75*
G02*
X67942110Y-65419520I565685J565685D01*
G01*
G37*
%TD.AperFunction*%
%TO.P,U3,15*%
%TO.N,Net-(U3-Pad15)*%
%TA.AperFunction,ComponentPad*%
G36*
G01*
X71534213Y-72603725D02*
X71534213Y-72603725D01*
G75*
G02*
X72665583Y-72603725I565685J-565685D01*
G01*
X72665583Y-72603725D01*
G75*
G02*
X72665583Y-73735095I-565685J-565685D01*
G01*
X72665583Y-73735095D01*
G75*
G02*
X71534213Y-73735095I-565685J565685D01*
G01*
X71534213Y-73735095D01*
G75*
G02*
X71534213Y-72603725I565685J565685D01*
G01*
G37*
%TD.AperFunction*%
%TO.P,U3,6*%
%TO.N,Net-(U3-Pad6)*%
%TA.AperFunction,ComponentPad*%
G36*
G01*
X66146059Y-67215571D02*
X66146059Y-67215571D01*
G75*
G02*
X67277429Y-67215571I565685J-565685D01*
G01*
X67277429Y-67215571D01*
G75*
G02*
X67277429Y-68346941I-565685J-565685D01*
G01*
X67277429Y-68346941D01*
G75*
G02*
X66146059Y-68346941I-565685J565685D01*
G01*
X66146059Y-68346941D01*
G75*
G02*
X66146059Y-67215571I565685J565685D01*
G01*
G37*
%TD.AperFunction*%
%TO.P,U3,16*%
%TO.N,Net-(U3-Pad16)*%
%TA.AperFunction,ComponentPad*%
G36*
G01*
X73330264Y-70807674D02*
X73330264Y-70807674D01*
G75*
G02*
X74461634Y-70807674I565685J-565685D01*
G01*
X74461634Y-70807674D01*
G75*
G02*
X74461634Y-71939044I-565685J-565685D01*
G01*
X74461634Y-71939044D01*
G75*
G02*
X73330264Y-71939044I-565685J565685D01*
G01*
X73330264Y-71939044D01*
G75*
G02*
X73330264Y-70807674I565685J565685D01*
G01*
G37*
%TD.AperFunction*%
%TO.P,U3,7*%
%TO.N,Net-(U3-Pad7)*%
%TA.AperFunction,ComponentPad*%
G36*
G01*
X64350008Y-69011622D02*
X64350008Y-69011622D01*
G75*
G02*
X65481378Y-69011622I565685J-565685D01*
G01*
X65481378Y-69011622D01*
G75*
G02*
X65481378Y-70142992I-565685J-565685D01*
G01*
X65481378Y-70142992D01*
G75*
G02*
X64350008Y-70142992I-565685J565685D01*
G01*
X64350008Y-70142992D01*
G75*
G02*
X64350008Y-69011622I565685J565685D01*
G01*
G37*
%TD.AperFunction*%
%TO.P,U3,17*%
%TO.N,TX_5V*%
%TA.AperFunction,ComponentPad*%
G36*
G01*
X75126315Y-69011622D02*
X75126315Y-69011622D01*
G75*
G02*
X76257685Y-69011622I565685J-565685D01*
G01*
X76257685Y-69011622D01*
G75*
G02*
X76257685Y-70142992I-565685J-565685D01*
G01*
X76257685Y-70142992D01*
G75*
G02*
X75126315Y-70142992I-565685J565685D01*
G01*
X75126315Y-70142992D01*
G75*
G02*
X75126315Y-69011622I565685J565685D01*
G01*
G37*
%TD.AperFunction*%
%TO.P,U3,8*%
%TO.N,Net-(U3-Pad8)*%
%TA.AperFunction,ComponentPad*%
G36*
G01*
X62553956Y-70807674D02*
X62553956Y-70807674D01*
G75*
G02*
X63685326Y-70807674I565685J-565685D01*
G01*
X63685326Y-70807674D01*
G75*
G02*
X63685326Y-71939044I-565685J-565685D01*
G01*
X63685326Y-71939044D01*
G75*
G02*
X62553956Y-71939044I-565685J565685D01*
G01*
X62553956Y-71939044D01*
G75*
G02*
X62553956Y-70807674I565685J565685D01*
G01*
G37*
%TD.AperFunction*%
%TO.P,U3,18*%
%TO.N,RX_5V*%
%TA.AperFunction,ComponentPad*%
G36*
G01*
X76922366Y-67215571D02*
X76922366Y-67215571D01*
G75*
G02*
X78053736Y-67215571I565685J-565685D01*
G01*
X78053736Y-67215571D01*
G75*
G02*
X78053736Y-68346941I-565685J-565685D01*
G01*
X78053736Y-68346941D01*
G75*
G02*
X76922366Y-68346941I-565685J565685D01*
G01*
X76922366Y-68346941D01*
G75*
G02*
X76922366Y-67215571I565685J565685D01*
G01*
G37*
%TD.AperFunction*%
%TO.P,U3,9*%
%TO.N,Net-(U3-Pad9)*%
%TA.AperFunction,ComponentPad*%
G36*
G01*
X60757905Y-72603725D02*
X60757905Y-72603725D01*
G75*
G02*
X61889275Y-72603725I565685J-565685D01*
G01*
X61889275Y-72603725D01*
G75*
G02*
X61889275Y-73735095I-565685J-565685D01*
G01*
X61889275Y-73735095D01*
G75*
G02*
X60757905Y-73735095I-565685J565685D01*
G01*
X60757905Y-73735095D01*
G75*
G02*
X60757905Y-72603725I565685J565685D01*
G01*
G37*
%TD.AperFunction*%
%TO.P,U3,19*%
%TO.N,DIR_5V*%
%TA.AperFunction,ComponentPad*%
G36*
G01*
X78718417Y-65419520D02*
X78718417Y-65419520D01*
G75*
G02*
X79849787Y-65419520I565685J-565685D01*
G01*
X79849787Y-65419520D01*
G75*
G02*
X79849787Y-66550890I-565685J-565685D01*
G01*
X79849787Y-66550890D01*
G75*
G02*
X78718417Y-66550890I-565685J565685D01*
G01*
X78718417Y-66550890D01*
G75*
G02*
X78718417Y-65419520I565685J565685D01*
G01*
G37*
%TD.AperFunction*%
%TO.P,U3,10*%
%TO.N,GND*%
%TA.AperFunction,ComponentPad*%
G36*
G01*
X58961854Y-74399776D02*
X58961854Y-74399776D01*
G75*
G02*
X60093224Y-74399776I565685J-565685D01*
G01*
X60093224Y-74399776D01*
G75*
G02*
X60093224Y-75531146I-565685J-565685D01*
G01*
X60093224Y-75531146D01*
G75*
G02*
X58961854Y-75531146I-565685J565685D01*
G01*
X58961854Y-75531146D01*
G75*
G02*
X58961854Y-74399776I565685J565685D01*
G01*
G37*
%TD.AperFunction*%
%TO.P,U3,20*%
%TO.N,+5V*%
%TA.AperFunction,ComponentPad*%
G36*
G01*
X80514469Y-63623469D02*
X80514469Y-63623469D01*
G75*
G02*
X81645839Y-63623469I565685J-565685D01*
G01*
X81645839Y-63623469D01*
G75*
G02*
X81645839Y-64754839I-565685J-565685D01*
G01*
X81645839Y-64754839D01*
G75*
G02*
X80514469Y-64754839I-565685J565685D01*
G01*
X80514469Y-64754839D01*
G75*
G02*
X80514469Y-63623469I565685J565685D01*
G01*
G37*
%TD.AperFunction*%
%TD*%
D11*
%TO.P,U1,1*%
%TO.N,+3V3*%
X87249000Y-60325000D03*
%TO.P,U1,2*%
%TO.N,GND*%
X87249000Y-62865000D03*
%TO.P,U1,3*%
%TO.N,Net-(U1-Pad3)*%
X87249000Y-65405000D03*
%TO.P,U1,4*%
%TO.N,Net-(U1-Pad4)*%
X87249000Y-67945000D03*
%TO.P,U1,5*%
%TO.N,Net-(U1-Pad5)*%
X87249000Y-70485000D03*
%TO.P,U1,6*%
%TO.N,RX_3V3*%
X87249000Y-73025000D03*
%TO.P,U1,7*%
%TO.N,TX_3V3*%
X87249000Y-75565000D03*
%TO.P,U1,8*%
%TO.N,Net-(U1-Pad8)*%
X87249000Y-78105000D03*
%TO.P,U1,9*%
%TO.N,Net-(U1-Pad9)*%
X87249000Y-80645000D03*
%TO.P,U1,10*%
%TO.N,BUTTON*%
X87249000Y-83185000D03*
%TO.P,U1,11*%
%TO.N,Net-(U1-Pad11)*%
X87249000Y-85725000D03*
%TO.P,U1,12*%
%TO.N,Net-(U1-Pad12)*%
X87249000Y-88265000D03*
%TO.P,U1,13*%
%TO.N,Net-(U1-Pad13)*%
X87249000Y-90805000D03*
%TO.P,U1,14*%
%TO.N,DIR_3V3*%
X87249000Y-93345000D03*
%TO.P,U1,15*%
%TO.N,Net-(U1-Pad15)*%
X87249000Y-95885000D03*
%TO.P,U1,16*%
%TO.N,Net-(U1-Pad16)*%
X112649000Y-95885000D03*
%TO.P,U1,17*%
%TO.N,Net-(U1-Pad17)*%
X112649000Y-93345000D03*
%TO.P,U1,18*%
%TO.N,Net-(U1-Pad18)*%
X112649000Y-90805000D03*
%TO.P,U1,19*%
%TO.N,Net-(U1-Pad19)*%
X112649000Y-88265000D03*
%TO.P,U1,20*%
%TO.N,POT_Z*%
X112649000Y-85725000D03*
%TO.P,U1,21*%
%TO.N,POT_Y*%
X112649000Y-83185000D03*
%TO.P,U1,22*%
%TO.N,POT_X*%
X112649000Y-80645000D03*
%TO.P,U1,23*%
%TO.N,Net-(U1-Pad23)*%
X112649000Y-78105000D03*
%TO.P,U1,24*%
%TO.N,Net-(U1-Pad24)*%
X112649000Y-75565000D03*
%TO.P,U1,25*%
%TO.N,Net-(U1-Pad25)*%
X112649000Y-73025000D03*
%TO.P,U1,26*%
%TO.N,Net-(U1-Pad26)*%
X112649000Y-70485000D03*
%TO.P,U1,27*%
%TO.N,Net-(U1-Pad27)*%
X112649000Y-67945000D03*
%TO.P,U1,28*%
%TO.N,Net-(U1-Pad28)*%
X112649000Y-65405000D03*
%TO.P,U1,29*%
%TO.N,GND*%
X112649000Y-62865000D03*
%TO.P,U1,30*%
%TO.N,+5V*%
X112649000Y-60325000D03*
%TD*%
D12*
%TO.P,J1,1*%
%TO.N,GND*%
X67706880Y-124931059D03*
%TO.P,J1,2*%
%TO.N,+8V*%
X65659000Y-126365000D03*
%TO.P,J1,3*%
%TO.N,MOTOR_SIGNAL*%
X63611120Y-127798941D03*
%TD*%
%TO.P,J2,3*%
%TO.N,MOTOR_SIGNAL*%
X59202231Y-120690546D03*
%TO.P,J2,2*%
%TO.N,+8V*%
X61468000Y-119634000D03*
%TO.P,J2,1*%
%TO.N,GND*%
X63733769Y-118577454D03*
%TD*%
%TO.P,J3,1*%
%TO.N,GND*%
X61215815Y-111747952D03*
%TO.P,J3,2*%
%TO.N,+8V*%
X58801000Y-112395000D03*
%TO.P,J3,3*%
%TO.N,MOTOR_SIGNAL*%
X56386185Y-113042048D03*
%TD*%
%TO.P,J4,3*%
%TO.N,MOTOR_SIGNAL*%
X54786513Y-105119889D03*
%TO.P,J4,2*%
%TO.N,+8V*%
X57277000Y-104902000D03*
%TO.P,J4,1*%
%TO.N,GND*%
X59767487Y-104684111D03*
%TD*%
%TO.P,J5,1*%
%TO.N,GND*%
X59259487Y-97245889D03*
%TO.P,J5,2*%
%TO.N,+8V*%
X56769000Y-97028000D03*
%TO.P,J5,3*%
%TO.N,MOTOR_SIGNAL*%
X54278513Y-96810111D03*
%TD*%
D11*
%TO.P,A1,1*%
%TO.N,GND*%
X67945000Y-103632000D03*
X70485000Y-103632000D03*
%TO.P,A1,4*%
%TO.N,+12V*%
X79445000Y-103632000D03*
X81945000Y-103632000D03*
%TO.P,A1,2*%
%TO.N,GND*%
X67945000Y-85132000D03*
%TO.P,A1,3*%
%TO.N,+5V*%
X81945000Y-85132000D03*
%TO.P,A1,2*%
%TO.N,GND*%
X70485000Y-85132000D03*
%TO.P,A1,3*%
%TO.N,+5V*%
X79445000Y-85132000D03*
%TD*%
D13*
%TO.P,A2,4*%
%TO.N,+12V*%
X124699000Y-129253000D03*
%TO.P,A2,3*%
%TO.N,+8V*%
X75199000Y-129253000D03*
%TO.P,A2,1*%
%TO.N,GND*%
X124699000Y-109253000D03*
%TO.P,A2,2*%
X75199000Y-109253000D03*
%TD*%
D14*
%TO.P,C3,1*%
%TO.N,+8V*%
X80010000Y-141097000D03*
D15*
%TO.P,C3,2*%
%TO.N,GND*%
X80010000Y-136097000D03*
%TD*%
%TO.P,C4,2*%
%TO.N,GND*%
X92710000Y-136097000D03*
D14*
%TO.P,C4,1*%
%TO.N,+8V*%
X92710000Y-141097000D03*
%TD*%
%TO.P,C5,1*%
%TO.N,+12V*%
X106680000Y-141097000D03*
D15*
%TO.P,C5,2*%
%TO.N,GND*%
X106680000Y-136097000D03*
%TD*%
%TO.P,C6,2*%
%TO.N,GND*%
X119380000Y-136097000D03*
D14*
%TO.P,C6,1*%
%TO.N,+12V*%
X119380000Y-141097000D03*
%TD*%
%TA.AperFunction,ComponentPad*%
D10*
%TO.P,J6,1*%
%TO.N,GND*%
G36*
X133800907Y-115303363D02*
G01*
X135521637Y-112845907D01*
X137979093Y-114566637D01*
X136258363Y-117024093D01*
X133800907Y-115303363D01*
G37*
%TD.AperFunction*%
D16*
%TO.P,J6,2*%
%TO.N,+12V*%
X140051292Y-117848768D03*
%TD*%
D17*
%TO.P,C7,1*%
%TO.N,+5V*%
X79883000Y-77089000D03*
D18*
%TO.P,C7,2*%
%TO.N,GND*%
X77883000Y-77089000D03*
%TD*%
%TO.P,J7,1*%
%TO.N,+3V3*%
%TA.AperFunction,ComponentPad*%
G36*
G01*
X128660999Y-76235000D02*
X129911001Y-76235000D01*
G75*
G02*
X130161000Y-76484999I0J-249999D01*
G01*
X130161000Y-77185001D01*
G75*
G02*
X129911001Y-77435000I-249999J0D01*
G01*
X128660999Y-77435000D01*
G75*
G02*
X128411000Y-77185001I0J249999D01*
G01*
X128411000Y-76484999D01*
G75*
G02*
X128660999Y-76235000I249999J0D01*
G01*
G37*
%TD.AperFunction*%
D19*
%TO.P,J7,2*%
%TO.N,GND*%
X129286000Y-78835000D03*
%TO.P,J7,3*%
%TO.N,POT_X*%
X129286000Y-80835000D03*
%TO.P,J7,4*%
%TO.N,POT_Y*%
X129286000Y-82835000D03*
%TD*%
%TO.P,J8,1*%
%TO.N,+3V3*%
%TA.AperFunction,ComponentPad*%
G36*
G01*
X128660999Y-90840000D02*
X129911001Y-90840000D01*
G75*
G02*
X130161000Y-91089999I0J-249999D01*
G01*
X130161000Y-91790001D01*
G75*
G02*
X129911001Y-92040000I-249999J0D01*
G01*
X128660999Y-92040000D01*
G75*
G02*
X128411000Y-91790001I0J249999D01*
G01*
X128411000Y-91089999D01*
G75*
G02*
X128660999Y-90840000I249999J0D01*
G01*
G37*
%TD.AperFunction*%
%TO.P,J8,2*%
%TO.N,POT_Z*%
X129286000Y-93440000D03*
%TO.P,J8,3*%
%TO.N,BUTTON*%
X129286000Y-95440000D03*
%TO.P,J8,4*%
%TO.N,GND*%
X129286000Y-97440000D03*
%TO.P,J8,5*%
X129286000Y-99440000D03*
%TD*%
D20*
%TO.N,+3V3*%
X95504000Y-77343000D03*
X90241001Y-59237999D03*
%TO.N,DIR_3V3*%
X89662000Y-93345000D03*
X99441000Y-76327000D03*
%TO.N,GND*%
X98044000Y-63119000D03*
X103251000Y-67183000D03*
X98044000Y-80518000D03*
%TO.N,DIR_5V*%
X99314000Y-70739000D03*
%TD*%
D21*
%TO.N,+3V3*%
X100039001Y-72807999D02*
X95504000Y-77343000D01*
X100039001Y-69035999D02*
X100039001Y-72807999D01*
X90241001Y-59237999D02*
X100039001Y-69035999D01*
%TO.N,DIR_3V3*%
X99441000Y-83566000D02*
X89662000Y-93345000D01*
X99441000Y-76327000D02*
X99441000Y-83566000D01*
%TO.N,DIR_5V*%
X82330898Y-69032001D02*
X79284102Y-65985205D01*
X97607001Y-69032001D02*
X82330898Y-69032001D01*
X99314000Y-70739000D02*
X97607001Y-69032001D01*
%TD*%
D22*
%TO.N,GND*%
X103385531Y-50804292D02*
X106123498Y-51072752D01*
X108842219Y-51493632D01*
X111533202Y-52065617D01*
X114188064Y-52786927D01*
X116798519Y-53655310D01*
X119356444Y-54668064D01*
X121858484Y-55824169D01*
X123086611Y-56455341D01*
X123123626Y-56473076D01*
X123147001Y-56482710D01*
X123150504Y-56484409D01*
X123153182Y-56485257D01*
X123161574Y-56488716D01*
X123200336Y-56502215D01*
X123239790Y-56513529D01*
X123249128Y-56515650D01*
X123251918Y-56516534D01*
X123255835Y-56517174D01*
X123279815Y-56522621D01*
X123320285Y-56529467D01*
X123354829Y-56533341D01*
X123356908Y-56533681D01*
X123358026Y-56533700D01*
X123361075Y-56534042D01*
X123402055Y-56536333D01*
X123443100Y-56536333D01*
X123459328Y-56535426D01*
X123463273Y-56535493D01*
X123467235Y-56534984D01*
X123484081Y-56534042D01*
X123524870Y-56529468D01*
X123565340Y-56522622D01*
X123567846Y-56522053D01*
X123568785Y-56521932D01*
X123570551Y-56521438D01*
X123605365Y-56513529D01*
X123644819Y-56502215D01*
X123667356Y-56494367D01*
X123671236Y-56493282D01*
X123675120Y-56491663D01*
X123683581Y-56488717D01*
X123721529Y-56473076D01*
X123733606Y-56467290D01*
X123738702Y-56465166D01*
X124688790Y-56012528D01*
X125643328Y-55717527D01*
X126630440Y-55563411D01*
X127629464Y-55553405D01*
X128619473Y-55687719D01*
X129579722Y-55963541D01*
X129966792Y-56138523D01*
X129671951Y-56260650D01*
X129363215Y-56466941D01*
X129100658Y-56729498D01*
X128894367Y-57038234D01*
X128752272Y-57381282D01*
X128679833Y-57745460D01*
X128679833Y-58116772D01*
X128752272Y-58480950D01*
X128894367Y-58823998D01*
X129100658Y-59132734D01*
X129363215Y-59395291D01*
X129671951Y-59601582D01*
X130014999Y-59743677D01*
X130379177Y-59816116D01*
X130750489Y-59816116D01*
X131114667Y-59743677D01*
X131457715Y-59601582D01*
X131766451Y-59395291D01*
X132029008Y-59132734D01*
X132235299Y-58823998D01*
X132377394Y-58480950D01*
X132449833Y-58116772D01*
X132449833Y-57989684D01*
X132738846Y-58324818D01*
X133275264Y-59167674D01*
X133684394Y-60079140D01*
X133957661Y-61040117D01*
X134089343Y-62030478D01*
X134076618Y-63034474D01*
X133954524Y-63876543D01*
X133954375Y-63878628D01*
X133953375Y-63884800D01*
X133949084Y-63925621D01*
X133947079Y-63966617D01*
X133947167Y-63979192D01*
X133946919Y-63982651D01*
X133947220Y-63986747D01*
X133947366Y-64007661D01*
X133949943Y-64048623D01*
X133954682Y-64088366D01*
X133954710Y-64088746D01*
X133954748Y-64088916D01*
X133954803Y-64089380D01*
X133961930Y-64129801D01*
X133971303Y-64169762D01*
X133976847Y-64188600D01*
X133977735Y-64192605D01*
X133979026Y-64196004D01*
X133982891Y-64209136D01*
X133996661Y-64247803D01*
X134012565Y-64285641D01*
X134014872Y-64290371D01*
X134015511Y-64292053D01*
X134016979Y-64294690D01*
X134030559Y-64322532D01*
X134050583Y-64358361D01*
X134065509Y-64381881D01*
X134067248Y-64385005D01*
X134068682Y-64386880D01*
X134072575Y-64393015D01*
X134096469Y-64426389D01*
X134122187Y-64458377D01*
X134129870Y-64466909D01*
X134131862Y-64469515D01*
X134134781Y-64472363D01*
X134149652Y-64488879D01*
X134156781Y-64496262D01*
X136095989Y-66476516D01*
X137908116Y-68546492D01*
X139601862Y-70714387D01*
X141171954Y-72973455D01*
X142613489Y-75316636D01*
X143921986Y-77736649D01*
X145093346Y-80225916D01*
X145954667Y-82357761D01*
X145076580Y-82624065D01*
X145060305Y-82629996D01*
X145043684Y-82634894D01*
X145000685Y-82651721D01*
X143681915Y-83216168D01*
X143666393Y-83223847D01*
X143650406Y-83230541D01*
X143609513Y-83251985D01*
X142360646Y-83957737D01*
X142346063Y-83967071D01*
X142330904Y-83975481D01*
X142292612Y-84001283D01*
X141128732Y-84839817D01*
X141115260Y-84850696D01*
X141101116Y-84860718D01*
X141065886Y-84890565D01*
X140001052Y-85851752D01*
X139988853Y-85864046D01*
X139975897Y-85875557D01*
X139944155Y-85909090D01*
X138991226Y-86981322D01*
X138980450Y-86994879D01*
X138968835Y-87007744D01*
X138940965Y-87044557D01*
X138111451Y-88214882D01*
X138102223Y-88229549D01*
X138092095Y-88243602D01*
X138068432Y-88283252D01*
X137372353Y-89537535D01*
X137364791Y-89553124D01*
X137356266Y-89568204D01*
X137337097Y-89610211D01*
X136782859Y-90933305D01*
X136777056Y-90949621D01*
X136770234Y-90965554D01*
X136755791Y-91009411D01*
X136350089Y-92385333D01*
X136346112Y-92402187D01*
X136341079Y-92418773D01*
X136331536Y-92463950D01*
X136079270Y-93876081D01*
X136077166Y-93893274D01*
X136073984Y-93910309D01*
X136069455Y-93956260D01*
X135973671Y-95387546D01*
X135973466Y-95404866D01*
X135972173Y-95422147D01*
X135972715Y-95468318D01*
X136034571Y-96901470D01*
X136036267Y-96918699D01*
X136036878Y-96936027D01*
X136042483Y-96981859D01*
X136261232Y-98399570D01*
X136264810Y-98416517D01*
X136267318Y-98433664D01*
X136277918Y-98478605D01*
X136650917Y-99863749D01*
X136656336Y-99880209D01*
X136660708Y-99896969D01*
X136676175Y-99940475D01*
X137198920Y-101276325D01*
X137206111Y-101292087D01*
X137212297Y-101308270D01*
X137232445Y-101349816D01*
X137898621Y-102620234D01*
X137907495Y-102635107D01*
X137915422Y-102650518D01*
X137940008Y-102689602D01*
X138741569Y-103879247D01*
X138752023Y-103893059D01*
X138761593Y-103907506D01*
X138790319Y-103943656D01*
X139717585Y-105038157D01*
X139729491Y-105050738D01*
X139740588Y-105064047D01*
X139773107Y-105096826D01*
X140814877Y-106082964D01*
X140828087Y-106094158D01*
X140840582Y-106106174D01*
X140876503Y-106135187D01*
X142020196Y-107001053D01*
X142034560Y-107010734D01*
X142048292Y-107021301D01*
X142087179Y-107046198D01*
X143318979Y-107781331D01*
X143334314Y-107789375D01*
X143349129Y-107798375D01*
X143390513Y-107818853D01*
X144695544Y-108414376D01*
X144711670Y-108420689D01*
X144727381Y-108428008D01*
X144770762Y-108443822D01*
X146133262Y-108892543D01*
X146149986Y-108897049D01*
X146166403Y-108902599D01*
X146211258Y-108913556D01*
X147614768Y-109210054D01*
X147631881Y-109212697D01*
X147648813Y-109216413D01*
X147694599Y-109222382D01*
X148844639Y-109335724D01*
X149383726Y-109905272D01*
X149958574Y-110722406D01*
X150409440Y-111613956D01*
X150726884Y-112561260D01*
X150904253Y-113544460D01*
X150937834Y-114542974D01*
X150903368Y-114851520D01*
X150656557Y-114604709D01*
X150347821Y-114398418D01*
X150004773Y-114256323D01*
X149640595Y-114183884D01*
X149269283Y-114183884D01*
X148905105Y-114256323D01*
X148562057Y-114398418D01*
X148253321Y-114604709D01*
X147990764Y-114867266D01*
X147784473Y-115176002D01*
X147642378Y-115519050D01*
X147569939Y-115883228D01*
X147569939Y-116254540D01*
X147642378Y-116618718D01*
X147784473Y-116961766D01*
X147990764Y-117270502D01*
X148253321Y-117533059D01*
X148562057Y-117739350D01*
X148905105Y-117881445D01*
X149269283Y-117953884D01*
X149640595Y-117953884D01*
X149891231Y-117904030D01*
X149665238Y-118276105D01*
X149028755Y-119046196D01*
X148287776Y-119716337D01*
X147457813Y-120272498D01*
X146556253Y-120703025D01*
X145597071Y-121000423D01*
X144764532Y-121143122D01*
X144762447Y-121143637D01*
X144756020Y-121144632D01*
X144715872Y-121153166D01*
X144676263Y-121163927D01*
X144664576Y-121167815D01*
X144661256Y-121168635D01*
X144657462Y-121170182D01*
X144637317Y-121176883D01*
X144599155Y-121191992D01*
X144563271Y-121208573D01*
X144562744Y-121208788D01*
X144562517Y-121208922D01*
X144561895Y-121209209D01*
X144525655Y-121228478D01*
X144490546Y-121249741D01*
X144474603Y-121260657D01*
X144471061Y-121262742D01*
X144468187Y-121265051D01*
X144456680Y-121272930D01*
X144424161Y-121297973D01*
X144393090Y-121324792D01*
X144389474Y-121328284D01*
X144388127Y-121329366D01*
X144386130Y-121331513D01*
X144363564Y-121353305D01*
X144335677Y-121383421D01*
X144318150Y-121404607D01*
X144315678Y-121407265D01*
X144314300Y-121409261D01*
X144309514Y-121415046D01*
X144285158Y-121448083D01*
X144262682Y-121482427D01*
X144257068Y-121492151D01*
X144255235Y-121494806D01*
X144253435Y-121498444D01*
X144242160Y-121517974D01*
X144237342Y-121527035D01*
X142953257Y-123983265D01*
X141544579Y-126346343D01*
X140006165Y-128627136D01*
X138342870Y-130818446D01*
X136559817Y-132913527D01*
X134662608Y-134905793D01*
X132657139Y-136789054D01*
X130549665Y-138557434D01*
X128346771Y-140205409D01*
X126055314Y-141727850D01*
X123682463Y-143119994D01*
X121235585Y-144377518D01*
X118722329Y-145496492D01*
X116150515Y-146473433D01*
X113528203Y-147305279D01*
X110863516Y-147989454D01*
X108159784Y-148524807D01*
X106795210Y-148736055D01*
X106754839Y-148743465D01*
X106730258Y-148749411D01*
X106726436Y-148750094D01*
X106723781Y-148750978D01*
X106714945Y-148753116D01*
X106675653Y-148764979D01*
X106637083Y-148779017D01*
X106628269Y-148782795D01*
X106625507Y-148783715D01*
X106621983Y-148785489D01*
X106599358Y-148795187D01*
X106562593Y-148813436D01*
X106532351Y-148830617D01*
X106530490Y-148831554D01*
X106529583Y-148832189D01*
X106526905Y-148833711D01*
X106492404Y-148855945D01*
X106459198Y-148880071D01*
X106446598Y-148890347D01*
X106443373Y-148892607D01*
X106440473Y-148895342D01*
X106427390Y-148906012D01*
X106397081Y-148933688D01*
X106368363Y-148963014D01*
X106366664Y-148964955D01*
X106365983Y-148965597D01*
X106364858Y-148967018D01*
X106341327Y-148993896D01*
X106316058Y-149026241D01*
X106302435Y-149045843D01*
X106299939Y-149048994D01*
X106297753Y-149052579D01*
X106292634Y-149059944D01*
X106271127Y-149094903D01*
X106264747Y-149106702D01*
X106261884Y-149111397D01*
X105759299Y-150036039D01*
X105160460Y-150835761D01*
X104452454Y-151540654D01*
X103650109Y-152135960D01*
X102770227Y-152609210D01*
X101831250Y-152950484D01*
X101600061Y-152998251D01*
X101670466Y-152892882D01*
X101812561Y-152549834D01*
X101885000Y-152185656D01*
X101885000Y-151814344D01*
X101812561Y-151450166D01*
X101670466Y-151107118D01*
X101464175Y-150798382D01*
X101201618Y-150535825D01*
X100892882Y-150329534D01*
X100549834Y-150187439D01*
X100185656Y-150115000D01*
X99814344Y-150115000D01*
X99450166Y-150187439D01*
X99107118Y-150329534D01*
X98798382Y-150535825D01*
X98535825Y-150798382D01*
X98329534Y-151107118D01*
X98187439Y-151450166D01*
X98115000Y-151814344D01*
X98115000Y-152185656D01*
X98187439Y-152549834D01*
X98329534Y-152892882D01*
X98415188Y-153021072D01*
X97887535Y-152897058D01*
X96958143Y-152530471D01*
X96091405Y-152033559D01*
X95305483Y-151416738D01*
X94616828Y-150692918D01*
X94036992Y-149873192D01*
X93640811Y-149120176D01*
X93639704Y-149118397D01*
X93636886Y-149112819D01*
X93616364Y-149077273D01*
X93593889Y-149042928D01*
X93586433Y-149032815D01*
X93584595Y-149029862D01*
X93581937Y-149026716D01*
X93569532Y-149009891D01*
X93543370Y-148978267D01*
X93516191Y-148948916D01*
X93515931Y-148948609D01*
X93515793Y-148948487D01*
X93515482Y-148948151D01*
X93485957Y-148919639D01*
X93454886Y-148892819D01*
X93439336Y-148880844D01*
X93436256Y-148878119D01*
X93433206Y-148876123D01*
X93422367Y-148867776D01*
X93388500Y-148844587D01*
X93353392Y-148823324D01*
X93348745Y-148820853D01*
X93347241Y-148819869D01*
X93344507Y-148818600D01*
X93317151Y-148804055D01*
X93279891Y-148786839D01*
X93253983Y-148776581D01*
X93250748Y-148775079D01*
X93248492Y-148774406D01*
X93241730Y-148771729D01*
X93202783Y-148758773D01*
X93163174Y-148748011D01*
X93151950Y-148745625D01*
X93148802Y-148744687D01*
X93144760Y-148744097D01*
X93123026Y-148739478D01*
X93112920Y-148737696D01*
X90380106Y-148275475D01*
X87697358Y-147665970D01*
X85052844Y-146907667D01*
X82454748Y-146002915D01*
X79911241Y-144954556D01*
X77430195Y-143765839D01*
X75019400Y-142440493D01*
X72686322Y-140982625D01*
X71430870Y-140097000D01*
X78371928Y-140097000D01*
X78371928Y-142097000D01*
X78384188Y-142221482D01*
X78420498Y-142341180D01*
X78479463Y-142451494D01*
X78558815Y-142548185D01*
X78655506Y-142627537D01*
X78765820Y-142686502D01*
X78885518Y-142722812D01*
X79010000Y-142735072D01*
X81010000Y-142735072D01*
X81134482Y-142722812D01*
X81254180Y-142686502D01*
X81364494Y-142627537D01*
X81461185Y-142548185D01*
X81540537Y-142451494D01*
X81599502Y-142341180D01*
X81635812Y-142221482D01*
X81648072Y-142097000D01*
X81648072Y-140097000D01*
X91071928Y-140097000D01*
X91071928Y-142097000D01*
X91084188Y-142221482D01*
X91120498Y-142341180D01*
X91179463Y-142451494D01*
X91258815Y-142548185D01*
X91355506Y-142627537D01*
X91465820Y-142686502D01*
X91585518Y-142722812D01*
X91710000Y-142735072D01*
X93710000Y-142735072D01*
X93834482Y-142722812D01*
X93954180Y-142686502D01*
X94064494Y-142627537D01*
X94161185Y-142548185D01*
X94240537Y-142451494D01*
X94299502Y-142341180D01*
X94335812Y-142221482D01*
X94348072Y-142097000D01*
X94348072Y-140097000D01*
X105041928Y-140097000D01*
X105041928Y-142097000D01*
X105054188Y-142221482D01*
X105090498Y-142341180D01*
X105149463Y-142451494D01*
X105228815Y-142548185D01*
X105325506Y-142627537D01*
X105435820Y-142686502D01*
X105555518Y-142722812D01*
X105680000Y-142735072D01*
X107680000Y-142735072D01*
X107804482Y-142722812D01*
X107924180Y-142686502D01*
X108034494Y-142627537D01*
X108131185Y-142548185D01*
X108210537Y-142451494D01*
X108269502Y-142341180D01*
X108305812Y-142221482D01*
X108318072Y-142097000D01*
X108318072Y-140097000D01*
X117741928Y-140097000D01*
X117741928Y-142097000D01*
X117754188Y-142221482D01*
X117790498Y-142341180D01*
X117849463Y-142451494D01*
X117928815Y-142548185D01*
X118025506Y-142627537D01*
X118135820Y-142686502D01*
X118255518Y-142722812D01*
X118380000Y-142735072D01*
X120380000Y-142735072D01*
X120504482Y-142722812D01*
X120624180Y-142686502D01*
X120734494Y-142627537D01*
X120831185Y-142548185D01*
X120910537Y-142451494D01*
X120969502Y-142341180D01*
X121005812Y-142221482D01*
X121018072Y-142097000D01*
X121018072Y-140097000D01*
X121005812Y-139972518D01*
X120969502Y-139852820D01*
X120910537Y-139742506D01*
X120831185Y-139645815D01*
X120734494Y-139566463D01*
X120624180Y-139507498D01*
X120504482Y-139471188D01*
X120380000Y-139458928D01*
X118380000Y-139458928D01*
X118255518Y-139471188D01*
X118135820Y-139507498D01*
X118025506Y-139566463D01*
X117928815Y-139645815D01*
X117849463Y-139742506D01*
X117790498Y-139852820D01*
X117754188Y-139972518D01*
X117741928Y-140097000D01*
X108318072Y-140097000D01*
X108305812Y-139972518D01*
X108269502Y-139852820D01*
X108210537Y-139742506D01*
X108131185Y-139645815D01*
X108034494Y-139566463D01*
X107924180Y-139507498D01*
X107804482Y-139471188D01*
X107680000Y-139458928D01*
X105680000Y-139458928D01*
X105555518Y-139471188D01*
X105435820Y-139507498D01*
X105325506Y-139566463D01*
X105228815Y-139645815D01*
X105149463Y-139742506D01*
X105090498Y-139852820D01*
X105054188Y-139972518D01*
X105041928Y-140097000D01*
X94348072Y-140097000D01*
X94335812Y-139972518D01*
X94299502Y-139852820D01*
X94240537Y-139742506D01*
X94161185Y-139645815D01*
X94064494Y-139566463D01*
X93954180Y-139507498D01*
X93834482Y-139471188D01*
X93710000Y-139458928D01*
X91710000Y-139458928D01*
X91585518Y-139471188D01*
X91465820Y-139507498D01*
X91355506Y-139566463D01*
X91258815Y-139645815D01*
X91179463Y-139742506D01*
X91120498Y-139852820D01*
X91084188Y-139972518D01*
X91071928Y-140097000D01*
X81648072Y-140097000D01*
X81635812Y-139972518D01*
X81599502Y-139852820D01*
X81540537Y-139742506D01*
X81461185Y-139645815D01*
X81364494Y-139566463D01*
X81254180Y-139507498D01*
X81134482Y-139471188D01*
X81010000Y-139458928D01*
X79010000Y-139458928D01*
X78885518Y-139471188D01*
X78765820Y-139507498D01*
X78655506Y-139566463D01*
X78558815Y-139645815D01*
X78479463Y-139742506D01*
X78420498Y-139852820D01*
X78384188Y-139972518D01*
X78371928Y-140097000D01*
X71430870Y-140097000D01*
X70438276Y-139396802D01*
X68282253Y-137687959D01*
X66224972Y-135861419D01*
X64272883Y-133922911D01*
X62432045Y-131878453D01*
X60708181Y-129734400D01*
X59221343Y-127657606D01*
X62176120Y-127657606D01*
X62176120Y-127940276D01*
X62231267Y-128217515D01*
X62339440Y-128478668D01*
X62496483Y-128713700D01*
X62696361Y-128913578D01*
X62931393Y-129070621D01*
X63192546Y-129178794D01*
X63469785Y-129233941D01*
X63752455Y-129233941D01*
X64029694Y-129178794D01*
X64290847Y-129070621D01*
X64525879Y-128913578D01*
X64725757Y-128713700D01*
X64882800Y-128478668D01*
X64990973Y-128217515D01*
X65046120Y-127940276D01*
X65046120Y-127664369D01*
X65240426Y-127744853D01*
X65517665Y-127800000D01*
X65800335Y-127800000D01*
X66036616Y-127753000D01*
X73060928Y-127753000D01*
X73060928Y-130753000D01*
X73073188Y-130877482D01*
X73109498Y-130997180D01*
X73168463Y-131107494D01*
X73247815Y-131204185D01*
X73344506Y-131283537D01*
X73454820Y-131342502D01*
X73574518Y-131378812D01*
X73699000Y-131391072D01*
X76699000Y-131391072D01*
X76823482Y-131378812D01*
X76943180Y-131342502D01*
X77053494Y-131283537D01*
X77150185Y-131204185D01*
X77229537Y-131107494D01*
X77288502Y-130997180D01*
X77324812Y-130877482D01*
X77337072Y-130753000D01*
X77337072Y-127753000D01*
X122560928Y-127753000D01*
X122560928Y-130753000D01*
X122573188Y-130877482D01*
X122609498Y-130997180D01*
X122668463Y-131107494D01*
X122747815Y-131204185D01*
X122844506Y-131283537D01*
X122954820Y-131342502D01*
X123074518Y-131378812D01*
X123199000Y-131391072D01*
X126199000Y-131391072D01*
X126323482Y-131378812D01*
X126443180Y-131342502D01*
X126553494Y-131283537D01*
X126650185Y-131204185D01*
X126729537Y-131107494D01*
X126788502Y-130997180D01*
X126824812Y-130877482D01*
X126837072Y-130753000D01*
X126837072Y-127753000D01*
X126824812Y-127628518D01*
X126788502Y-127508820D01*
X126729537Y-127398506D01*
X126650185Y-127301815D01*
X126553494Y-127222463D01*
X126443180Y-127163498D01*
X126323482Y-127127188D01*
X126199000Y-127114928D01*
X123199000Y-127114928D01*
X123074518Y-127127188D01*
X122954820Y-127163498D01*
X122844506Y-127222463D01*
X122747815Y-127301815D01*
X122668463Y-127398506D01*
X122609498Y-127508820D01*
X122573188Y-127628518D01*
X122560928Y-127753000D01*
X77337072Y-127753000D01*
X77324812Y-127628518D01*
X77288502Y-127508820D01*
X77229537Y-127398506D01*
X77150185Y-127301815D01*
X77053494Y-127222463D01*
X76943180Y-127163498D01*
X76823482Y-127127188D01*
X76699000Y-127114928D01*
X73699000Y-127114928D01*
X73574518Y-127127188D01*
X73454820Y-127163498D01*
X73344506Y-127222463D01*
X73247815Y-127301815D01*
X73168463Y-127398506D01*
X73109498Y-127508820D01*
X73073188Y-127628518D01*
X73060928Y-127753000D01*
X66036616Y-127753000D01*
X66077574Y-127744853D01*
X66338727Y-127636680D01*
X66573759Y-127479637D01*
X66773637Y-127279759D01*
X66930680Y-127044727D01*
X67038853Y-126783574D01*
X67094000Y-126506335D01*
X67094000Y-126223665D01*
X67038853Y-125946426D01*
X66930680Y-125685273D01*
X66773637Y-125450241D01*
X66573759Y-125250363D01*
X66338727Y-125093320D01*
X66077574Y-124985147D01*
X65800335Y-124930000D01*
X65517665Y-124930000D01*
X65240426Y-124985147D01*
X64979273Y-125093320D01*
X64744241Y-125250363D01*
X64544363Y-125450241D01*
X64387320Y-125685273D01*
X64279147Y-125946426D01*
X64224000Y-126223665D01*
X64224000Y-126499572D01*
X64029694Y-126419088D01*
X63752455Y-126363941D01*
X63469785Y-126363941D01*
X63192546Y-126419088D01*
X62931393Y-126527261D01*
X62696361Y-126684304D01*
X62496483Y-126884182D01*
X62339440Y-127119214D01*
X62231267Y-127380367D01*
X62176120Y-127657606D01*
X59221343Y-127657606D01*
X59106701Y-127497476D01*
X57632589Y-125174647D01*
X56287931Y-122768666D01*
X55665349Y-121536162D01*
X55645827Y-121500057D01*
X55632577Y-121478521D01*
X55630745Y-121475093D01*
X55629080Y-121472837D01*
X55624319Y-121465098D01*
X55600895Y-121431394D01*
X55575626Y-121399051D01*
X55569312Y-121391839D01*
X55567582Y-121389494D01*
X55564804Y-121386689D01*
X55548590Y-121368168D01*
X55519872Y-121338842D01*
X55494186Y-121315388D01*
X55492722Y-121313910D01*
X55491839Y-121313245D01*
X55489562Y-121311166D01*
X55457755Y-121285224D01*
X55424549Y-121261099D01*
X55410873Y-121252285D01*
X55407737Y-121249924D01*
X55404250Y-121248017D01*
X55390048Y-121238864D01*
X55354360Y-121218590D01*
X55317596Y-121200340D01*
X55315219Y-121199321D01*
X55314405Y-121198876D01*
X55312719Y-121198250D01*
X55279870Y-121184171D01*
X55241300Y-121170134D01*
X55218426Y-121163227D01*
X55214680Y-121161836D01*
X55210623Y-121160871D01*
X55202008Y-121158270D01*
X55162114Y-121148619D01*
X55148893Y-121146192D01*
X55143572Y-121144927D01*
X54108876Y-120952668D01*
X53163247Y-120630269D01*
X53005025Y-120549211D01*
X57767231Y-120549211D01*
X57767231Y-120831881D01*
X57822378Y-121109120D01*
X57930551Y-121370273D01*
X58087594Y-121605305D01*
X58287472Y-121805183D01*
X58522504Y-121962226D01*
X58783657Y-122070399D01*
X59060896Y-122125546D01*
X59343566Y-122125546D01*
X59620805Y-122070399D01*
X59881958Y-121962226D01*
X60116990Y-121805183D01*
X60316868Y-121605305D01*
X60473911Y-121370273D01*
X60582084Y-121109120D01*
X60637231Y-120831881D01*
X60637231Y-120804757D01*
X60788273Y-120905680D01*
X61049426Y-121013853D01*
X61326665Y-121069000D01*
X61609335Y-121069000D01*
X61886574Y-121013853D01*
X62147727Y-120905680D01*
X62382759Y-120748637D01*
X62582637Y-120548759D01*
X62739680Y-120313727D01*
X62847853Y-120052574D01*
X62903000Y-119775335D01*
X62903000Y-119492665D01*
X62847853Y-119215426D01*
X62739680Y-118954273D01*
X62582637Y-118719241D01*
X62382759Y-118519363D01*
X62147727Y-118362320D01*
X61886574Y-118254147D01*
X61609335Y-118199000D01*
X61326665Y-118199000D01*
X61049426Y-118254147D01*
X60788273Y-118362320D01*
X60553241Y-118519363D01*
X60353363Y-118719241D01*
X60196320Y-118954273D01*
X60088147Y-119215426D01*
X60033000Y-119492665D01*
X60033000Y-119519789D01*
X59881958Y-119418866D01*
X59620805Y-119310693D01*
X59343566Y-119255546D01*
X59060896Y-119255546D01*
X58783657Y-119310693D01*
X58522504Y-119418866D01*
X58287472Y-119575909D01*
X58087594Y-119775787D01*
X57930551Y-120010819D01*
X57822378Y-120271972D01*
X57767231Y-120549211D01*
X53005025Y-120549211D01*
X52274066Y-120174739D01*
X51459959Y-119595624D01*
X50737972Y-118905048D01*
X50123241Y-118117488D01*
X49986745Y-117877932D01*
X49995227Y-117881445D01*
X50359405Y-117953884D01*
X50730717Y-117953884D01*
X51094895Y-117881445D01*
X51437943Y-117739350D01*
X51588892Y-117638489D01*
X137916292Y-117638489D01*
X137916292Y-118059047D01*
X137998339Y-118471524D01*
X138159280Y-118860070D01*
X138392929Y-119209751D01*
X138690309Y-119507131D01*
X139039990Y-119740780D01*
X139428536Y-119901721D01*
X139841013Y-119983768D01*
X140261571Y-119983768D01*
X140674048Y-119901721D01*
X141062594Y-119740780D01*
X141412275Y-119507131D01*
X141709655Y-119209751D01*
X141943304Y-118860070D01*
X142104245Y-118471524D01*
X142186292Y-118059047D01*
X142186292Y-117638489D01*
X142104245Y-117226012D01*
X141943304Y-116837466D01*
X141709655Y-116487785D01*
X141412275Y-116190405D01*
X141062594Y-115956756D01*
X140674048Y-115795815D01*
X140261571Y-115713768D01*
X139841013Y-115713768D01*
X139428536Y-115795815D01*
X139039990Y-115956756D01*
X138690309Y-116190405D01*
X138392929Y-116487785D01*
X138159280Y-116837466D01*
X137998339Y-117226012D01*
X137916292Y-117638489D01*
X51588892Y-117638489D01*
X51746679Y-117533059D01*
X52009236Y-117270502D01*
X52215527Y-116961766D01*
X52357622Y-116618718D01*
X52430061Y-116254540D01*
X52430061Y-115883228D01*
X52357622Y-115519050D01*
X52215527Y-115176002D01*
X52009236Y-114867266D01*
X51746679Y-114604709D01*
X51437943Y-114398418D01*
X51094895Y-114256323D01*
X50730717Y-114183884D01*
X50359405Y-114183884D01*
X49995227Y-114256323D01*
X49652179Y-114398418D01*
X49343443Y-114604709D01*
X49080886Y-114867266D01*
X49007698Y-114976800D01*
X48955375Y-114350279D01*
X49016823Y-113353100D01*
X49111546Y-112900713D01*
X54951185Y-112900713D01*
X54951185Y-113183383D01*
X55006332Y-113460622D01*
X55114505Y-113721775D01*
X55271548Y-113956807D01*
X55471426Y-114156685D01*
X55706458Y-114313728D01*
X55967611Y-114421901D01*
X56244850Y-114477048D01*
X56527520Y-114477048D01*
X56804759Y-114421901D01*
X57065912Y-114313728D01*
X57300944Y-114156685D01*
X57500822Y-113956807D01*
X57657865Y-113721775D01*
X57766038Y-113460622D01*
X57777849Y-113401245D01*
X57886241Y-113509637D01*
X58121273Y-113666680D01*
X58382426Y-113774853D01*
X58659665Y-113830000D01*
X58942335Y-113830000D01*
X59219574Y-113774853D01*
X59480727Y-113666680D01*
X59715759Y-113509637D01*
X59915637Y-113309759D01*
X60072680Y-113074727D01*
X60180853Y-112813574D01*
X60236000Y-112536335D01*
X60236000Y-112253665D01*
X60180853Y-111976426D01*
X60072680Y-111715273D01*
X59915637Y-111480241D01*
X59715759Y-111280363D01*
X59480727Y-111123320D01*
X59219574Y-111015147D01*
X58942335Y-110960000D01*
X58659665Y-110960000D01*
X58382426Y-111015147D01*
X58121273Y-111123320D01*
X57886241Y-111280363D01*
X57686363Y-111480241D01*
X57529320Y-111715273D01*
X57421147Y-111976426D01*
X57409336Y-112035803D01*
X57300944Y-111927411D01*
X57065912Y-111770368D01*
X56804759Y-111662195D01*
X56527520Y-111607048D01*
X56244850Y-111607048D01*
X55967611Y-111662195D01*
X55706458Y-111770368D01*
X55471426Y-111927411D01*
X55271548Y-112127289D01*
X55114505Y-112362321D01*
X55006332Y-112623474D01*
X54951185Y-112900713D01*
X49111546Y-112900713D01*
X49221576Y-112375226D01*
X49565347Y-111437157D01*
X50040932Y-110558539D01*
X50641361Y-109753768D01*
X51235095Y-109144284D01*
X51236443Y-109142683D01*
X51240879Y-109138278D01*
X51268344Y-109107776D01*
X51294063Y-109075787D01*
X51301377Y-109065572D01*
X51303617Y-109062911D01*
X51305786Y-109059412D01*
X51317956Y-109042414D01*
X51339948Y-109007759D01*
X51359462Y-108972842D01*
X51359675Y-108972499D01*
X51359749Y-108972330D01*
X51359972Y-108971930D01*
X51377965Y-108935040D01*
X51393871Y-108897201D01*
X51400455Y-108878710D01*
X51402094Y-108874941D01*
X51403050Y-108871424D01*
X51407639Y-108858535D01*
X51419228Y-108819160D01*
X51428601Y-108779200D01*
X51429513Y-108774025D01*
X51429987Y-108772282D01*
X51430351Y-108769276D01*
X51435728Y-108738778D01*
X51440588Y-108698022D01*
X51442336Y-108670229D01*
X51442767Y-108666671D01*
X51442709Y-108664305D01*
X51443165Y-108657059D01*
X51443451Y-108616015D01*
X51441447Y-108575019D01*
X51440247Y-108563606D01*
X51440167Y-108560323D01*
X51439479Y-108556298D01*
X51437156Y-108534199D01*
X51435728Y-108524036D01*
X51030840Y-105782140D01*
X50957708Y-104978554D01*
X53351513Y-104978554D01*
X53351513Y-105261224D01*
X53406660Y-105538463D01*
X53514833Y-105799616D01*
X53671876Y-106034648D01*
X53871754Y-106234526D01*
X54106786Y-106391569D01*
X54367939Y-106499742D01*
X54645178Y-106554889D01*
X54927848Y-106554889D01*
X55205087Y-106499742D01*
X55466240Y-106391569D01*
X55701272Y-106234526D01*
X55901150Y-106034648D01*
X56058193Y-105799616D01*
X56093674Y-105713958D01*
X56162363Y-105816759D01*
X56362241Y-106016637D01*
X56597273Y-106173680D01*
X56858426Y-106281853D01*
X57135665Y-106337000D01*
X57418335Y-106337000D01*
X57695574Y-106281853D01*
X57956727Y-106173680D01*
X58191759Y-106016637D01*
X58391637Y-105816759D01*
X58548680Y-105581727D01*
X58656853Y-105320574D01*
X58712000Y-105043335D01*
X58712000Y-104760665D01*
X58656853Y-104483426D01*
X58548680Y-104222273D01*
X58391637Y-103987241D01*
X58191759Y-103787363D01*
X57956727Y-103630320D01*
X57695574Y-103522147D01*
X57556123Y-103494408D01*
X78048000Y-103494408D01*
X78048000Y-103769592D01*
X78101686Y-104039490D01*
X78206995Y-104293727D01*
X78359880Y-104522535D01*
X78554465Y-104717120D01*
X78783273Y-104870005D01*
X79037510Y-104975314D01*
X79307408Y-105029000D01*
X79582592Y-105029000D01*
X79852490Y-104975314D01*
X80106727Y-104870005D01*
X80335535Y-104717120D01*
X80530120Y-104522535D01*
X80683005Y-104293727D01*
X80695000Y-104264769D01*
X80706995Y-104293727D01*
X80859880Y-104522535D01*
X81054465Y-104717120D01*
X81283273Y-104870005D01*
X81537510Y-104975314D01*
X81807408Y-105029000D01*
X82082592Y-105029000D01*
X82352490Y-104975314D01*
X82606727Y-104870005D01*
X82835535Y-104717120D01*
X83030120Y-104522535D01*
X83183005Y-104293727D01*
X83288314Y-104039490D01*
X83342000Y-103769592D01*
X83342000Y-103494408D01*
X83288314Y-103224510D01*
X83183005Y-102970273D01*
X83030120Y-102741465D01*
X82835535Y-102546880D01*
X82606727Y-102393995D01*
X82352490Y-102288686D01*
X82082592Y-102235000D01*
X81807408Y-102235000D01*
X81537510Y-102288686D01*
X81283273Y-102393995D01*
X81054465Y-102546880D01*
X80859880Y-102741465D01*
X80706995Y-102970273D01*
X80695000Y-102999231D01*
X80683005Y-102970273D01*
X80530120Y-102741465D01*
X80335535Y-102546880D01*
X80106727Y-102393995D01*
X79852490Y-102288686D01*
X79582592Y-102235000D01*
X79307408Y-102235000D01*
X79037510Y-102288686D01*
X78783273Y-102393995D01*
X78554465Y-102546880D01*
X78359880Y-102741465D01*
X78206995Y-102970273D01*
X78101686Y-103224510D01*
X78048000Y-103494408D01*
X57556123Y-103494408D01*
X57418335Y-103467000D01*
X57135665Y-103467000D01*
X56858426Y-103522147D01*
X56597273Y-103630320D01*
X56362241Y-103787363D01*
X56162363Y-103987241D01*
X56005320Y-104222273D01*
X55969839Y-104307931D01*
X55901150Y-104205130D01*
X55701272Y-104005252D01*
X55466240Y-103848209D01*
X55205087Y-103740036D01*
X54927848Y-103684889D01*
X54645178Y-103684889D01*
X54367939Y-103740036D01*
X54106786Y-103848209D01*
X53871754Y-104005252D01*
X53671876Y-104205130D01*
X53514833Y-104440162D01*
X53406660Y-104701315D01*
X53351513Y-104978554D01*
X50957708Y-104978554D01*
X50781499Y-103042352D01*
X50685488Y-100292937D01*
X50743103Y-97542429D01*
X50810327Y-96668776D01*
X52843513Y-96668776D01*
X52843513Y-96951446D01*
X52898660Y-97228685D01*
X53006833Y-97489838D01*
X53163876Y-97724870D01*
X53363754Y-97924748D01*
X53598786Y-98081791D01*
X53859939Y-98189964D01*
X54137178Y-98245111D01*
X54419848Y-98245111D01*
X54697087Y-98189964D01*
X54958240Y-98081791D01*
X55193272Y-97924748D01*
X55393150Y-97724870D01*
X55461839Y-97622069D01*
X55497320Y-97707727D01*
X55654363Y-97942759D01*
X55854241Y-98142637D01*
X56089273Y-98299680D01*
X56350426Y-98407853D01*
X56627665Y-98463000D01*
X56910335Y-98463000D01*
X57187574Y-98407853D01*
X57448727Y-98299680D01*
X57683759Y-98142637D01*
X57883637Y-97942759D01*
X58040680Y-97707727D01*
X58148853Y-97446574D01*
X58204000Y-97169335D01*
X58204000Y-96886665D01*
X58148853Y-96609426D01*
X58040680Y-96348273D01*
X57883637Y-96113241D01*
X57683759Y-95913363D01*
X57448727Y-95756320D01*
X57187574Y-95648147D01*
X56910335Y-95593000D01*
X56627665Y-95593000D01*
X56350426Y-95648147D01*
X56089273Y-95756320D01*
X55854241Y-95913363D01*
X55654363Y-96113241D01*
X55585674Y-96216042D01*
X55550193Y-96130384D01*
X55393150Y-95895352D01*
X55193272Y-95695474D01*
X54958240Y-95538431D01*
X54697087Y-95430258D01*
X54419848Y-95375111D01*
X54137178Y-95375111D01*
X53859939Y-95430258D01*
X53598786Y-95538431D01*
X53363754Y-95695474D01*
X53163876Y-95895352D01*
X53006833Y-96130384D01*
X52898660Y-96391537D01*
X52843513Y-96668776D01*
X50810327Y-96668776D01*
X50954166Y-94799424D01*
X51318015Y-92072504D01*
X51833521Y-89370124D01*
X52499071Y-86700750D01*
X53027271Y-84994408D01*
X78048000Y-84994408D01*
X78048000Y-85269592D01*
X78101686Y-85539490D01*
X78206995Y-85793727D01*
X78359880Y-86022535D01*
X78554465Y-86217120D01*
X78783273Y-86370005D01*
X79037510Y-86475314D01*
X79307408Y-86529000D01*
X79582592Y-86529000D01*
X79852490Y-86475314D01*
X80106727Y-86370005D01*
X80335535Y-86217120D01*
X80530120Y-86022535D01*
X80683005Y-85793727D01*
X80695000Y-85764769D01*
X80706995Y-85793727D01*
X80859880Y-86022535D01*
X81054465Y-86217120D01*
X81283273Y-86370005D01*
X81537510Y-86475314D01*
X81807408Y-86529000D01*
X82082592Y-86529000D01*
X82352490Y-86475314D01*
X82606727Y-86370005D01*
X82835535Y-86217120D01*
X83030120Y-86022535D01*
X83183005Y-85793727D01*
X83288314Y-85539490D01*
X83342000Y-85269592D01*
X83342000Y-84994408D01*
X83288314Y-84724510D01*
X83183005Y-84470273D01*
X83030120Y-84241465D01*
X82835535Y-84046880D01*
X82606727Y-83893995D01*
X82352490Y-83788686D01*
X82082592Y-83735000D01*
X81807408Y-83735000D01*
X81537510Y-83788686D01*
X81283273Y-83893995D01*
X81054465Y-84046880D01*
X80859880Y-84241465D01*
X80706995Y-84470273D01*
X80695000Y-84499231D01*
X80683005Y-84470273D01*
X80530120Y-84241465D01*
X80335535Y-84046880D01*
X80106727Y-83893995D01*
X79852490Y-83788686D01*
X79582592Y-83735000D01*
X79307408Y-83735000D01*
X79037510Y-83788686D01*
X78783273Y-83893995D01*
X78554465Y-84046880D01*
X78359880Y-84241465D01*
X78206995Y-84470273D01*
X78101686Y-84724510D01*
X78048000Y-84994408D01*
X53027271Y-84994408D01*
X53312600Y-84072661D01*
X54271548Y-81494129D01*
X54831573Y-80212280D01*
X63480693Y-80212280D01*
X63480693Y-80494950D01*
X63535840Y-80772189D01*
X63644013Y-81033342D01*
X63801056Y-81268374D01*
X64000934Y-81468252D01*
X64235966Y-81625295D01*
X64497119Y-81733468D01*
X64774358Y-81788615D01*
X65057028Y-81788615D01*
X65334267Y-81733468D01*
X65595420Y-81625295D01*
X65830452Y-81468252D01*
X66030330Y-81268374D01*
X66187373Y-81033342D01*
X66295546Y-80772189D01*
X66350693Y-80494950D01*
X66350693Y-80212280D01*
X66296136Y-79938006D01*
X66570409Y-79992563D01*
X66853079Y-79992563D01*
X67130318Y-79937416D01*
X67391471Y-79829243D01*
X67626503Y-79672200D01*
X67826381Y-79472322D01*
X67983424Y-79237290D01*
X68091597Y-78976137D01*
X68146744Y-78698898D01*
X68146744Y-78416228D01*
X68092187Y-78141955D01*
X68366460Y-78196512D01*
X68649130Y-78196512D01*
X68926369Y-78141365D01*
X69187522Y-78033192D01*
X69422554Y-77876149D01*
X69622432Y-77676271D01*
X69779475Y-77441239D01*
X69887648Y-77180086D01*
X69942795Y-76902847D01*
X69942795Y-76620177D01*
X69916702Y-76489000D01*
X78644928Y-76489000D01*
X78644928Y-77689000D01*
X78657188Y-77813482D01*
X78693498Y-77933180D01*
X78752463Y-78043494D01*
X78831815Y-78140185D01*
X78928506Y-78219537D01*
X79038820Y-78278502D01*
X79158518Y-78314812D01*
X79283000Y-78327072D01*
X80483000Y-78327072D01*
X80607482Y-78314812D01*
X80727180Y-78278502D01*
X80837494Y-78219537D01*
X80934185Y-78140185D01*
X81013537Y-78043494D01*
X81072502Y-77933180D01*
X81108812Y-77813482D01*
X81121072Y-77689000D01*
X81121072Y-76489000D01*
X81108812Y-76364518D01*
X81072502Y-76244820D01*
X81013537Y-76134506D01*
X80934185Y-76037815D01*
X80837494Y-75958463D01*
X80727180Y-75899498D01*
X80607482Y-75863188D01*
X80483000Y-75850928D01*
X79283000Y-75850928D01*
X79158518Y-75863188D01*
X79038820Y-75899498D01*
X78928506Y-75958463D01*
X78831815Y-76037815D01*
X78752463Y-76134506D01*
X78693498Y-76244820D01*
X78657188Y-76364518D01*
X78644928Y-76489000D01*
X69916702Y-76489000D01*
X69888238Y-76345904D01*
X70162511Y-76400461D01*
X70445181Y-76400461D01*
X70722420Y-76345314D01*
X70983573Y-76237141D01*
X71218605Y-76080098D01*
X71418483Y-75880220D01*
X71575526Y-75645188D01*
X71683699Y-75384035D01*
X71738846Y-75106796D01*
X71738846Y-74824126D01*
X71684289Y-74549853D01*
X71958563Y-74604410D01*
X72241233Y-74604410D01*
X72518472Y-74549263D01*
X72779625Y-74441090D01*
X73014657Y-74284047D01*
X73214535Y-74084169D01*
X73371578Y-73849137D01*
X73479751Y-73587984D01*
X73534898Y-73310745D01*
X73534898Y-73028075D01*
X73480341Y-72753802D01*
X73754614Y-72808359D01*
X74037284Y-72808359D01*
X74314523Y-72753212D01*
X74575676Y-72645039D01*
X74810708Y-72487996D01*
X75010586Y-72288118D01*
X75167629Y-72053086D01*
X75275802Y-71791933D01*
X75330949Y-71514694D01*
X75330949Y-71232024D01*
X75276392Y-70957750D01*
X75550665Y-71012307D01*
X75833335Y-71012307D01*
X76110574Y-70957160D01*
X76371727Y-70848987D01*
X76606759Y-70691944D01*
X76806637Y-70492066D01*
X76963680Y-70257034D01*
X77071853Y-69995881D01*
X77127000Y-69718642D01*
X77127000Y-69435972D01*
X77072443Y-69161699D01*
X77346716Y-69216256D01*
X77629386Y-69216256D01*
X77906625Y-69161109D01*
X78167778Y-69052936D01*
X78402810Y-68895893D01*
X78602688Y-68696015D01*
X78759731Y-68460983D01*
X78867904Y-68199830D01*
X78923051Y-67922591D01*
X78923051Y-67639921D01*
X78868494Y-67365648D01*
X79142767Y-67420205D01*
X79425437Y-67420205D01*
X79607988Y-67383893D01*
X81767098Y-69543003D01*
X81790897Y-69572002D01*
X81906622Y-69666975D01*
X82038651Y-69737547D01*
X82181912Y-69781004D01*
X82293565Y-69792001D01*
X82293574Y-69792001D01*
X82330897Y-69795677D01*
X82368220Y-69792001D01*
X86031890Y-69792001D01*
X86010995Y-69823273D01*
X85905686Y-70077510D01*
X85852000Y-70347408D01*
X85852000Y-70622592D01*
X85905686Y-70892490D01*
X86010995Y-71146727D01*
X86163880Y-71375535D01*
X86358465Y-71570120D01*
X86587273Y-71723005D01*
X86664515Y-71755000D01*
X86587273Y-71786995D01*
X86358465Y-71939880D01*
X86163880Y-72134465D01*
X86010995Y-72363273D01*
X85905686Y-72617510D01*
X85852000Y-72887408D01*
X85852000Y-73162592D01*
X85905686Y-73432490D01*
X86010995Y-73686727D01*
X86163880Y-73915535D01*
X86358465Y-74110120D01*
X86587273Y-74263005D01*
X86664515Y-74295000D01*
X86587273Y-74326995D01*
X86358465Y-74479880D01*
X86163880Y-74674465D01*
X86010995Y-74903273D01*
X85905686Y-75157510D01*
X85852000Y-75427408D01*
X85852000Y-75702592D01*
X85905686Y-75972490D01*
X86010995Y-76226727D01*
X86163880Y-76455535D01*
X86358465Y-76650120D01*
X86587273Y-76803005D01*
X86664515Y-76835000D01*
X86587273Y-76866995D01*
X86358465Y-77019880D01*
X86163880Y-77214465D01*
X86010995Y-77443273D01*
X85905686Y-77697510D01*
X85852000Y-77967408D01*
X85852000Y-78242592D01*
X85905686Y-78512490D01*
X86010995Y-78766727D01*
X86163880Y-78995535D01*
X86358465Y-79190120D01*
X86587273Y-79343005D01*
X86664515Y-79375000D01*
X86587273Y-79406995D01*
X86358465Y-79559880D01*
X86163880Y-79754465D01*
X86010995Y-79983273D01*
X85905686Y-80237510D01*
X85852000Y-80507408D01*
X85852000Y-80782592D01*
X85905686Y-81052490D01*
X86010995Y-81306727D01*
X86163880Y-81535535D01*
X86358465Y-81730120D01*
X86587273Y-81883005D01*
X86664515Y-81915000D01*
X86587273Y-81946995D01*
X86358465Y-82099880D01*
X86163880Y-82294465D01*
X86010995Y-82523273D01*
X85905686Y-82777510D01*
X85852000Y-83047408D01*
X85852000Y-83322592D01*
X85905686Y-83592490D01*
X86010995Y-83846727D01*
X86163880Y-84075535D01*
X86358465Y-84270120D01*
X86587273Y-84423005D01*
X86664515Y-84455000D01*
X86587273Y-84486995D01*
X86358465Y-84639880D01*
X86163880Y-84834465D01*
X86010995Y-85063273D01*
X85905686Y-85317510D01*
X85852000Y-85587408D01*
X85852000Y-85862592D01*
X85905686Y-86132490D01*
X86010995Y-86386727D01*
X86163880Y-86615535D01*
X86358465Y-86810120D01*
X86587273Y-86963005D01*
X86664515Y-86995000D01*
X86587273Y-87026995D01*
X86358465Y-87179880D01*
X86163880Y-87374465D01*
X86010995Y-87603273D01*
X85905686Y-87857510D01*
X85852000Y-88127408D01*
X85852000Y-88402592D01*
X85905686Y-88672490D01*
X86010995Y-88926727D01*
X86163880Y-89155535D01*
X86358465Y-89350120D01*
X86587273Y-89503005D01*
X86664515Y-89535000D01*
X86587273Y-89566995D01*
X86358465Y-89719880D01*
X86163880Y-89914465D01*
X86010995Y-90143273D01*
X85905686Y-90397510D01*
X85852000Y-90667408D01*
X85852000Y-90942592D01*
X85905686Y-91212490D01*
X86010995Y-91466727D01*
X86163880Y-91695535D01*
X86358465Y-91890120D01*
X86587273Y-92043005D01*
X86664515Y-92075000D01*
X86587273Y-92106995D01*
X86358465Y-92259880D01*
X86163880Y-92454465D01*
X86010995Y-92683273D01*
X85905686Y-92937510D01*
X85852000Y-93207408D01*
X85852000Y-93482592D01*
X85905686Y-93752490D01*
X86010995Y-94006727D01*
X86163880Y-94235535D01*
X86358465Y-94430120D01*
X86587273Y-94583005D01*
X86664515Y-94615000D01*
X86587273Y-94646995D01*
X86358465Y-94799880D01*
X86163880Y-94994465D01*
X86010995Y-95223273D01*
X85905686Y-95477510D01*
X85852000Y-95747408D01*
X85852000Y-96022592D01*
X85905686Y-96292490D01*
X86010995Y-96546727D01*
X86163880Y-96775535D01*
X86358465Y-96970120D01*
X86587273Y-97123005D01*
X86841510Y-97228314D01*
X87111408Y-97282000D01*
X87386592Y-97282000D01*
X87656490Y-97228314D01*
X87910727Y-97123005D01*
X88139535Y-96970120D01*
X88334120Y-96775535D01*
X88487005Y-96546727D01*
X88592314Y-96292490D01*
X88646000Y-96022592D01*
X88646000Y-95747408D01*
X88592314Y-95477510D01*
X88487005Y-95223273D01*
X88334120Y-94994465D01*
X88139535Y-94799880D01*
X87910727Y-94646995D01*
X87833485Y-94615000D01*
X87910727Y-94583005D01*
X88139535Y-94430120D01*
X88334120Y-94235535D01*
X88487005Y-94006727D01*
X88592314Y-93752490D01*
X88640046Y-93512526D01*
X88666774Y-93646898D01*
X88744795Y-93835256D01*
X88858063Y-94004774D01*
X89002226Y-94148937D01*
X89171744Y-94262205D01*
X89360102Y-94340226D01*
X89560061Y-94380000D01*
X89763939Y-94380000D01*
X89963898Y-94340226D01*
X90152256Y-94262205D01*
X90321774Y-94148937D01*
X90465937Y-94004774D01*
X90579205Y-93835256D01*
X90657226Y-93646898D01*
X90697000Y-93446939D01*
X90697000Y-93384801D01*
X99952008Y-84129795D01*
X99981001Y-84106001D01*
X100004795Y-84077008D01*
X100004799Y-84077004D01*
X100075973Y-83990277D01*
X100075974Y-83990276D01*
X100146546Y-83858247D01*
X100190003Y-83714986D01*
X100201000Y-83603333D01*
X100201000Y-83603324D01*
X100204676Y-83566001D01*
X100201000Y-83528678D01*
X100201000Y-77030711D01*
X100244937Y-76986774D01*
X100358205Y-76817256D01*
X100436226Y-76628898D01*
X100476000Y-76428939D01*
X100476000Y-76225061D01*
X100436226Y-76025102D01*
X100358205Y-75836744D01*
X100244937Y-75667226D01*
X100100774Y-75523063D01*
X99931256Y-75409795D01*
X99742898Y-75331774D01*
X99542939Y-75292000D01*
X99339061Y-75292000D01*
X99139102Y-75331774D01*
X98950744Y-75409795D01*
X98781226Y-75523063D01*
X98637063Y-75667226D01*
X98523795Y-75836744D01*
X98445774Y-76025102D01*
X98406000Y-76225061D01*
X98406000Y-76428939D01*
X98445774Y-76628898D01*
X98523795Y-76817256D01*
X98637063Y-76986774D01*
X98681000Y-77030711D01*
X98681001Y-83251196D01*
X89622199Y-92310000D01*
X89560061Y-92310000D01*
X89360102Y-92349774D01*
X89171744Y-92427795D01*
X89002226Y-92541063D01*
X88858063Y-92685226D01*
X88744795Y-92854744D01*
X88666774Y-93043102D01*
X88640046Y-93177474D01*
X88592314Y-92937510D01*
X88487005Y-92683273D01*
X88334120Y-92454465D01*
X88139535Y-92259880D01*
X87910727Y-92106995D01*
X87833485Y-92075000D01*
X87910727Y-92043005D01*
X88139535Y-91890120D01*
X88334120Y-91695535D01*
X88487005Y-91466727D01*
X88592314Y-91212490D01*
X88646000Y-90942592D01*
X88646000Y-90667408D01*
X88592314Y-90397510D01*
X88487005Y-90143273D01*
X88334120Y-89914465D01*
X88139535Y-89719880D01*
X87910727Y-89566995D01*
X87833485Y-89535000D01*
X87910727Y-89503005D01*
X88139535Y-89350120D01*
X88334120Y-89155535D01*
X88487005Y-88926727D01*
X88592314Y-88672490D01*
X88646000Y-88402592D01*
X88646000Y-88127408D01*
X88592314Y-87857510D01*
X88487005Y-87603273D01*
X88334120Y-87374465D01*
X88139535Y-87179880D01*
X87910727Y-87026995D01*
X87833485Y-86995000D01*
X87910727Y-86963005D01*
X88139535Y-86810120D01*
X88334120Y-86615535D01*
X88487005Y-86386727D01*
X88592314Y-86132490D01*
X88646000Y-85862592D01*
X88646000Y-85587408D01*
X88592314Y-85317510D01*
X88487005Y-85063273D01*
X88334120Y-84834465D01*
X88139535Y-84639880D01*
X87910727Y-84486995D01*
X87833485Y-84455000D01*
X87910727Y-84423005D01*
X88139535Y-84270120D01*
X88334120Y-84075535D01*
X88487005Y-83846727D01*
X88592314Y-83592490D01*
X88646000Y-83322592D01*
X88646000Y-83047408D01*
X88592314Y-82777510D01*
X88487005Y-82523273D01*
X88334120Y-82294465D01*
X88139535Y-82099880D01*
X87910727Y-81946995D01*
X87833485Y-81915000D01*
X87910727Y-81883005D01*
X88139535Y-81730120D01*
X88334120Y-81535535D01*
X88487005Y-81306727D01*
X88592314Y-81052490D01*
X88646000Y-80782592D01*
X88646000Y-80507408D01*
X88592314Y-80237510D01*
X88487005Y-79983273D01*
X88334120Y-79754465D01*
X88139535Y-79559880D01*
X87910727Y-79406995D01*
X87833485Y-79375000D01*
X87910727Y-79343005D01*
X88139535Y-79190120D01*
X88334120Y-78995535D01*
X88487005Y-78766727D01*
X88592314Y-78512490D01*
X88646000Y-78242592D01*
X88646000Y-77967408D01*
X88592314Y-77697510D01*
X88487005Y-77443273D01*
X88334120Y-77214465D01*
X88139535Y-77019880D01*
X87910727Y-76866995D01*
X87833485Y-76835000D01*
X87910727Y-76803005D01*
X88139535Y-76650120D01*
X88334120Y-76455535D01*
X88487005Y-76226727D01*
X88592314Y-75972490D01*
X88646000Y-75702592D01*
X88646000Y-75427408D01*
X88592314Y-75157510D01*
X88487005Y-74903273D01*
X88334120Y-74674465D01*
X88139535Y-74479880D01*
X87910727Y-74326995D01*
X87833485Y-74295000D01*
X87910727Y-74263005D01*
X88139535Y-74110120D01*
X88334120Y-73915535D01*
X88487005Y-73686727D01*
X88592314Y-73432490D01*
X88646000Y-73162592D01*
X88646000Y-72887408D01*
X88592314Y-72617510D01*
X88487005Y-72363273D01*
X88334120Y-72134465D01*
X88139535Y-71939880D01*
X87910727Y-71786995D01*
X87833485Y-71755000D01*
X87910727Y-71723005D01*
X88139535Y-71570120D01*
X88334120Y-71375535D01*
X88487005Y-71146727D01*
X88592314Y-70892490D01*
X88646000Y-70622592D01*
X88646000Y-70347408D01*
X88592314Y-70077510D01*
X88487005Y-69823273D01*
X88466110Y-69792001D01*
X97292200Y-69792001D01*
X98279000Y-70778802D01*
X98279000Y-70840939D01*
X98318774Y-71040898D01*
X98396795Y-71229256D01*
X98510063Y-71398774D01*
X98654226Y-71542937D01*
X98823744Y-71656205D01*
X99012102Y-71734226D01*
X99212061Y-71774000D01*
X99279002Y-71774000D01*
X99279002Y-72493196D01*
X95464199Y-76308000D01*
X95402061Y-76308000D01*
X95202102Y-76347774D01*
X95013744Y-76425795D01*
X94844226Y-76539063D01*
X94700063Y-76683226D01*
X94586795Y-76852744D01*
X94508774Y-77041102D01*
X94469000Y-77241061D01*
X94469000Y-77444939D01*
X94508774Y-77644898D01*
X94586795Y-77833256D01*
X94700063Y-78002774D01*
X94844226Y-78146937D01*
X95013744Y-78260205D01*
X95202102Y-78338226D01*
X95402061Y-78378000D01*
X95605939Y-78378000D01*
X95805898Y-78338226D01*
X95994256Y-78260205D01*
X96163774Y-78146937D01*
X96307937Y-78002774D01*
X96421205Y-77833256D01*
X96499226Y-77644898D01*
X96539000Y-77444939D01*
X96539000Y-77382801D01*
X100550004Y-73371798D01*
X100579002Y-73348000D01*
X100615073Y-73304047D01*
X100673975Y-73232276D01*
X100744547Y-73100246D01*
X100749144Y-73085090D01*
X100788004Y-72956985D01*
X100799001Y-72845332D01*
X100799001Y-72845322D01*
X100802677Y-72807999D01*
X100799001Y-72770676D01*
X100799001Y-69073321D01*
X100802677Y-69035998D01*
X100799001Y-68998675D01*
X100799001Y-68998666D01*
X100788004Y-68887013D01*
X100744547Y-68743752D01*
X100673975Y-68611723D01*
X100620288Y-68546305D01*
X100602800Y-68524995D01*
X100602796Y-68524991D01*
X100579002Y-68495998D01*
X100550010Y-68472206D01*
X97345212Y-65267408D01*
X111252000Y-65267408D01*
X111252000Y-65542592D01*
X111305686Y-65812490D01*
X111410995Y-66066727D01*
X111563880Y-66295535D01*
X111758465Y-66490120D01*
X111987273Y-66643005D01*
X112064515Y-66675000D01*
X111987273Y-66706995D01*
X111758465Y-66859880D01*
X111563880Y-67054465D01*
X111410995Y-67283273D01*
X111305686Y-67537510D01*
X111252000Y-67807408D01*
X111252000Y-68082592D01*
X111305686Y-68352490D01*
X111410995Y-68606727D01*
X111563880Y-68835535D01*
X111758465Y-69030120D01*
X111987273Y-69183005D01*
X112064515Y-69215000D01*
X111987273Y-69246995D01*
X111758465Y-69399880D01*
X111563880Y-69594465D01*
X111410995Y-69823273D01*
X111305686Y-70077510D01*
X111252000Y-70347408D01*
X111252000Y-70622592D01*
X111305686Y-70892490D01*
X111410995Y-71146727D01*
X111563880Y-71375535D01*
X111758465Y-71570120D01*
X111987273Y-71723005D01*
X112064515Y-71755000D01*
X111987273Y-71786995D01*
X111758465Y-71939880D01*
X111563880Y-72134465D01*
X111410995Y-72363273D01*
X111305686Y-72617510D01*
X111252000Y-72887408D01*
X111252000Y-73162592D01*
X111305686Y-73432490D01*
X111410995Y-73686727D01*
X111563880Y-73915535D01*
X111758465Y-74110120D01*
X111987273Y-74263005D01*
X112064515Y-74295000D01*
X111987273Y-74326995D01*
X111758465Y-74479880D01*
X111563880Y-74674465D01*
X111410995Y-74903273D01*
X111305686Y-75157510D01*
X111252000Y-75427408D01*
X111252000Y-75702592D01*
X111305686Y-75972490D01*
X111410995Y-76226727D01*
X111563880Y-76455535D01*
X111758465Y-76650120D01*
X111987273Y-76803005D01*
X112064515Y-76835000D01*
X111987273Y-76866995D01*
X111758465Y-77019880D01*
X111563880Y-77214465D01*
X111410995Y-77443273D01*
X111305686Y-77697510D01*
X111252000Y-77967408D01*
X111252000Y-78242592D01*
X111305686Y-78512490D01*
X111410995Y-78766727D01*
X111563880Y-78995535D01*
X111758465Y-79190120D01*
X111987273Y-79343005D01*
X112064515Y-79375000D01*
X111987273Y-79406995D01*
X111758465Y-79559880D01*
X111563880Y-79754465D01*
X111410995Y-79983273D01*
X111305686Y-80237510D01*
X111252000Y-80507408D01*
X111252000Y-80782592D01*
X111305686Y-81052490D01*
X111410995Y-81306727D01*
X111563880Y-81535535D01*
X111758465Y-81730120D01*
X111987273Y-81883005D01*
X112064515Y-81915000D01*
X111987273Y-81946995D01*
X111758465Y-82099880D01*
X111563880Y-82294465D01*
X111410995Y-82523273D01*
X111305686Y-82777510D01*
X111252000Y-83047408D01*
X111252000Y-83322592D01*
X111305686Y-83592490D01*
X111410995Y-83846727D01*
X111563880Y-84075535D01*
X111758465Y-84270120D01*
X111987273Y-84423005D01*
X112064515Y-84455000D01*
X111987273Y-84486995D01*
X111758465Y-84639880D01*
X111563880Y-84834465D01*
X111410995Y-85063273D01*
X111305686Y-85317510D01*
X111252000Y-85587408D01*
X111252000Y-85862592D01*
X111305686Y-86132490D01*
X111410995Y-86386727D01*
X111563880Y-86615535D01*
X111758465Y-86810120D01*
X111987273Y-86963005D01*
X112064515Y-86995000D01*
X111987273Y-87026995D01*
X111758465Y-87179880D01*
X111563880Y-87374465D01*
X111410995Y-87603273D01*
X111305686Y-87857510D01*
X111252000Y-88127408D01*
X111252000Y-88402592D01*
X111305686Y-88672490D01*
X111410995Y-88926727D01*
X111563880Y-89155535D01*
X111758465Y-89350120D01*
X111987273Y-89503005D01*
X112064515Y-89535000D01*
X111987273Y-89566995D01*
X111758465Y-89719880D01*
X111563880Y-89914465D01*
X111410995Y-90143273D01*
X111305686Y-90397510D01*
X111252000Y-90667408D01*
X111252000Y-90942592D01*
X111305686Y-91212490D01*
X111410995Y-91466727D01*
X111563880Y-91695535D01*
X111758465Y-91890120D01*
X111987273Y-92043005D01*
X112064515Y-92075000D01*
X111987273Y-92106995D01*
X111758465Y-92259880D01*
X111563880Y-92454465D01*
X111410995Y-92683273D01*
X111305686Y-92937510D01*
X111252000Y-93207408D01*
X111252000Y-93482592D01*
X111305686Y-93752490D01*
X111410995Y-94006727D01*
X111563880Y-94235535D01*
X111758465Y-94430120D01*
X111987273Y-94583005D01*
X112064515Y-94615000D01*
X111987273Y-94646995D01*
X111758465Y-94799880D01*
X111563880Y-94994465D01*
X111410995Y-95223273D01*
X111305686Y-95477510D01*
X111252000Y-95747408D01*
X111252000Y-96022592D01*
X111305686Y-96292490D01*
X111410995Y-96546727D01*
X111563880Y-96775535D01*
X111758465Y-96970120D01*
X111987273Y-97123005D01*
X112241510Y-97228314D01*
X112511408Y-97282000D01*
X112786592Y-97282000D01*
X113056490Y-97228314D01*
X113310727Y-97123005D01*
X113539535Y-96970120D01*
X113734120Y-96775535D01*
X113887005Y-96546727D01*
X113992314Y-96292490D01*
X114046000Y-96022592D01*
X114046000Y-95747408D01*
X113992314Y-95477510D01*
X113887005Y-95223273D01*
X113734120Y-94994465D01*
X113539535Y-94799880D01*
X113310727Y-94646995D01*
X113233485Y-94615000D01*
X113310727Y-94583005D01*
X113539535Y-94430120D01*
X113734120Y-94235535D01*
X113887005Y-94006727D01*
X113992314Y-93752490D01*
X114046000Y-93482592D01*
X114046000Y-93440000D01*
X127770025Y-93440000D01*
X127793870Y-93682102D01*
X127864489Y-93914901D01*
X127979167Y-94129449D01*
X128133498Y-94317502D01*
X128282762Y-94440000D01*
X128133498Y-94562498D01*
X127979167Y-94750551D01*
X127864489Y-94965099D01*
X127793870Y-95197898D01*
X127770025Y-95440000D01*
X127793870Y-95682102D01*
X127864489Y-95914901D01*
X127979167Y-96129449D01*
X128133498Y-96317502D01*
X128321551Y-96471833D01*
X128536099Y-96586511D01*
X128768898Y-96657130D01*
X128950335Y-96675000D01*
X129621665Y-96675000D01*
X129803102Y-96657130D01*
X130035901Y-96586511D01*
X130250449Y-96471833D01*
X130438502Y-96317502D01*
X130592833Y-96129449D01*
X130707511Y-95914901D01*
X130778130Y-95682102D01*
X130801975Y-95440000D01*
X130778130Y-95197898D01*
X130707511Y-94965099D01*
X130592833Y-94750551D01*
X130438502Y-94562498D01*
X130289238Y-94440000D01*
X130438502Y-94317502D01*
X130592833Y-94129449D01*
X130707511Y-93914901D01*
X130778130Y-93682102D01*
X130801975Y-93440000D01*
X130778130Y-93197898D01*
X130707511Y-92965099D01*
X130592833Y-92750551D01*
X130438502Y-92562498D01*
X130399889Y-92530809D01*
X130404387Y-92528405D01*
X130538962Y-92417962D01*
X130649405Y-92283387D01*
X130731472Y-92129851D01*
X130782008Y-91963255D01*
X130799072Y-91790001D01*
X130799072Y-91089999D01*
X130782008Y-90916745D01*
X130731472Y-90750149D01*
X130649405Y-90596613D01*
X130538962Y-90462038D01*
X130404387Y-90351595D01*
X130250851Y-90269528D01*
X130084255Y-90218992D01*
X129911001Y-90201928D01*
X128660999Y-90201928D01*
X128487745Y-90218992D01*
X128321149Y-90269528D01*
X128167613Y-90351595D01*
X128033038Y-90462038D01*
X127922595Y-90596613D01*
X127840528Y-90750149D01*
X127789992Y-90916745D01*
X127772928Y-91089999D01*
X127772928Y-91790001D01*
X127789992Y-91963255D01*
X127840528Y-92129851D01*
X127922595Y-92283387D01*
X128033038Y-92417962D01*
X128167613Y-92528405D01*
X128172111Y-92530809D01*
X128133498Y-92562498D01*
X127979167Y-92750551D01*
X127864489Y-92965099D01*
X127793870Y-93197898D01*
X127770025Y-93440000D01*
X114046000Y-93440000D01*
X114046000Y-93207408D01*
X113992314Y-92937510D01*
X113887005Y-92683273D01*
X113734120Y-92454465D01*
X113539535Y-92259880D01*
X113310727Y-92106995D01*
X113233485Y-92075000D01*
X113310727Y-92043005D01*
X113539535Y-91890120D01*
X113734120Y-91695535D01*
X113887005Y-91466727D01*
X113992314Y-91212490D01*
X114046000Y-90942592D01*
X114046000Y-90667408D01*
X113992314Y-90397510D01*
X113887005Y-90143273D01*
X113734120Y-89914465D01*
X113539535Y-89719880D01*
X113310727Y-89566995D01*
X113233485Y-89535000D01*
X113310727Y-89503005D01*
X113539535Y-89350120D01*
X113734120Y-89155535D01*
X113887005Y-88926727D01*
X113992314Y-88672490D01*
X114046000Y-88402592D01*
X114046000Y-88127408D01*
X113992314Y-87857510D01*
X113887005Y-87603273D01*
X113734120Y-87374465D01*
X113539535Y-87179880D01*
X113310727Y-87026995D01*
X113233485Y-86995000D01*
X113310727Y-86963005D01*
X113539535Y-86810120D01*
X113734120Y-86615535D01*
X113887005Y-86386727D01*
X113992314Y-86132490D01*
X114046000Y-85862592D01*
X114046000Y-85587408D01*
X113992314Y-85317510D01*
X113887005Y-85063273D01*
X113734120Y-84834465D01*
X113539535Y-84639880D01*
X113310727Y-84486995D01*
X113233485Y-84455000D01*
X113310727Y-84423005D01*
X113539535Y-84270120D01*
X113734120Y-84075535D01*
X113887005Y-83846727D01*
X113992314Y-83592490D01*
X114046000Y-83322592D01*
X114046000Y-83047408D01*
X113992314Y-82777510D01*
X113887005Y-82523273D01*
X113734120Y-82294465D01*
X113539535Y-82099880D01*
X113310727Y-81946995D01*
X113233485Y-81915000D01*
X113310727Y-81883005D01*
X113539535Y-81730120D01*
X113734120Y-81535535D01*
X113887005Y-81306727D01*
X113992314Y-81052490D01*
X114035575Y-80835000D01*
X127770025Y-80835000D01*
X127793870Y-81077102D01*
X127864489Y-81309901D01*
X127979167Y-81524449D01*
X128133498Y-81712502D01*
X128282762Y-81835000D01*
X128133498Y-81957498D01*
X127979167Y-82145551D01*
X127864489Y-82360099D01*
X127793870Y-82592898D01*
X127770025Y-82835000D01*
X127793870Y-83077102D01*
X127864489Y-83309901D01*
X127979167Y-83524449D01*
X128133498Y-83712502D01*
X128321551Y-83866833D01*
X128536099Y-83981511D01*
X128768898Y-84052130D01*
X128950335Y-84070000D01*
X129621665Y-84070000D01*
X129803102Y-84052130D01*
X130035901Y-83981511D01*
X130250449Y-83866833D01*
X130438502Y-83712502D01*
X130592833Y-83524449D01*
X130707511Y-83309901D01*
X130778130Y-83077102D01*
X130801975Y-82835000D01*
X130778130Y-82592898D01*
X130707511Y-82360099D01*
X130592833Y-82145551D01*
X130438502Y-81957498D01*
X130289238Y-81835000D01*
X130438502Y-81712502D01*
X130592833Y-81524449D01*
X130707511Y-81309901D01*
X130778130Y-81077102D01*
X130801975Y-80835000D01*
X130778130Y-80592898D01*
X130707511Y-80360099D01*
X130592833Y-80145551D01*
X130438502Y-79957498D01*
X130250449Y-79803167D01*
X130035901Y-79688489D01*
X129803102Y-79617870D01*
X129621665Y-79600000D01*
X128950335Y-79600000D01*
X128768898Y-79617870D01*
X128536099Y-79688489D01*
X128321551Y-79803167D01*
X128133498Y-79957498D01*
X127979167Y-80145551D01*
X127864489Y-80360099D01*
X127793870Y-80592898D01*
X127770025Y-80835000D01*
X114035575Y-80835000D01*
X114046000Y-80782592D01*
X114046000Y-80507408D01*
X113992314Y-80237510D01*
X113887005Y-79983273D01*
X113734120Y-79754465D01*
X113539535Y-79559880D01*
X113310727Y-79406995D01*
X113233485Y-79375000D01*
X113310727Y-79343005D01*
X113539535Y-79190120D01*
X113734120Y-78995535D01*
X113887005Y-78766727D01*
X113992314Y-78512490D01*
X114046000Y-78242592D01*
X114046000Y-77967408D01*
X113992314Y-77697510D01*
X113887005Y-77443273D01*
X113734120Y-77214465D01*
X113539535Y-77019880D01*
X113310727Y-76866995D01*
X113233485Y-76835000D01*
X113310727Y-76803005D01*
X113539535Y-76650120D01*
X113704656Y-76484999D01*
X127772928Y-76484999D01*
X127772928Y-77185001D01*
X127789992Y-77358255D01*
X127840528Y-77524851D01*
X127922595Y-77678387D01*
X128033038Y-77812962D01*
X128167613Y-77923405D01*
X128321149Y-78005472D01*
X128487745Y-78056008D01*
X128660999Y-78073072D01*
X129911001Y-78073072D01*
X130084255Y-78056008D01*
X130250851Y-78005472D01*
X130404387Y-77923405D01*
X130538962Y-77812962D01*
X130649405Y-77678387D01*
X130731472Y-77524851D01*
X130782008Y-77358255D01*
X130799072Y-77185001D01*
X130799072Y-76484999D01*
X130782008Y-76311745D01*
X130731472Y-76145149D01*
X130649405Y-75991613D01*
X130538962Y-75857038D01*
X130404387Y-75746595D01*
X130250851Y-75664528D01*
X130084255Y-75613992D01*
X129911001Y-75596928D01*
X128660999Y-75596928D01*
X128487745Y-75613992D01*
X128321149Y-75664528D01*
X128167613Y-75746595D01*
X128033038Y-75857038D01*
X127922595Y-75991613D01*
X127840528Y-76145149D01*
X127789992Y-76311745D01*
X127772928Y-76484999D01*
X113704656Y-76484999D01*
X113734120Y-76455535D01*
X113887005Y-76226727D01*
X113992314Y-75972490D01*
X114046000Y-75702592D01*
X114046000Y-75427408D01*
X113992314Y-75157510D01*
X113887005Y-74903273D01*
X113734120Y-74674465D01*
X113539535Y-74479880D01*
X113310727Y-74326995D01*
X113233485Y-74295000D01*
X113310727Y-74263005D01*
X113539535Y-74110120D01*
X113734120Y-73915535D01*
X113887005Y-73686727D01*
X113992314Y-73432490D01*
X114046000Y-73162592D01*
X114046000Y-72887408D01*
X113992314Y-72617510D01*
X113887005Y-72363273D01*
X113734120Y-72134465D01*
X113539535Y-71939880D01*
X113310727Y-71786995D01*
X113233485Y-71755000D01*
X113310727Y-71723005D01*
X113539535Y-71570120D01*
X113734120Y-71375535D01*
X113887005Y-71146727D01*
X113992314Y-70892490D01*
X114046000Y-70622592D01*
X114046000Y-70347408D01*
X113992314Y-70077510D01*
X113887005Y-69823273D01*
X113734120Y-69594465D01*
X113539535Y-69399880D01*
X113310727Y-69246995D01*
X113233485Y-69215000D01*
X113310727Y-69183005D01*
X113539535Y-69030120D01*
X113734120Y-68835535D01*
X113887005Y-68606727D01*
X113992314Y-68352490D01*
X114046000Y-68082592D01*
X114046000Y-67807408D01*
X113992314Y-67537510D01*
X113887005Y-67283273D01*
X113734120Y-67054465D01*
X113539535Y-66859880D01*
X113310727Y-66706995D01*
X113233485Y-66675000D01*
X113310727Y-66643005D01*
X113539535Y-66490120D01*
X113734120Y-66295535D01*
X113887005Y-66066727D01*
X113992314Y-65812490D01*
X114046000Y-65542592D01*
X114046000Y-65267408D01*
X113992314Y-64997510D01*
X113887005Y-64743273D01*
X113734120Y-64514465D01*
X113539535Y-64319880D01*
X113310727Y-64166995D01*
X113056490Y-64061686D01*
X112786592Y-64008000D01*
X112511408Y-64008000D01*
X112241510Y-64061686D01*
X111987273Y-64166995D01*
X111758465Y-64319880D01*
X111563880Y-64514465D01*
X111410995Y-64743273D01*
X111305686Y-64997510D01*
X111252000Y-65267408D01*
X97345212Y-65267408D01*
X92265212Y-60187408D01*
X111252000Y-60187408D01*
X111252000Y-60462592D01*
X111305686Y-60732490D01*
X111410995Y-60986727D01*
X111563880Y-61215535D01*
X111758465Y-61410120D01*
X111987273Y-61563005D01*
X112241510Y-61668314D01*
X112511408Y-61722000D01*
X112786592Y-61722000D01*
X113056490Y-61668314D01*
X113310727Y-61563005D01*
X113539535Y-61410120D01*
X113734120Y-61215535D01*
X113887005Y-60986727D01*
X113992314Y-60732490D01*
X114046000Y-60462592D01*
X114046000Y-60187408D01*
X113992314Y-59917510D01*
X113887005Y-59663273D01*
X113734120Y-59434465D01*
X113539535Y-59239880D01*
X113310727Y-59086995D01*
X113056490Y-58981686D01*
X112786592Y-58928000D01*
X112511408Y-58928000D01*
X112241510Y-58981686D01*
X111987273Y-59086995D01*
X111758465Y-59239880D01*
X111563880Y-59434465D01*
X111410995Y-59663273D01*
X111305686Y-59917510D01*
X111252000Y-60187408D01*
X92265212Y-60187408D01*
X91276001Y-59198198D01*
X91276001Y-59136060D01*
X91236227Y-58936101D01*
X91158206Y-58747743D01*
X91044938Y-58578225D01*
X90900775Y-58434062D01*
X90731257Y-58320794D01*
X90542899Y-58242773D01*
X90342940Y-58202999D01*
X90139062Y-58202999D01*
X89939103Y-58242773D01*
X89750745Y-58320794D01*
X89581227Y-58434062D01*
X89437064Y-58578225D01*
X89323796Y-58747743D01*
X89245775Y-58936101D01*
X89206001Y-59136060D01*
X89206001Y-59339938D01*
X89245775Y-59539897D01*
X89323796Y-59728255D01*
X89437064Y-59897773D01*
X89581227Y-60041936D01*
X89750745Y-60155204D01*
X89939103Y-60233225D01*
X90139062Y-60272999D01*
X90201200Y-60272999D01*
X99279001Y-69350802D01*
X99279001Y-69629200D01*
X98170805Y-68521004D01*
X98147002Y-68492000D01*
X98031277Y-68397027D01*
X97899248Y-68326455D01*
X97755987Y-68282998D01*
X97644334Y-68272001D01*
X97644323Y-68272001D01*
X97607001Y-68268325D01*
X97569679Y-68272001D01*
X88608324Y-68272001D01*
X88646000Y-68082592D01*
X88646000Y-67807408D01*
X88592314Y-67537510D01*
X88487005Y-67283273D01*
X88334120Y-67054465D01*
X88139535Y-66859880D01*
X87910727Y-66706995D01*
X87833485Y-66675000D01*
X87910727Y-66643005D01*
X88139535Y-66490120D01*
X88334120Y-66295535D01*
X88487005Y-66066727D01*
X88592314Y-65812490D01*
X88646000Y-65542592D01*
X88646000Y-65267408D01*
X88592314Y-64997510D01*
X88487005Y-64743273D01*
X88334120Y-64514465D01*
X88139535Y-64319880D01*
X87910727Y-64166995D01*
X87656490Y-64061686D01*
X87386592Y-64008000D01*
X87111408Y-64008000D01*
X86841510Y-64061686D01*
X86587273Y-64166995D01*
X86358465Y-64319880D01*
X86163880Y-64514465D01*
X86010995Y-64743273D01*
X85905686Y-64997510D01*
X85852000Y-65267408D01*
X85852000Y-65542592D01*
X85905686Y-65812490D01*
X86010995Y-66066727D01*
X86163880Y-66295535D01*
X86358465Y-66490120D01*
X86587273Y-66643005D01*
X86664515Y-66675000D01*
X86587273Y-66706995D01*
X86358465Y-66859880D01*
X86163880Y-67054465D01*
X86010995Y-67283273D01*
X85905686Y-67537510D01*
X85852000Y-67807408D01*
X85852000Y-68082592D01*
X85889676Y-68272001D01*
X82645700Y-68272001D01*
X80682790Y-66309091D01*
X80719102Y-66126540D01*
X80719102Y-65843870D01*
X80664545Y-65569597D01*
X80938819Y-65624154D01*
X81221489Y-65624154D01*
X81498728Y-65569007D01*
X81759881Y-65460834D01*
X81994913Y-65303791D01*
X82194791Y-65103913D01*
X82351834Y-64868881D01*
X82460007Y-64607728D01*
X82515154Y-64330489D01*
X82515154Y-64047819D01*
X82460007Y-63770580D01*
X82351834Y-63509427D01*
X82194791Y-63274395D01*
X81994913Y-63074517D01*
X81759881Y-62917474D01*
X81498728Y-62809301D01*
X81221489Y-62754154D01*
X80938819Y-62754154D01*
X80661580Y-62809301D01*
X80400427Y-62917474D01*
X80165395Y-63074517D01*
X79965517Y-63274395D01*
X79808474Y-63509427D01*
X79700301Y-63770580D01*
X79645154Y-64047819D01*
X79645154Y-64330489D01*
X79699711Y-64604762D01*
X79425437Y-64550205D01*
X79142767Y-64550205D01*
X78865528Y-64605352D01*
X78604375Y-64713525D01*
X78369343Y-64870568D01*
X78169465Y-65070446D01*
X78012422Y-65305478D01*
X77904249Y-65566631D01*
X77849102Y-65843870D01*
X77849102Y-66126540D01*
X77903659Y-66400813D01*
X77629386Y-66346256D01*
X77346716Y-66346256D01*
X77069477Y-66401403D01*
X76808324Y-66509576D01*
X76573292Y-66666619D01*
X76373414Y-66866497D01*
X76216371Y-67101529D01*
X76108198Y-67362682D01*
X76053051Y-67639921D01*
X76053051Y-67922591D01*
X76107608Y-68196864D01*
X75833335Y-68142307D01*
X75550665Y-68142307D01*
X75273426Y-68197454D01*
X75012273Y-68305627D01*
X74777241Y-68462670D01*
X74577363Y-68662548D01*
X74420320Y-68897580D01*
X74312147Y-69158733D01*
X74257000Y-69435972D01*
X74257000Y-69718642D01*
X74311557Y-69992916D01*
X74037284Y-69938359D01*
X73754614Y-69938359D01*
X73477375Y-69993506D01*
X73216222Y-70101679D01*
X72981190Y-70258722D01*
X72781312Y-70458600D01*
X72624269Y-70693632D01*
X72516096Y-70954785D01*
X72460949Y-71232024D01*
X72460949Y-71514694D01*
X72515506Y-71788967D01*
X72241233Y-71734410D01*
X71958563Y-71734410D01*
X71681324Y-71789557D01*
X71420171Y-71897730D01*
X71185139Y-72054773D01*
X70985261Y-72254651D01*
X70828218Y-72489683D01*
X70720045Y-72750836D01*
X70664898Y-73028075D01*
X70664898Y-73310745D01*
X70719455Y-73585018D01*
X70445181Y-73530461D01*
X70162511Y-73530461D01*
X69885272Y-73585608D01*
X69624119Y-73693781D01*
X69389087Y-73850824D01*
X69189209Y-74050702D01*
X69032166Y-74285734D01*
X68923993Y-74546887D01*
X68868846Y-74824126D01*
X68868846Y-75106796D01*
X68923403Y-75381069D01*
X68649130Y-75326512D01*
X68366460Y-75326512D01*
X68089221Y-75381659D01*
X67828068Y-75489832D01*
X67593036Y-75646875D01*
X67393158Y-75846753D01*
X67236115Y-76081785D01*
X67127942Y-76342938D01*
X67072795Y-76620177D01*
X67072795Y-76902847D01*
X67127352Y-77177120D01*
X66853079Y-77122563D01*
X66570409Y-77122563D01*
X66293170Y-77177710D01*
X66032017Y-77285883D01*
X65796985Y-77442926D01*
X65597107Y-77642804D01*
X65440064Y-77877836D01*
X65331891Y-78138989D01*
X65276744Y-78416228D01*
X65276744Y-78698898D01*
X65331301Y-78973172D01*
X65057028Y-78918615D01*
X64774358Y-78918615D01*
X64497119Y-78973762D01*
X64235966Y-79081935D01*
X64000934Y-79238978D01*
X63801056Y-79438856D01*
X63644013Y-79673888D01*
X63535840Y-79935041D01*
X63480693Y-80212280D01*
X54831573Y-80212280D01*
X55372954Y-78973109D01*
X56613367Y-76517508D01*
X57988918Y-74134983D01*
X58713258Y-73028075D01*
X59888590Y-73028075D01*
X59888590Y-73310745D01*
X59943737Y-73587984D01*
X60051910Y-73849137D01*
X60208953Y-74084169D01*
X60408831Y-74284047D01*
X60643863Y-74441090D01*
X60905016Y-74549263D01*
X61182255Y-74604410D01*
X61464925Y-74604410D01*
X61742164Y-74549263D01*
X62003317Y-74441090D01*
X62238349Y-74284047D01*
X62438227Y-74084169D01*
X62595270Y-73849137D01*
X62703443Y-73587984D01*
X62758590Y-73310745D01*
X62758590Y-73028075D01*
X62704033Y-72753802D01*
X62978306Y-72808359D01*
X63260976Y-72808359D01*
X63538215Y-72753212D01*
X63799368Y-72645039D01*
X64034400Y-72487996D01*
X64234278Y-72288118D01*
X64391321Y-72053086D01*
X64499494Y-71791933D01*
X64554641Y-71514694D01*
X64554641Y-71232024D01*
X64500084Y-70957750D01*
X64774358Y-71012307D01*
X65057028Y-71012307D01*
X65334267Y-70957160D01*
X65595420Y-70848987D01*
X65830452Y-70691944D01*
X66030330Y-70492066D01*
X66187373Y-70257034D01*
X66295546Y-69995881D01*
X66350693Y-69718642D01*
X66350693Y-69435972D01*
X66296136Y-69161699D01*
X66570409Y-69216256D01*
X66853079Y-69216256D01*
X67130318Y-69161109D01*
X67391471Y-69052936D01*
X67626503Y-68895893D01*
X67826381Y-68696015D01*
X67983424Y-68460983D01*
X68091597Y-68199830D01*
X68146744Y-67922591D01*
X68146744Y-67639921D01*
X68092187Y-67365648D01*
X68366460Y-67420205D01*
X68649130Y-67420205D01*
X68926369Y-67365058D01*
X69187522Y-67256885D01*
X69422554Y-67099842D01*
X69622432Y-66899964D01*
X69779475Y-66664932D01*
X69887648Y-66403779D01*
X69942795Y-66126540D01*
X69942795Y-65843870D01*
X69888238Y-65569597D01*
X70162511Y-65624154D01*
X70445181Y-65624154D01*
X70722420Y-65569007D01*
X70983573Y-65460834D01*
X71218605Y-65303791D01*
X71418483Y-65103913D01*
X71575526Y-64868881D01*
X71683699Y-64607728D01*
X71738846Y-64330489D01*
X71738846Y-64047819D01*
X71684289Y-63773545D01*
X71958563Y-63828102D01*
X72241233Y-63828102D01*
X72518472Y-63772955D01*
X72779625Y-63664782D01*
X73014657Y-63507739D01*
X73214535Y-63307861D01*
X73371578Y-63072829D01*
X73479751Y-62811676D01*
X73534898Y-62534437D01*
X73534898Y-62251767D01*
X73480341Y-61977494D01*
X73754614Y-62032051D01*
X74037284Y-62032051D01*
X74314523Y-61976904D01*
X74575676Y-61868731D01*
X74810708Y-61711688D01*
X75010586Y-61511810D01*
X75167629Y-61276778D01*
X75275802Y-61015625D01*
X75330949Y-60738386D01*
X75330949Y-60457527D01*
X75337506Y-60462908D01*
X75447820Y-60521873D01*
X75567518Y-60558183D01*
X75692000Y-60570443D01*
X75816482Y-60558183D01*
X75936180Y-60521873D01*
X76046494Y-60462908D01*
X76143185Y-60383556D01*
X76339333Y-60187408D01*
X85852000Y-60187408D01*
X85852000Y-60462592D01*
X85905686Y-60732490D01*
X86010995Y-60986727D01*
X86163880Y-61215535D01*
X86358465Y-61410120D01*
X86587273Y-61563005D01*
X86841510Y-61668314D01*
X87111408Y-61722000D01*
X87386592Y-61722000D01*
X87656490Y-61668314D01*
X87910727Y-61563005D01*
X88139535Y-61410120D01*
X88334120Y-61215535D01*
X88487005Y-60986727D01*
X88592314Y-60732490D01*
X88646000Y-60462592D01*
X88646000Y-60187408D01*
X88592314Y-59917510D01*
X88487005Y-59663273D01*
X88334120Y-59434465D01*
X88139535Y-59239880D01*
X87910727Y-59086995D01*
X87656490Y-58981686D01*
X87386592Y-58928000D01*
X87111408Y-58928000D01*
X86841510Y-58981686D01*
X86587273Y-59086995D01*
X86358465Y-59239880D01*
X86163880Y-59434465D01*
X86010995Y-59663273D01*
X85905686Y-59917510D01*
X85852000Y-60187408D01*
X76339333Y-60187408D01*
X77274556Y-59252185D01*
X77353908Y-59155494D01*
X77412873Y-59045180D01*
X77449183Y-58925482D01*
X77461443Y-58801000D01*
X77449183Y-58676518D01*
X77412873Y-58556820D01*
X77353908Y-58446506D01*
X77274556Y-58349815D01*
X76143185Y-57218444D01*
X76046494Y-57139092D01*
X75936180Y-57080127D01*
X75816482Y-57043817D01*
X75692000Y-57031557D01*
X75567518Y-57043817D01*
X75447820Y-57080127D01*
X75337506Y-57139092D01*
X75240815Y-57218444D01*
X74109444Y-58349815D01*
X74030092Y-58446506D01*
X73971127Y-58556820D01*
X73934817Y-58676518D01*
X73922557Y-58801000D01*
X73934817Y-58925482D01*
X73971127Y-59045180D01*
X74030092Y-59155494D01*
X74035473Y-59162051D01*
X73754614Y-59162051D01*
X73477375Y-59217198D01*
X73216222Y-59325371D01*
X72981190Y-59482414D01*
X72781312Y-59682292D01*
X72624269Y-59917324D01*
X72516096Y-60178477D01*
X72460949Y-60455716D01*
X72460949Y-60738386D01*
X72515506Y-61012659D01*
X72241233Y-60958102D01*
X71958563Y-60958102D01*
X71681324Y-61013249D01*
X71420171Y-61121422D01*
X71185139Y-61278465D01*
X70985261Y-61478343D01*
X70828218Y-61713375D01*
X70720045Y-61974528D01*
X70664898Y-62251767D01*
X70664898Y-62534437D01*
X70719455Y-62808711D01*
X70445181Y-62754154D01*
X70162511Y-62754154D01*
X69885272Y-62809301D01*
X69624119Y-62917474D01*
X69389087Y-63074517D01*
X69189209Y-63274395D01*
X69032166Y-63509427D01*
X68923993Y-63770580D01*
X68868846Y-64047819D01*
X68868846Y-64330489D01*
X68923403Y-64604762D01*
X68649130Y-64550205D01*
X68366460Y-64550205D01*
X68089221Y-64605352D01*
X67828068Y-64713525D01*
X67593036Y-64870568D01*
X67393158Y-65070446D01*
X67236115Y-65305478D01*
X67127942Y-65566631D01*
X67072795Y-65843870D01*
X67072795Y-66126540D01*
X67127352Y-66400813D01*
X66853079Y-66346256D01*
X66570409Y-66346256D01*
X66293170Y-66401403D01*
X66032017Y-66509576D01*
X65796985Y-66666619D01*
X65597107Y-66866497D01*
X65440064Y-67101529D01*
X65331891Y-67362682D01*
X65276744Y-67639921D01*
X65276744Y-67922591D01*
X65331301Y-68196864D01*
X65057028Y-68142307D01*
X64774358Y-68142307D01*
X64497119Y-68197454D01*
X64235966Y-68305627D01*
X64000934Y-68462670D01*
X63801056Y-68662548D01*
X63644013Y-68897580D01*
X63535840Y-69158733D01*
X63480693Y-69435972D01*
X63480693Y-69718642D01*
X63535250Y-69992916D01*
X63260976Y-69938359D01*
X62978306Y-69938359D01*
X62701067Y-69993506D01*
X62439914Y-70101679D01*
X62204882Y-70258722D01*
X62005004Y-70458600D01*
X61847961Y-70693632D01*
X61739788Y-70954785D01*
X61684641Y-71232024D01*
X61684641Y-71514694D01*
X61739198Y-71788967D01*
X61464925Y-71734410D01*
X61182255Y-71734410D01*
X60905016Y-71789557D01*
X60643863Y-71897730D01*
X60408831Y-72054773D01*
X60208953Y-72254651D01*
X60051910Y-72489683D01*
X59943737Y-72750836D01*
X59888590Y-73028075D01*
X58713258Y-73028075D01*
X59495322Y-71832958D01*
X61127878Y-69618613D01*
X62881495Y-67498854D01*
X64754208Y-65476508D01*
X65733988Y-64503544D01*
X65762294Y-64473821D01*
X65778681Y-64454566D01*
X65781377Y-64451762D01*
X65783009Y-64449480D01*
X65788896Y-64442563D01*
X65813711Y-64409870D01*
X65836663Y-64375843D01*
X65841564Y-64367621D01*
X65843268Y-64365239D01*
X65845087Y-64361711D01*
X65857679Y-64340587D01*
X65876696Y-64304213D01*
X65891057Y-64272553D01*
X65892020Y-64270686D01*
X65892383Y-64269631D01*
X65893652Y-64266833D01*
X65908495Y-64228567D01*
X65921178Y-64189530D01*
X65925331Y-64173814D01*
X65926612Y-64170087D01*
X65927351Y-64166166D01*
X65931663Y-64149847D01*
X65939916Y-64109641D01*
X65945912Y-64069036D01*
X65946145Y-64066477D01*
X65946320Y-64065548D01*
X65946396Y-64063719D01*
X65949632Y-64028161D01*
X65951064Y-63987141D01*
X65950564Y-63963282D01*
X65950731Y-63959258D01*
X65950392Y-63955063D01*
X65950204Y-63946105D01*
X65947056Y-63905182D01*
X65945283Y-63891894D01*
X65944839Y-63886406D01*
X65807949Y-62842942D01*
X65822354Y-61843966D01*
X65980816Y-60857539D01*
X66280014Y-59904321D01*
X66713682Y-59004275D01*
X67272739Y-58176254D01*
X67550167Y-57871645D01*
X67550167Y-58116772D01*
X67622606Y-58480950D01*
X67764701Y-58823998D01*
X67970992Y-59132734D01*
X68233549Y-59395291D01*
X68542285Y-59601582D01*
X68885333Y-59743677D01*
X69249511Y-59816116D01*
X69620823Y-59816116D01*
X69985001Y-59743677D01*
X70328049Y-59601582D01*
X70636785Y-59395291D01*
X70899342Y-59132734D01*
X71105633Y-58823998D01*
X71247728Y-58480950D01*
X71320167Y-58116772D01*
X71320167Y-57745460D01*
X71247728Y-57381282D01*
X71105633Y-57038234D01*
X70899342Y-56729498D01*
X70636785Y-56466941D01*
X70328049Y-56260650D01*
X69985001Y-56118555D01*
X69979893Y-56117539D01*
X70494667Y-55901424D01*
X71462043Y-55651715D01*
X72455321Y-55544269D01*
X73453712Y-55581335D01*
X74436283Y-55762134D01*
X75387211Y-56084489D01*
X76150341Y-56460822D01*
X76152268Y-56461605D01*
X76157838Y-56464467D01*
X76195334Y-56481162D01*
X76233705Y-56495737D01*
X76245700Y-56499542D01*
X76248906Y-56500844D01*
X76252883Y-56501821D01*
X76272828Y-56508148D01*
X76312582Y-56518355D01*
X76351844Y-56526129D01*
X76352216Y-56526220D01*
X76352390Y-56526237D01*
X76352846Y-56526327D01*
X76393491Y-56532039D01*
X76434392Y-56535474D01*
X76454015Y-56536022D01*
X76458106Y-56536416D01*
X76461745Y-56536238D01*
X76475421Y-56536620D01*
X76516450Y-56535473D01*
X76557350Y-56532039D01*
X76562547Y-56531309D01*
X76564360Y-56531220D01*
X76567344Y-56530635D01*
X76597996Y-56526327D01*
X76638259Y-56518354D01*
X76665248Y-56511425D01*
X76668751Y-56510738D01*
X76670972Y-56509956D01*
X76678014Y-56508148D01*
X76717138Y-56495736D01*
X76755508Y-56481162D01*
X76765985Y-56476497D01*
X76769092Y-56475403D01*
X76772718Y-56473499D01*
X76793004Y-56464467D01*
X76802228Y-56459968D01*
X79284820Y-55227599D01*
X81813446Y-54143828D01*
X84398638Y-53202895D01*
X87032329Y-52407738D01*
X89706286Y-51760839D01*
X92412198Y-51264211D01*
X95141593Y-50919408D01*
X97886022Y-50727499D01*
X100636840Y-50689088D01*
X103385531Y-50804292D01*
%TA.AperFunction,Conductor*%
D23*
G36*
X103385531Y-50804292D02*
G01*
X106123498Y-51072752D01*
X108842219Y-51493632D01*
X111533202Y-52065617D01*
X114188064Y-52786927D01*
X116798519Y-53655310D01*
X119356444Y-54668064D01*
X121858484Y-55824169D01*
X123086611Y-56455341D01*
X123123626Y-56473076D01*
X123147001Y-56482710D01*
X123150504Y-56484409D01*
X123153182Y-56485257D01*
X123161574Y-56488716D01*
X123200336Y-56502215D01*
X123239790Y-56513529D01*
X123249128Y-56515650D01*
X123251918Y-56516534D01*
X123255835Y-56517174D01*
X123279815Y-56522621D01*
X123320285Y-56529467D01*
X123354829Y-56533341D01*
X123356908Y-56533681D01*
X123358026Y-56533700D01*
X123361075Y-56534042D01*
X123402055Y-56536333D01*
X123443100Y-56536333D01*
X123459328Y-56535426D01*
X123463273Y-56535493D01*
X123467235Y-56534984D01*
X123484081Y-56534042D01*
X123524870Y-56529468D01*
X123565340Y-56522622D01*
X123567846Y-56522053D01*
X123568785Y-56521932D01*
X123570551Y-56521438D01*
X123605365Y-56513529D01*
X123644819Y-56502215D01*
X123667356Y-56494367D01*
X123671236Y-56493282D01*
X123675120Y-56491663D01*
X123683581Y-56488717D01*
X123721529Y-56473076D01*
X123733606Y-56467290D01*
X123738702Y-56465166D01*
X124688790Y-56012528D01*
X125643328Y-55717527D01*
X126630440Y-55563411D01*
X127629464Y-55553405D01*
X128619473Y-55687719D01*
X129579722Y-55963541D01*
X129966792Y-56138523D01*
X129671951Y-56260650D01*
X129363215Y-56466941D01*
X129100658Y-56729498D01*
X128894367Y-57038234D01*
X128752272Y-57381282D01*
X128679833Y-57745460D01*
X128679833Y-58116772D01*
X128752272Y-58480950D01*
X128894367Y-58823998D01*
X129100658Y-59132734D01*
X129363215Y-59395291D01*
X129671951Y-59601582D01*
X130014999Y-59743677D01*
X130379177Y-59816116D01*
X130750489Y-59816116D01*
X131114667Y-59743677D01*
X131457715Y-59601582D01*
X131766451Y-59395291D01*
X132029008Y-59132734D01*
X132235299Y-58823998D01*
X132377394Y-58480950D01*
X132449833Y-58116772D01*
X132449833Y-57989684D01*
X132738846Y-58324818D01*
X133275264Y-59167674D01*
X133684394Y-60079140D01*
X133957661Y-61040117D01*
X134089343Y-62030478D01*
X134076618Y-63034474D01*
X133954524Y-63876543D01*
X133954375Y-63878628D01*
X133953375Y-63884800D01*
X133949084Y-63925621D01*
X133947079Y-63966617D01*
X133947167Y-63979192D01*
X133946919Y-63982651D01*
X133947220Y-63986747D01*
X133947366Y-64007661D01*
X133949943Y-64048623D01*
X133954682Y-64088366D01*
X133954710Y-64088746D01*
X133954748Y-64088916D01*
X133954803Y-64089380D01*
X133961930Y-64129801D01*
X133971303Y-64169762D01*
X133976847Y-64188600D01*
X133977735Y-64192605D01*
X133979026Y-64196004D01*
X133982891Y-64209136D01*
X133996661Y-64247803D01*
X134012565Y-64285641D01*
X134014872Y-64290371D01*
X134015511Y-64292053D01*
X134016979Y-64294690D01*
X134030559Y-64322532D01*
X134050583Y-64358361D01*
X134065509Y-64381881D01*
X134067248Y-64385005D01*
X134068682Y-64386880D01*
X134072575Y-64393015D01*
X134096469Y-64426389D01*
X134122187Y-64458377D01*
X134129870Y-64466909D01*
X134131862Y-64469515D01*
X134134781Y-64472363D01*
X134149652Y-64488879D01*
X134156781Y-64496262D01*
X136095989Y-66476516D01*
X137908116Y-68546492D01*
X139601862Y-70714387D01*
X141171954Y-72973455D01*
X142613489Y-75316636D01*
X143921986Y-77736649D01*
X145093346Y-80225916D01*
X145954667Y-82357761D01*
X145076580Y-82624065D01*
X145060305Y-82629996D01*
X145043684Y-82634894D01*
X145000685Y-82651721D01*
X143681915Y-83216168D01*
X143666393Y-83223847D01*
X143650406Y-83230541D01*
X143609513Y-83251985D01*
X142360646Y-83957737D01*
X142346063Y-83967071D01*
X142330904Y-83975481D01*
X142292612Y-84001283D01*
X141128732Y-84839817D01*
X141115260Y-84850696D01*
X141101116Y-84860718D01*
X141065886Y-84890565D01*
X140001052Y-85851752D01*
X139988853Y-85864046D01*
X139975897Y-85875557D01*
X139944155Y-85909090D01*
X138991226Y-86981322D01*
X138980450Y-86994879D01*
X138968835Y-87007744D01*
X138940965Y-87044557D01*
X138111451Y-88214882D01*
X138102223Y-88229549D01*
X138092095Y-88243602D01*
X138068432Y-88283252D01*
X137372353Y-89537535D01*
X137364791Y-89553124D01*
X137356266Y-89568204D01*
X137337097Y-89610211D01*
X136782859Y-90933305D01*
X136777056Y-90949621D01*
X136770234Y-90965554D01*
X136755791Y-91009411D01*
X136350089Y-92385333D01*
X136346112Y-92402187D01*
X136341079Y-92418773D01*
X136331536Y-92463950D01*
X136079270Y-93876081D01*
X136077166Y-93893274D01*
X136073984Y-93910309D01*
X136069455Y-93956260D01*
X135973671Y-95387546D01*
X135973466Y-95404866D01*
X135972173Y-95422147D01*
X135972715Y-95468318D01*
X136034571Y-96901470D01*
X136036267Y-96918699D01*
X136036878Y-96936027D01*
X136042483Y-96981859D01*
X136261232Y-98399570D01*
X136264810Y-98416517D01*
X136267318Y-98433664D01*
X136277918Y-98478605D01*
X136650917Y-99863749D01*
X136656336Y-99880209D01*
X136660708Y-99896969D01*
X136676175Y-99940475D01*
X137198920Y-101276325D01*
X137206111Y-101292087D01*
X137212297Y-101308270D01*
X137232445Y-101349816D01*
X137898621Y-102620234D01*
X137907495Y-102635107D01*
X137915422Y-102650518D01*
X137940008Y-102689602D01*
X138741569Y-103879247D01*
X138752023Y-103893059D01*
X138761593Y-103907506D01*
X138790319Y-103943656D01*
X139717585Y-105038157D01*
X139729491Y-105050738D01*
X139740588Y-105064047D01*
X139773107Y-105096826D01*
X140814877Y-106082964D01*
X140828087Y-106094158D01*
X140840582Y-106106174D01*
X140876503Y-106135187D01*
X142020196Y-107001053D01*
X142034560Y-107010734D01*
X142048292Y-107021301D01*
X142087179Y-107046198D01*
X143318979Y-107781331D01*
X143334314Y-107789375D01*
X143349129Y-107798375D01*
X143390513Y-107818853D01*
X144695544Y-108414376D01*
X144711670Y-108420689D01*
X144727381Y-108428008D01*
X144770762Y-108443822D01*
X146133262Y-108892543D01*
X146149986Y-108897049D01*
X146166403Y-108902599D01*
X146211258Y-108913556D01*
X147614768Y-109210054D01*
X147631881Y-109212697D01*
X147648813Y-109216413D01*
X147694599Y-109222382D01*
X148844639Y-109335724D01*
X149383726Y-109905272D01*
X149958574Y-110722406D01*
X150409440Y-111613956D01*
X150726884Y-112561260D01*
X150904253Y-113544460D01*
X150937834Y-114542974D01*
X150903368Y-114851520D01*
X150656557Y-114604709D01*
X150347821Y-114398418D01*
X150004773Y-114256323D01*
X149640595Y-114183884D01*
X149269283Y-114183884D01*
X148905105Y-114256323D01*
X148562057Y-114398418D01*
X148253321Y-114604709D01*
X147990764Y-114867266D01*
X147784473Y-115176002D01*
X147642378Y-115519050D01*
X147569939Y-115883228D01*
X147569939Y-116254540D01*
X147642378Y-116618718D01*
X147784473Y-116961766D01*
X147990764Y-117270502D01*
X148253321Y-117533059D01*
X148562057Y-117739350D01*
X148905105Y-117881445D01*
X149269283Y-117953884D01*
X149640595Y-117953884D01*
X149891231Y-117904030D01*
X149665238Y-118276105D01*
X149028755Y-119046196D01*
X148287776Y-119716337D01*
X147457813Y-120272498D01*
X146556253Y-120703025D01*
X145597071Y-121000423D01*
X144764532Y-121143122D01*
X144762447Y-121143637D01*
X144756020Y-121144632D01*
X144715872Y-121153166D01*
X144676263Y-121163927D01*
X144664576Y-121167815D01*
X144661256Y-121168635D01*
X144657462Y-121170182D01*
X144637317Y-121176883D01*
X144599155Y-121191992D01*
X144563271Y-121208573D01*
X144562744Y-121208788D01*
X144562517Y-121208922D01*
X144561895Y-121209209D01*
X144525655Y-121228478D01*
X144490546Y-121249741D01*
X144474603Y-121260657D01*
X144471061Y-121262742D01*
X144468187Y-121265051D01*
X144456680Y-121272930D01*
X144424161Y-121297973D01*
X144393090Y-121324792D01*
X144389474Y-121328284D01*
X144388127Y-121329366D01*
X144386130Y-121331513D01*
X144363564Y-121353305D01*
X144335677Y-121383421D01*
X144318150Y-121404607D01*
X144315678Y-121407265D01*
X144314300Y-121409261D01*
X144309514Y-121415046D01*
X144285158Y-121448083D01*
X144262682Y-121482427D01*
X144257068Y-121492151D01*
X144255235Y-121494806D01*
X144253435Y-121498444D01*
X144242160Y-121517974D01*
X144237342Y-121527035D01*
X142953257Y-123983265D01*
X141544579Y-126346343D01*
X140006165Y-128627136D01*
X138342870Y-130818446D01*
X136559817Y-132913527D01*
X134662608Y-134905793D01*
X132657139Y-136789054D01*
X130549665Y-138557434D01*
X128346771Y-140205409D01*
X126055314Y-141727850D01*
X123682463Y-143119994D01*
X121235585Y-144377518D01*
X118722329Y-145496492D01*
X116150515Y-146473433D01*
X113528203Y-147305279D01*
X110863516Y-147989454D01*
X108159784Y-148524807D01*
X106795210Y-148736055D01*
X106754839Y-148743465D01*
X106730258Y-148749411D01*
X106726436Y-148750094D01*
X106723781Y-148750978D01*
X106714945Y-148753116D01*
X106675653Y-148764979D01*
X106637083Y-148779017D01*
X106628269Y-148782795D01*
X106625507Y-148783715D01*
X106621983Y-148785489D01*
X106599358Y-148795187D01*
X106562593Y-148813436D01*
X106532351Y-148830617D01*
X106530490Y-148831554D01*
X106529583Y-148832189D01*
X106526905Y-148833711D01*
X106492404Y-148855945D01*
X106459198Y-148880071D01*
X106446598Y-148890347D01*
X106443373Y-148892607D01*
X106440473Y-148895342D01*
X106427390Y-148906012D01*
X106397081Y-148933688D01*
X106368363Y-148963014D01*
X106366664Y-148964955D01*
X106365983Y-148965597D01*
X106364858Y-148967018D01*
X106341327Y-148993896D01*
X106316058Y-149026241D01*
X106302435Y-149045843D01*
X106299939Y-149048994D01*
X106297753Y-149052579D01*
X106292634Y-149059944D01*
X106271127Y-149094903D01*
X106264747Y-149106702D01*
X106261884Y-149111397D01*
X105759299Y-150036039D01*
X105160460Y-150835761D01*
X104452454Y-151540654D01*
X103650109Y-152135960D01*
X102770227Y-152609210D01*
X101831250Y-152950484D01*
X101600061Y-152998251D01*
X101670466Y-152892882D01*
X101812561Y-152549834D01*
X101885000Y-152185656D01*
X101885000Y-151814344D01*
X101812561Y-151450166D01*
X101670466Y-151107118D01*
X101464175Y-150798382D01*
X101201618Y-150535825D01*
X100892882Y-150329534D01*
X100549834Y-150187439D01*
X100185656Y-150115000D01*
X99814344Y-150115000D01*
X99450166Y-150187439D01*
X99107118Y-150329534D01*
X98798382Y-150535825D01*
X98535825Y-150798382D01*
X98329534Y-151107118D01*
X98187439Y-151450166D01*
X98115000Y-151814344D01*
X98115000Y-152185656D01*
X98187439Y-152549834D01*
X98329534Y-152892882D01*
X98415188Y-153021072D01*
X97887535Y-152897058D01*
X96958143Y-152530471D01*
X96091405Y-152033559D01*
X95305483Y-151416738D01*
X94616828Y-150692918D01*
X94036992Y-149873192D01*
X93640811Y-149120176D01*
X93639704Y-149118397D01*
X93636886Y-149112819D01*
X93616364Y-149077273D01*
X93593889Y-149042928D01*
X93586433Y-149032815D01*
X93584595Y-149029862D01*
X93581937Y-149026716D01*
X93569532Y-149009891D01*
X93543370Y-148978267D01*
X93516191Y-148948916D01*
X93515931Y-148948609D01*
X93515793Y-148948487D01*
X93515482Y-148948151D01*
X93485957Y-148919639D01*
X93454886Y-148892819D01*
X93439336Y-148880844D01*
X93436256Y-148878119D01*
X93433206Y-148876123D01*
X93422367Y-148867776D01*
X93388500Y-148844587D01*
X93353392Y-148823324D01*
X93348745Y-148820853D01*
X93347241Y-148819869D01*
X93344507Y-148818600D01*
X93317151Y-148804055D01*
X93279891Y-148786839D01*
X93253983Y-148776581D01*
X93250748Y-148775079D01*
X93248492Y-148774406D01*
X93241730Y-148771729D01*
X93202783Y-148758773D01*
X93163174Y-148748011D01*
X93151950Y-148745625D01*
X93148802Y-148744687D01*
X93144760Y-148744097D01*
X93123026Y-148739478D01*
X93112920Y-148737696D01*
X90380106Y-148275475D01*
X87697358Y-147665970D01*
X85052844Y-146907667D01*
X82454748Y-146002915D01*
X79911241Y-144954556D01*
X77430195Y-143765839D01*
X75019400Y-142440493D01*
X72686322Y-140982625D01*
X71430870Y-140097000D01*
X78371928Y-140097000D01*
X78371928Y-142097000D01*
X78384188Y-142221482D01*
X78420498Y-142341180D01*
X78479463Y-142451494D01*
X78558815Y-142548185D01*
X78655506Y-142627537D01*
X78765820Y-142686502D01*
X78885518Y-142722812D01*
X79010000Y-142735072D01*
X81010000Y-142735072D01*
X81134482Y-142722812D01*
X81254180Y-142686502D01*
X81364494Y-142627537D01*
X81461185Y-142548185D01*
X81540537Y-142451494D01*
X81599502Y-142341180D01*
X81635812Y-142221482D01*
X81648072Y-142097000D01*
X81648072Y-140097000D01*
X91071928Y-140097000D01*
X91071928Y-142097000D01*
X91084188Y-142221482D01*
X91120498Y-142341180D01*
X91179463Y-142451494D01*
X91258815Y-142548185D01*
X91355506Y-142627537D01*
X91465820Y-142686502D01*
X91585518Y-142722812D01*
X91710000Y-142735072D01*
X93710000Y-142735072D01*
X93834482Y-142722812D01*
X93954180Y-142686502D01*
X94064494Y-142627537D01*
X94161185Y-142548185D01*
X94240537Y-142451494D01*
X94299502Y-142341180D01*
X94335812Y-142221482D01*
X94348072Y-142097000D01*
X94348072Y-140097000D01*
X105041928Y-140097000D01*
X105041928Y-142097000D01*
X105054188Y-142221482D01*
X105090498Y-142341180D01*
X105149463Y-142451494D01*
X105228815Y-142548185D01*
X105325506Y-142627537D01*
X105435820Y-142686502D01*
X105555518Y-142722812D01*
X105680000Y-142735072D01*
X107680000Y-142735072D01*
X107804482Y-142722812D01*
X107924180Y-142686502D01*
X108034494Y-142627537D01*
X108131185Y-142548185D01*
X108210537Y-142451494D01*
X108269502Y-142341180D01*
X108305812Y-142221482D01*
X108318072Y-142097000D01*
X108318072Y-140097000D01*
X117741928Y-140097000D01*
X117741928Y-142097000D01*
X117754188Y-142221482D01*
X117790498Y-142341180D01*
X117849463Y-142451494D01*
X117928815Y-142548185D01*
X118025506Y-142627537D01*
X118135820Y-142686502D01*
X118255518Y-142722812D01*
X118380000Y-142735072D01*
X120380000Y-142735072D01*
X120504482Y-142722812D01*
X120624180Y-142686502D01*
X120734494Y-142627537D01*
X120831185Y-142548185D01*
X120910537Y-142451494D01*
X120969502Y-142341180D01*
X121005812Y-142221482D01*
X121018072Y-142097000D01*
X121018072Y-140097000D01*
X121005812Y-139972518D01*
X120969502Y-139852820D01*
X120910537Y-139742506D01*
X120831185Y-139645815D01*
X120734494Y-139566463D01*
X120624180Y-139507498D01*
X120504482Y-139471188D01*
X120380000Y-139458928D01*
X118380000Y-139458928D01*
X118255518Y-139471188D01*
X118135820Y-139507498D01*
X118025506Y-139566463D01*
X117928815Y-139645815D01*
X117849463Y-139742506D01*
X117790498Y-139852820D01*
X117754188Y-139972518D01*
X117741928Y-140097000D01*
X108318072Y-140097000D01*
X108305812Y-139972518D01*
X108269502Y-139852820D01*
X108210537Y-139742506D01*
X108131185Y-139645815D01*
X108034494Y-139566463D01*
X107924180Y-139507498D01*
X107804482Y-139471188D01*
X107680000Y-139458928D01*
X105680000Y-139458928D01*
X105555518Y-139471188D01*
X105435820Y-139507498D01*
X105325506Y-139566463D01*
X105228815Y-139645815D01*
X105149463Y-139742506D01*
X105090498Y-139852820D01*
X105054188Y-139972518D01*
X105041928Y-140097000D01*
X94348072Y-140097000D01*
X94335812Y-139972518D01*
X94299502Y-139852820D01*
X94240537Y-139742506D01*
X94161185Y-139645815D01*
X94064494Y-139566463D01*
X93954180Y-139507498D01*
X93834482Y-139471188D01*
X93710000Y-139458928D01*
X91710000Y-139458928D01*
X91585518Y-139471188D01*
X91465820Y-139507498D01*
X91355506Y-139566463D01*
X91258815Y-139645815D01*
X91179463Y-139742506D01*
X91120498Y-139852820D01*
X91084188Y-139972518D01*
X91071928Y-140097000D01*
X81648072Y-140097000D01*
X81635812Y-139972518D01*
X81599502Y-139852820D01*
X81540537Y-139742506D01*
X81461185Y-139645815D01*
X81364494Y-139566463D01*
X81254180Y-139507498D01*
X81134482Y-139471188D01*
X81010000Y-139458928D01*
X79010000Y-139458928D01*
X78885518Y-139471188D01*
X78765820Y-139507498D01*
X78655506Y-139566463D01*
X78558815Y-139645815D01*
X78479463Y-139742506D01*
X78420498Y-139852820D01*
X78384188Y-139972518D01*
X78371928Y-140097000D01*
X71430870Y-140097000D01*
X70438276Y-139396802D01*
X68282253Y-137687959D01*
X66224972Y-135861419D01*
X64272883Y-133922911D01*
X62432045Y-131878453D01*
X60708181Y-129734400D01*
X59221343Y-127657606D01*
X62176120Y-127657606D01*
X62176120Y-127940276D01*
X62231267Y-128217515D01*
X62339440Y-128478668D01*
X62496483Y-128713700D01*
X62696361Y-128913578D01*
X62931393Y-129070621D01*
X63192546Y-129178794D01*
X63469785Y-129233941D01*
X63752455Y-129233941D01*
X64029694Y-129178794D01*
X64290847Y-129070621D01*
X64525879Y-128913578D01*
X64725757Y-128713700D01*
X64882800Y-128478668D01*
X64990973Y-128217515D01*
X65046120Y-127940276D01*
X65046120Y-127664369D01*
X65240426Y-127744853D01*
X65517665Y-127800000D01*
X65800335Y-127800000D01*
X66036616Y-127753000D01*
X73060928Y-127753000D01*
X73060928Y-130753000D01*
X73073188Y-130877482D01*
X73109498Y-130997180D01*
X73168463Y-131107494D01*
X73247815Y-131204185D01*
X73344506Y-131283537D01*
X73454820Y-131342502D01*
X73574518Y-131378812D01*
X73699000Y-131391072D01*
X76699000Y-131391072D01*
X76823482Y-131378812D01*
X76943180Y-131342502D01*
X77053494Y-131283537D01*
X77150185Y-131204185D01*
X77229537Y-131107494D01*
X77288502Y-130997180D01*
X77324812Y-130877482D01*
X77337072Y-130753000D01*
X77337072Y-127753000D01*
X122560928Y-127753000D01*
X122560928Y-130753000D01*
X122573188Y-130877482D01*
X122609498Y-130997180D01*
X122668463Y-131107494D01*
X122747815Y-131204185D01*
X122844506Y-131283537D01*
X122954820Y-131342502D01*
X123074518Y-131378812D01*
X123199000Y-131391072D01*
X126199000Y-131391072D01*
X126323482Y-131378812D01*
X126443180Y-131342502D01*
X126553494Y-131283537D01*
X126650185Y-131204185D01*
X126729537Y-131107494D01*
X126788502Y-130997180D01*
X126824812Y-130877482D01*
X126837072Y-130753000D01*
X126837072Y-127753000D01*
X126824812Y-127628518D01*
X126788502Y-127508820D01*
X126729537Y-127398506D01*
X126650185Y-127301815D01*
X126553494Y-127222463D01*
X126443180Y-127163498D01*
X126323482Y-127127188D01*
X126199000Y-127114928D01*
X123199000Y-127114928D01*
X123074518Y-127127188D01*
X122954820Y-127163498D01*
X122844506Y-127222463D01*
X122747815Y-127301815D01*
X122668463Y-127398506D01*
X122609498Y-127508820D01*
X122573188Y-127628518D01*
X122560928Y-127753000D01*
X77337072Y-127753000D01*
X77324812Y-127628518D01*
X77288502Y-127508820D01*
X77229537Y-127398506D01*
X77150185Y-127301815D01*
X77053494Y-127222463D01*
X76943180Y-127163498D01*
X76823482Y-127127188D01*
X76699000Y-127114928D01*
X73699000Y-127114928D01*
X73574518Y-127127188D01*
X73454820Y-127163498D01*
X73344506Y-127222463D01*
X73247815Y-127301815D01*
X73168463Y-127398506D01*
X73109498Y-127508820D01*
X73073188Y-127628518D01*
X73060928Y-127753000D01*
X66036616Y-127753000D01*
X66077574Y-127744853D01*
X66338727Y-127636680D01*
X66573759Y-127479637D01*
X66773637Y-127279759D01*
X66930680Y-127044727D01*
X67038853Y-126783574D01*
X67094000Y-126506335D01*
X67094000Y-126223665D01*
X67038853Y-125946426D01*
X66930680Y-125685273D01*
X66773637Y-125450241D01*
X66573759Y-125250363D01*
X66338727Y-125093320D01*
X66077574Y-124985147D01*
X65800335Y-124930000D01*
X65517665Y-124930000D01*
X65240426Y-124985147D01*
X64979273Y-125093320D01*
X64744241Y-125250363D01*
X64544363Y-125450241D01*
X64387320Y-125685273D01*
X64279147Y-125946426D01*
X64224000Y-126223665D01*
X64224000Y-126499572D01*
X64029694Y-126419088D01*
X63752455Y-126363941D01*
X63469785Y-126363941D01*
X63192546Y-126419088D01*
X62931393Y-126527261D01*
X62696361Y-126684304D01*
X62496483Y-126884182D01*
X62339440Y-127119214D01*
X62231267Y-127380367D01*
X62176120Y-127657606D01*
X59221343Y-127657606D01*
X59106701Y-127497476D01*
X57632589Y-125174647D01*
X56287931Y-122768666D01*
X55665349Y-121536162D01*
X55645827Y-121500057D01*
X55632577Y-121478521D01*
X55630745Y-121475093D01*
X55629080Y-121472837D01*
X55624319Y-121465098D01*
X55600895Y-121431394D01*
X55575626Y-121399051D01*
X55569312Y-121391839D01*
X55567582Y-121389494D01*
X55564804Y-121386689D01*
X55548590Y-121368168D01*
X55519872Y-121338842D01*
X55494186Y-121315388D01*
X55492722Y-121313910D01*
X55491839Y-121313245D01*
X55489562Y-121311166D01*
X55457755Y-121285224D01*
X55424549Y-121261099D01*
X55410873Y-121252285D01*
X55407737Y-121249924D01*
X55404250Y-121248017D01*
X55390048Y-121238864D01*
X55354360Y-121218590D01*
X55317596Y-121200340D01*
X55315219Y-121199321D01*
X55314405Y-121198876D01*
X55312719Y-121198250D01*
X55279870Y-121184171D01*
X55241300Y-121170134D01*
X55218426Y-121163227D01*
X55214680Y-121161836D01*
X55210623Y-121160871D01*
X55202008Y-121158270D01*
X55162114Y-121148619D01*
X55148893Y-121146192D01*
X55143572Y-121144927D01*
X54108876Y-120952668D01*
X53163247Y-120630269D01*
X53005025Y-120549211D01*
X57767231Y-120549211D01*
X57767231Y-120831881D01*
X57822378Y-121109120D01*
X57930551Y-121370273D01*
X58087594Y-121605305D01*
X58287472Y-121805183D01*
X58522504Y-121962226D01*
X58783657Y-122070399D01*
X59060896Y-122125546D01*
X59343566Y-122125546D01*
X59620805Y-122070399D01*
X59881958Y-121962226D01*
X60116990Y-121805183D01*
X60316868Y-121605305D01*
X60473911Y-121370273D01*
X60582084Y-121109120D01*
X60637231Y-120831881D01*
X60637231Y-120804757D01*
X60788273Y-120905680D01*
X61049426Y-121013853D01*
X61326665Y-121069000D01*
X61609335Y-121069000D01*
X61886574Y-121013853D01*
X62147727Y-120905680D01*
X62382759Y-120748637D01*
X62582637Y-120548759D01*
X62739680Y-120313727D01*
X62847853Y-120052574D01*
X62903000Y-119775335D01*
X62903000Y-119492665D01*
X62847853Y-119215426D01*
X62739680Y-118954273D01*
X62582637Y-118719241D01*
X62382759Y-118519363D01*
X62147727Y-118362320D01*
X61886574Y-118254147D01*
X61609335Y-118199000D01*
X61326665Y-118199000D01*
X61049426Y-118254147D01*
X60788273Y-118362320D01*
X60553241Y-118519363D01*
X60353363Y-118719241D01*
X60196320Y-118954273D01*
X60088147Y-119215426D01*
X60033000Y-119492665D01*
X60033000Y-119519789D01*
X59881958Y-119418866D01*
X59620805Y-119310693D01*
X59343566Y-119255546D01*
X59060896Y-119255546D01*
X58783657Y-119310693D01*
X58522504Y-119418866D01*
X58287472Y-119575909D01*
X58087594Y-119775787D01*
X57930551Y-120010819D01*
X57822378Y-120271972D01*
X57767231Y-120549211D01*
X53005025Y-120549211D01*
X52274066Y-120174739D01*
X51459959Y-119595624D01*
X50737972Y-118905048D01*
X50123241Y-118117488D01*
X49986745Y-117877932D01*
X49995227Y-117881445D01*
X50359405Y-117953884D01*
X50730717Y-117953884D01*
X51094895Y-117881445D01*
X51437943Y-117739350D01*
X51588892Y-117638489D01*
X137916292Y-117638489D01*
X137916292Y-118059047D01*
X137998339Y-118471524D01*
X138159280Y-118860070D01*
X138392929Y-119209751D01*
X138690309Y-119507131D01*
X139039990Y-119740780D01*
X139428536Y-119901721D01*
X139841013Y-119983768D01*
X140261571Y-119983768D01*
X140674048Y-119901721D01*
X141062594Y-119740780D01*
X141412275Y-119507131D01*
X141709655Y-119209751D01*
X141943304Y-118860070D01*
X142104245Y-118471524D01*
X142186292Y-118059047D01*
X142186292Y-117638489D01*
X142104245Y-117226012D01*
X141943304Y-116837466D01*
X141709655Y-116487785D01*
X141412275Y-116190405D01*
X141062594Y-115956756D01*
X140674048Y-115795815D01*
X140261571Y-115713768D01*
X139841013Y-115713768D01*
X139428536Y-115795815D01*
X139039990Y-115956756D01*
X138690309Y-116190405D01*
X138392929Y-116487785D01*
X138159280Y-116837466D01*
X137998339Y-117226012D01*
X137916292Y-117638489D01*
X51588892Y-117638489D01*
X51746679Y-117533059D01*
X52009236Y-117270502D01*
X52215527Y-116961766D01*
X52357622Y-116618718D01*
X52430061Y-116254540D01*
X52430061Y-115883228D01*
X52357622Y-115519050D01*
X52215527Y-115176002D01*
X52009236Y-114867266D01*
X51746679Y-114604709D01*
X51437943Y-114398418D01*
X51094895Y-114256323D01*
X50730717Y-114183884D01*
X50359405Y-114183884D01*
X49995227Y-114256323D01*
X49652179Y-114398418D01*
X49343443Y-114604709D01*
X49080886Y-114867266D01*
X49007698Y-114976800D01*
X48955375Y-114350279D01*
X49016823Y-113353100D01*
X49111546Y-112900713D01*
X54951185Y-112900713D01*
X54951185Y-113183383D01*
X55006332Y-113460622D01*
X55114505Y-113721775D01*
X55271548Y-113956807D01*
X55471426Y-114156685D01*
X55706458Y-114313728D01*
X55967611Y-114421901D01*
X56244850Y-114477048D01*
X56527520Y-114477048D01*
X56804759Y-114421901D01*
X57065912Y-114313728D01*
X57300944Y-114156685D01*
X57500822Y-113956807D01*
X57657865Y-113721775D01*
X57766038Y-113460622D01*
X57777849Y-113401245D01*
X57886241Y-113509637D01*
X58121273Y-113666680D01*
X58382426Y-113774853D01*
X58659665Y-113830000D01*
X58942335Y-113830000D01*
X59219574Y-113774853D01*
X59480727Y-113666680D01*
X59715759Y-113509637D01*
X59915637Y-113309759D01*
X60072680Y-113074727D01*
X60180853Y-112813574D01*
X60236000Y-112536335D01*
X60236000Y-112253665D01*
X60180853Y-111976426D01*
X60072680Y-111715273D01*
X59915637Y-111480241D01*
X59715759Y-111280363D01*
X59480727Y-111123320D01*
X59219574Y-111015147D01*
X58942335Y-110960000D01*
X58659665Y-110960000D01*
X58382426Y-111015147D01*
X58121273Y-111123320D01*
X57886241Y-111280363D01*
X57686363Y-111480241D01*
X57529320Y-111715273D01*
X57421147Y-111976426D01*
X57409336Y-112035803D01*
X57300944Y-111927411D01*
X57065912Y-111770368D01*
X56804759Y-111662195D01*
X56527520Y-111607048D01*
X56244850Y-111607048D01*
X55967611Y-111662195D01*
X55706458Y-111770368D01*
X55471426Y-111927411D01*
X55271548Y-112127289D01*
X55114505Y-112362321D01*
X55006332Y-112623474D01*
X54951185Y-112900713D01*
X49111546Y-112900713D01*
X49221576Y-112375226D01*
X49565347Y-111437157D01*
X50040932Y-110558539D01*
X50641361Y-109753768D01*
X51235095Y-109144284D01*
X51236443Y-109142683D01*
X51240879Y-109138278D01*
X51268344Y-109107776D01*
X51294063Y-109075787D01*
X51301377Y-109065572D01*
X51303617Y-109062911D01*
X51305786Y-109059412D01*
X51317956Y-109042414D01*
X51339948Y-109007759D01*
X51359462Y-108972842D01*
X51359675Y-108972499D01*
X51359749Y-108972330D01*
X51359972Y-108971930D01*
X51377965Y-108935040D01*
X51393871Y-108897201D01*
X51400455Y-108878710D01*
X51402094Y-108874941D01*
X51403050Y-108871424D01*
X51407639Y-108858535D01*
X51419228Y-108819160D01*
X51428601Y-108779200D01*
X51429513Y-108774025D01*
X51429987Y-108772282D01*
X51430351Y-108769276D01*
X51435728Y-108738778D01*
X51440588Y-108698022D01*
X51442336Y-108670229D01*
X51442767Y-108666671D01*
X51442709Y-108664305D01*
X51443165Y-108657059D01*
X51443451Y-108616015D01*
X51441447Y-108575019D01*
X51440247Y-108563606D01*
X51440167Y-108560323D01*
X51439479Y-108556298D01*
X51437156Y-108534199D01*
X51435728Y-108524036D01*
X51030840Y-105782140D01*
X50957708Y-104978554D01*
X53351513Y-104978554D01*
X53351513Y-105261224D01*
X53406660Y-105538463D01*
X53514833Y-105799616D01*
X53671876Y-106034648D01*
X53871754Y-106234526D01*
X54106786Y-106391569D01*
X54367939Y-106499742D01*
X54645178Y-106554889D01*
X54927848Y-106554889D01*
X55205087Y-106499742D01*
X55466240Y-106391569D01*
X55701272Y-106234526D01*
X55901150Y-106034648D01*
X56058193Y-105799616D01*
X56093674Y-105713958D01*
X56162363Y-105816759D01*
X56362241Y-106016637D01*
X56597273Y-106173680D01*
X56858426Y-106281853D01*
X57135665Y-106337000D01*
X57418335Y-106337000D01*
X57695574Y-106281853D01*
X57956727Y-106173680D01*
X58191759Y-106016637D01*
X58391637Y-105816759D01*
X58548680Y-105581727D01*
X58656853Y-105320574D01*
X58712000Y-105043335D01*
X58712000Y-104760665D01*
X58656853Y-104483426D01*
X58548680Y-104222273D01*
X58391637Y-103987241D01*
X58191759Y-103787363D01*
X57956727Y-103630320D01*
X57695574Y-103522147D01*
X57556123Y-103494408D01*
X78048000Y-103494408D01*
X78048000Y-103769592D01*
X78101686Y-104039490D01*
X78206995Y-104293727D01*
X78359880Y-104522535D01*
X78554465Y-104717120D01*
X78783273Y-104870005D01*
X79037510Y-104975314D01*
X79307408Y-105029000D01*
X79582592Y-105029000D01*
X79852490Y-104975314D01*
X80106727Y-104870005D01*
X80335535Y-104717120D01*
X80530120Y-104522535D01*
X80683005Y-104293727D01*
X80695000Y-104264769D01*
X80706995Y-104293727D01*
X80859880Y-104522535D01*
X81054465Y-104717120D01*
X81283273Y-104870005D01*
X81537510Y-104975314D01*
X81807408Y-105029000D01*
X82082592Y-105029000D01*
X82352490Y-104975314D01*
X82606727Y-104870005D01*
X82835535Y-104717120D01*
X83030120Y-104522535D01*
X83183005Y-104293727D01*
X83288314Y-104039490D01*
X83342000Y-103769592D01*
X83342000Y-103494408D01*
X83288314Y-103224510D01*
X83183005Y-102970273D01*
X83030120Y-102741465D01*
X82835535Y-102546880D01*
X82606727Y-102393995D01*
X82352490Y-102288686D01*
X82082592Y-102235000D01*
X81807408Y-102235000D01*
X81537510Y-102288686D01*
X81283273Y-102393995D01*
X81054465Y-102546880D01*
X80859880Y-102741465D01*
X80706995Y-102970273D01*
X80695000Y-102999231D01*
X80683005Y-102970273D01*
X80530120Y-102741465D01*
X80335535Y-102546880D01*
X80106727Y-102393995D01*
X79852490Y-102288686D01*
X79582592Y-102235000D01*
X79307408Y-102235000D01*
X79037510Y-102288686D01*
X78783273Y-102393995D01*
X78554465Y-102546880D01*
X78359880Y-102741465D01*
X78206995Y-102970273D01*
X78101686Y-103224510D01*
X78048000Y-103494408D01*
X57556123Y-103494408D01*
X57418335Y-103467000D01*
X57135665Y-103467000D01*
X56858426Y-103522147D01*
X56597273Y-103630320D01*
X56362241Y-103787363D01*
X56162363Y-103987241D01*
X56005320Y-104222273D01*
X55969839Y-104307931D01*
X55901150Y-104205130D01*
X55701272Y-104005252D01*
X55466240Y-103848209D01*
X55205087Y-103740036D01*
X54927848Y-103684889D01*
X54645178Y-103684889D01*
X54367939Y-103740036D01*
X54106786Y-103848209D01*
X53871754Y-104005252D01*
X53671876Y-104205130D01*
X53514833Y-104440162D01*
X53406660Y-104701315D01*
X53351513Y-104978554D01*
X50957708Y-104978554D01*
X50781499Y-103042352D01*
X50685488Y-100292937D01*
X50743103Y-97542429D01*
X50810327Y-96668776D01*
X52843513Y-96668776D01*
X52843513Y-96951446D01*
X52898660Y-97228685D01*
X53006833Y-97489838D01*
X53163876Y-97724870D01*
X53363754Y-97924748D01*
X53598786Y-98081791D01*
X53859939Y-98189964D01*
X54137178Y-98245111D01*
X54419848Y-98245111D01*
X54697087Y-98189964D01*
X54958240Y-98081791D01*
X55193272Y-97924748D01*
X55393150Y-97724870D01*
X55461839Y-97622069D01*
X55497320Y-97707727D01*
X55654363Y-97942759D01*
X55854241Y-98142637D01*
X56089273Y-98299680D01*
X56350426Y-98407853D01*
X56627665Y-98463000D01*
X56910335Y-98463000D01*
X57187574Y-98407853D01*
X57448727Y-98299680D01*
X57683759Y-98142637D01*
X57883637Y-97942759D01*
X58040680Y-97707727D01*
X58148853Y-97446574D01*
X58204000Y-97169335D01*
X58204000Y-96886665D01*
X58148853Y-96609426D01*
X58040680Y-96348273D01*
X57883637Y-96113241D01*
X57683759Y-95913363D01*
X57448727Y-95756320D01*
X57187574Y-95648147D01*
X56910335Y-95593000D01*
X56627665Y-95593000D01*
X56350426Y-95648147D01*
X56089273Y-95756320D01*
X55854241Y-95913363D01*
X55654363Y-96113241D01*
X55585674Y-96216042D01*
X55550193Y-96130384D01*
X55393150Y-95895352D01*
X55193272Y-95695474D01*
X54958240Y-95538431D01*
X54697087Y-95430258D01*
X54419848Y-95375111D01*
X54137178Y-95375111D01*
X53859939Y-95430258D01*
X53598786Y-95538431D01*
X53363754Y-95695474D01*
X53163876Y-95895352D01*
X53006833Y-96130384D01*
X52898660Y-96391537D01*
X52843513Y-96668776D01*
X50810327Y-96668776D01*
X50954166Y-94799424D01*
X51318015Y-92072504D01*
X51833521Y-89370124D01*
X52499071Y-86700750D01*
X53027271Y-84994408D01*
X78048000Y-84994408D01*
X78048000Y-85269592D01*
X78101686Y-85539490D01*
X78206995Y-85793727D01*
X78359880Y-86022535D01*
X78554465Y-86217120D01*
X78783273Y-86370005D01*
X79037510Y-86475314D01*
X79307408Y-86529000D01*
X79582592Y-86529000D01*
X79852490Y-86475314D01*
X80106727Y-86370005D01*
X80335535Y-86217120D01*
X80530120Y-86022535D01*
X80683005Y-85793727D01*
X80695000Y-85764769D01*
X80706995Y-85793727D01*
X80859880Y-86022535D01*
X81054465Y-86217120D01*
X81283273Y-86370005D01*
X81537510Y-86475314D01*
X81807408Y-86529000D01*
X82082592Y-86529000D01*
X82352490Y-86475314D01*
X82606727Y-86370005D01*
X82835535Y-86217120D01*
X83030120Y-86022535D01*
X83183005Y-85793727D01*
X83288314Y-85539490D01*
X83342000Y-85269592D01*
X83342000Y-84994408D01*
X83288314Y-84724510D01*
X83183005Y-84470273D01*
X83030120Y-84241465D01*
X82835535Y-84046880D01*
X82606727Y-83893995D01*
X82352490Y-83788686D01*
X82082592Y-83735000D01*
X81807408Y-83735000D01*
X81537510Y-83788686D01*
X81283273Y-83893995D01*
X81054465Y-84046880D01*
X80859880Y-84241465D01*
X80706995Y-84470273D01*
X80695000Y-84499231D01*
X80683005Y-84470273D01*
X80530120Y-84241465D01*
X80335535Y-84046880D01*
X80106727Y-83893995D01*
X79852490Y-83788686D01*
X79582592Y-83735000D01*
X79307408Y-83735000D01*
X79037510Y-83788686D01*
X78783273Y-83893995D01*
X78554465Y-84046880D01*
X78359880Y-84241465D01*
X78206995Y-84470273D01*
X78101686Y-84724510D01*
X78048000Y-84994408D01*
X53027271Y-84994408D01*
X53312600Y-84072661D01*
X54271548Y-81494129D01*
X54831573Y-80212280D01*
X63480693Y-80212280D01*
X63480693Y-80494950D01*
X63535840Y-80772189D01*
X63644013Y-81033342D01*
X63801056Y-81268374D01*
X64000934Y-81468252D01*
X64235966Y-81625295D01*
X64497119Y-81733468D01*
X64774358Y-81788615D01*
X65057028Y-81788615D01*
X65334267Y-81733468D01*
X65595420Y-81625295D01*
X65830452Y-81468252D01*
X66030330Y-81268374D01*
X66187373Y-81033342D01*
X66295546Y-80772189D01*
X66350693Y-80494950D01*
X66350693Y-80212280D01*
X66296136Y-79938006D01*
X66570409Y-79992563D01*
X66853079Y-79992563D01*
X67130318Y-79937416D01*
X67391471Y-79829243D01*
X67626503Y-79672200D01*
X67826381Y-79472322D01*
X67983424Y-79237290D01*
X68091597Y-78976137D01*
X68146744Y-78698898D01*
X68146744Y-78416228D01*
X68092187Y-78141955D01*
X68366460Y-78196512D01*
X68649130Y-78196512D01*
X68926369Y-78141365D01*
X69187522Y-78033192D01*
X69422554Y-77876149D01*
X69622432Y-77676271D01*
X69779475Y-77441239D01*
X69887648Y-77180086D01*
X69942795Y-76902847D01*
X69942795Y-76620177D01*
X69916702Y-76489000D01*
X78644928Y-76489000D01*
X78644928Y-77689000D01*
X78657188Y-77813482D01*
X78693498Y-77933180D01*
X78752463Y-78043494D01*
X78831815Y-78140185D01*
X78928506Y-78219537D01*
X79038820Y-78278502D01*
X79158518Y-78314812D01*
X79283000Y-78327072D01*
X80483000Y-78327072D01*
X80607482Y-78314812D01*
X80727180Y-78278502D01*
X80837494Y-78219537D01*
X80934185Y-78140185D01*
X81013537Y-78043494D01*
X81072502Y-77933180D01*
X81108812Y-77813482D01*
X81121072Y-77689000D01*
X81121072Y-76489000D01*
X81108812Y-76364518D01*
X81072502Y-76244820D01*
X81013537Y-76134506D01*
X80934185Y-76037815D01*
X80837494Y-75958463D01*
X80727180Y-75899498D01*
X80607482Y-75863188D01*
X80483000Y-75850928D01*
X79283000Y-75850928D01*
X79158518Y-75863188D01*
X79038820Y-75899498D01*
X78928506Y-75958463D01*
X78831815Y-76037815D01*
X78752463Y-76134506D01*
X78693498Y-76244820D01*
X78657188Y-76364518D01*
X78644928Y-76489000D01*
X69916702Y-76489000D01*
X69888238Y-76345904D01*
X70162511Y-76400461D01*
X70445181Y-76400461D01*
X70722420Y-76345314D01*
X70983573Y-76237141D01*
X71218605Y-76080098D01*
X71418483Y-75880220D01*
X71575526Y-75645188D01*
X71683699Y-75384035D01*
X71738846Y-75106796D01*
X71738846Y-74824126D01*
X71684289Y-74549853D01*
X71958563Y-74604410D01*
X72241233Y-74604410D01*
X72518472Y-74549263D01*
X72779625Y-74441090D01*
X73014657Y-74284047D01*
X73214535Y-74084169D01*
X73371578Y-73849137D01*
X73479751Y-73587984D01*
X73534898Y-73310745D01*
X73534898Y-73028075D01*
X73480341Y-72753802D01*
X73754614Y-72808359D01*
X74037284Y-72808359D01*
X74314523Y-72753212D01*
X74575676Y-72645039D01*
X74810708Y-72487996D01*
X75010586Y-72288118D01*
X75167629Y-72053086D01*
X75275802Y-71791933D01*
X75330949Y-71514694D01*
X75330949Y-71232024D01*
X75276392Y-70957750D01*
X75550665Y-71012307D01*
X75833335Y-71012307D01*
X76110574Y-70957160D01*
X76371727Y-70848987D01*
X76606759Y-70691944D01*
X76806637Y-70492066D01*
X76963680Y-70257034D01*
X77071853Y-69995881D01*
X77127000Y-69718642D01*
X77127000Y-69435972D01*
X77072443Y-69161699D01*
X77346716Y-69216256D01*
X77629386Y-69216256D01*
X77906625Y-69161109D01*
X78167778Y-69052936D01*
X78402810Y-68895893D01*
X78602688Y-68696015D01*
X78759731Y-68460983D01*
X78867904Y-68199830D01*
X78923051Y-67922591D01*
X78923051Y-67639921D01*
X78868494Y-67365648D01*
X79142767Y-67420205D01*
X79425437Y-67420205D01*
X79607988Y-67383893D01*
X81767098Y-69543003D01*
X81790897Y-69572002D01*
X81906622Y-69666975D01*
X82038651Y-69737547D01*
X82181912Y-69781004D01*
X82293565Y-69792001D01*
X82293574Y-69792001D01*
X82330897Y-69795677D01*
X82368220Y-69792001D01*
X86031890Y-69792001D01*
X86010995Y-69823273D01*
X85905686Y-70077510D01*
X85852000Y-70347408D01*
X85852000Y-70622592D01*
X85905686Y-70892490D01*
X86010995Y-71146727D01*
X86163880Y-71375535D01*
X86358465Y-71570120D01*
X86587273Y-71723005D01*
X86664515Y-71755000D01*
X86587273Y-71786995D01*
X86358465Y-71939880D01*
X86163880Y-72134465D01*
X86010995Y-72363273D01*
X85905686Y-72617510D01*
X85852000Y-72887408D01*
X85852000Y-73162592D01*
X85905686Y-73432490D01*
X86010995Y-73686727D01*
X86163880Y-73915535D01*
X86358465Y-74110120D01*
X86587273Y-74263005D01*
X86664515Y-74295000D01*
X86587273Y-74326995D01*
X86358465Y-74479880D01*
X86163880Y-74674465D01*
X86010995Y-74903273D01*
X85905686Y-75157510D01*
X85852000Y-75427408D01*
X85852000Y-75702592D01*
X85905686Y-75972490D01*
X86010995Y-76226727D01*
X86163880Y-76455535D01*
X86358465Y-76650120D01*
X86587273Y-76803005D01*
X86664515Y-76835000D01*
X86587273Y-76866995D01*
X86358465Y-77019880D01*
X86163880Y-77214465D01*
X86010995Y-77443273D01*
X85905686Y-77697510D01*
X85852000Y-77967408D01*
X85852000Y-78242592D01*
X85905686Y-78512490D01*
X86010995Y-78766727D01*
X86163880Y-78995535D01*
X86358465Y-79190120D01*
X86587273Y-79343005D01*
X86664515Y-79375000D01*
X86587273Y-79406995D01*
X86358465Y-79559880D01*
X86163880Y-79754465D01*
X86010995Y-79983273D01*
X85905686Y-80237510D01*
X85852000Y-80507408D01*
X85852000Y-80782592D01*
X85905686Y-81052490D01*
X86010995Y-81306727D01*
X86163880Y-81535535D01*
X86358465Y-81730120D01*
X86587273Y-81883005D01*
X86664515Y-81915000D01*
X86587273Y-81946995D01*
X86358465Y-82099880D01*
X86163880Y-82294465D01*
X86010995Y-82523273D01*
X85905686Y-82777510D01*
X85852000Y-83047408D01*
X85852000Y-83322592D01*
X85905686Y-83592490D01*
X86010995Y-83846727D01*
X86163880Y-84075535D01*
X86358465Y-84270120D01*
X86587273Y-84423005D01*
X86664515Y-84455000D01*
X86587273Y-84486995D01*
X86358465Y-84639880D01*
X86163880Y-84834465D01*
X86010995Y-85063273D01*
X85905686Y-85317510D01*
X85852000Y-85587408D01*
X85852000Y-85862592D01*
X85905686Y-86132490D01*
X86010995Y-86386727D01*
X86163880Y-86615535D01*
X86358465Y-86810120D01*
X86587273Y-86963005D01*
X86664515Y-86995000D01*
X86587273Y-87026995D01*
X86358465Y-87179880D01*
X86163880Y-87374465D01*
X86010995Y-87603273D01*
X85905686Y-87857510D01*
X85852000Y-88127408D01*
X85852000Y-88402592D01*
X85905686Y-88672490D01*
X86010995Y-88926727D01*
X86163880Y-89155535D01*
X86358465Y-89350120D01*
X86587273Y-89503005D01*
X86664515Y-89535000D01*
X86587273Y-89566995D01*
X86358465Y-89719880D01*
X86163880Y-89914465D01*
X86010995Y-90143273D01*
X85905686Y-90397510D01*
X85852000Y-90667408D01*
X85852000Y-90942592D01*
X85905686Y-91212490D01*
X86010995Y-91466727D01*
X86163880Y-91695535D01*
X86358465Y-91890120D01*
X86587273Y-92043005D01*
X86664515Y-92075000D01*
X86587273Y-92106995D01*
X86358465Y-92259880D01*
X86163880Y-92454465D01*
X86010995Y-92683273D01*
X85905686Y-92937510D01*
X85852000Y-93207408D01*
X85852000Y-93482592D01*
X85905686Y-93752490D01*
X86010995Y-94006727D01*
X86163880Y-94235535D01*
X86358465Y-94430120D01*
X86587273Y-94583005D01*
X86664515Y-94615000D01*
X86587273Y-94646995D01*
X86358465Y-94799880D01*
X86163880Y-94994465D01*
X86010995Y-95223273D01*
X85905686Y-95477510D01*
X85852000Y-95747408D01*
X85852000Y-96022592D01*
X85905686Y-96292490D01*
X86010995Y-96546727D01*
X86163880Y-96775535D01*
X86358465Y-96970120D01*
X86587273Y-97123005D01*
X86841510Y-97228314D01*
X87111408Y-97282000D01*
X87386592Y-97282000D01*
X87656490Y-97228314D01*
X87910727Y-97123005D01*
X88139535Y-96970120D01*
X88334120Y-96775535D01*
X88487005Y-96546727D01*
X88592314Y-96292490D01*
X88646000Y-96022592D01*
X88646000Y-95747408D01*
X88592314Y-95477510D01*
X88487005Y-95223273D01*
X88334120Y-94994465D01*
X88139535Y-94799880D01*
X87910727Y-94646995D01*
X87833485Y-94615000D01*
X87910727Y-94583005D01*
X88139535Y-94430120D01*
X88334120Y-94235535D01*
X88487005Y-94006727D01*
X88592314Y-93752490D01*
X88640046Y-93512526D01*
X88666774Y-93646898D01*
X88744795Y-93835256D01*
X88858063Y-94004774D01*
X89002226Y-94148937D01*
X89171744Y-94262205D01*
X89360102Y-94340226D01*
X89560061Y-94380000D01*
X89763939Y-94380000D01*
X89963898Y-94340226D01*
X90152256Y-94262205D01*
X90321774Y-94148937D01*
X90465937Y-94004774D01*
X90579205Y-93835256D01*
X90657226Y-93646898D01*
X90697000Y-93446939D01*
X90697000Y-93384801D01*
X99952008Y-84129795D01*
X99981001Y-84106001D01*
X100004795Y-84077008D01*
X100004799Y-84077004D01*
X100075973Y-83990277D01*
X100075974Y-83990276D01*
X100146546Y-83858247D01*
X100190003Y-83714986D01*
X100201000Y-83603333D01*
X100201000Y-83603324D01*
X100204676Y-83566001D01*
X100201000Y-83528678D01*
X100201000Y-77030711D01*
X100244937Y-76986774D01*
X100358205Y-76817256D01*
X100436226Y-76628898D01*
X100476000Y-76428939D01*
X100476000Y-76225061D01*
X100436226Y-76025102D01*
X100358205Y-75836744D01*
X100244937Y-75667226D01*
X100100774Y-75523063D01*
X99931256Y-75409795D01*
X99742898Y-75331774D01*
X99542939Y-75292000D01*
X99339061Y-75292000D01*
X99139102Y-75331774D01*
X98950744Y-75409795D01*
X98781226Y-75523063D01*
X98637063Y-75667226D01*
X98523795Y-75836744D01*
X98445774Y-76025102D01*
X98406000Y-76225061D01*
X98406000Y-76428939D01*
X98445774Y-76628898D01*
X98523795Y-76817256D01*
X98637063Y-76986774D01*
X98681000Y-77030711D01*
X98681001Y-83251196D01*
X89622199Y-92310000D01*
X89560061Y-92310000D01*
X89360102Y-92349774D01*
X89171744Y-92427795D01*
X89002226Y-92541063D01*
X88858063Y-92685226D01*
X88744795Y-92854744D01*
X88666774Y-93043102D01*
X88640046Y-93177474D01*
X88592314Y-92937510D01*
X88487005Y-92683273D01*
X88334120Y-92454465D01*
X88139535Y-92259880D01*
X87910727Y-92106995D01*
X87833485Y-92075000D01*
X87910727Y-92043005D01*
X88139535Y-91890120D01*
X88334120Y-91695535D01*
X88487005Y-91466727D01*
X88592314Y-91212490D01*
X88646000Y-90942592D01*
X88646000Y-90667408D01*
X88592314Y-90397510D01*
X88487005Y-90143273D01*
X88334120Y-89914465D01*
X88139535Y-89719880D01*
X87910727Y-89566995D01*
X87833485Y-89535000D01*
X87910727Y-89503005D01*
X88139535Y-89350120D01*
X88334120Y-89155535D01*
X88487005Y-88926727D01*
X88592314Y-88672490D01*
X88646000Y-88402592D01*
X88646000Y-88127408D01*
X88592314Y-87857510D01*
X88487005Y-87603273D01*
X88334120Y-87374465D01*
X88139535Y-87179880D01*
X87910727Y-87026995D01*
X87833485Y-86995000D01*
X87910727Y-86963005D01*
X88139535Y-86810120D01*
X88334120Y-86615535D01*
X88487005Y-86386727D01*
X88592314Y-86132490D01*
X88646000Y-85862592D01*
X88646000Y-85587408D01*
X88592314Y-85317510D01*
X88487005Y-85063273D01*
X88334120Y-84834465D01*
X88139535Y-84639880D01*
X87910727Y-84486995D01*
X87833485Y-84455000D01*
X87910727Y-84423005D01*
X88139535Y-84270120D01*
X88334120Y-84075535D01*
X88487005Y-83846727D01*
X88592314Y-83592490D01*
X88646000Y-83322592D01*
X88646000Y-83047408D01*
X88592314Y-82777510D01*
X88487005Y-82523273D01*
X88334120Y-82294465D01*
X88139535Y-82099880D01*
X87910727Y-81946995D01*
X87833485Y-81915000D01*
X87910727Y-81883005D01*
X88139535Y-81730120D01*
X88334120Y-81535535D01*
X88487005Y-81306727D01*
X88592314Y-81052490D01*
X88646000Y-80782592D01*
X88646000Y-80507408D01*
X88592314Y-80237510D01*
X88487005Y-79983273D01*
X88334120Y-79754465D01*
X88139535Y-79559880D01*
X87910727Y-79406995D01*
X87833485Y-79375000D01*
X87910727Y-79343005D01*
X88139535Y-79190120D01*
X88334120Y-78995535D01*
X88487005Y-78766727D01*
X88592314Y-78512490D01*
X88646000Y-78242592D01*
X88646000Y-77967408D01*
X88592314Y-77697510D01*
X88487005Y-77443273D01*
X88334120Y-77214465D01*
X88139535Y-77019880D01*
X87910727Y-76866995D01*
X87833485Y-76835000D01*
X87910727Y-76803005D01*
X88139535Y-76650120D01*
X88334120Y-76455535D01*
X88487005Y-76226727D01*
X88592314Y-75972490D01*
X88646000Y-75702592D01*
X88646000Y-75427408D01*
X88592314Y-75157510D01*
X88487005Y-74903273D01*
X88334120Y-74674465D01*
X88139535Y-74479880D01*
X87910727Y-74326995D01*
X87833485Y-74295000D01*
X87910727Y-74263005D01*
X88139535Y-74110120D01*
X88334120Y-73915535D01*
X88487005Y-73686727D01*
X88592314Y-73432490D01*
X88646000Y-73162592D01*
X88646000Y-72887408D01*
X88592314Y-72617510D01*
X88487005Y-72363273D01*
X88334120Y-72134465D01*
X88139535Y-71939880D01*
X87910727Y-71786995D01*
X87833485Y-71755000D01*
X87910727Y-71723005D01*
X88139535Y-71570120D01*
X88334120Y-71375535D01*
X88487005Y-71146727D01*
X88592314Y-70892490D01*
X88646000Y-70622592D01*
X88646000Y-70347408D01*
X88592314Y-70077510D01*
X88487005Y-69823273D01*
X88466110Y-69792001D01*
X97292200Y-69792001D01*
X98279000Y-70778802D01*
X98279000Y-70840939D01*
X98318774Y-71040898D01*
X98396795Y-71229256D01*
X98510063Y-71398774D01*
X98654226Y-71542937D01*
X98823744Y-71656205D01*
X99012102Y-71734226D01*
X99212061Y-71774000D01*
X99279002Y-71774000D01*
X99279002Y-72493196D01*
X95464199Y-76308000D01*
X95402061Y-76308000D01*
X95202102Y-76347774D01*
X95013744Y-76425795D01*
X94844226Y-76539063D01*
X94700063Y-76683226D01*
X94586795Y-76852744D01*
X94508774Y-77041102D01*
X94469000Y-77241061D01*
X94469000Y-77444939D01*
X94508774Y-77644898D01*
X94586795Y-77833256D01*
X94700063Y-78002774D01*
X94844226Y-78146937D01*
X95013744Y-78260205D01*
X95202102Y-78338226D01*
X95402061Y-78378000D01*
X95605939Y-78378000D01*
X95805898Y-78338226D01*
X95994256Y-78260205D01*
X96163774Y-78146937D01*
X96307937Y-78002774D01*
X96421205Y-77833256D01*
X96499226Y-77644898D01*
X96539000Y-77444939D01*
X96539000Y-77382801D01*
X100550004Y-73371798D01*
X100579002Y-73348000D01*
X100615073Y-73304047D01*
X100673975Y-73232276D01*
X100744547Y-73100246D01*
X100749144Y-73085090D01*
X100788004Y-72956985D01*
X100799001Y-72845332D01*
X100799001Y-72845322D01*
X100802677Y-72807999D01*
X100799001Y-72770676D01*
X100799001Y-69073321D01*
X100802677Y-69035998D01*
X100799001Y-68998675D01*
X100799001Y-68998666D01*
X100788004Y-68887013D01*
X100744547Y-68743752D01*
X100673975Y-68611723D01*
X100620288Y-68546305D01*
X100602800Y-68524995D01*
X100602796Y-68524991D01*
X100579002Y-68495998D01*
X100550010Y-68472206D01*
X97345212Y-65267408D01*
X111252000Y-65267408D01*
X111252000Y-65542592D01*
X111305686Y-65812490D01*
X111410995Y-66066727D01*
X111563880Y-66295535D01*
X111758465Y-66490120D01*
X111987273Y-66643005D01*
X112064515Y-66675000D01*
X111987273Y-66706995D01*
X111758465Y-66859880D01*
X111563880Y-67054465D01*
X111410995Y-67283273D01*
X111305686Y-67537510D01*
X111252000Y-67807408D01*
X111252000Y-68082592D01*
X111305686Y-68352490D01*
X111410995Y-68606727D01*
X111563880Y-68835535D01*
X111758465Y-69030120D01*
X111987273Y-69183005D01*
X112064515Y-69215000D01*
X111987273Y-69246995D01*
X111758465Y-69399880D01*
X111563880Y-69594465D01*
X111410995Y-69823273D01*
X111305686Y-70077510D01*
X111252000Y-70347408D01*
X111252000Y-70622592D01*
X111305686Y-70892490D01*
X111410995Y-71146727D01*
X111563880Y-71375535D01*
X111758465Y-71570120D01*
X111987273Y-71723005D01*
X112064515Y-71755000D01*
X111987273Y-71786995D01*
X111758465Y-71939880D01*
X111563880Y-72134465D01*
X111410995Y-72363273D01*
X111305686Y-72617510D01*
X111252000Y-72887408D01*
X111252000Y-73162592D01*
X111305686Y-73432490D01*
X111410995Y-73686727D01*
X111563880Y-73915535D01*
X111758465Y-74110120D01*
X111987273Y-74263005D01*
X112064515Y-74295000D01*
X111987273Y-74326995D01*
X111758465Y-74479880D01*
X111563880Y-74674465D01*
X111410995Y-74903273D01*
X111305686Y-75157510D01*
X111252000Y-75427408D01*
X111252000Y-75702592D01*
X111305686Y-75972490D01*
X111410995Y-76226727D01*
X111563880Y-76455535D01*
X111758465Y-76650120D01*
X111987273Y-76803005D01*
X112064515Y-76835000D01*
X111987273Y-76866995D01*
X111758465Y-77019880D01*
X111563880Y-77214465D01*
X111410995Y-77443273D01*
X111305686Y-77697510D01*
X111252000Y-77967408D01*
X111252000Y-78242592D01*
X111305686Y-78512490D01*
X111410995Y-78766727D01*
X111563880Y-78995535D01*
X111758465Y-79190120D01*
X111987273Y-79343005D01*
X112064515Y-79375000D01*
X111987273Y-79406995D01*
X111758465Y-79559880D01*
X111563880Y-79754465D01*
X111410995Y-79983273D01*
X111305686Y-80237510D01*
X111252000Y-80507408D01*
X111252000Y-80782592D01*
X111305686Y-81052490D01*
X111410995Y-81306727D01*
X111563880Y-81535535D01*
X111758465Y-81730120D01*
X111987273Y-81883005D01*
X112064515Y-81915000D01*
X111987273Y-81946995D01*
X111758465Y-82099880D01*
X111563880Y-82294465D01*
X111410995Y-82523273D01*
X111305686Y-82777510D01*
X111252000Y-83047408D01*
X111252000Y-83322592D01*
X111305686Y-83592490D01*
X111410995Y-83846727D01*
X111563880Y-84075535D01*
X111758465Y-84270120D01*
X111987273Y-84423005D01*
X112064515Y-84455000D01*
X111987273Y-84486995D01*
X111758465Y-84639880D01*
X111563880Y-84834465D01*
X111410995Y-85063273D01*
X111305686Y-85317510D01*
X111252000Y-85587408D01*
X111252000Y-85862592D01*
X111305686Y-86132490D01*
X111410995Y-86386727D01*
X111563880Y-86615535D01*
X111758465Y-86810120D01*
X111987273Y-86963005D01*
X112064515Y-86995000D01*
X111987273Y-87026995D01*
X111758465Y-87179880D01*
X111563880Y-87374465D01*
X111410995Y-87603273D01*
X111305686Y-87857510D01*
X111252000Y-88127408D01*
X111252000Y-88402592D01*
X111305686Y-88672490D01*
X111410995Y-88926727D01*
X111563880Y-89155535D01*
X111758465Y-89350120D01*
X111987273Y-89503005D01*
X112064515Y-89535000D01*
X111987273Y-89566995D01*
X111758465Y-89719880D01*
X111563880Y-89914465D01*
X111410995Y-90143273D01*
X111305686Y-90397510D01*
X111252000Y-90667408D01*
X111252000Y-90942592D01*
X111305686Y-91212490D01*
X111410995Y-91466727D01*
X111563880Y-91695535D01*
X111758465Y-91890120D01*
X111987273Y-92043005D01*
X112064515Y-92075000D01*
X111987273Y-92106995D01*
X111758465Y-92259880D01*
X111563880Y-92454465D01*
X111410995Y-92683273D01*
X111305686Y-92937510D01*
X111252000Y-93207408D01*
X111252000Y-93482592D01*
X111305686Y-93752490D01*
X111410995Y-94006727D01*
X111563880Y-94235535D01*
X111758465Y-94430120D01*
X111987273Y-94583005D01*
X112064515Y-94615000D01*
X111987273Y-94646995D01*
X111758465Y-94799880D01*
X111563880Y-94994465D01*
X111410995Y-95223273D01*
X111305686Y-95477510D01*
X111252000Y-95747408D01*
X111252000Y-96022592D01*
X111305686Y-96292490D01*
X111410995Y-96546727D01*
X111563880Y-96775535D01*
X111758465Y-96970120D01*
X111987273Y-97123005D01*
X112241510Y-97228314D01*
X112511408Y-97282000D01*
X112786592Y-97282000D01*
X113056490Y-97228314D01*
X113310727Y-97123005D01*
X113539535Y-96970120D01*
X113734120Y-96775535D01*
X113887005Y-96546727D01*
X113992314Y-96292490D01*
X114046000Y-96022592D01*
X114046000Y-95747408D01*
X113992314Y-95477510D01*
X113887005Y-95223273D01*
X113734120Y-94994465D01*
X113539535Y-94799880D01*
X113310727Y-94646995D01*
X113233485Y-94615000D01*
X113310727Y-94583005D01*
X113539535Y-94430120D01*
X113734120Y-94235535D01*
X113887005Y-94006727D01*
X113992314Y-93752490D01*
X114046000Y-93482592D01*
X114046000Y-93440000D01*
X127770025Y-93440000D01*
X127793870Y-93682102D01*
X127864489Y-93914901D01*
X127979167Y-94129449D01*
X128133498Y-94317502D01*
X128282762Y-94440000D01*
X128133498Y-94562498D01*
X127979167Y-94750551D01*
X127864489Y-94965099D01*
X127793870Y-95197898D01*
X127770025Y-95440000D01*
X127793870Y-95682102D01*
X127864489Y-95914901D01*
X127979167Y-96129449D01*
X128133498Y-96317502D01*
X128321551Y-96471833D01*
X128536099Y-96586511D01*
X128768898Y-96657130D01*
X128950335Y-96675000D01*
X129621665Y-96675000D01*
X129803102Y-96657130D01*
X130035901Y-96586511D01*
X130250449Y-96471833D01*
X130438502Y-96317502D01*
X130592833Y-96129449D01*
X130707511Y-95914901D01*
X130778130Y-95682102D01*
X130801975Y-95440000D01*
X130778130Y-95197898D01*
X130707511Y-94965099D01*
X130592833Y-94750551D01*
X130438502Y-94562498D01*
X130289238Y-94440000D01*
X130438502Y-94317502D01*
X130592833Y-94129449D01*
X130707511Y-93914901D01*
X130778130Y-93682102D01*
X130801975Y-93440000D01*
X130778130Y-93197898D01*
X130707511Y-92965099D01*
X130592833Y-92750551D01*
X130438502Y-92562498D01*
X130399889Y-92530809D01*
X130404387Y-92528405D01*
X130538962Y-92417962D01*
X130649405Y-92283387D01*
X130731472Y-92129851D01*
X130782008Y-91963255D01*
X130799072Y-91790001D01*
X130799072Y-91089999D01*
X130782008Y-90916745D01*
X130731472Y-90750149D01*
X130649405Y-90596613D01*
X130538962Y-90462038D01*
X130404387Y-90351595D01*
X130250851Y-90269528D01*
X130084255Y-90218992D01*
X129911001Y-90201928D01*
X128660999Y-90201928D01*
X128487745Y-90218992D01*
X128321149Y-90269528D01*
X128167613Y-90351595D01*
X128033038Y-90462038D01*
X127922595Y-90596613D01*
X127840528Y-90750149D01*
X127789992Y-90916745D01*
X127772928Y-91089999D01*
X127772928Y-91790001D01*
X127789992Y-91963255D01*
X127840528Y-92129851D01*
X127922595Y-92283387D01*
X128033038Y-92417962D01*
X128167613Y-92528405D01*
X128172111Y-92530809D01*
X128133498Y-92562498D01*
X127979167Y-92750551D01*
X127864489Y-92965099D01*
X127793870Y-93197898D01*
X127770025Y-93440000D01*
X114046000Y-93440000D01*
X114046000Y-93207408D01*
X113992314Y-92937510D01*
X113887005Y-92683273D01*
X113734120Y-92454465D01*
X113539535Y-92259880D01*
X113310727Y-92106995D01*
X113233485Y-92075000D01*
X113310727Y-92043005D01*
X113539535Y-91890120D01*
X113734120Y-91695535D01*
X113887005Y-91466727D01*
X113992314Y-91212490D01*
X114046000Y-90942592D01*
X114046000Y-90667408D01*
X113992314Y-90397510D01*
X113887005Y-90143273D01*
X113734120Y-89914465D01*
X113539535Y-89719880D01*
X113310727Y-89566995D01*
X113233485Y-89535000D01*
X113310727Y-89503005D01*
X113539535Y-89350120D01*
X113734120Y-89155535D01*
X113887005Y-88926727D01*
X113992314Y-88672490D01*
X114046000Y-88402592D01*
X114046000Y-88127408D01*
X113992314Y-87857510D01*
X113887005Y-87603273D01*
X113734120Y-87374465D01*
X113539535Y-87179880D01*
X113310727Y-87026995D01*
X113233485Y-86995000D01*
X113310727Y-86963005D01*
X113539535Y-86810120D01*
X113734120Y-86615535D01*
X113887005Y-86386727D01*
X113992314Y-86132490D01*
X114046000Y-85862592D01*
X114046000Y-85587408D01*
X113992314Y-85317510D01*
X113887005Y-85063273D01*
X113734120Y-84834465D01*
X113539535Y-84639880D01*
X113310727Y-84486995D01*
X113233485Y-84455000D01*
X113310727Y-84423005D01*
X113539535Y-84270120D01*
X113734120Y-84075535D01*
X113887005Y-83846727D01*
X113992314Y-83592490D01*
X114046000Y-83322592D01*
X114046000Y-83047408D01*
X113992314Y-82777510D01*
X113887005Y-82523273D01*
X113734120Y-82294465D01*
X113539535Y-82099880D01*
X113310727Y-81946995D01*
X113233485Y-81915000D01*
X113310727Y-81883005D01*
X113539535Y-81730120D01*
X113734120Y-81535535D01*
X113887005Y-81306727D01*
X113992314Y-81052490D01*
X114035575Y-80835000D01*
X127770025Y-80835000D01*
X127793870Y-81077102D01*
X127864489Y-81309901D01*
X127979167Y-81524449D01*
X128133498Y-81712502D01*
X128282762Y-81835000D01*
X128133498Y-81957498D01*
X127979167Y-82145551D01*
X127864489Y-82360099D01*
X127793870Y-82592898D01*
X127770025Y-82835000D01*
X127793870Y-83077102D01*
X127864489Y-83309901D01*
X127979167Y-83524449D01*
X128133498Y-83712502D01*
X128321551Y-83866833D01*
X128536099Y-83981511D01*
X128768898Y-84052130D01*
X128950335Y-84070000D01*
X129621665Y-84070000D01*
X129803102Y-84052130D01*
X130035901Y-83981511D01*
X130250449Y-83866833D01*
X130438502Y-83712502D01*
X130592833Y-83524449D01*
X130707511Y-83309901D01*
X130778130Y-83077102D01*
X130801975Y-82835000D01*
X130778130Y-82592898D01*
X130707511Y-82360099D01*
X130592833Y-82145551D01*
X130438502Y-81957498D01*
X130289238Y-81835000D01*
X130438502Y-81712502D01*
X130592833Y-81524449D01*
X130707511Y-81309901D01*
X130778130Y-81077102D01*
X130801975Y-80835000D01*
X130778130Y-80592898D01*
X130707511Y-80360099D01*
X130592833Y-80145551D01*
X130438502Y-79957498D01*
X130250449Y-79803167D01*
X130035901Y-79688489D01*
X129803102Y-79617870D01*
X129621665Y-79600000D01*
X128950335Y-79600000D01*
X128768898Y-79617870D01*
X128536099Y-79688489D01*
X128321551Y-79803167D01*
X128133498Y-79957498D01*
X127979167Y-80145551D01*
X127864489Y-80360099D01*
X127793870Y-80592898D01*
X127770025Y-80835000D01*
X114035575Y-80835000D01*
X114046000Y-80782592D01*
X114046000Y-80507408D01*
X113992314Y-80237510D01*
X113887005Y-79983273D01*
X113734120Y-79754465D01*
X113539535Y-79559880D01*
X113310727Y-79406995D01*
X113233485Y-79375000D01*
X113310727Y-79343005D01*
X113539535Y-79190120D01*
X113734120Y-78995535D01*
X113887005Y-78766727D01*
X113992314Y-78512490D01*
X114046000Y-78242592D01*
X114046000Y-77967408D01*
X113992314Y-77697510D01*
X113887005Y-77443273D01*
X113734120Y-77214465D01*
X113539535Y-77019880D01*
X113310727Y-76866995D01*
X113233485Y-76835000D01*
X113310727Y-76803005D01*
X113539535Y-76650120D01*
X113704656Y-76484999D01*
X127772928Y-76484999D01*
X127772928Y-77185001D01*
X127789992Y-77358255D01*
X127840528Y-77524851D01*
X127922595Y-77678387D01*
X128033038Y-77812962D01*
X128167613Y-77923405D01*
X128321149Y-78005472D01*
X128487745Y-78056008D01*
X128660999Y-78073072D01*
X129911001Y-78073072D01*
X130084255Y-78056008D01*
X130250851Y-78005472D01*
X130404387Y-77923405D01*
X130538962Y-77812962D01*
X130649405Y-77678387D01*
X130731472Y-77524851D01*
X130782008Y-77358255D01*
X130799072Y-77185001D01*
X130799072Y-76484999D01*
X130782008Y-76311745D01*
X130731472Y-76145149D01*
X130649405Y-75991613D01*
X130538962Y-75857038D01*
X130404387Y-75746595D01*
X130250851Y-75664528D01*
X130084255Y-75613992D01*
X129911001Y-75596928D01*
X128660999Y-75596928D01*
X128487745Y-75613992D01*
X128321149Y-75664528D01*
X128167613Y-75746595D01*
X128033038Y-75857038D01*
X127922595Y-75991613D01*
X127840528Y-76145149D01*
X127789992Y-76311745D01*
X127772928Y-76484999D01*
X113704656Y-76484999D01*
X113734120Y-76455535D01*
X113887005Y-76226727D01*
X113992314Y-75972490D01*
X114046000Y-75702592D01*
X114046000Y-75427408D01*
X113992314Y-75157510D01*
X113887005Y-74903273D01*
X113734120Y-74674465D01*
X113539535Y-74479880D01*
X113310727Y-74326995D01*
X113233485Y-74295000D01*
X113310727Y-74263005D01*
X113539535Y-74110120D01*
X113734120Y-73915535D01*
X113887005Y-73686727D01*
X113992314Y-73432490D01*
X114046000Y-73162592D01*
X114046000Y-72887408D01*
X113992314Y-72617510D01*
X113887005Y-72363273D01*
X113734120Y-72134465D01*
X113539535Y-71939880D01*
X113310727Y-71786995D01*
X113233485Y-71755000D01*
X113310727Y-71723005D01*
X113539535Y-71570120D01*
X113734120Y-71375535D01*
X113887005Y-71146727D01*
X113992314Y-70892490D01*
X114046000Y-70622592D01*
X114046000Y-70347408D01*
X113992314Y-70077510D01*
X113887005Y-69823273D01*
X113734120Y-69594465D01*
X113539535Y-69399880D01*
X113310727Y-69246995D01*
X113233485Y-69215000D01*
X113310727Y-69183005D01*
X113539535Y-69030120D01*
X113734120Y-68835535D01*
X113887005Y-68606727D01*
X113992314Y-68352490D01*
X114046000Y-68082592D01*
X114046000Y-67807408D01*
X113992314Y-67537510D01*
X113887005Y-67283273D01*
X113734120Y-67054465D01*
X113539535Y-66859880D01*
X113310727Y-66706995D01*
X113233485Y-66675000D01*
X113310727Y-66643005D01*
X113539535Y-66490120D01*
X113734120Y-66295535D01*
X113887005Y-66066727D01*
X113992314Y-65812490D01*
X114046000Y-65542592D01*
X114046000Y-65267408D01*
X113992314Y-64997510D01*
X113887005Y-64743273D01*
X113734120Y-64514465D01*
X113539535Y-64319880D01*
X113310727Y-64166995D01*
X113056490Y-64061686D01*
X112786592Y-64008000D01*
X112511408Y-64008000D01*
X112241510Y-64061686D01*
X111987273Y-64166995D01*
X111758465Y-64319880D01*
X111563880Y-64514465D01*
X111410995Y-64743273D01*
X111305686Y-64997510D01*
X111252000Y-65267408D01*
X97345212Y-65267408D01*
X92265212Y-60187408D01*
X111252000Y-60187408D01*
X111252000Y-60462592D01*
X111305686Y-60732490D01*
X111410995Y-60986727D01*
X111563880Y-61215535D01*
X111758465Y-61410120D01*
X111987273Y-61563005D01*
X112241510Y-61668314D01*
X112511408Y-61722000D01*
X112786592Y-61722000D01*
X113056490Y-61668314D01*
X113310727Y-61563005D01*
X113539535Y-61410120D01*
X113734120Y-61215535D01*
X113887005Y-60986727D01*
X113992314Y-60732490D01*
X114046000Y-60462592D01*
X114046000Y-60187408D01*
X113992314Y-59917510D01*
X113887005Y-59663273D01*
X113734120Y-59434465D01*
X113539535Y-59239880D01*
X113310727Y-59086995D01*
X113056490Y-58981686D01*
X112786592Y-58928000D01*
X112511408Y-58928000D01*
X112241510Y-58981686D01*
X111987273Y-59086995D01*
X111758465Y-59239880D01*
X111563880Y-59434465D01*
X111410995Y-59663273D01*
X111305686Y-59917510D01*
X111252000Y-60187408D01*
X92265212Y-60187408D01*
X91276001Y-59198198D01*
X91276001Y-59136060D01*
X91236227Y-58936101D01*
X91158206Y-58747743D01*
X91044938Y-58578225D01*
X90900775Y-58434062D01*
X90731257Y-58320794D01*
X90542899Y-58242773D01*
X90342940Y-58202999D01*
X90139062Y-58202999D01*
X89939103Y-58242773D01*
X89750745Y-58320794D01*
X89581227Y-58434062D01*
X89437064Y-58578225D01*
X89323796Y-58747743D01*
X89245775Y-58936101D01*
X89206001Y-59136060D01*
X89206001Y-59339938D01*
X89245775Y-59539897D01*
X89323796Y-59728255D01*
X89437064Y-59897773D01*
X89581227Y-60041936D01*
X89750745Y-60155204D01*
X89939103Y-60233225D01*
X90139062Y-60272999D01*
X90201200Y-60272999D01*
X99279001Y-69350802D01*
X99279001Y-69629200D01*
X98170805Y-68521004D01*
X98147002Y-68492000D01*
X98031277Y-68397027D01*
X97899248Y-68326455D01*
X97755987Y-68282998D01*
X97644334Y-68272001D01*
X97644323Y-68272001D01*
X97607001Y-68268325D01*
X97569679Y-68272001D01*
X88608324Y-68272001D01*
X88646000Y-68082592D01*
X88646000Y-67807408D01*
X88592314Y-67537510D01*
X88487005Y-67283273D01*
X88334120Y-67054465D01*
X88139535Y-66859880D01*
X87910727Y-66706995D01*
X87833485Y-66675000D01*
X87910727Y-66643005D01*
X88139535Y-66490120D01*
X88334120Y-66295535D01*
X88487005Y-66066727D01*
X88592314Y-65812490D01*
X88646000Y-65542592D01*
X88646000Y-65267408D01*
X88592314Y-64997510D01*
X88487005Y-64743273D01*
X88334120Y-64514465D01*
X88139535Y-64319880D01*
X87910727Y-64166995D01*
X87656490Y-64061686D01*
X87386592Y-64008000D01*
X87111408Y-64008000D01*
X86841510Y-64061686D01*
X86587273Y-64166995D01*
X86358465Y-64319880D01*
X86163880Y-64514465D01*
X86010995Y-64743273D01*
X85905686Y-64997510D01*
X85852000Y-65267408D01*
X85852000Y-65542592D01*
X85905686Y-65812490D01*
X86010995Y-66066727D01*
X86163880Y-66295535D01*
X86358465Y-66490120D01*
X86587273Y-66643005D01*
X86664515Y-66675000D01*
X86587273Y-66706995D01*
X86358465Y-66859880D01*
X86163880Y-67054465D01*
X86010995Y-67283273D01*
X85905686Y-67537510D01*
X85852000Y-67807408D01*
X85852000Y-68082592D01*
X85889676Y-68272001D01*
X82645700Y-68272001D01*
X80682790Y-66309091D01*
X80719102Y-66126540D01*
X80719102Y-65843870D01*
X80664545Y-65569597D01*
X80938819Y-65624154D01*
X81221489Y-65624154D01*
X81498728Y-65569007D01*
X81759881Y-65460834D01*
X81994913Y-65303791D01*
X82194791Y-65103913D01*
X82351834Y-64868881D01*
X82460007Y-64607728D01*
X82515154Y-64330489D01*
X82515154Y-64047819D01*
X82460007Y-63770580D01*
X82351834Y-63509427D01*
X82194791Y-63274395D01*
X81994913Y-63074517D01*
X81759881Y-62917474D01*
X81498728Y-62809301D01*
X81221489Y-62754154D01*
X80938819Y-62754154D01*
X80661580Y-62809301D01*
X80400427Y-62917474D01*
X80165395Y-63074517D01*
X79965517Y-63274395D01*
X79808474Y-63509427D01*
X79700301Y-63770580D01*
X79645154Y-64047819D01*
X79645154Y-64330489D01*
X79699711Y-64604762D01*
X79425437Y-64550205D01*
X79142767Y-64550205D01*
X78865528Y-64605352D01*
X78604375Y-64713525D01*
X78369343Y-64870568D01*
X78169465Y-65070446D01*
X78012422Y-65305478D01*
X77904249Y-65566631D01*
X77849102Y-65843870D01*
X77849102Y-66126540D01*
X77903659Y-66400813D01*
X77629386Y-66346256D01*
X77346716Y-66346256D01*
X77069477Y-66401403D01*
X76808324Y-66509576D01*
X76573292Y-66666619D01*
X76373414Y-66866497D01*
X76216371Y-67101529D01*
X76108198Y-67362682D01*
X76053051Y-67639921D01*
X76053051Y-67922591D01*
X76107608Y-68196864D01*
X75833335Y-68142307D01*
X75550665Y-68142307D01*
X75273426Y-68197454D01*
X75012273Y-68305627D01*
X74777241Y-68462670D01*
X74577363Y-68662548D01*
X74420320Y-68897580D01*
X74312147Y-69158733D01*
X74257000Y-69435972D01*
X74257000Y-69718642D01*
X74311557Y-69992916D01*
X74037284Y-69938359D01*
X73754614Y-69938359D01*
X73477375Y-69993506D01*
X73216222Y-70101679D01*
X72981190Y-70258722D01*
X72781312Y-70458600D01*
X72624269Y-70693632D01*
X72516096Y-70954785D01*
X72460949Y-71232024D01*
X72460949Y-71514694D01*
X72515506Y-71788967D01*
X72241233Y-71734410D01*
X71958563Y-71734410D01*
X71681324Y-71789557D01*
X71420171Y-71897730D01*
X71185139Y-72054773D01*
X70985261Y-72254651D01*
X70828218Y-72489683D01*
X70720045Y-72750836D01*
X70664898Y-73028075D01*
X70664898Y-73310745D01*
X70719455Y-73585018D01*
X70445181Y-73530461D01*
X70162511Y-73530461D01*
X69885272Y-73585608D01*
X69624119Y-73693781D01*
X69389087Y-73850824D01*
X69189209Y-74050702D01*
X69032166Y-74285734D01*
X68923993Y-74546887D01*
X68868846Y-74824126D01*
X68868846Y-75106796D01*
X68923403Y-75381069D01*
X68649130Y-75326512D01*
X68366460Y-75326512D01*
X68089221Y-75381659D01*
X67828068Y-75489832D01*
X67593036Y-75646875D01*
X67393158Y-75846753D01*
X67236115Y-76081785D01*
X67127942Y-76342938D01*
X67072795Y-76620177D01*
X67072795Y-76902847D01*
X67127352Y-77177120D01*
X66853079Y-77122563D01*
X66570409Y-77122563D01*
X66293170Y-77177710D01*
X66032017Y-77285883D01*
X65796985Y-77442926D01*
X65597107Y-77642804D01*
X65440064Y-77877836D01*
X65331891Y-78138989D01*
X65276744Y-78416228D01*
X65276744Y-78698898D01*
X65331301Y-78973172D01*
X65057028Y-78918615D01*
X64774358Y-78918615D01*
X64497119Y-78973762D01*
X64235966Y-79081935D01*
X64000934Y-79238978D01*
X63801056Y-79438856D01*
X63644013Y-79673888D01*
X63535840Y-79935041D01*
X63480693Y-80212280D01*
X54831573Y-80212280D01*
X55372954Y-78973109D01*
X56613367Y-76517508D01*
X57988918Y-74134983D01*
X58713258Y-73028075D01*
X59888590Y-73028075D01*
X59888590Y-73310745D01*
X59943737Y-73587984D01*
X60051910Y-73849137D01*
X60208953Y-74084169D01*
X60408831Y-74284047D01*
X60643863Y-74441090D01*
X60905016Y-74549263D01*
X61182255Y-74604410D01*
X61464925Y-74604410D01*
X61742164Y-74549263D01*
X62003317Y-74441090D01*
X62238349Y-74284047D01*
X62438227Y-74084169D01*
X62595270Y-73849137D01*
X62703443Y-73587984D01*
X62758590Y-73310745D01*
X62758590Y-73028075D01*
X62704033Y-72753802D01*
X62978306Y-72808359D01*
X63260976Y-72808359D01*
X63538215Y-72753212D01*
X63799368Y-72645039D01*
X64034400Y-72487996D01*
X64234278Y-72288118D01*
X64391321Y-72053086D01*
X64499494Y-71791933D01*
X64554641Y-71514694D01*
X64554641Y-71232024D01*
X64500084Y-70957750D01*
X64774358Y-71012307D01*
X65057028Y-71012307D01*
X65334267Y-70957160D01*
X65595420Y-70848987D01*
X65830452Y-70691944D01*
X66030330Y-70492066D01*
X66187373Y-70257034D01*
X66295546Y-69995881D01*
X66350693Y-69718642D01*
X66350693Y-69435972D01*
X66296136Y-69161699D01*
X66570409Y-69216256D01*
X66853079Y-69216256D01*
X67130318Y-69161109D01*
X67391471Y-69052936D01*
X67626503Y-68895893D01*
X67826381Y-68696015D01*
X67983424Y-68460983D01*
X68091597Y-68199830D01*
X68146744Y-67922591D01*
X68146744Y-67639921D01*
X68092187Y-67365648D01*
X68366460Y-67420205D01*
X68649130Y-67420205D01*
X68926369Y-67365058D01*
X69187522Y-67256885D01*
X69422554Y-67099842D01*
X69622432Y-66899964D01*
X69779475Y-66664932D01*
X69887648Y-66403779D01*
X69942795Y-66126540D01*
X69942795Y-65843870D01*
X69888238Y-65569597D01*
X70162511Y-65624154D01*
X70445181Y-65624154D01*
X70722420Y-65569007D01*
X70983573Y-65460834D01*
X71218605Y-65303791D01*
X71418483Y-65103913D01*
X71575526Y-64868881D01*
X71683699Y-64607728D01*
X71738846Y-64330489D01*
X71738846Y-64047819D01*
X71684289Y-63773545D01*
X71958563Y-63828102D01*
X72241233Y-63828102D01*
X72518472Y-63772955D01*
X72779625Y-63664782D01*
X73014657Y-63507739D01*
X73214535Y-63307861D01*
X73371578Y-63072829D01*
X73479751Y-62811676D01*
X73534898Y-62534437D01*
X73534898Y-62251767D01*
X73480341Y-61977494D01*
X73754614Y-62032051D01*
X74037284Y-62032051D01*
X74314523Y-61976904D01*
X74575676Y-61868731D01*
X74810708Y-61711688D01*
X75010586Y-61511810D01*
X75167629Y-61276778D01*
X75275802Y-61015625D01*
X75330949Y-60738386D01*
X75330949Y-60457527D01*
X75337506Y-60462908D01*
X75447820Y-60521873D01*
X75567518Y-60558183D01*
X75692000Y-60570443D01*
X75816482Y-60558183D01*
X75936180Y-60521873D01*
X76046494Y-60462908D01*
X76143185Y-60383556D01*
X76339333Y-60187408D01*
X85852000Y-60187408D01*
X85852000Y-60462592D01*
X85905686Y-60732490D01*
X86010995Y-60986727D01*
X86163880Y-61215535D01*
X86358465Y-61410120D01*
X86587273Y-61563005D01*
X86841510Y-61668314D01*
X87111408Y-61722000D01*
X87386592Y-61722000D01*
X87656490Y-61668314D01*
X87910727Y-61563005D01*
X88139535Y-61410120D01*
X88334120Y-61215535D01*
X88487005Y-60986727D01*
X88592314Y-60732490D01*
X88646000Y-60462592D01*
X88646000Y-60187408D01*
X88592314Y-59917510D01*
X88487005Y-59663273D01*
X88334120Y-59434465D01*
X88139535Y-59239880D01*
X87910727Y-59086995D01*
X87656490Y-58981686D01*
X87386592Y-58928000D01*
X87111408Y-58928000D01*
X86841510Y-58981686D01*
X86587273Y-59086995D01*
X86358465Y-59239880D01*
X86163880Y-59434465D01*
X86010995Y-59663273D01*
X85905686Y-59917510D01*
X85852000Y-60187408D01*
X76339333Y-60187408D01*
X77274556Y-59252185D01*
X77353908Y-59155494D01*
X77412873Y-59045180D01*
X77449183Y-58925482D01*
X77461443Y-58801000D01*
X77449183Y-58676518D01*
X77412873Y-58556820D01*
X77353908Y-58446506D01*
X77274556Y-58349815D01*
X76143185Y-57218444D01*
X76046494Y-57139092D01*
X75936180Y-57080127D01*
X75816482Y-57043817D01*
X75692000Y-57031557D01*
X75567518Y-57043817D01*
X75447820Y-57080127D01*
X75337506Y-57139092D01*
X75240815Y-57218444D01*
X74109444Y-58349815D01*
X74030092Y-58446506D01*
X73971127Y-58556820D01*
X73934817Y-58676518D01*
X73922557Y-58801000D01*
X73934817Y-58925482D01*
X73971127Y-59045180D01*
X74030092Y-59155494D01*
X74035473Y-59162051D01*
X73754614Y-59162051D01*
X73477375Y-59217198D01*
X73216222Y-59325371D01*
X72981190Y-59482414D01*
X72781312Y-59682292D01*
X72624269Y-59917324D01*
X72516096Y-60178477D01*
X72460949Y-60455716D01*
X72460949Y-60738386D01*
X72515506Y-61012659D01*
X72241233Y-60958102D01*
X71958563Y-60958102D01*
X71681324Y-61013249D01*
X71420171Y-61121422D01*
X71185139Y-61278465D01*
X70985261Y-61478343D01*
X70828218Y-61713375D01*
X70720045Y-61974528D01*
X70664898Y-62251767D01*
X70664898Y-62534437D01*
X70719455Y-62808711D01*
X70445181Y-62754154D01*
X70162511Y-62754154D01*
X69885272Y-62809301D01*
X69624119Y-62917474D01*
X69389087Y-63074517D01*
X69189209Y-63274395D01*
X69032166Y-63509427D01*
X68923993Y-63770580D01*
X68868846Y-64047819D01*
X68868846Y-64330489D01*
X68923403Y-64604762D01*
X68649130Y-64550205D01*
X68366460Y-64550205D01*
X68089221Y-64605352D01*
X67828068Y-64713525D01*
X67593036Y-64870568D01*
X67393158Y-65070446D01*
X67236115Y-65305478D01*
X67127942Y-65566631D01*
X67072795Y-65843870D01*
X67072795Y-66126540D01*
X67127352Y-66400813D01*
X66853079Y-66346256D01*
X66570409Y-66346256D01*
X66293170Y-66401403D01*
X66032017Y-66509576D01*
X65796985Y-66666619D01*
X65597107Y-66866497D01*
X65440064Y-67101529D01*
X65331891Y-67362682D01*
X65276744Y-67639921D01*
X65276744Y-67922591D01*
X65331301Y-68196864D01*
X65057028Y-68142307D01*
X64774358Y-68142307D01*
X64497119Y-68197454D01*
X64235966Y-68305627D01*
X64000934Y-68462670D01*
X63801056Y-68662548D01*
X63644013Y-68897580D01*
X63535840Y-69158733D01*
X63480693Y-69435972D01*
X63480693Y-69718642D01*
X63535250Y-69992916D01*
X63260976Y-69938359D01*
X62978306Y-69938359D01*
X62701067Y-69993506D01*
X62439914Y-70101679D01*
X62204882Y-70258722D01*
X62005004Y-70458600D01*
X61847961Y-70693632D01*
X61739788Y-70954785D01*
X61684641Y-71232024D01*
X61684641Y-71514694D01*
X61739198Y-71788967D01*
X61464925Y-71734410D01*
X61182255Y-71734410D01*
X60905016Y-71789557D01*
X60643863Y-71897730D01*
X60408831Y-72054773D01*
X60208953Y-72254651D01*
X60051910Y-72489683D01*
X59943737Y-72750836D01*
X59888590Y-73028075D01*
X58713258Y-73028075D01*
X59495322Y-71832958D01*
X61127878Y-69618613D01*
X62881495Y-67498854D01*
X64754208Y-65476508D01*
X65733988Y-64503544D01*
X65762294Y-64473821D01*
X65778681Y-64454566D01*
X65781377Y-64451762D01*
X65783009Y-64449480D01*
X65788896Y-64442563D01*
X65813711Y-64409870D01*
X65836663Y-64375843D01*
X65841564Y-64367621D01*
X65843268Y-64365239D01*
X65845087Y-64361711D01*
X65857679Y-64340587D01*
X65876696Y-64304213D01*
X65891057Y-64272553D01*
X65892020Y-64270686D01*
X65892383Y-64269631D01*
X65893652Y-64266833D01*
X65908495Y-64228567D01*
X65921178Y-64189530D01*
X65925331Y-64173814D01*
X65926612Y-64170087D01*
X65927351Y-64166166D01*
X65931663Y-64149847D01*
X65939916Y-64109641D01*
X65945912Y-64069036D01*
X65946145Y-64066477D01*
X65946320Y-64065548D01*
X65946396Y-64063719D01*
X65949632Y-64028161D01*
X65951064Y-63987141D01*
X65950564Y-63963282D01*
X65950731Y-63959258D01*
X65950392Y-63955063D01*
X65950204Y-63946105D01*
X65947056Y-63905182D01*
X65945283Y-63891894D01*
X65944839Y-63886406D01*
X65807949Y-62842942D01*
X65822354Y-61843966D01*
X65980816Y-60857539D01*
X66280014Y-59904321D01*
X66713682Y-59004275D01*
X67272739Y-58176254D01*
X67550167Y-57871645D01*
X67550167Y-58116772D01*
X67622606Y-58480950D01*
X67764701Y-58823998D01*
X67970992Y-59132734D01*
X68233549Y-59395291D01*
X68542285Y-59601582D01*
X68885333Y-59743677D01*
X69249511Y-59816116D01*
X69620823Y-59816116D01*
X69985001Y-59743677D01*
X70328049Y-59601582D01*
X70636785Y-59395291D01*
X70899342Y-59132734D01*
X71105633Y-58823998D01*
X71247728Y-58480950D01*
X71320167Y-58116772D01*
X71320167Y-57745460D01*
X71247728Y-57381282D01*
X71105633Y-57038234D01*
X70899342Y-56729498D01*
X70636785Y-56466941D01*
X70328049Y-56260650D01*
X69985001Y-56118555D01*
X69979893Y-56117539D01*
X70494667Y-55901424D01*
X71462043Y-55651715D01*
X72455321Y-55544269D01*
X73453712Y-55581335D01*
X74436283Y-55762134D01*
X75387211Y-56084489D01*
X76150341Y-56460822D01*
X76152268Y-56461605D01*
X76157838Y-56464467D01*
X76195334Y-56481162D01*
X76233705Y-56495737D01*
X76245700Y-56499542D01*
X76248906Y-56500844D01*
X76252883Y-56501821D01*
X76272828Y-56508148D01*
X76312582Y-56518355D01*
X76351844Y-56526129D01*
X76352216Y-56526220D01*
X76352390Y-56526237D01*
X76352846Y-56526327D01*
X76393491Y-56532039D01*
X76434392Y-56535474D01*
X76454015Y-56536022D01*
X76458106Y-56536416D01*
X76461745Y-56536238D01*
X76475421Y-56536620D01*
X76516450Y-56535473D01*
X76557350Y-56532039D01*
X76562547Y-56531309D01*
X76564360Y-56531220D01*
X76567344Y-56530635D01*
X76597996Y-56526327D01*
X76638259Y-56518354D01*
X76665248Y-56511425D01*
X76668751Y-56510738D01*
X76670972Y-56509956D01*
X76678014Y-56508148D01*
X76717138Y-56495736D01*
X76755508Y-56481162D01*
X76765985Y-56476497D01*
X76769092Y-56475403D01*
X76772718Y-56473499D01*
X76793004Y-56464467D01*
X76802228Y-56459968D01*
X79284820Y-55227599D01*
X81813446Y-54143828D01*
X84398638Y-53202895D01*
X87032329Y-52407738D01*
X89706286Y-51760839D01*
X92412198Y-51264211D01*
X95141593Y-50919408D01*
X97886022Y-50727499D01*
X100636840Y-50689088D01*
X103385531Y-50804292D01*
G37*
%TD.AperFunction*%
%TD*%
M02*
