%FSLAX45Y45*%
G04 Gerber Fmt 4.5, Leading zero omitted, Abs format (unit mm)*
G04 Created by KiCad (PCBNEW 5.1.12) date 2021-12-20 13:46:58*
%MOMM*%
%LPD*%
G01*
G04 APERTURE LIST*
%TA.AperFunction,Profile*%
%ADD10C,0.200000*%
%TD*%
%ADD11C,0.200000*%
%ADD12C,0.300000*%
G04 APERTURE END LIST*
D10*
X7647542Y-5580162D02*
G75*
G02*
X12342258Y-5580162I2347358J-4414738D01*
G01*
X5070861Y-10863141D02*
G75*
G02*
X6521608Y-6398201I4924039J868241D01*
G01*
X5500930Y-12186756D02*
G75*
G02*
X5070861Y-10863141I84843J759244D01*
G01*
X12342258Y-5580162D02*
G75*
G02*
X13468192Y-6398201I377633J-664110D01*
G01*
X14919426Y-10863162D02*
G75*
G02*
X14693363Y-8284799I56448J1304041D01*
G01*
X14919408Y-10863570D02*
G75*
G02*
X14488870Y-12186756I-515381J-563943D01*
G01*
X9299035Y-14946240D02*
G75*
G02*
X5500930Y-12186756I695866J4951340D01*
G01*
X13468192Y-6398201D02*
G75*
G02*
X14693363Y-8284799I-3473292J-3596699D01*
G01*
X14488870Y-12186756D02*
G75*
G02*
X10690766Y-14946240I-4493970J2191856D01*
G01*
X10690766Y-14946240D02*
G75*
G02*
X9299035Y-14946240I-695866J315310D01*
G01*
X6521608Y-6398201D02*
G75*
G02*
X7647542Y-5580162I748301J153929D01*
G01*
D11*
X4929506Y-11481888D02*
X5179506Y-11731888D01*
X5179506Y-11481888D02*
X4929506Y-11731888D01*
X6818517Y-5668112D02*
X7068517Y-5918112D01*
X7068517Y-5668112D02*
X6818517Y-5918112D01*
X9875000Y-15075000D02*
X10125000Y-15325000D01*
X10125000Y-15075000D02*
X9875000Y-15325000D01*
X12931483Y-5668112D02*
X13181483Y-5918112D01*
X13181483Y-5668112D02*
X12931483Y-5918112D01*
X14820494Y-11481888D02*
X15070494Y-11731888D01*
X15070494Y-11481888D02*
X14820494Y-11731888D01*
D12*
X5098232Y-15870614D02*
X5098232Y-15570614D01*
X5169661Y-15570614D01*
X5212518Y-15584900D01*
X5241089Y-15613471D01*
X5255375Y-15642043D01*
X5269661Y-15699186D01*
X5269661Y-15742043D01*
X5255375Y-15799186D01*
X5241089Y-15827757D01*
X5212518Y-15856329D01*
X5169661Y-15870614D01*
X5098232Y-15870614D01*
X5398232Y-15870614D02*
X5398232Y-15670614D01*
X5398232Y-15727757D02*
X5412518Y-15699186D01*
X5426803Y-15684900D01*
X5455375Y-15670614D01*
X5483946Y-15670614D01*
X5583946Y-15870614D02*
X5583946Y-15670614D01*
X5583946Y-15570614D02*
X5569661Y-15584900D01*
X5583946Y-15599186D01*
X5598232Y-15584900D01*
X5583946Y-15570614D01*
X5583946Y-15599186D01*
X5769660Y-15870614D02*
X5741089Y-15856329D01*
X5726803Y-15827757D01*
X5726803Y-15570614D01*
X5926803Y-15870614D02*
X5898232Y-15856329D01*
X5883946Y-15827757D01*
X5883946Y-15570614D01*
X6269660Y-15870614D02*
X6269660Y-15570614D01*
X6369660Y-15784900D01*
X6469660Y-15570614D01*
X6469660Y-15870614D01*
X6741089Y-15870614D02*
X6741089Y-15713471D01*
X6726803Y-15684900D01*
X6698232Y-15670614D01*
X6641089Y-15670614D01*
X6612518Y-15684900D01*
X6741089Y-15856329D02*
X6712518Y-15870614D01*
X6641089Y-15870614D01*
X6612518Y-15856329D01*
X6598232Y-15827757D01*
X6598232Y-15799186D01*
X6612518Y-15770614D01*
X6641089Y-15756329D01*
X6712518Y-15756329D01*
X6741089Y-15742043D01*
X6883946Y-15670614D02*
X6883946Y-15970614D01*
X6883946Y-15684900D02*
X6912518Y-15670614D01*
X6969660Y-15670614D01*
X6998232Y-15684900D01*
X7012518Y-15699186D01*
X7026803Y-15727757D01*
X7026803Y-15813471D01*
X7012518Y-15842043D01*
X6998232Y-15856329D01*
X6969660Y-15870614D01*
X6912518Y-15870614D01*
X6883946Y-15856329D01*
X7155375Y-15842043D02*
X7169660Y-15856329D01*
X7155375Y-15870614D01*
X7141089Y-15856329D01*
X7155375Y-15842043D01*
X7155375Y-15870614D01*
X7155375Y-15684900D02*
X7169660Y-15699186D01*
X7155375Y-15713471D01*
X7141089Y-15699186D01*
X7155375Y-15684900D01*
X7155375Y-15713471D01*
X4561803Y-16239900D02*
X4811803Y-16489900D01*
X4811803Y-16239900D02*
X4561803Y-16489900D01*
X5083946Y-16229186D02*
X5098232Y-16214900D01*
X5126803Y-16200614D01*
X5198232Y-16200614D01*
X5226803Y-16214900D01*
X5241089Y-16229186D01*
X5255375Y-16257757D01*
X5255375Y-16286329D01*
X5241089Y-16329186D01*
X5069661Y-16500614D01*
X5255375Y-16500614D01*
X5383946Y-16472043D02*
X5398232Y-16486329D01*
X5383946Y-16500614D01*
X5369661Y-16486329D01*
X5383946Y-16472043D01*
X5383946Y-16500614D01*
X5669660Y-16200614D02*
X5526803Y-16200614D01*
X5512518Y-16343471D01*
X5526803Y-16329186D01*
X5555375Y-16314900D01*
X5626803Y-16314900D01*
X5655375Y-16329186D01*
X5669660Y-16343471D01*
X5683946Y-16372043D01*
X5683946Y-16443471D01*
X5669660Y-16472043D01*
X5655375Y-16486329D01*
X5626803Y-16500614D01*
X5555375Y-16500614D01*
X5526803Y-16486329D01*
X5512518Y-16472043D01*
X5869660Y-16200614D02*
X5898232Y-16200614D01*
X5926803Y-16214900D01*
X5941089Y-16229186D01*
X5955375Y-16257757D01*
X5969660Y-16314900D01*
X5969660Y-16386329D01*
X5955375Y-16443471D01*
X5941089Y-16472043D01*
X5926803Y-16486329D01*
X5898232Y-16500614D01*
X5869660Y-16500614D01*
X5841089Y-16486329D01*
X5826803Y-16472043D01*
X5812518Y-16443471D01*
X5798232Y-16386329D01*
X5798232Y-16314900D01*
X5812518Y-16257757D01*
X5826803Y-16229186D01*
X5841089Y-16214900D01*
X5869660Y-16200614D01*
X6155375Y-16200614D02*
X6183946Y-16200614D01*
X6212518Y-16214900D01*
X6226803Y-16229186D01*
X6241089Y-16257757D01*
X6255375Y-16314900D01*
X6255375Y-16386329D01*
X6241089Y-16443471D01*
X6226803Y-16472043D01*
X6212518Y-16486329D01*
X6183946Y-16500614D01*
X6155375Y-16500614D01*
X6126803Y-16486329D01*
X6112518Y-16472043D01*
X6098232Y-16443471D01*
X6083946Y-16386329D01*
X6083946Y-16314900D01*
X6098232Y-16257757D01*
X6112518Y-16229186D01*
X6126803Y-16214900D01*
X6155375Y-16200614D01*
X6383946Y-16500614D02*
X6383946Y-16300614D01*
X6383946Y-16329186D02*
X6398232Y-16314900D01*
X6426803Y-16300614D01*
X6469660Y-16300614D01*
X6498232Y-16314900D01*
X6512518Y-16343471D01*
X6512518Y-16500614D01*
X6512518Y-16343471D02*
X6526803Y-16314900D01*
X6555375Y-16300614D01*
X6598232Y-16300614D01*
X6626803Y-16314900D01*
X6641089Y-16343471D01*
X6641089Y-16500614D01*
X6783946Y-16500614D02*
X6783946Y-16300614D01*
X6783946Y-16329186D02*
X6798232Y-16314900D01*
X6826803Y-16300614D01*
X6869660Y-16300614D01*
X6898232Y-16314900D01*
X6912518Y-16343471D01*
X6912518Y-16500614D01*
X6912518Y-16343471D02*
X6926803Y-16314900D01*
X6955375Y-16300614D01*
X6998232Y-16300614D01*
X7026803Y-16314900D01*
X7041089Y-16343471D01*
X7041089Y-16500614D01*
X7626803Y-16186329D02*
X7369660Y-16572043D01*
X8012518Y-16200614D02*
X8041089Y-16200614D01*
X8069660Y-16214900D01*
X8083946Y-16229186D01*
X8098232Y-16257757D01*
X8112518Y-16314900D01*
X8112518Y-16386329D01*
X8098232Y-16443471D01*
X8083946Y-16472043D01*
X8069660Y-16486329D01*
X8041089Y-16500614D01*
X8012518Y-16500614D01*
X7983946Y-16486329D01*
X7969660Y-16472043D01*
X7955375Y-16443471D01*
X7941089Y-16386329D01*
X7941089Y-16314900D01*
X7955375Y-16257757D01*
X7969660Y-16229186D01*
X7983946Y-16214900D01*
X8012518Y-16200614D01*
X8241089Y-16472043D02*
X8255375Y-16486329D01*
X8241089Y-16500614D01*
X8226803Y-16486329D01*
X8241089Y-16472043D01*
X8241089Y-16500614D01*
X8441089Y-16200614D02*
X8469661Y-16200614D01*
X8498232Y-16214900D01*
X8512518Y-16229186D01*
X8526803Y-16257757D01*
X8541089Y-16314900D01*
X8541089Y-16386329D01*
X8526803Y-16443471D01*
X8512518Y-16472043D01*
X8498232Y-16486329D01*
X8469661Y-16500614D01*
X8441089Y-16500614D01*
X8412518Y-16486329D01*
X8398232Y-16472043D01*
X8383946Y-16443471D01*
X8369660Y-16386329D01*
X8369660Y-16314900D01*
X8383946Y-16257757D01*
X8398232Y-16229186D01*
X8412518Y-16214900D01*
X8441089Y-16200614D01*
X8683946Y-16500614D02*
X8741089Y-16500614D01*
X8769661Y-16486329D01*
X8783946Y-16472043D01*
X8812518Y-16429186D01*
X8826803Y-16372043D01*
X8826803Y-16257757D01*
X8812518Y-16229186D01*
X8798232Y-16214900D01*
X8769661Y-16200614D01*
X8712518Y-16200614D01*
X8683946Y-16214900D01*
X8669661Y-16229186D01*
X8655375Y-16257757D01*
X8655375Y-16329186D01*
X8669661Y-16357757D01*
X8683946Y-16372043D01*
X8712518Y-16386329D01*
X8769661Y-16386329D01*
X8798232Y-16372043D01*
X8812518Y-16357757D01*
X8826803Y-16329186D01*
X8998232Y-16329186D02*
X8969661Y-16314900D01*
X8955375Y-16300614D01*
X8941089Y-16272043D01*
X8941089Y-16257757D01*
X8955375Y-16229186D01*
X8969661Y-16214900D01*
X8998232Y-16200614D01*
X9055375Y-16200614D01*
X9083946Y-16214900D01*
X9098232Y-16229186D01*
X9112518Y-16257757D01*
X9112518Y-16272043D01*
X9098232Y-16300614D01*
X9083946Y-16314900D01*
X9055375Y-16329186D01*
X8998232Y-16329186D01*
X8969661Y-16343471D01*
X8955375Y-16357757D01*
X8941089Y-16386329D01*
X8941089Y-16443471D01*
X8955375Y-16472043D01*
X8969661Y-16486329D01*
X8998232Y-16500614D01*
X9055375Y-16500614D01*
X9083946Y-16486329D01*
X9098232Y-16472043D01*
X9112518Y-16443471D01*
X9112518Y-16386329D01*
X9098232Y-16357757D01*
X9083946Y-16343471D01*
X9055375Y-16329186D01*
X9369661Y-16300614D02*
X9369661Y-16500614D01*
X9298232Y-16186329D02*
X9226803Y-16400614D01*
X9412518Y-16400614D01*
X9512518Y-16200614D02*
X9512518Y-16257757D01*
X9626803Y-16200614D02*
X9626803Y-16257757D01*
X10069661Y-16614900D02*
X10055375Y-16600614D01*
X10026803Y-16557757D01*
X10012518Y-16529186D01*
X9998232Y-16486329D01*
X9983946Y-16414900D01*
X9983946Y-16357757D01*
X9998232Y-16286329D01*
X10012518Y-16243471D01*
X10026803Y-16214900D01*
X10055375Y-16172043D01*
X10069661Y-16157757D01*
X10326803Y-16200614D02*
X10183946Y-16200614D01*
X10169661Y-16343471D01*
X10183946Y-16329186D01*
X10212518Y-16314900D01*
X10283946Y-16314900D01*
X10312518Y-16329186D01*
X10326803Y-16343471D01*
X10341089Y-16372043D01*
X10341089Y-16443471D01*
X10326803Y-16472043D01*
X10312518Y-16486329D01*
X10283946Y-16500614D01*
X10212518Y-16500614D01*
X10183946Y-16486329D01*
X10169661Y-16472043D01*
X10698232Y-16500614D02*
X10698232Y-16200614D01*
X10826803Y-16500614D02*
X10826803Y-16343471D01*
X10812518Y-16314900D01*
X10783946Y-16300614D01*
X10741089Y-16300614D01*
X10712518Y-16314900D01*
X10698232Y-16329186D01*
X11012518Y-16500614D02*
X10983946Y-16486329D01*
X10969661Y-16472043D01*
X10955375Y-16443471D01*
X10955375Y-16357757D01*
X10969661Y-16329186D01*
X10983946Y-16314900D01*
X11012518Y-16300614D01*
X11055375Y-16300614D01*
X11083946Y-16314900D01*
X11098232Y-16329186D01*
X11112518Y-16357757D01*
X11112518Y-16443471D01*
X11098232Y-16472043D01*
X11083946Y-16486329D01*
X11055375Y-16500614D01*
X11012518Y-16500614D01*
X11283946Y-16500614D02*
X11255375Y-16486329D01*
X11241089Y-16457757D01*
X11241089Y-16200614D01*
X11512518Y-16486329D02*
X11483946Y-16500614D01*
X11426803Y-16500614D01*
X11398232Y-16486329D01*
X11383946Y-16457757D01*
X11383946Y-16343471D01*
X11398232Y-16314900D01*
X11426803Y-16300614D01*
X11483946Y-16300614D01*
X11512518Y-16314900D01*
X11526803Y-16343471D01*
X11526803Y-16372043D01*
X11383946Y-16400614D01*
X11641089Y-16486329D02*
X11669660Y-16500614D01*
X11726803Y-16500614D01*
X11755375Y-16486329D01*
X11769660Y-16457757D01*
X11769660Y-16443471D01*
X11755375Y-16414900D01*
X11726803Y-16400614D01*
X11683946Y-16400614D01*
X11655375Y-16386329D01*
X11641089Y-16357757D01*
X11641089Y-16343471D01*
X11655375Y-16314900D01*
X11683946Y-16300614D01*
X11726803Y-16300614D01*
X11755375Y-16314900D01*
X11869660Y-16614900D02*
X11883946Y-16600614D01*
X11912518Y-16557757D01*
X11926803Y-16529186D01*
X11941089Y-16486329D01*
X11955375Y-16414900D01*
X11955375Y-16357757D01*
X11941089Y-16286329D01*
X11926803Y-16243471D01*
X11912518Y-16214900D01*
X11883946Y-16172043D01*
X11869660Y-16157757D01*
X12412518Y-16614900D02*
X12398232Y-16600614D01*
X12369660Y-16557757D01*
X12355375Y-16529186D01*
X12341089Y-16486329D01*
X12326803Y-16414900D01*
X12326803Y-16357757D01*
X12341089Y-16286329D01*
X12355375Y-16243471D01*
X12369660Y-16214900D01*
X12398232Y-16172043D01*
X12412518Y-16157757D01*
X12526803Y-16300614D02*
X12526803Y-16500614D01*
X12526803Y-16329186D02*
X12541089Y-16314900D01*
X12569660Y-16300614D01*
X12612518Y-16300614D01*
X12641089Y-16314900D01*
X12655375Y-16343471D01*
X12655375Y-16500614D01*
X12841089Y-16500614D02*
X12812518Y-16486329D01*
X12798232Y-16472043D01*
X12783946Y-16443471D01*
X12783946Y-16357757D01*
X12798232Y-16329186D01*
X12812518Y-16314900D01*
X12841089Y-16300614D01*
X12883946Y-16300614D01*
X12912518Y-16314900D01*
X12926803Y-16329186D01*
X12941089Y-16357757D01*
X12941089Y-16443471D01*
X12926803Y-16472043D01*
X12912518Y-16486329D01*
X12883946Y-16500614D01*
X12841089Y-16500614D01*
X13026803Y-16300614D02*
X13141089Y-16300614D01*
X13069660Y-16200614D02*
X13069660Y-16457757D01*
X13083946Y-16486329D01*
X13112518Y-16500614D01*
X13141089Y-16500614D01*
X13469660Y-16300614D02*
X13469660Y-16600614D01*
X13469660Y-16314900D02*
X13498232Y-16300614D01*
X13555375Y-16300614D01*
X13583946Y-16314900D01*
X13598232Y-16329186D01*
X13612518Y-16357757D01*
X13612518Y-16443471D01*
X13598232Y-16472043D01*
X13583946Y-16486329D01*
X13555375Y-16500614D01*
X13498232Y-16500614D01*
X13469660Y-16486329D01*
X13783946Y-16500614D02*
X13755375Y-16486329D01*
X13741089Y-16457757D01*
X13741089Y-16200614D01*
X14026803Y-16500614D02*
X14026803Y-16343471D01*
X14012518Y-16314900D01*
X13983946Y-16300614D01*
X13926803Y-16300614D01*
X13898232Y-16314900D01*
X14026803Y-16486329D02*
X13998232Y-16500614D01*
X13926803Y-16500614D01*
X13898232Y-16486329D01*
X13883946Y-16457757D01*
X13883946Y-16429186D01*
X13898232Y-16400614D01*
X13926803Y-16386329D01*
X13998232Y-16386329D01*
X14026803Y-16372043D01*
X14126803Y-16300614D02*
X14241089Y-16300614D01*
X14169660Y-16200614D02*
X14169660Y-16457757D01*
X14183946Y-16486329D01*
X14212518Y-16500614D01*
X14241089Y-16500614D01*
X14455375Y-16486329D02*
X14426803Y-16500614D01*
X14369660Y-16500614D01*
X14341089Y-16486329D01*
X14326803Y-16457757D01*
X14326803Y-16343471D01*
X14341089Y-16314900D01*
X14369660Y-16300614D01*
X14426803Y-16300614D01*
X14455375Y-16314900D01*
X14469660Y-16343471D01*
X14469660Y-16372043D01*
X14326803Y-16400614D01*
X14726803Y-16500614D02*
X14726803Y-16200614D01*
X14726803Y-16486329D02*
X14698232Y-16500614D01*
X14641089Y-16500614D01*
X14612518Y-16486329D01*
X14598232Y-16472043D01*
X14583946Y-16443471D01*
X14583946Y-16357757D01*
X14598232Y-16329186D01*
X14612518Y-16314900D01*
X14641089Y-16300614D01*
X14698232Y-16300614D01*
X14726803Y-16314900D01*
X14841089Y-16614900D02*
X14855375Y-16600614D01*
X14883946Y-16557757D01*
X14898232Y-16529186D01*
X14912518Y-16486329D01*
X14926803Y-16414900D01*
X14926803Y-16357757D01*
X14912518Y-16286329D01*
X14898232Y-16243471D01*
X14883946Y-16214900D01*
X14855375Y-16172043D01*
X14841089Y-16157757D01*
M02*
