%FSLAX45Y45*%
G04 Gerber Fmt 4.5, Leading zero omitted, Abs format (unit mm)*
G04 Created by KiCad (PCBNEW 5.1.12) date 2021-12-20 13:46:58*
%MOMM*%
%LPD*%
G01*
G04 APERTURE LIST*
%TA.AperFunction,Profile*%
%ADD10C,0.200000*%
%TD*%
%ADD11C,0.200000*%
%ADD12C,0.300000*%
G04 APERTURE END LIST*
D10*
X7647542Y-5580162D02*
G75*
G02*
X12342258Y-5580162I2347358J-4414738D01*
G01*
X5070861Y-10863141D02*
G75*
G02*
X6521608Y-6398201I4924039J868241D01*
G01*
X5500930Y-12186756D02*
G75*
G02*
X5070861Y-10863141I84843J759244D01*
G01*
X12342258Y-5580162D02*
G75*
G02*
X13468192Y-6398201I377633J-664110D01*
G01*
X14919426Y-10863162D02*
G75*
G02*
X14693363Y-8284799I56448J1304041D01*
G01*
X14919408Y-10863570D02*
G75*
G02*
X14488870Y-12186756I-515381J-563943D01*
G01*
X9299035Y-14946240D02*
G75*
G02*
X5500930Y-12186756I695866J4951340D01*
G01*
X13468192Y-6398201D02*
G75*
G02*
X14693363Y-8284799I-3473292J-3596699D01*
G01*
X14488870Y-12186756D02*
G75*
G02*
X10690766Y-14946240I-4493970J2191856D01*
G01*
X10690766Y-14946240D02*
G75*
G02*
X9299035Y-14946240I-695866J315310D01*
G01*
X6521608Y-6398201D02*
G75*
G02*
X7647542Y-5580162I748301J153929D01*
G01*
D11*
X8946200Y-9314500D02*
X8986200Y-9354500D01*
X8986200Y-9314500D02*
X8946200Y-9354500D01*
X9004100Y-5903800D02*
X9044100Y-5943800D01*
X9044100Y-5903800D02*
X9004100Y-5943800D01*
X9530400Y-7714300D02*
X9570400Y-7754300D01*
X9570400Y-7714300D02*
X9530400Y-7754300D01*
X9784400Y-6291900D02*
X9824400Y-6331900D01*
X9824400Y-6291900D02*
X9784400Y-6331900D01*
X9784400Y-8031800D02*
X9824400Y-8071800D01*
X9824400Y-8031800D02*
X9784400Y-8071800D01*
X9911400Y-7053900D02*
X9951400Y-7093900D01*
X9951400Y-7053900D02*
X9911400Y-7093900D01*
X9924100Y-7612700D02*
X9964100Y-7652700D01*
X9964100Y-7612700D02*
X9924100Y-7652700D01*
X10305100Y-6698300D02*
X10345100Y-6738300D01*
X10345100Y-6698300D02*
X10305100Y-6738300D01*
X7818300Y-7708900D02*
G75*
G03*
X7818300Y-7708900I-30000J0D01*
G01*
X8018300Y-7708900D02*
G75*
G03*
X8018300Y-7708900I-30000J0D01*
G01*
X12928600Y-7646000D02*
X12928600Y-7721000D01*
X12891100Y-7683500D02*
X12966100Y-7683500D01*
X12928600Y-7846000D02*
X12928600Y-7921000D01*
X12891100Y-7883500D02*
X12966100Y-7883500D01*
X12928600Y-8046000D02*
X12928600Y-8121000D01*
X12891100Y-8083500D02*
X12966100Y-8083500D01*
X12928600Y-8246000D02*
X12928600Y-8321000D01*
X12891100Y-8283500D02*
X12966100Y-8283500D01*
X12928600Y-9106500D02*
X12928600Y-9181500D01*
X12891100Y-9144000D02*
X12966100Y-9144000D01*
X12928600Y-9306500D02*
X12928600Y-9381500D01*
X12891100Y-9344000D02*
X12966100Y-9344000D01*
X12928600Y-9506500D02*
X12928600Y-9581500D01*
X12891100Y-9544000D02*
X12966100Y-9544000D01*
X12928600Y-9706500D02*
X12928600Y-9781500D01*
X12891100Y-9744000D02*
X12966100Y-9744000D01*
X12928600Y-9906500D02*
X12928600Y-9981500D01*
X12891100Y-9944000D02*
X12966100Y-9944000D01*
X6821441Y-8540141D02*
X6821441Y-8486259D01*
X6767559Y-8486259D01*
X6767559Y-8540141D01*
X6821441Y-8540141D01*
X6821441Y-10390141D02*
X6821441Y-10336259D01*
X6767559Y-10336259D01*
X6767559Y-10390141D01*
X6821441Y-10390141D01*
X7075441Y-8540141D02*
X7075441Y-8486259D01*
X7021559Y-8486259D01*
X7021559Y-8540141D01*
X7075441Y-8540141D01*
X7075441Y-10390141D02*
X7075441Y-10336259D01*
X7021559Y-10336259D01*
X7021559Y-10390141D01*
X7075441Y-10390141D01*
X7971441Y-8540141D02*
X7971441Y-8486259D01*
X7917559Y-8486259D01*
X7917559Y-8540141D01*
X7971441Y-8540141D01*
X7971441Y-10390141D02*
X7971441Y-10336259D01*
X7917559Y-10336259D01*
X7917559Y-10390141D01*
X7971441Y-10390141D01*
X8221441Y-8540141D02*
X8221441Y-8486259D01*
X8167559Y-8486259D01*
X8167559Y-8540141D01*
X8221441Y-8540141D01*
X8221441Y-10390141D02*
X8221441Y-10336259D01*
X8167559Y-10336259D01*
X8167559Y-10390141D01*
X8221441Y-10390141D01*
X8751841Y-6059441D02*
X8751841Y-6005559D01*
X8697959Y-6005559D01*
X8697959Y-6059441D01*
X8751841Y-6059441D01*
X8751841Y-6313441D02*
X8751841Y-6259559D01*
X8697959Y-6259559D01*
X8697959Y-6313441D01*
X8751841Y-6313441D01*
X8751841Y-6567441D02*
X8751841Y-6513559D01*
X8697959Y-6513559D01*
X8697959Y-6567441D01*
X8751841Y-6567441D01*
X8751841Y-6821441D02*
X8751841Y-6767559D01*
X8697959Y-6767559D01*
X8697959Y-6821441D01*
X8751841Y-6821441D01*
X8751841Y-7075441D02*
X8751841Y-7021559D01*
X8697959Y-7021559D01*
X8697959Y-7075441D01*
X8751841Y-7075441D01*
X8751841Y-7329441D02*
X8751841Y-7275559D01*
X8697959Y-7275559D01*
X8697959Y-7329441D01*
X8751841Y-7329441D01*
X8751841Y-7583441D02*
X8751841Y-7529559D01*
X8697959Y-7529559D01*
X8697959Y-7583441D01*
X8751841Y-7583441D01*
X8751841Y-7837441D02*
X8751841Y-7783559D01*
X8697959Y-7783559D01*
X8697959Y-7837441D01*
X8751841Y-7837441D01*
X8751841Y-8091441D02*
X8751841Y-8037559D01*
X8697959Y-8037559D01*
X8697959Y-8091441D01*
X8751841Y-8091441D01*
X8751841Y-8345441D02*
X8751841Y-8291559D01*
X8697959Y-8291559D01*
X8697959Y-8345441D01*
X8751841Y-8345441D01*
X8751841Y-8599441D02*
X8751841Y-8545559D01*
X8697959Y-8545559D01*
X8697959Y-8599441D01*
X8751841Y-8599441D01*
X8751841Y-8853441D02*
X8751841Y-8799559D01*
X8697959Y-8799559D01*
X8697959Y-8853441D01*
X8751841Y-8853441D01*
X8751841Y-9107441D02*
X8751841Y-9053559D01*
X8697959Y-9053559D01*
X8697959Y-9107441D01*
X8751841Y-9107441D01*
X8751841Y-9361441D02*
X8751841Y-9307559D01*
X8697959Y-9307559D01*
X8697959Y-9361441D01*
X8751841Y-9361441D01*
X8751841Y-9615441D02*
X8751841Y-9561559D01*
X8697959Y-9561559D01*
X8697959Y-9615441D01*
X8751841Y-9615441D01*
X11291841Y-6059441D02*
X11291841Y-6005559D01*
X11237959Y-6005559D01*
X11237959Y-6059441D01*
X11291841Y-6059441D01*
X11291841Y-6313441D02*
X11291841Y-6259559D01*
X11237959Y-6259559D01*
X11237959Y-6313441D01*
X11291841Y-6313441D01*
X11291841Y-6567441D02*
X11291841Y-6513559D01*
X11237959Y-6513559D01*
X11237959Y-6567441D01*
X11291841Y-6567441D01*
X11291841Y-6821441D02*
X11291841Y-6767559D01*
X11237959Y-6767559D01*
X11237959Y-6821441D01*
X11291841Y-6821441D01*
X11291841Y-7075441D02*
X11291841Y-7021559D01*
X11237959Y-7021559D01*
X11237959Y-7075441D01*
X11291841Y-7075441D01*
X11291841Y-7329441D02*
X11291841Y-7275559D01*
X11237959Y-7275559D01*
X11237959Y-7329441D01*
X11291841Y-7329441D01*
X11291841Y-7583441D02*
X11291841Y-7529559D01*
X11237959Y-7529559D01*
X11237959Y-7583441D01*
X11291841Y-7583441D01*
X11291841Y-7837441D02*
X11291841Y-7783559D01*
X11237959Y-7783559D01*
X11237959Y-7837441D01*
X11291841Y-7837441D01*
X11291841Y-8091441D02*
X11291841Y-8037559D01*
X11237959Y-8037559D01*
X11237959Y-8091441D01*
X11291841Y-8091441D01*
X11291841Y-8345441D02*
X11291841Y-8291559D01*
X11237959Y-8291559D01*
X11237959Y-8345441D01*
X11291841Y-8345441D01*
X11291841Y-8599441D02*
X11291841Y-8545559D01*
X11237959Y-8545559D01*
X11237959Y-8599441D01*
X11291841Y-8599441D01*
X11291841Y-8853441D02*
X11291841Y-8799559D01*
X11237959Y-8799559D01*
X11237959Y-8853441D01*
X11291841Y-8853441D01*
X11291841Y-9107441D02*
X11291841Y-9053559D01*
X11237959Y-9053559D01*
X11237959Y-9107441D01*
X11291841Y-9107441D01*
X11291841Y-9361441D02*
X11291841Y-9307559D01*
X11237959Y-9307559D01*
X11237959Y-9361441D01*
X11291841Y-9361441D01*
X11291841Y-9615441D02*
X11291841Y-9561559D01*
X11237959Y-9561559D01*
X11237959Y-9615441D01*
X11291841Y-9615441D01*
X5952754Y-7536546D02*
X5992754Y-7496546D01*
X5952754Y-7456546D01*
X5912754Y-7496546D01*
X5952754Y-7536546D01*
X6132359Y-7356941D02*
X6172359Y-7316941D01*
X6132359Y-7276941D01*
X6092359Y-7316941D01*
X6132359Y-7356941D01*
X6311964Y-7177336D02*
X6351964Y-7137336D01*
X6311964Y-7097336D01*
X6271964Y-7137336D01*
X6311964Y-7177336D01*
X6491569Y-6997731D02*
X6531569Y-6957731D01*
X6491569Y-6917731D01*
X6451569Y-6957731D01*
X6491569Y-6997731D01*
X6491569Y-8075361D02*
X6531569Y-8035361D01*
X6491569Y-7995361D01*
X6451569Y-8035361D01*
X6491569Y-8075361D01*
X6671174Y-6818126D02*
X6711174Y-6778126D01*
X6671174Y-6738126D01*
X6631174Y-6778126D01*
X6671174Y-6818126D01*
X6671174Y-7895756D02*
X6711174Y-7855756D01*
X6671174Y-7815756D01*
X6631174Y-7855756D01*
X6671174Y-7895756D01*
X6850779Y-6638520D02*
X6890779Y-6598520D01*
X6850779Y-6558520D01*
X6810779Y-6598520D01*
X6850779Y-6638520D01*
X6850779Y-7716151D02*
X6890779Y-7676151D01*
X6850779Y-7636151D01*
X6810779Y-7676151D01*
X6850779Y-7716151D01*
X7030385Y-6458915D02*
X7070385Y-6418915D01*
X7030385Y-6378915D01*
X6990385Y-6418915D01*
X7030385Y-6458915D01*
X7030385Y-7536546D02*
X7070385Y-7496546D01*
X7030385Y-7456546D01*
X6990385Y-7496546D01*
X7030385Y-7536546D01*
X7209990Y-6279310D02*
X7249990Y-6239310D01*
X7209990Y-6199310D01*
X7169990Y-6239310D01*
X7209990Y-6279310D01*
X7209990Y-7356941D02*
X7249990Y-7316941D01*
X7209990Y-7276941D01*
X7169990Y-7316941D01*
X7209990Y-7356941D01*
X7389595Y-6099705D02*
X7429595Y-6059705D01*
X7389595Y-6019705D01*
X7349595Y-6059705D01*
X7389595Y-6099705D01*
X7389595Y-7177336D02*
X7429595Y-7137336D01*
X7389595Y-7097336D01*
X7349595Y-7137336D01*
X7389595Y-7177336D01*
X7569200Y-5920100D02*
X7609200Y-5880100D01*
X7569200Y-5840100D01*
X7529200Y-5880100D01*
X7569200Y-5920100D01*
X7569200Y-6997731D02*
X7609200Y-6957731D01*
X7569200Y-6917731D01*
X7529200Y-6957731D01*
X7569200Y-6997731D01*
X7748805Y-6818126D02*
X7788805Y-6778126D01*
X7748805Y-6738126D01*
X7708805Y-6778126D01*
X7748805Y-6818126D01*
X7928410Y-6638520D02*
X7968410Y-6598520D01*
X7928410Y-6558520D01*
X7888410Y-6598520D01*
X7928410Y-6638520D01*
X8108015Y-6458915D02*
X8148015Y-6418915D01*
X8108015Y-6378915D01*
X8068015Y-6418915D01*
X8108015Y-6458915D01*
X5385351Y-9638511D02*
X5470351Y-9723511D01*
X5470351Y-9638511D02*
X5385351Y-9723511D01*
X5470351Y-9681011D02*
G75*
G03*
X5470351Y-9681011I-42500J0D01*
G01*
X5436151Y-10469489D02*
X5521151Y-10554489D01*
X5521151Y-10469489D02*
X5436151Y-10554489D01*
X5521151Y-10511989D02*
G75*
G03*
X5521151Y-10511989I-42500J0D01*
G01*
X5596118Y-11261705D02*
X5681118Y-11346705D01*
X5681118Y-11261705D02*
X5596118Y-11346705D01*
X5681118Y-11304205D02*
G75*
G03*
X5681118Y-11304205I-42500J0D01*
G01*
X5634400Y-9660300D02*
X5719400Y-9745300D01*
X5719400Y-9660300D02*
X5634400Y-9745300D01*
X5719400Y-9702800D02*
G75*
G03*
X5719400Y-9702800I-42500J0D01*
G01*
X5685200Y-10447700D02*
X5770200Y-10532700D01*
X5770200Y-10447700D02*
X5685200Y-10532700D01*
X5770200Y-10490200D02*
G75*
G03*
X5770200Y-10490200I-42500J0D01*
G01*
X5837600Y-11197000D02*
X5922600Y-11282000D01*
X5922600Y-11197000D02*
X5837600Y-11282000D01*
X5922600Y-11239500D02*
G75*
G03*
X5922600Y-11239500I-42500J0D01*
G01*
X5877723Y-12026555D02*
X5962723Y-12111555D01*
X5962723Y-12026555D02*
X5877723Y-12111555D01*
X5962723Y-12069055D02*
G75*
G03*
X5962723Y-12069055I-42500J0D01*
G01*
X5883449Y-9682089D02*
X5968449Y-9767089D01*
X5968449Y-9682089D02*
X5883449Y-9767089D01*
X5968449Y-9724589D02*
G75*
G03*
X5968449Y-9724589I-42500J0D01*
G01*
X5934249Y-10425911D02*
X6019249Y-10510911D01*
X6019249Y-10425911D02*
X5934249Y-10510911D01*
X6019249Y-10468411D02*
G75*
G03*
X6019249Y-10468411I-42500J0D01*
G01*
X6079081Y-11132295D02*
X6164081Y-11217295D01*
X6164081Y-11132295D02*
X6079081Y-11217295D01*
X6164081Y-11174795D02*
G75*
G03*
X6164081Y-11174795I-42500J0D01*
G01*
X6104300Y-11920900D02*
X6189300Y-12005900D01*
X6189300Y-11920900D02*
X6104300Y-12005900D01*
X6189300Y-11963400D02*
G75*
G03*
X6189300Y-11963400I-42500J0D01*
G01*
X6318612Y-12737394D02*
X6403612Y-12822394D01*
X6403612Y-12737394D02*
X6318612Y-12822394D01*
X6403612Y-12779894D02*
G75*
G03*
X6403612Y-12779894I-42500J0D01*
G01*
X6330877Y-11815245D02*
X6415877Y-11900245D01*
X6415877Y-11815245D02*
X6330877Y-11900245D01*
X6415877Y-11857745D02*
G75*
G03*
X6415877Y-11857745I-42500J0D01*
G01*
X6523400Y-12594000D02*
X6608400Y-12679000D01*
X6608400Y-12594000D02*
X6523400Y-12679000D01*
X6608400Y-12636500D02*
G75*
G03*
X6608400Y-12636500I-42500J0D01*
G01*
X6728188Y-12450606D02*
X6813188Y-12535606D01*
X6813188Y-12450606D02*
X6728188Y-12535606D01*
X6813188Y-12493106D02*
G75*
G03*
X6813188Y-12493106I-42500J0D01*
G01*
X7951000Y-13559700D02*
X8051000Y-13659700D01*
X8051000Y-13559700D02*
X7951000Y-13659700D01*
X8001000Y-13559700D02*
X8001000Y-13659700D01*
X7951000Y-13609700D02*
X8051000Y-13609700D01*
X7951000Y-14059700D02*
X8051000Y-14159700D01*
X8051000Y-14059700D02*
X7951000Y-14159700D01*
X8001000Y-14059700D02*
X8001000Y-14159700D01*
X7951000Y-14109700D02*
X8051000Y-14109700D01*
X9221000Y-13559700D02*
X9321000Y-13659700D01*
X9321000Y-13559700D02*
X9221000Y-13659700D01*
X9271000Y-13559700D02*
X9271000Y-13659700D01*
X9221000Y-13609700D02*
X9321000Y-13609700D01*
X9221000Y-14059700D02*
X9321000Y-14159700D01*
X9321000Y-14059700D02*
X9221000Y-14159700D01*
X9271000Y-14059700D02*
X9271000Y-14159700D01*
X9221000Y-14109700D02*
X9321000Y-14109700D01*
X10618000Y-13559700D02*
X10718000Y-13659700D01*
X10718000Y-13559700D02*
X10618000Y-13659700D01*
X10668000Y-13559700D02*
X10668000Y-13659700D01*
X10618000Y-13609700D02*
X10718000Y-13609700D01*
X10618000Y-14059700D02*
X10718000Y-14159700D01*
X10718000Y-14059700D02*
X10618000Y-14159700D01*
X10668000Y-14059700D02*
X10668000Y-14159700D01*
X10618000Y-14109700D02*
X10718000Y-14109700D01*
X11888000Y-13559700D02*
X11988000Y-13659700D01*
X11988000Y-13559700D02*
X11888000Y-13659700D01*
X11938000Y-13559700D02*
X11938000Y-13659700D01*
X11888000Y-13609700D02*
X11988000Y-13609700D01*
X11888000Y-14059700D02*
X11988000Y-14159700D01*
X11988000Y-14059700D02*
X11888000Y-14159700D01*
X11938000Y-14059700D02*
X11938000Y-14159700D01*
X11888000Y-14109700D02*
X11988000Y-14109700D01*
X13513000Y-11417500D02*
X13665000Y-11569500D01*
X13665000Y-11417500D02*
X13513000Y-11569500D01*
X13642741Y-11547241D02*
X13642741Y-11439759D01*
X13535259Y-11439759D01*
X13535259Y-11547241D01*
X13642741Y-11547241D01*
X13929129Y-11708877D02*
X14081129Y-11860877D01*
X14081129Y-11708877D02*
X13929129Y-11860877D01*
X14058870Y-11838617D02*
X14058870Y-11731136D01*
X13951389Y-11731136D01*
X13951389Y-11838617D01*
X14058870Y-11838617D01*
X7429900Y-10835300D02*
X7609900Y-11015300D01*
X7609900Y-10835300D02*
X7429900Y-11015300D01*
X7519900Y-11015300D02*
X7609900Y-10925300D01*
X7519900Y-10835300D01*
X7429900Y-10925300D01*
X7519900Y-11015300D01*
X7429900Y-12835300D02*
X7609900Y-13015300D01*
X7609900Y-12835300D02*
X7429900Y-13015300D01*
X7519900Y-13015300D02*
X7609900Y-12925300D01*
X7519900Y-12835300D01*
X7429900Y-12925300D01*
X7519900Y-13015300D01*
X12379900Y-10835300D02*
X12559900Y-11015300D01*
X12559900Y-10835300D02*
X12379900Y-11015300D01*
X12469900Y-11015300D02*
X12559900Y-10925300D01*
X12469900Y-10835300D01*
X12379900Y-10925300D01*
X12469900Y-11015300D01*
X12379900Y-12835300D02*
X12559900Y-13015300D01*
X12559900Y-12835300D02*
X12379900Y-13015300D01*
X12469900Y-13015300D02*
X12559900Y-12925300D01*
X12469900Y-12835300D01*
X12379900Y-12925300D01*
X12469900Y-13015300D01*
D12*
X5098232Y-15870614D02*
X5098232Y-15570614D01*
X5169661Y-15570614D01*
X5212518Y-15584900D01*
X5241089Y-15613471D01*
X5255375Y-15642043D01*
X5269661Y-15699186D01*
X5269661Y-15742043D01*
X5255375Y-15799186D01*
X5241089Y-15827757D01*
X5212518Y-15856329D01*
X5169661Y-15870614D01*
X5098232Y-15870614D01*
X5398232Y-15870614D02*
X5398232Y-15670614D01*
X5398232Y-15727757D02*
X5412518Y-15699186D01*
X5426803Y-15684900D01*
X5455375Y-15670614D01*
X5483946Y-15670614D01*
X5583946Y-15870614D02*
X5583946Y-15670614D01*
X5583946Y-15570614D02*
X5569661Y-15584900D01*
X5583946Y-15599186D01*
X5598232Y-15584900D01*
X5583946Y-15570614D01*
X5583946Y-15599186D01*
X5769660Y-15870614D02*
X5741089Y-15856329D01*
X5726803Y-15827757D01*
X5726803Y-15570614D01*
X5926803Y-15870614D02*
X5898232Y-15856329D01*
X5883946Y-15827757D01*
X5883946Y-15570614D01*
X6269660Y-15870614D02*
X6269660Y-15570614D01*
X6369660Y-15784900D01*
X6469660Y-15570614D01*
X6469660Y-15870614D01*
X6741089Y-15870614D02*
X6741089Y-15713471D01*
X6726803Y-15684900D01*
X6698232Y-15670614D01*
X6641089Y-15670614D01*
X6612518Y-15684900D01*
X6741089Y-15856329D02*
X6712518Y-15870614D01*
X6641089Y-15870614D01*
X6612518Y-15856329D01*
X6598232Y-15827757D01*
X6598232Y-15799186D01*
X6612518Y-15770614D01*
X6641089Y-15756329D01*
X6712518Y-15756329D01*
X6741089Y-15742043D01*
X6883946Y-15670614D02*
X6883946Y-15970614D01*
X6883946Y-15684900D02*
X6912518Y-15670614D01*
X6969660Y-15670614D01*
X6998232Y-15684900D01*
X7012518Y-15699186D01*
X7026803Y-15727757D01*
X7026803Y-15813471D01*
X7012518Y-15842043D01*
X6998232Y-15856329D01*
X6969660Y-15870614D01*
X6912518Y-15870614D01*
X6883946Y-15856329D01*
X7155375Y-15842043D02*
X7169660Y-15856329D01*
X7155375Y-15870614D01*
X7141089Y-15856329D01*
X7155375Y-15842043D01*
X7155375Y-15870614D01*
X7155375Y-15684900D02*
X7169660Y-15699186D01*
X7155375Y-15713471D01*
X7141089Y-15699186D01*
X7155375Y-15684900D01*
X7155375Y-15713471D01*
X4771803Y-16344900D02*
X4811803Y-16384900D01*
X4811803Y-16344900D02*
X4771803Y-16384900D01*
X5155375Y-16200614D02*
X5183946Y-16200614D01*
X5212518Y-16214900D01*
X5226803Y-16229186D01*
X5241089Y-16257757D01*
X5255375Y-16314900D01*
X5255375Y-16386329D01*
X5241089Y-16443471D01*
X5226803Y-16472043D01*
X5212518Y-16486329D01*
X5183946Y-16500614D01*
X5155375Y-16500614D01*
X5126803Y-16486329D01*
X5112518Y-16472043D01*
X5098232Y-16443471D01*
X5083946Y-16386329D01*
X5083946Y-16314900D01*
X5098232Y-16257757D01*
X5112518Y-16229186D01*
X5126803Y-16214900D01*
X5155375Y-16200614D01*
X5383946Y-16472043D02*
X5398232Y-16486329D01*
X5383946Y-16500614D01*
X5369661Y-16486329D01*
X5383946Y-16472043D01*
X5383946Y-16500614D01*
X5655375Y-16300614D02*
X5655375Y-16500614D01*
X5583946Y-16186329D02*
X5512518Y-16400614D01*
X5698232Y-16400614D01*
X5869660Y-16200614D02*
X5898232Y-16200614D01*
X5926803Y-16214900D01*
X5941089Y-16229186D01*
X5955375Y-16257757D01*
X5969660Y-16314900D01*
X5969660Y-16386329D01*
X5955375Y-16443471D01*
X5941089Y-16472043D01*
X5926803Y-16486329D01*
X5898232Y-16500614D01*
X5869660Y-16500614D01*
X5841089Y-16486329D01*
X5826803Y-16472043D01*
X5812518Y-16443471D01*
X5798232Y-16386329D01*
X5798232Y-16314900D01*
X5812518Y-16257757D01*
X5826803Y-16229186D01*
X5841089Y-16214900D01*
X5869660Y-16200614D01*
X6155375Y-16200614D02*
X6183946Y-16200614D01*
X6212518Y-16214900D01*
X6226803Y-16229186D01*
X6241089Y-16257757D01*
X6255375Y-16314900D01*
X6255375Y-16386329D01*
X6241089Y-16443471D01*
X6226803Y-16472043D01*
X6212518Y-16486329D01*
X6183946Y-16500614D01*
X6155375Y-16500614D01*
X6126803Y-16486329D01*
X6112518Y-16472043D01*
X6098232Y-16443471D01*
X6083946Y-16386329D01*
X6083946Y-16314900D01*
X6098232Y-16257757D01*
X6112518Y-16229186D01*
X6126803Y-16214900D01*
X6155375Y-16200614D01*
X6383946Y-16500614D02*
X6383946Y-16300614D01*
X6383946Y-16329186D02*
X6398232Y-16314900D01*
X6426803Y-16300614D01*
X6469660Y-16300614D01*
X6498232Y-16314900D01*
X6512518Y-16343471D01*
X6512518Y-16500614D01*
X6512518Y-16343471D02*
X6526803Y-16314900D01*
X6555375Y-16300614D01*
X6598232Y-16300614D01*
X6626803Y-16314900D01*
X6641089Y-16343471D01*
X6641089Y-16500614D01*
X6783946Y-16500614D02*
X6783946Y-16300614D01*
X6783946Y-16329186D02*
X6798232Y-16314900D01*
X6826803Y-16300614D01*
X6869660Y-16300614D01*
X6898232Y-16314900D01*
X6912518Y-16343471D01*
X6912518Y-16500614D01*
X6912518Y-16343471D02*
X6926803Y-16314900D01*
X6955375Y-16300614D01*
X6998232Y-16300614D01*
X7026803Y-16314900D01*
X7041089Y-16343471D01*
X7041089Y-16500614D01*
X7626803Y-16186329D02*
X7369660Y-16572043D01*
X8012518Y-16200614D02*
X8041089Y-16200614D01*
X8069660Y-16214900D01*
X8083946Y-16229186D01*
X8098232Y-16257757D01*
X8112518Y-16314900D01*
X8112518Y-16386329D01*
X8098232Y-16443471D01*
X8083946Y-16472043D01*
X8069660Y-16486329D01*
X8041089Y-16500614D01*
X8012518Y-16500614D01*
X7983946Y-16486329D01*
X7969660Y-16472043D01*
X7955375Y-16443471D01*
X7941089Y-16386329D01*
X7941089Y-16314900D01*
X7955375Y-16257757D01*
X7969660Y-16229186D01*
X7983946Y-16214900D01*
X8012518Y-16200614D01*
X8241089Y-16472043D02*
X8255375Y-16486329D01*
X8241089Y-16500614D01*
X8226803Y-16486329D01*
X8241089Y-16472043D01*
X8241089Y-16500614D01*
X8441089Y-16200614D02*
X8469661Y-16200614D01*
X8498232Y-16214900D01*
X8512518Y-16229186D01*
X8526803Y-16257757D01*
X8541089Y-16314900D01*
X8541089Y-16386329D01*
X8526803Y-16443471D01*
X8512518Y-16472043D01*
X8498232Y-16486329D01*
X8469661Y-16500614D01*
X8441089Y-16500614D01*
X8412518Y-16486329D01*
X8398232Y-16472043D01*
X8383946Y-16443471D01*
X8369660Y-16386329D01*
X8369660Y-16314900D01*
X8383946Y-16257757D01*
X8398232Y-16229186D01*
X8412518Y-16214900D01*
X8441089Y-16200614D01*
X8826803Y-16500614D02*
X8655375Y-16500614D01*
X8741089Y-16500614D02*
X8741089Y-16200614D01*
X8712518Y-16243471D01*
X8683946Y-16272043D01*
X8655375Y-16286329D01*
X9098232Y-16200614D02*
X8955375Y-16200614D01*
X8941089Y-16343471D01*
X8955375Y-16329186D01*
X8983946Y-16314900D01*
X9055375Y-16314900D01*
X9083946Y-16329186D01*
X9098232Y-16343471D01*
X9112518Y-16372043D01*
X9112518Y-16443471D01*
X9098232Y-16472043D01*
X9083946Y-16486329D01*
X9055375Y-16500614D01*
X8983946Y-16500614D01*
X8955375Y-16486329D01*
X8941089Y-16472043D01*
X9212518Y-16200614D02*
X9412518Y-16200614D01*
X9283946Y-16500614D01*
X9512518Y-16200614D02*
X9512518Y-16257757D01*
X9626803Y-16200614D02*
X9626803Y-16257757D01*
X10069661Y-16614900D02*
X10055375Y-16600614D01*
X10026803Y-16557757D01*
X10012518Y-16529186D01*
X9998232Y-16486329D01*
X9983946Y-16414900D01*
X9983946Y-16357757D01*
X9998232Y-16286329D01*
X10012518Y-16243471D01*
X10026803Y-16214900D01*
X10055375Y-16172043D01*
X10069661Y-16157757D01*
X10226803Y-16329186D02*
X10198232Y-16314900D01*
X10183946Y-16300614D01*
X10169661Y-16272043D01*
X10169661Y-16257757D01*
X10183946Y-16229186D01*
X10198232Y-16214900D01*
X10226803Y-16200614D01*
X10283946Y-16200614D01*
X10312518Y-16214900D01*
X10326803Y-16229186D01*
X10341089Y-16257757D01*
X10341089Y-16272043D01*
X10326803Y-16300614D01*
X10312518Y-16314900D01*
X10283946Y-16329186D01*
X10226803Y-16329186D01*
X10198232Y-16343471D01*
X10183946Y-16357757D01*
X10169661Y-16386329D01*
X10169661Y-16443471D01*
X10183946Y-16472043D01*
X10198232Y-16486329D01*
X10226803Y-16500614D01*
X10283946Y-16500614D01*
X10312518Y-16486329D01*
X10326803Y-16472043D01*
X10341089Y-16443471D01*
X10341089Y-16386329D01*
X10326803Y-16357757D01*
X10312518Y-16343471D01*
X10283946Y-16329186D01*
X10698232Y-16500614D02*
X10698232Y-16200614D01*
X10826803Y-16500614D02*
X10826803Y-16343471D01*
X10812518Y-16314900D01*
X10783946Y-16300614D01*
X10741089Y-16300614D01*
X10712518Y-16314900D01*
X10698232Y-16329186D01*
X11012518Y-16500614D02*
X10983946Y-16486329D01*
X10969661Y-16472043D01*
X10955375Y-16443471D01*
X10955375Y-16357757D01*
X10969661Y-16329186D01*
X10983946Y-16314900D01*
X11012518Y-16300614D01*
X11055375Y-16300614D01*
X11083946Y-16314900D01*
X11098232Y-16329186D01*
X11112518Y-16357757D01*
X11112518Y-16443471D01*
X11098232Y-16472043D01*
X11083946Y-16486329D01*
X11055375Y-16500614D01*
X11012518Y-16500614D01*
X11283946Y-16500614D02*
X11255375Y-16486329D01*
X11241089Y-16457757D01*
X11241089Y-16200614D01*
X11512518Y-16486329D02*
X11483946Y-16500614D01*
X11426803Y-16500614D01*
X11398232Y-16486329D01*
X11383946Y-16457757D01*
X11383946Y-16343471D01*
X11398232Y-16314900D01*
X11426803Y-16300614D01*
X11483946Y-16300614D01*
X11512518Y-16314900D01*
X11526803Y-16343471D01*
X11526803Y-16372043D01*
X11383946Y-16400614D01*
X11641089Y-16486329D02*
X11669660Y-16500614D01*
X11726803Y-16500614D01*
X11755375Y-16486329D01*
X11769660Y-16457757D01*
X11769660Y-16443471D01*
X11755375Y-16414900D01*
X11726803Y-16400614D01*
X11683946Y-16400614D01*
X11655375Y-16386329D01*
X11641089Y-16357757D01*
X11641089Y-16343471D01*
X11655375Y-16314900D01*
X11683946Y-16300614D01*
X11726803Y-16300614D01*
X11755375Y-16314900D01*
X11869660Y-16614900D02*
X11883946Y-16600614D01*
X11912518Y-16557757D01*
X11926803Y-16529186D01*
X11941089Y-16486329D01*
X11955375Y-16414900D01*
X11955375Y-16357757D01*
X11941089Y-16286329D01*
X11926803Y-16243471D01*
X11912518Y-16214900D01*
X11883946Y-16172043D01*
X11869660Y-16157757D01*
X4811803Y-16760900D02*
G75*
G03*
X4811803Y-16760900I-30000J0D01*
G01*
X5155375Y-16596614D02*
X5183946Y-16596614D01*
X5212518Y-16610900D01*
X5226803Y-16625186D01*
X5241089Y-16653757D01*
X5255375Y-16710900D01*
X5255375Y-16782329D01*
X5241089Y-16839472D01*
X5226803Y-16868043D01*
X5212518Y-16882329D01*
X5183946Y-16896614D01*
X5155375Y-16896614D01*
X5126803Y-16882329D01*
X5112518Y-16868043D01*
X5098232Y-16839472D01*
X5083946Y-16782329D01*
X5083946Y-16710900D01*
X5098232Y-16653757D01*
X5112518Y-16625186D01*
X5126803Y-16610900D01*
X5155375Y-16596614D01*
X5383946Y-16868043D02*
X5398232Y-16882329D01*
X5383946Y-16896614D01*
X5369661Y-16882329D01*
X5383946Y-16868043D01*
X5383946Y-16896614D01*
X5655375Y-16596614D02*
X5598232Y-16596614D01*
X5569661Y-16610900D01*
X5555375Y-16625186D01*
X5526803Y-16668043D01*
X5512518Y-16725186D01*
X5512518Y-16839472D01*
X5526803Y-16868043D01*
X5541089Y-16882329D01*
X5569661Y-16896614D01*
X5626803Y-16896614D01*
X5655375Y-16882329D01*
X5669660Y-16868043D01*
X5683946Y-16839472D01*
X5683946Y-16768043D01*
X5669660Y-16739471D01*
X5655375Y-16725186D01*
X5626803Y-16710900D01*
X5569661Y-16710900D01*
X5541089Y-16725186D01*
X5526803Y-16739471D01*
X5512518Y-16768043D01*
X5869660Y-16596614D02*
X5898232Y-16596614D01*
X5926803Y-16610900D01*
X5941089Y-16625186D01*
X5955375Y-16653757D01*
X5969660Y-16710900D01*
X5969660Y-16782329D01*
X5955375Y-16839472D01*
X5941089Y-16868043D01*
X5926803Y-16882329D01*
X5898232Y-16896614D01*
X5869660Y-16896614D01*
X5841089Y-16882329D01*
X5826803Y-16868043D01*
X5812518Y-16839472D01*
X5798232Y-16782329D01*
X5798232Y-16710900D01*
X5812518Y-16653757D01*
X5826803Y-16625186D01*
X5841089Y-16610900D01*
X5869660Y-16596614D01*
X6155375Y-16596614D02*
X6183946Y-16596614D01*
X6212518Y-16610900D01*
X6226803Y-16625186D01*
X6241089Y-16653757D01*
X6255375Y-16710900D01*
X6255375Y-16782329D01*
X6241089Y-16839472D01*
X6226803Y-16868043D01*
X6212518Y-16882329D01*
X6183946Y-16896614D01*
X6155375Y-16896614D01*
X6126803Y-16882329D01*
X6112518Y-16868043D01*
X6098232Y-16839472D01*
X6083946Y-16782329D01*
X6083946Y-16710900D01*
X6098232Y-16653757D01*
X6112518Y-16625186D01*
X6126803Y-16610900D01*
X6155375Y-16596614D01*
X6383946Y-16896614D02*
X6383946Y-16696614D01*
X6383946Y-16725186D02*
X6398232Y-16710900D01*
X6426803Y-16696614D01*
X6469660Y-16696614D01*
X6498232Y-16710900D01*
X6512518Y-16739471D01*
X6512518Y-16896614D01*
X6512518Y-16739471D02*
X6526803Y-16710900D01*
X6555375Y-16696614D01*
X6598232Y-16696614D01*
X6626803Y-16710900D01*
X6641089Y-16739471D01*
X6641089Y-16896614D01*
X6783946Y-16896614D02*
X6783946Y-16696614D01*
X6783946Y-16725186D02*
X6798232Y-16710900D01*
X6826803Y-16696614D01*
X6869660Y-16696614D01*
X6898232Y-16710900D01*
X6912518Y-16739471D01*
X6912518Y-16896614D01*
X6912518Y-16739471D02*
X6926803Y-16710900D01*
X6955375Y-16696614D01*
X6998232Y-16696614D01*
X7026803Y-16710900D01*
X7041089Y-16739471D01*
X7041089Y-16896614D01*
X7626803Y-16582329D02*
X7369660Y-16968043D01*
X8012518Y-16596614D02*
X8041089Y-16596614D01*
X8069660Y-16610900D01*
X8083946Y-16625186D01*
X8098232Y-16653757D01*
X8112518Y-16710900D01*
X8112518Y-16782329D01*
X8098232Y-16839472D01*
X8083946Y-16868043D01*
X8069660Y-16882329D01*
X8041089Y-16896614D01*
X8012518Y-16896614D01*
X7983946Y-16882329D01*
X7969660Y-16868043D01*
X7955375Y-16839472D01*
X7941089Y-16782329D01*
X7941089Y-16710900D01*
X7955375Y-16653757D01*
X7969660Y-16625186D01*
X7983946Y-16610900D01*
X8012518Y-16596614D01*
X8241089Y-16868043D02*
X8255375Y-16882329D01*
X8241089Y-16896614D01*
X8226803Y-16882329D01*
X8241089Y-16868043D01*
X8241089Y-16896614D01*
X8441089Y-16596614D02*
X8469661Y-16596614D01*
X8498232Y-16610900D01*
X8512518Y-16625186D01*
X8526803Y-16653757D01*
X8541089Y-16710900D01*
X8541089Y-16782329D01*
X8526803Y-16839472D01*
X8512518Y-16868043D01*
X8498232Y-16882329D01*
X8469661Y-16896614D01*
X8441089Y-16896614D01*
X8412518Y-16882329D01*
X8398232Y-16868043D01*
X8383946Y-16839472D01*
X8369660Y-16782329D01*
X8369660Y-16710900D01*
X8383946Y-16653757D01*
X8398232Y-16625186D01*
X8412518Y-16610900D01*
X8441089Y-16596614D01*
X8655375Y-16625186D02*
X8669661Y-16610900D01*
X8698232Y-16596614D01*
X8769661Y-16596614D01*
X8798232Y-16610900D01*
X8812518Y-16625186D01*
X8826803Y-16653757D01*
X8826803Y-16682329D01*
X8812518Y-16725186D01*
X8641089Y-16896614D01*
X8826803Y-16896614D01*
X8926803Y-16596614D02*
X9112518Y-16596614D01*
X9012518Y-16710900D01*
X9055375Y-16710900D01*
X9083946Y-16725186D01*
X9098232Y-16739471D01*
X9112518Y-16768043D01*
X9112518Y-16839472D01*
X9098232Y-16868043D01*
X9083946Y-16882329D01*
X9055375Y-16896614D01*
X8969661Y-16896614D01*
X8941089Y-16882329D01*
X8926803Y-16868043D01*
X9369661Y-16596614D02*
X9312518Y-16596614D01*
X9283946Y-16610900D01*
X9269661Y-16625186D01*
X9241089Y-16668043D01*
X9226803Y-16725186D01*
X9226803Y-16839472D01*
X9241089Y-16868043D01*
X9255375Y-16882329D01*
X9283946Y-16896614D01*
X9341089Y-16896614D01*
X9369661Y-16882329D01*
X9383946Y-16868043D01*
X9398232Y-16839472D01*
X9398232Y-16768043D01*
X9383946Y-16739471D01*
X9369661Y-16725186D01*
X9341089Y-16710900D01*
X9283946Y-16710900D01*
X9255375Y-16725186D01*
X9241089Y-16739471D01*
X9226803Y-16768043D01*
X9512518Y-16596614D02*
X9512518Y-16653757D01*
X9626803Y-16596614D02*
X9626803Y-16653757D01*
X10069661Y-17010900D02*
X10055375Y-16996614D01*
X10026803Y-16953757D01*
X10012518Y-16925186D01*
X9998232Y-16882329D01*
X9983946Y-16810900D01*
X9983946Y-16753757D01*
X9998232Y-16682329D01*
X10012518Y-16639471D01*
X10026803Y-16610900D01*
X10055375Y-16568043D01*
X10069661Y-16553757D01*
X10169661Y-16625186D02*
X10183946Y-16610900D01*
X10212518Y-16596614D01*
X10283946Y-16596614D01*
X10312518Y-16610900D01*
X10326803Y-16625186D01*
X10341089Y-16653757D01*
X10341089Y-16682329D01*
X10326803Y-16725186D01*
X10155375Y-16896614D01*
X10341089Y-16896614D01*
X10698232Y-16896614D02*
X10698232Y-16596614D01*
X10826803Y-16896614D02*
X10826803Y-16739471D01*
X10812518Y-16710900D01*
X10783946Y-16696614D01*
X10741089Y-16696614D01*
X10712518Y-16710900D01*
X10698232Y-16725186D01*
X11012518Y-16896614D02*
X10983946Y-16882329D01*
X10969661Y-16868043D01*
X10955375Y-16839472D01*
X10955375Y-16753757D01*
X10969661Y-16725186D01*
X10983946Y-16710900D01*
X11012518Y-16696614D01*
X11055375Y-16696614D01*
X11083946Y-16710900D01*
X11098232Y-16725186D01*
X11112518Y-16753757D01*
X11112518Y-16839472D01*
X11098232Y-16868043D01*
X11083946Y-16882329D01*
X11055375Y-16896614D01*
X11012518Y-16896614D01*
X11283946Y-16896614D02*
X11255375Y-16882329D01*
X11241089Y-16853757D01*
X11241089Y-16596614D01*
X11512518Y-16882329D02*
X11483946Y-16896614D01*
X11426803Y-16896614D01*
X11398232Y-16882329D01*
X11383946Y-16853757D01*
X11383946Y-16739471D01*
X11398232Y-16710900D01*
X11426803Y-16696614D01*
X11483946Y-16696614D01*
X11512518Y-16710900D01*
X11526803Y-16739471D01*
X11526803Y-16768043D01*
X11383946Y-16796614D01*
X11641089Y-16882329D02*
X11669660Y-16896614D01*
X11726803Y-16896614D01*
X11755375Y-16882329D01*
X11769660Y-16853757D01*
X11769660Y-16839472D01*
X11755375Y-16810900D01*
X11726803Y-16796614D01*
X11683946Y-16796614D01*
X11655375Y-16782329D01*
X11641089Y-16753757D01*
X11641089Y-16739471D01*
X11655375Y-16710900D01*
X11683946Y-16696614D01*
X11726803Y-16696614D01*
X11755375Y-16710900D01*
X11869660Y-17010900D02*
X11883946Y-16996614D01*
X11912518Y-16953757D01*
X11926803Y-16925186D01*
X11941089Y-16882329D01*
X11955375Y-16810900D01*
X11955375Y-16753757D01*
X11941089Y-16682329D01*
X11926803Y-16639471D01*
X11912518Y-16610900D01*
X11883946Y-16568043D01*
X11869660Y-16553757D01*
X4774303Y-17119400D02*
X4774303Y-17194400D01*
X4736803Y-17156900D02*
X4811803Y-17156900D01*
X5155375Y-16992614D02*
X5183946Y-16992614D01*
X5212518Y-17006900D01*
X5226803Y-17021186D01*
X5241089Y-17049757D01*
X5255375Y-17106900D01*
X5255375Y-17178329D01*
X5241089Y-17235472D01*
X5226803Y-17264043D01*
X5212518Y-17278329D01*
X5183946Y-17292614D01*
X5155375Y-17292614D01*
X5126803Y-17278329D01*
X5112518Y-17264043D01*
X5098232Y-17235472D01*
X5083946Y-17178329D01*
X5083946Y-17106900D01*
X5098232Y-17049757D01*
X5112518Y-17021186D01*
X5126803Y-17006900D01*
X5155375Y-16992614D01*
X5383946Y-17264043D02*
X5398232Y-17278329D01*
X5383946Y-17292614D01*
X5369661Y-17278329D01*
X5383946Y-17264043D01*
X5383946Y-17292614D01*
X5498232Y-16992614D02*
X5698232Y-16992614D01*
X5569661Y-17292614D01*
X5955375Y-16992614D02*
X5812518Y-16992614D01*
X5798232Y-17135472D01*
X5812518Y-17121186D01*
X5841089Y-17106900D01*
X5912518Y-17106900D01*
X5941089Y-17121186D01*
X5955375Y-17135472D01*
X5969660Y-17164043D01*
X5969660Y-17235472D01*
X5955375Y-17264043D01*
X5941089Y-17278329D01*
X5912518Y-17292614D01*
X5841089Y-17292614D01*
X5812518Y-17278329D01*
X5798232Y-17264043D01*
X6155375Y-16992614D02*
X6183946Y-16992614D01*
X6212518Y-17006900D01*
X6226803Y-17021186D01*
X6241089Y-17049757D01*
X6255375Y-17106900D01*
X6255375Y-17178329D01*
X6241089Y-17235472D01*
X6226803Y-17264043D01*
X6212518Y-17278329D01*
X6183946Y-17292614D01*
X6155375Y-17292614D01*
X6126803Y-17278329D01*
X6112518Y-17264043D01*
X6098232Y-17235472D01*
X6083946Y-17178329D01*
X6083946Y-17106900D01*
X6098232Y-17049757D01*
X6112518Y-17021186D01*
X6126803Y-17006900D01*
X6155375Y-16992614D01*
X6383946Y-17292614D02*
X6383946Y-17092614D01*
X6383946Y-17121186D02*
X6398232Y-17106900D01*
X6426803Y-17092614D01*
X6469660Y-17092614D01*
X6498232Y-17106900D01*
X6512518Y-17135472D01*
X6512518Y-17292614D01*
X6512518Y-17135472D02*
X6526803Y-17106900D01*
X6555375Y-17092614D01*
X6598232Y-17092614D01*
X6626803Y-17106900D01*
X6641089Y-17135472D01*
X6641089Y-17292614D01*
X6783946Y-17292614D02*
X6783946Y-17092614D01*
X6783946Y-17121186D02*
X6798232Y-17106900D01*
X6826803Y-17092614D01*
X6869660Y-17092614D01*
X6898232Y-17106900D01*
X6912518Y-17135472D01*
X6912518Y-17292614D01*
X6912518Y-17135472D02*
X6926803Y-17106900D01*
X6955375Y-17092614D01*
X6998232Y-17092614D01*
X7026803Y-17106900D01*
X7041089Y-17135472D01*
X7041089Y-17292614D01*
X7626803Y-16978329D02*
X7369660Y-17364043D01*
X8012518Y-16992614D02*
X8041089Y-16992614D01*
X8069660Y-17006900D01*
X8083946Y-17021186D01*
X8098232Y-17049757D01*
X8112518Y-17106900D01*
X8112518Y-17178329D01*
X8098232Y-17235472D01*
X8083946Y-17264043D01*
X8069660Y-17278329D01*
X8041089Y-17292614D01*
X8012518Y-17292614D01*
X7983946Y-17278329D01*
X7969660Y-17264043D01*
X7955375Y-17235472D01*
X7941089Y-17178329D01*
X7941089Y-17106900D01*
X7955375Y-17049757D01*
X7969660Y-17021186D01*
X7983946Y-17006900D01*
X8012518Y-16992614D01*
X8241089Y-17264043D02*
X8255375Y-17278329D01*
X8241089Y-17292614D01*
X8226803Y-17278329D01*
X8241089Y-17264043D01*
X8241089Y-17292614D01*
X8441089Y-16992614D02*
X8469661Y-16992614D01*
X8498232Y-17006900D01*
X8512518Y-17021186D01*
X8526803Y-17049757D01*
X8541089Y-17106900D01*
X8541089Y-17178329D01*
X8526803Y-17235472D01*
X8512518Y-17264043D01*
X8498232Y-17278329D01*
X8469661Y-17292614D01*
X8441089Y-17292614D01*
X8412518Y-17278329D01*
X8398232Y-17264043D01*
X8383946Y-17235472D01*
X8369660Y-17178329D01*
X8369660Y-17106900D01*
X8383946Y-17049757D01*
X8398232Y-17021186D01*
X8412518Y-17006900D01*
X8441089Y-16992614D01*
X8655375Y-17021186D02*
X8669661Y-17006900D01*
X8698232Y-16992614D01*
X8769661Y-16992614D01*
X8798232Y-17006900D01*
X8812518Y-17021186D01*
X8826803Y-17049757D01*
X8826803Y-17078329D01*
X8812518Y-17121186D01*
X8641089Y-17292614D01*
X8826803Y-17292614D01*
X8969661Y-17292614D02*
X9026803Y-17292614D01*
X9055375Y-17278329D01*
X9069661Y-17264043D01*
X9098232Y-17221186D01*
X9112518Y-17164043D01*
X9112518Y-17049757D01*
X9098232Y-17021186D01*
X9083946Y-17006900D01*
X9055375Y-16992614D01*
X8998232Y-16992614D01*
X8969661Y-17006900D01*
X8955375Y-17021186D01*
X8941089Y-17049757D01*
X8941089Y-17121186D01*
X8955375Y-17149757D01*
X8969661Y-17164043D01*
X8998232Y-17178329D01*
X9055375Y-17178329D01*
X9083946Y-17164043D01*
X9098232Y-17149757D01*
X9112518Y-17121186D01*
X9383946Y-16992614D02*
X9241089Y-16992614D01*
X9226803Y-17135472D01*
X9241089Y-17121186D01*
X9269661Y-17106900D01*
X9341089Y-17106900D01*
X9369661Y-17121186D01*
X9383946Y-17135472D01*
X9398232Y-17164043D01*
X9398232Y-17235472D01*
X9383946Y-17264043D01*
X9369661Y-17278329D01*
X9341089Y-17292614D01*
X9269661Y-17292614D01*
X9241089Y-17278329D01*
X9226803Y-17264043D01*
X9512518Y-16992614D02*
X9512518Y-17049757D01*
X9626803Y-16992614D02*
X9626803Y-17049757D01*
X10069661Y-17406900D02*
X10055375Y-17392614D01*
X10026803Y-17349757D01*
X10012518Y-17321186D01*
X9998232Y-17278329D01*
X9983946Y-17206900D01*
X9983946Y-17149757D01*
X9998232Y-17078329D01*
X10012518Y-17035472D01*
X10026803Y-17006900D01*
X10055375Y-16964043D01*
X10069661Y-16949757D01*
X10198232Y-17292614D02*
X10255375Y-17292614D01*
X10283946Y-17278329D01*
X10298232Y-17264043D01*
X10326803Y-17221186D01*
X10341089Y-17164043D01*
X10341089Y-17049757D01*
X10326803Y-17021186D01*
X10312518Y-17006900D01*
X10283946Y-16992614D01*
X10226803Y-16992614D01*
X10198232Y-17006900D01*
X10183946Y-17021186D01*
X10169661Y-17049757D01*
X10169661Y-17121186D01*
X10183946Y-17149757D01*
X10198232Y-17164043D01*
X10226803Y-17178329D01*
X10283946Y-17178329D01*
X10312518Y-17164043D01*
X10326803Y-17149757D01*
X10341089Y-17121186D01*
X10698232Y-17292614D02*
X10698232Y-16992614D01*
X10826803Y-17292614D02*
X10826803Y-17135472D01*
X10812518Y-17106900D01*
X10783946Y-17092614D01*
X10741089Y-17092614D01*
X10712518Y-17106900D01*
X10698232Y-17121186D01*
X11012518Y-17292614D02*
X10983946Y-17278329D01*
X10969661Y-17264043D01*
X10955375Y-17235472D01*
X10955375Y-17149757D01*
X10969661Y-17121186D01*
X10983946Y-17106900D01*
X11012518Y-17092614D01*
X11055375Y-17092614D01*
X11083946Y-17106900D01*
X11098232Y-17121186D01*
X11112518Y-17149757D01*
X11112518Y-17235472D01*
X11098232Y-17264043D01*
X11083946Y-17278329D01*
X11055375Y-17292614D01*
X11012518Y-17292614D01*
X11283946Y-17292614D02*
X11255375Y-17278329D01*
X11241089Y-17249757D01*
X11241089Y-16992614D01*
X11512518Y-17278329D02*
X11483946Y-17292614D01*
X11426803Y-17292614D01*
X11398232Y-17278329D01*
X11383946Y-17249757D01*
X11383946Y-17135472D01*
X11398232Y-17106900D01*
X11426803Y-17092614D01*
X11483946Y-17092614D01*
X11512518Y-17106900D01*
X11526803Y-17135472D01*
X11526803Y-17164043D01*
X11383946Y-17192614D01*
X11641089Y-17278329D02*
X11669660Y-17292614D01*
X11726803Y-17292614D01*
X11755375Y-17278329D01*
X11769660Y-17249757D01*
X11769660Y-17235472D01*
X11755375Y-17206900D01*
X11726803Y-17192614D01*
X11683946Y-17192614D01*
X11655375Y-17178329D01*
X11641089Y-17149757D01*
X11641089Y-17135472D01*
X11655375Y-17106900D01*
X11683946Y-17092614D01*
X11726803Y-17092614D01*
X11755375Y-17106900D01*
X11869660Y-17406900D02*
X11883946Y-17392614D01*
X11912518Y-17349757D01*
X11926803Y-17321186D01*
X11941089Y-17278329D01*
X11955375Y-17206900D01*
X11955375Y-17149757D01*
X11941089Y-17078329D01*
X11926803Y-17035472D01*
X11912518Y-17006900D01*
X11883946Y-16964043D01*
X11869660Y-16949757D01*
X4800644Y-17579841D02*
X4800644Y-17525959D01*
X4746762Y-17525959D01*
X4746762Y-17579841D01*
X4800644Y-17579841D01*
X5155375Y-17388614D02*
X5183946Y-17388614D01*
X5212518Y-17402900D01*
X5226803Y-17417186D01*
X5241089Y-17445757D01*
X5255375Y-17502900D01*
X5255375Y-17574329D01*
X5241089Y-17631472D01*
X5226803Y-17660043D01*
X5212518Y-17674329D01*
X5183946Y-17688614D01*
X5155375Y-17688614D01*
X5126803Y-17674329D01*
X5112518Y-17660043D01*
X5098232Y-17631472D01*
X5083946Y-17574329D01*
X5083946Y-17502900D01*
X5098232Y-17445757D01*
X5112518Y-17417186D01*
X5126803Y-17402900D01*
X5155375Y-17388614D01*
X5383946Y-17660043D02*
X5398232Y-17674329D01*
X5383946Y-17688614D01*
X5369661Y-17674329D01*
X5383946Y-17660043D01*
X5383946Y-17688614D01*
X5498232Y-17388614D02*
X5698232Y-17388614D01*
X5569661Y-17688614D01*
X5941089Y-17388614D02*
X5883946Y-17388614D01*
X5855375Y-17402900D01*
X5841089Y-17417186D01*
X5812518Y-17460043D01*
X5798232Y-17517186D01*
X5798232Y-17631472D01*
X5812518Y-17660043D01*
X5826803Y-17674329D01*
X5855375Y-17688614D01*
X5912518Y-17688614D01*
X5941089Y-17674329D01*
X5955375Y-17660043D01*
X5969660Y-17631472D01*
X5969660Y-17560043D01*
X5955375Y-17531472D01*
X5941089Y-17517186D01*
X5912518Y-17502900D01*
X5855375Y-17502900D01*
X5826803Y-17517186D01*
X5812518Y-17531472D01*
X5798232Y-17560043D01*
X6083946Y-17417186D02*
X6098232Y-17402900D01*
X6126803Y-17388614D01*
X6198232Y-17388614D01*
X6226803Y-17402900D01*
X6241089Y-17417186D01*
X6255375Y-17445757D01*
X6255375Y-17474329D01*
X6241089Y-17517186D01*
X6069660Y-17688614D01*
X6255375Y-17688614D01*
X6383946Y-17688614D02*
X6383946Y-17488614D01*
X6383946Y-17517186D02*
X6398232Y-17502900D01*
X6426803Y-17488614D01*
X6469660Y-17488614D01*
X6498232Y-17502900D01*
X6512518Y-17531472D01*
X6512518Y-17688614D01*
X6512518Y-17531472D02*
X6526803Y-17502900D01*
X6555375Y-17488614D01*
X6598232Y-17488614D01*
X6626803Y-17502900D01*
X6641089Y-17531472D01*
X6641089Y-17688614D01*
X6783946Y-17688614D02*
X6783946Y-17488614D01*
X6783946Y-17517186D02*
X6798232Y-17502900D01*
X6826803Y-17488614D01*
X6869660Y-17488614D01*
X6898232Y-17502900D01*
X6912518Y-17531472D01*
X6912518Y-17688614D01*
X6912518Y-17531472D02*
X6926803Y-17502900D01*
X6955375Y-17488614D01*
X6998232Y-17488614D01*
X7026803Y-17502900D01*
X7041089Y-17531472D01*
X7041089Y-17688614D01*
X7626803Y-17374329D02*
X7369660Y-17760043D01*
X8012518Y-17388614D02*
X8041089Y-17388614D01*
X8069660Y-17402900D01*
X8083946Y-17417186D01*
X8098232Y-17445757D01*
X8112518Y-17502900D01*
X8112518Y-17574329D01*
X8098232Y-17631472D01*
X8083946Y-17660043D01*
X8069660Y-17674329D01*
X8041089Y-17688614D01*
X8012518Y-17688614D01*
X7983946Y-17674329D01*
X7969660Y-17660043D01*
X7955375Y-17631472D01*
X7941089Y-17574329D01*
X7941089Y-17502900D01*
X7955375Y-17445757D01*
X7969660Y-17417186D01*
X7983946Y-17402900D01*
X8012518Y-17388614D01*
X8241089Y-17660043D02*
X8255375Y-17674329D01*
X8241089Y-17688614D01*
X8226803Y-17674329D01*
X8241089Y-17660043D01*
X8241089Y-17688614D01*
X8441089Y-17388614D02*
X8469661Y-17388614D01*
X8498232Y-17402900D01*
X8512518Y-17417186D01*
X8526803Y-17445757D01*
X8541089Y-17502900D01*
X8541089Y-17574329D01*
X8526803Y-17631472D01*
X8512518Y-17660043D01*
X8498232Y-17674329D01*
X8469661Y-17688614D01*
X8441089Y-17688614D01*
X8412518Y-17674329D01*
X8398232Y-17660043D01*
X8383946Y-17631472D01*
X8369660Y-17574329D01*
X8369660Y-17502900D01*
X8383946Y-17445757D01*
X8398232Y-17417186D01*
X8412518Y-17402900D01*
X8441089Y-17388614D01*
X8641089Y-17388614D02*
X8826803Y-17388614D01*
X8726803Y-17502900D01*
X8769661Y-17502900D01*
X8798232Y-17517186D01*
X8812518Y-17531472D01*
X8826803Y-17560043D01*
X8826803Y-17631472D01*
X8812518Y-17660043D01*
X8798232Y-17674329D01*
X8769661Y-17688614D01*
X8683946Y-17688614D01*
X8655375Y-17674329D01*
X8641089Y-17660043D01*
X9012518Y-17388614D02*
X9041089Y-17388614D01*
X9069661Y-17402900D01*
X9083946Y-17417186D01*
X9098232Y-17445757D01*
X9112518Y-17502900D01*
X9112518Y-17574329D01*
X9098232Y-17631472D01*
X9083946Y-17660043D01*
X9069661Y-17674329D01*
X9041089Y-17688614D01*
X9012518Y-17688614D01*
X8983946Y-17674329D01*
X8969661Y-17660043D01*
X8955375Y-17631472D01*
X8941089Y-17574329D01*
X8941089Y-17502900D01*
X8955375Y-17445757D01*
X8969661Y-17417186D01*
X8983946Y-17402900D01*
X9012518Y-17388614D01*
X9298232Y-17388614D02*
X9326803Y-17388614D01*
X9355375Y-17402900D01*
X9369661Y-17417186D01*
X9383946Y-17445757D01*
X9398232Y-17502900D01*
X9398232Y-17574329D01*
X9383946Y-17631472D01*
X9369661Y-17660043D01*
X9355375Y-17674329D01*
X9326803Y-17688614D01*
X9298232Y-17688614D01*
X9269661Y-17674329D01*
X9255375Y-17660043D01*
X9241089Y-17631472D01*
X9226803Y-17574329D01*
X9226803Y-17502900D01*
X9241089Y-17445757D01*
X9255375Y-17417186D01*
X9269661Y-17402900D01*
X9298232Y-17388614D01*
X9512518Y-17388614D02*
X9512518Y-17445757D01*
X9626803Y-17388614D02*
X9626803Y-17445757D01*
X10069661Y-17802900D02*
X10055375Y-17788614D01*
X10026803Y-17745757D01*
X10012518Y-17717186D01*
X9998232Y-17674329D01*
X9983946Y-17602900D01*
X9983946Y-17545757D01*
X9998232Y-17474329D01*
X10012518Y-17431472D01*
X10026803Y-17402900D01*
X10055375Y-17360043D01*
X10069661Y-17345757D01*
X10155375Y-17388614D02*
X10341089Y-17388614D01*
X10241089Y-17502900D01*
X10283946Y-17502900D01*
X10312518Y-17517186D01*
X10326803Y-17531472D01*
X10341089Y-17560043D01*
X10341089Y-17631472D01*
X10326803Y-17660043D01*
X10312518Y-17674329D01*
X10283946Y-17688614D01*
X10198232Y-17688614D01*
X10169661Y-17674329D01*
X10155375Y-17660043D01*
X10512518Y-17517186D02*
X10483946Y-17502900D01*
X10469661Y-17488614D01*
X10455375Y-17460043D01*
X10455375Y-17445757D01*
X10469661Y-17417186D01*
X10483946Y-17402900D01*
X10512518Y-17388614D01*
X10569661Y-17388614D01*
X10598232Y-17402900D01*
X10612518Y-17417186D01*
X10626803Y-17445757D01*
X10626803Y-17460043D01*
X10612518Y-17488614D01*
X10598232Y-17502900D01*
X10569661Y-17517186D01*
X10512518Y-17517186D01*
X10483946Y-17531472D01*
X10469661Y-17545757D01*
X10455375Y-17574329D01*
X10455375Y-17631472D01*
X10469661Y-17660043D01*
X10483946Y-17674329D01*
X10512518Y-17688614D01*
X10569661Y-17688614D01*
X10598232Y-17674329D01*
X10612518Y-17660043D01*
X10626803Y-17631472D01*
X10626803Y-17574329D01*
X10612518Y-17545757D01*
X10598232Y-17531472D01*
X10569661Y-17517186D01*
X10983946Y-17688614D02*
X10983946Y-17388614D01*
X11112518Y-17688614D02*
X11112518Y-17531472D01*
X11098232Y-17502900D01*
X11069661Y-17488614D01*
X11026803Y-17488614D01*
X10998232Y-17502900D01*
X10983946Y-17517186D01*
X11298232Y-17688614D02*
X11269660Y-17674329D01*
X11255375Y-17660043D01*
X11241089Y-17631472D01*
X11241089Y-17545757D01*
X11255375Y-17517186D01*
X11269660Y-17502900D01*
X11298232Y-17488614D01*
X11341089Y-17488614D01*
X11369660Y-17502900D01*
X11383946Y-17517186D01*
X11398232Y-17545757D01*
X11398232Y-17631472D01*
X11383946Y-17660043D01*
X11369660Y-17674329D01*
X11341089Y-17688614D01*
X11298232Y-17688614D01*
X11569660Y-17688614D02*
X11541089Y-17674329D01*
X11526803Y-17645757D01*
X11526803Y-17388614D01*
X11798232Y-17674329D02*
X11769660Y-17688614D01*
X11712518Y-17688614D01*
X11683946Y-17674329D01*
X11669660Y-17645757D01*
X11669660Y-17531472D01*
X11683946Y-17502900D01*
X11712518Y-17488614D01*
X11769660Y-17488614D01*
X11798232Y-17502900D01*
X11812518Y-17531472D01*
X11812518Y-17560043D01*
X11669660Y-17588614D01*
X11926803Y-17674329D02*
X11955375Y-17688614D01*
X12012518Y-17688614D01*
X12041089Y-17674329D01*
X12055375Y-17645757D01*
X12055375Y-17631472D01*
X12041089Y-17602900D01*
X12012518Y-17588614D01*
X11969660Y-17588614D01*
X11941089Y-17574329D01*
X11926803Y-17545757D01*
X11926803Y-17531472D01*
X11941089Y-17502900D01*
X11969660Y-17488614D01*
X12012518Y-17488614D01*
X12041089Y-17502900D01*
X12155375Y-17802900D02*
X12169660Y-17788614D01*
X12198232Y-17745757D01*
X12212518Y-17717186D01*
X12226803Y-17674329D01*
X12241089Y-17602900D01*
X12241089Y-17545757D01*
X12226803Y-17474329D01*
X12212518Y-17431472D01*
X12198232Y-17402900D01*
X12169660Y-17360043D01*
X12155375Y-17345757D01*
X4771803Y-17988900D02*
X4811803Y-17948900D01*
X4771803Y-17908900D01*
X4731803Y-17948900D01*
X4771803Y-17988900D01*
X5155375Y-17784614D02*
X5183946Y-17784614D01*
X5212518Y-17798900D01*
X5226803Y-17813186D01*
X5241089Y-17841757D01*
X5255375Y-17898900D01*
X5255375Y-17970329D01*
X5241089Y-18027472D01*
X5226803Y-18056043D01*
X5212518Y-18070329D01*
X5183946Y-18084614D01*
X5155375Y-18084614D01*
X5126803Y-18070329D01*
X5112518Y-18056043D01*
X5098232Y-18027472D01*
X5083946Y-17970329D01*
X5083946Y-17898900D01*
X5098232Y-17841757D01*
X5112518Y-17813186D01*
X5126803Y-17798900D01*
X5155375Y-17784614D01*
X5383946Y-18056043D02*
X5398232Y-18070329D01*
X5383946Y-18084614D01*
X5369661Y-18070329D01*
X5383946Y-18056043D01*
X5383946Y-18084614D01*
X5569661Y-17913186D02*
X5541089Y-17898900D01*
X5526803Y-17884614D01*
X5512518Y-17856043D01*
X5512518Y-17841757D01*
X5526803Y-17813186D01*
X5541089Y-17798900D01*
X5569661Y-17784614D01*
X5626803Y-17784614D01*
X5655375Y-17798900D01*
X5669660Y-17813186D01*
X5683946Y-17841757D01*
X5683946Y-17856043D01*
X5669660Y-17884614D01*
X5655375Y-17898900D01*
X5626803Y-17913186D01*
X5569661Y-17913186D01*
X5541089Y-17927472D01*
X5526803Y-17941757D01*
X5512518Y-17970329D01*
X5512518Y-18027472D01*
X5526803Y-18056043D01*
X5541089Y-18070329D01*
X5569661Y-18084614D01*
X5626803Y-18084614D01*
X5655375Y-18070329D01*
X5669660Y-18056043D01*
X5683946Y-18027472D01*
X5683946Y-17970329D01*
X5669660Y-17941757D01*
X5655375Y-17927472D01*
X5626803Y-17913186D01*
X5869660Y-17784614D02*
X5898232Y-17784614D01*
X5926803Y-17798900D01*
X5941089Y-17813186D01*
X5955375Y-17841757D01*
X5969660Y-17898900D01*
X5969660Y-17970329D01*
X5955375Y-18027472D01*
X5941089Y-18056043D01*
X5926803Y-18070329D01*
X5898232Y-18084614D01*
X5869660Y-18084614D01*
X5841089Y-18070329D01*
X5826803Y-18056043D01*
X5812518Y-18027472D01*
X5798232Y-17970329D01*
X5798232Y-17898900D01*
X5812518Y-17841757D01*
X5826803Y-17813186D01*
X5841089Y-17798900D01*
X5869660Y-17784614D01*
X6155375Y-17784614D02*
X6183946Y-17784614D01*
X6212518Y-17798900D01*
X6226803Y-17813186D01*
X6241089Y-17841757D01*
X6255375Y-17898900D01*
X6255375Y-17970329D01*
X6241089Y-18027472D01*
X6226803Y-18056043D01*
X6212518Y-18070329D01*
X6183946Y-18084614D01*
X6155375Y-18084614D01*
X6126803Y-18070329D01*
X6112518Y-18056043D01*
X6098232Y-18027472D01*
X6083946Y-17970329D01*
X6083946Y-17898900D01*
X6098232Y-17841757D01*
X6112518Y-17813186D01*
X6126803Y-17798900D01*
X6155375Y-17784614D01*
X6383946Y-18084614D02*
X6383946Y-17884614D01*
X6383946Y-17913186D02*
X6398232Y-17898900D01*
X6426803Y-17884614D01*
X6469660Y-17884614D01*
X6498232Y-17898900D01*
X6512518Y-17927472D01*
X6512518Y-18084614D01*
X6512518Y-17927472D02*
X6526803Y-17898900D01*
X6555375Y-17884614D01*
X6598232Y-17884614D01*
X6626803Y-17898900D01*
X6641089Y-17927472D01*
X6641089Y-18084614D01*
X6783946Y-18084614D02*
X6783946Y-17884614D01*
X6783946Y-17913186D02*
X6798232Y-17898900D01*
X6826803Y-17884614D01*
X6869660Y-17884614D01*
X6898232Y-17898900D01*
X6912518Y-17927472D01*
X6912518Y-18084614D01*
X6912518Y-17927472D02*
X6926803Y-17898900D01*
X6955375Y-17884614D01*
X6998232Y-17884614D01*
X7026803Y-17898900D01*
X7041089Y-17927472D01*
X7041089Y-18084614D01*
X7626803Y-17770329D02*
X7369660Y-18156043D01*
X8012518Y-17784614D02*
X8041089Y-17784614D01*
X8069660Y-17798900D01*
X8083946Y-17813186D01*
X8098232Y-17841757D01*
X8112518Y-17898900D01*
X8112518Y-17970329D01*
X8098232Y-18027472D01*
X8083946Y-18056043D01*
X8069660Y-18070329D01*
X8041089Y-18084614D01*
X8012518Y-18084614D01*
X7983946Y-18070329D01*
X7969660Y-18056043D01*
X7955375Y-18027472D01*
X7941089Y-17970329D01*
X7941089Y-17898900D01*
X7955375Y-17841757D01*
X7969660Y-17813186D01*
X7983946Y-17798900D01*
X8012518Y-17784614D01*
X8241089Y-18056043D02*
X8255375Y-18070329D01*
X8241089Y-18084614D01*
X8226803Y-18070329D01*
X8241089Y-18056043D01*
X8241089Y-18084614D01*
X8441089Y-17784614D02*
X8469661Y-17784614D01*
X8498232Y-17798900D01*
X8512518Y-17813186D01*
X8526803Y-17841757D01*
X8541089Y-17898900D01*
X8541089Y-17970329D01*
X8526803Y-18027472D01*
X8512518Y-18056043D01*
X8498232Y-18070329D01*
X8469661Y-18084614D01*
X8441089Y-18084614D01*
X8412518Y-18070329D01*
X8398232Y-18056043D01*
X8383946Y-18027472D01*
X8369660Y-17970329D01*
X8369660Y-17898900D01*
X8383946Y-17841757D01*
X8398232Y-17813186D01*
X8412518Y-17798900D01*
X8441089Y-17784614D01*
X8641089Y-17784614D02*
X8826803Y-17784614D01*
X8726803Y-17898900D01*
X8769661Y-17898900D01*
X8798232Y-17913186D01*
X8812518Y-17927472D01*
X8826803Y-17956043D01*
X8826803Y-18027472D01*
X8812518Y-18056043D01*
X8798232Y-18070329D01*
X8769661Y-18084614D01*
X8683946Y-18084614D01*
X8655375Y-18070329D01*
X8641089Y-18056043D01*
X9112518Y-18084614D02*
X8941089Y-18084614D01*
X9026803Y-18084614D02*
X9026803Y-17784614D01*
X8998232Y-17827472D01*
X8969661Y-17856043D01*
X8941089Y-17870329D01*
X9383946Y-17784614D02*
X9241089Y-17784614D01*
X9226803Y-17927472D01*
X9241089Y-17913186D01*
X9269661Y-17898900D01*
X9341089Y-17898900D01*
X9369661Y-17913186D01*
X9383946Y-17927472D01*
X9398232Y-17956043D01*
X9398232Y-18027472D01*
X9383946Y-18056043D01*
X9369661Y-18070329D01*
X9341089Y-18084614D01*
X9269661Y-18084614D01*
X9241089Y-18070329D01*
X9226803Y-18056043D01*
X9512518Y-17784614D02*
X9512518Y-17841757D01*
X9626803Y-17784614D02*
X9626803Y-17841757D01*
X10069661Y-18198900D02*
X10055375Y-18184614D01*
X10026803Y-18141757D01*
X10012518Y-18113186D01*
X9998232Y-18070329D01*
X9983946Y-17998900D01*
X9983946Y-17941757D01*
X9998232Y-17870329D01*
X10012518Y-17827472D01*
X10026803Y-17798900D01*
X10055375Y-17756043D01*
X10069661Y-17741757D01*
X10169661Y-17813186D02*
X10183946Y-17798900D01*
X10212518Y-17784614D01*
X10283946Y-17784614D01*
X10312518Y-17798900D01*
X10326803Y-17813186D01*
X10341089Y-17841757D01*
X10341089Y-17870329D01*
X10326803Y-17913186D01*
X10155375Y-18084614D01*
X10341089Y-18084614D01*
X10526803Y-17784614D02*
X10555375Y-17784614D01*
X10583946Y-17798900D01*
X10598232Y-17813186D01*
X10612518Y-17841757D01*
X10626803Y-17898900D01*
X10626803Y-17970329D01*
X10612518Y-18027472D01*
X10598232Y-18056043D01*
X10583946Y-18070329D01*
X10555375Y-18084614D01*
X10526803Y-18084614D01*
X10498232Y-18070329D01*
X10483946Y-18056043D01*
X10469661Y-18027472D01*
X10455375Y-17970329D01*
X10455375Y-17898900D01*
X10469661Y-17841757D01*
X10483946Y-17813186D01*
X10498232Y-17798900D01*
X10526803Y-17784614D01*
X10983946Y-18084614D02*
X10983946Y-17784614D01*
X11112518Y-18084614D02*
X11112518Y-17927472D01*
X11098232Y-17898900D01*
X11069661Y-17884614D01*
X11026803Y-17884614D01*
X10998232Y-17898900D01*
X10983946Y-17913186D01*
X11298232Y-18084614D02*
X11269660Y-18070329D01*
X11255375Y-18056043D01*
X11241089Y-18027472D01*
X11241089Y-17941757D01*
X11255375Y-17913186D01*
X11269660Y-17898900D01*
X11298232Y-17884614D01*
X11341089Y-17884614D01*
X11369660Y-17898900D01*
X11383946Y-17913186D01*
X11398232Y-17941757D01*
X11398232Y-18027472D01*
X11383946Y-18056043D01*
X11369660Y-18070329D01*
X11341089Y-18084614D01*
X11298232Y-18084614D01*
X11569660Y-18084614D02*
X11541089Y-18070329D01*
X11526803Y-18041757D01*
X11526803Y-17784614D01*
X11798232Y-18070329D02*
X11769660Y-18084614D01*
X11712518Y-18084614D01*
X11683946Y-18070329D01*
X11669660Y-18041757D01*
X11669660Y-17927472D01*
X11683946Y-17898900D01*
X11712518Y-17884614D01*
X11769660Y-17884614D01*
X11798232Y-17898900D01*
X11812518Y-17927472D01*
X11812518Y-17956043D01*
X11669660Y-17984614D01*
X11926803Y-18070329D02*
X11955375Y-18084614D01*
X12012518Y-18084614D01*
X12041089Y-18070329D01*
X12055375Y-18041757D01*
X12055375Y-18027472D01*
X12041089Y-17998900D01*
X12012518Y-17984614D01*
X11969660Y-17984614D01*
X11941089Y-17970329D01*
X11926803Y-17941757D01*
X11926803Y-17927472D01*
X11941089Y-17898900D01*
X11969660Y-17884614D01*
X12012518Y-17884614D01*
X12041089Y-17898900D01*
X12155375Y-18198900D02*
X12169660Y-18184614D01*
X12198232Y-18141757D01*
X12212518Y-18113186D01*
X12226803Y-18070329D01*
X12241089Y-17998900D01*
X12241089Y-17941757D01*
X12226803Y-17870329D01*
X12212518Y-17827472D01*
X12198232Y-17798900D01*
X12169660Y-17756043D01*
X12155375Y-17741757D01*
X4726803Y-18302400D02*
X4811803Y-18387400D01*
X4811803Y-18302400D02*
X4726803Y-18387400D01*
X4811803Y-18344900D02*
G75*
G03*
X4811803Y-18344900I-42500J0D01*
G01*
X5155375Y-18180614D02*
X5183946Y-18180614D01*
X5212518Y-18194900D01*
X5226803Y-18209186D01*
X5241089Y-18237757D01*
X5255375Y-18294900D01*
X5255375Y-18366329D01*
X5241089Y-18423472D01*
X5226803Y-18452043D01*
X5212518Y-18466329D01*
X5183946Y-18480614D01*
X5155375Y-18480614D01*
X5126803Y-18466329D01*
X5112518Y-18452043D01*
X5098232Y-18423472D01*
X5083946Y-18366329D01*
X5083946Y-18294900D01*
X5098232Y-18237757D01*
X5112518Y-18209186D01*
X5126803Y-18194900D01*
X5155375Y-18180614D01*
X5383946Y-18452043D02*
X5398232Y-18466329D01*
X5383946Y-18480614D01*
X5369661Y-18466329D01*
X5383946Y-18452043D01*
X5383946Y-18480614D01*
X5569661Y-18309186D02*
X5541089Y-18294900D01*
X5526803Y-18280614D01*
X5512518Y-18252043D01*
X5512518Y-18237757D01*
X5526803Y-18209186D01*
X5541089Y-18194900D01*
X5569661Y-18180614D01*
X5626803Y-18180614D01*
X5655375Y-18194900D01*
X5669660Y-18209186D01*
X5683946Y-18237757D01*
X5683946Y-18252043D01*
X5669660Y-18280614D01*
X5655375Y-18294900D01*
X5626803Y-18309186D01*
X5569661Y-18309186D01*
X5541089Y-18323472D01*
X5526803Y-18337757D01*
X5512518Y-18366329D01*
X5512518Y-18423472D01*
X5526803Y-18452043D01*
X5541089Y-18466329D01*
X5569661Y-18480614D01*
X5626803Y-18480614D01*
X5655375Y-18466329D01*
X5669660Y-18452043D01*
X5683946Y-18423472D01*
X5683946Y-18366329D01*
X5669660Y-18337757D01*
X5655375Y-18323472D01*
X5626803Y-18309186D01*
X5955375Y-18180614D02*
X5812518Y-18180614D01*
X5798232Y-18323472D01*
X5812518Y-18309186D01*
X5841089Y-18294900D01*
X5912518Y-18294900D01*
X5941089Y-18309186D01*
X5955375Y-18323472D01*
X5969660Y-18352043D01*
X5969660Y-18423472D01*
X5955375Y-18452043D01*
X5941089Y-18466329D01*
X5912518Y-18480614D01*
X5841089Y-18480614D01*
X5812518Y-18466329D01*
X5798232Y-18452043D01*
X6155375Y-18180614D02*
X6183946Y-18180614D01*
X6212518Y-18194900D01*
X6226803Y-18209186D01*
X6241089Y-18237757D01*
X6255375Y-18294900D01*
X6255375Y-18366329D01*
X6241089Y-18423472D01*
X6226803Y-18452043D01*
X6212518Y-18466329D01*
X6183946Y-18480614D01*
X6155375Y-18480614D01*
X6126803Y-18466329D01*
X6112518Y-18452043D01*
X6098232Y-18423472D01*
X6083946Y-18366329D01*
X6083946Y-18294900D01*
X6098232Y-18237757D01*
X6112518Y-18209186D01*
X6126803Y-18194900D01*
X6155375Y-18180614D01*
X6383946Y-18480614D02*
X6383946Y-18280614D01*
X6383946Y-18309186D02*
X6398232Y-18294900D01*
X6426803Y-18280614D01*
X6469660Y-18280614D01*
X6498232Y-18294900D01*
X6512518Y-18323472D01*
X6512518Y-18480614D01*
X6512518Y-18323472D02*
X6526803Y-18294900D01*
X6555375Y-18280614D01*
X6598232Y-18280614D01*
X6626803Y-18294900D01*
X6641089Y-18323472D01*
X6641089Y-18480614D01*
X6783946Y-18480614D02*
X6783946Y-18280614D01*
X6783946Y-18309186D02*
X6798232Y-18294900D01*
X6826803Y-18280614D01*
X6869660Y-18280614D01*
X6898232Y-18294900D01*
X6912518Y-18323472D01*
X6912518Y-18480614D01*
X6912518Y-18323472D02*
X6926803Y-18294900D01*
X6955375Y-18280614D01*
X6998232Y-18280614D01*
X7026803Y-18294900D01*
X7041089Y-18323472D01*
X7041089Y-18480614D01*
X7626803Y-18166329D02*
X7369660Y-18552043D01*
X8012518Y-18180614D02*
X8041089Y-18180614D01*
X8069660Y-18194900D01*
X8083946Y-18209186D01*
X8098232Y-18237757D01*
X8112518Y-18294900D01*
X8112518Y-18366329D01*
X8098232Y-18423472D01*
X8083946Y-18452043D01*
X8069660Y-18466329D01*
X8041089Y-18480614D01*
X8012518Y-18480614D01*
X7983946Y-18466329D01*
X7969660Y-18452043D01*
X7955375Y-18423472D01*
X7941089Y-18366329D01*
X7941089Y-18294900D01*
X7955375Y-18237757D01*
X7969660Y-18209186D01*
X7983946Y-18194900D01*
X8012518Y-18180614D01*
X8241089Y-18452043D02*
X8255375Y-18466329D01*
X8241089Y-18480614D01*
X8226803Y-18466329D01*
X8241089Y-18452043D01*
X8241089Y-18480614D01*
X8441089Y-18180614D02*
X8469661Y-18180614D01*
X8498232Y-18194900D01*
X8512518Y-18209186D01*
X8526803Y-18237757D01*
X8541089Y-18294900D01*
X8541089Y-18366329D01*
X8526803Y-18423472D01*
X8512518Y-18452043D01*
X8498232Y-18466329D01*
X8469661Y-18480614D01*
X8441089Y-18480614D01*
X8412518Y-18466329D01*
X8398232Y-18452043D01*
X8383946Y-18423472D01*
X8369660Y-18366329D01*
X8369660Y-18294900D01*
X8383946Y-18237757D01*
X8398232Y-18209186D01*
X8412518Y-18194900D01*
X8441089Y-18180614D01*
X8641089Y-18180614D02*
X8826803Y-18180614D01*
X8726803Y-18294900D01*
X8769661Y-18294900D01*
X8798232Y-18309186D01*
X8812518Y-18323472D01*
X8826803Y-18352043D01*
X8826803Y-18423472D01*
X8812518Y-18452043D01*
X8798232Y-18466329D01*
X8769661Y-18480614D01*
X8683946Y-18480614D01*
X8655375Y-18466329D01*
X8641089Y-18452043D01*
X8926803Y-18180614D02*
X9112518Y-18180614D01*
X9012518Y-18294900D01*
X9055375Y-18294900D01*
X9083946Y-18309186D01*
X9098232Y-18323472D01*
X9112518Y-18352043D01*
X9112518Y-18423472D01*
X9098232Y-18452043D01*
X9083946Y-18466329D01*
X9055375Y-18480614D01*
X8969661Y-18480614D01*
X8941089Y-18466329D01*
X8926803Y-18452043D01*
X9383946Y-18180614D02*
X9241089Y-18180614D01*
X9226803Y-18323472D01*
X9241089Y-18309186D01*
X9269661Y-18294900D01*
X9341089Y-18294900D01*
X9369661Y-18309186D01*
X9383946Y-18323472D01*
X9398232Y-18352043D01*
X9398232Y-18423472D01*
X9383946Y-18452043D01*
X9369661Y-18466329D01*
X9341089Y-18480614D01*
X9269661Y-18480614D01*
X9241089Y-18466329D01*
X9226803Y-18452043D01*
X9512518Y-18180614D02*
X9512518Y-18237757D01*
X9626803Y-18180614D02*
X9626803Y-18237757D01*
X10069661Y-18594900D02*
X10055375Y-18580614D01*
X10026803Y-18537757D01*
X10012518Y-18509186D01*
X9998232Y-18466329D01*
X9983946Y-18394900D01*
X9983946Y-18337757D01*
X9998232Y-18266329D01*
X10012518Y-18223472D01*
X10026803Y-18194900D01*
X10055375Y-18152043D01*
X10069661Y-18137757D01*
X10341089Y-18480614D02*
X10169661Y-18480614D01*
X10255375Y-18480614D02*
X10255375Y-18180614D01*
X10226803Y-18223472D01*
X10198232Y-18252043D01*
X10169661Y-18266329D01*
X10612518Y-18180614D02*
X10469661Y-18180614D01*
X10455375Y-18323472D01*
X10469661Y-18309186D01*
X10498232Y-18294900D01*
X10569661Y-18294900D01*
X10598232Y-18309186D01*
X10612518Y-18323472D01*
X10626803Y-18352043D01*
X10626803Y-18423472D01*
X10612518Y-18452043D01*
X10598232Y-18466329D01*
X10569661Y-18480614D01*
X10498232Y-18480614D01*
X10469661Y-18466329D01*
X10455375Y-18452043D01*
X10983946Y-18480614D02*
X10983946Y-18180614D01*
X11112518Y-18480614D02*
X11112518Y-18323472D01*
X11098232Y-18294900D01*
X11069661Y-18280614D01*
X11026803Y-18280614D01*
X10998232Y-18294900D01*
X10983946Y-18309186D01*
X11298232Y-18480614D02*
X11269660Y-18466329D01*
X11255375Y-18452043D01*
X11241089Y-18423472D01*
X11241089Y-18337757D01*
X11255375Y-18309186D01*
X11269660Y-18294900D01*
X11298232Y-18280614D01*
X11341089Y-18280614D01*
X11369660Y-18294900D01*
X11383946Y-18309186D01*
X11398232Y-18337757D01*
X11398232Y-18423472D01*
X11383946Y-18452043D01*
X11369660Y-18466329D01*
X11341089Y-18480614D01*
X11298232Y-18480614D01*
X11569660Y-18480614D02*
X11541089Y-18466329D01*
X11526803Y-18437757D01*
X11526803Y-18180614D01*
X11798232Y-18466329D02*
X11769660Y-18480614D01*
X11712518Y-18480614D01*
X11683946Y-18466329D01*
X11669660Y-18437757D01*
X11669660Y-18323472D01*
X11683946Y-18294900D01*
X11712518Y-18280614D01*
X11769660Y-18280614D01*
X11798232Y-18294900D01*
X11812518Y-18323472D01*
X11812518Y-18352043D01*
X11669660Y-18380614D01*
X11926803Y-18466329D02*
X11955375Y-18480614D01*
X12012518Y-18480614D01*
X12041089Y-18466329D01*
X12055375Y-18437757D01*
X12055375Y-18423472D01*
X12041089Y-18394900D01*
X12012518Y-18380614D01*
X11969660Y-18380614D01*
X11941089Y-18366329D01*
X11926803Y-18337757D01*
X11926803Y-18323472D01*
X11941089Y-18294900D01*
X11969660Y-18280614D01*
X12012518Y-18280614D01*
X12041089Y-18294900D01*
X12155375Y-18594900D02*
X12169660Y-18580614D01*
X12198232Y-18537757D01*
X12212518Y-18509186D01*
X12226803Y-18466329D01*
X12241089Y-18394900D01*
X12241089Y-18337757D01*
X12226803Y-18266329D01*
X12212518Y-18223472D01*
X12198232Y-18194900D01*
X12169660Y-18152043D01*
X12155375Y-18137757D01*
X4711803Y-18690900D02*
X4811803Y-18790900D01*
X4811803Y-18690900D02*
X4711803Y-18790900D01*
X4761803Y-18690900D02*
X4761803Y-18790900D01*
X4711803Y-18740900D02*
X4811803Y-18740900D01*
X5255375Y-18876614D02*
X5083946Y-18876614D01*
X5169661Y-18876614D02*
X5169661Y-18576614D01*
X5141089Y-18619472D01*
X5112518Y-18648043D01*
X5083946Y-18662329D01*
X5383946Y-18848043D02*
X5398232Y-18862329D01*
X5383946Y-18876614D01*
X5369661Y-18862329D01*
X5383946Y-18848043D01*
X5383946Y-18876614D01*
X5583946Y-18576614D02*
X5612518Y-18576614D01*
X5641089Y-18590900D01*
X5655375Y-18605186D01*
X5669660Y-18633757D01*
X5683946Y-18690900D01*
X5683946Y-18762329D01*
X5669660Y-18819472D01*
X5655375Y-18848043D01*
X5641089Y-18862329D01*
X5612518Y-18876614D01*
X5583946Y-18876614D01*
X5555375Y-18862329D01*
X5541089Y-18848043D01*
X5526803Y-18819472D01*
X5512518Y-18762329D01*
X5512518Y-18690900D01*
X5526803Y-18633757D01*
X5541089Y-18605186D01*
X5555375Y-18590900D01*
X5583946Y-18576614D01*
X5869660Y-18576614D02*
X5898232Y-18576614D01*
X5926803Y-18590900D01*
X5941089Y-18605186D01*
X5955375Y-18633757D01*
X5969660Y-18690900D01*
X5969660Y-18762329D01*
X5955375Y-18819472D01*
X5941089Y-18848043D01*
X5926803Y-18862329D01*
X5898232Y-18876614D01*
X5869660Y-18876614D01*
X5841089Y-18862329D01*
X5826803Y-18848043D01*
X5812518Y-18819472D01*
X5798232Y-18762329D01*
X5798232Y-18690900D01*
X5812518Y-18633757D01*
X5826803Y-18605186D01*
X5841089Y-18590900D01*
X5869660Y-18576614D01*
X6155375Y-18576614D02*
X6183946Y-18576614D01*
X6212518Y-18590900D01*
X6226803Y-18605186D01*
X6241089Y-18633757D01*
X6255375Y-18690900D01*
X6255375Y-18762329D01*
X6241089Y-18819472D01*
X6226803Y-18848043D01*
X6212518Y-18862329D01*
X6183946Y-18876614D01*
X6155375Y-18876614D01*
X6126803Y-18862329D01*
X6112518Y-18848043D01*
X6098232Y-18819472D01*
X6083946Y-18762329D01*
X6083946Y-18690900D01*
X6098232Y-18633757D01*
X6112518Y-18605186D01*
X6126803Y-18590900D01*
X6155375Y-18576614D01*
X6383946Y-18876614D02*
X6383946Y-18676614D01*
X6383946Y-18705186D02*
X6398232Y-18690900D01*
X6426803Y-18676614D01*
X6469660Y-18676614D01*
X6498232Y-18690900D01*
X6512518Y-18719472D01*
X6512518Y-18876614D01*
X6512518Y-18719472D02*
X6526803Y-18690900D01*
X6555375Y-18676614D01*
X6598232Y-18676614D01*
X6626803Y-18690900D01*
X6641089Y-18719472D01*
X6641089Y-18876614D01*
X6783946Y-18876614D02*
X6783946Y-18676614D01*
X6783946Y-18705186D02*
X6798232Y-18690900D01*
X6826803Y-18676614D01*
X6869660Y-18676614D01*
X6898232Y-18690900D01*
X6912518Y-18719472D01*
X6912518Y-18876614D01*
X6912518Y-18719472D02*
X6926803Y-18690900D01*
X6955375Y-18676614D01*
X6998232Y-18676614D01*
X7026803Y-18690900D01*
X7041089Y-18719472D01*
X7041089Y-18876614D01*
X7626803Y-18562329D02*
X7369660Y-18948043D01*
X8012518Y-18576614D02*
X8041089Y-18576614D01*
X8069660Y-18590900D01*
X8083946Y-18605186D01*
X8098232Y-18633757D01*
X8112518Y-18690900D01*
X8112518Y-18762329D01*
X8098232Y-18819472D01*
X8083946Y-18848043D01*
X8069660Y-18862329D01*
X8041089Y-18876614D01*
X8012518Y-18876614D01*
X7983946Y-18862329D01*
X7969660Y-18848043D01*
X7955375Y-18819472D01*
X7941089Y-18762329D01*
X7941089Y-18690900D01*
X7955375Y-18633757D01*
X7969660Y-18605186D01*
X7983946Y-18590900D01*
X8012518Y-18576614D01*
X8241089Y-18848043D02*
X8255375Y-18862329D01*
X8241089Y-18876614D01*
X8226803Y-18862329D01*
X8241089Y-18848043D01*
X8241089Y-18876614D01*
X8441089Y-18576614D02*
X8469661Y-18576614D01*
X8498232Y-18590900D01*
X8512518Y-18605186D01*
X8526803Y-18633757D01*
X8541089Y-18690900D01*
X8541089Y-18762329D01*
X8526803Y-18819472D01*
X8512518Y-18848043D01*
X8498232Y-18862329D01*
X8469661Y-18876614D01*
X8441089Y-18876614D01*
X8412518Y-18862329D01*
X8398232Y-18848043D01*
X8383946Y-18819472D01*
X8369660Y-18762329D01*
X8369660Y-18690900D01*
X8383946Y-18633757D01*
X8398232Y-18605186D01*
X8412518Y-18590900D01*
X8441089Y-18576614D01*
X8641089Y-18576614D02*
X8826803Y-18576614D01*
X8726803Y-18690900D01*
X8769661Y-18690900D01*
X8798232Y-18705186D01*
X8812518Y-18719472D01*
X8826803Y-18748043D01*
X8826803Y-18819472D01*
X8812518Y-18848043D01*
X8798232Y-18862329D01*
X8769661Y-18876614D01*
X8683946Y-18876614D01*
X8655375Y-18862329D01*
X8641089Y-18848043D01*
X8969661Y-18876614D02*
X9026803Y-18876614D01*
X9055375Y-18862329D01*
X9069661Y-18848043D01*
X9098232Y-18805186D01*
X9112518Y-18748043D01*
X9112518Y-18633757D01*
X9098232Y-18605186D01*
X9083946Y-18590900D01*
X9055375Y-18576614D01*
X8998232Y-18576614D01*
X8969661Y-18590900D01*
X8955375Y-18605186D01*
X8941089Y-18633757D01*
X8941089Y-18705186D01*
X8955375Y-18733757D01*
X8969661Y-18748043D01*
X8998232Y-18762329D01*
X9055375Y-18762329D01*
X9083946Y-18748043D01*
X9098232Y-18733757D01*
X9112518Y-18705186D01*
X9369661Y-18676614D02*
X9369661Y-18876614D01*
X9298232Y-18562329D02*
X9226803Y-18776614D01*
X9412518Y-18776614D01*
X9512518Y-18576614D02*
X9512518Y-18633757D01*
X9626803Y-18576614D02*
X9626803Y-18633757D01*
X10069661Y-18990900D02*
X10055375Y-18976614D01*
X10026803Y-18933757D01*
X10012518Y-18905186D01*
X9998232Y-18862329D01*
X9983946Y-18790900D01*
X9983946Y-18733757D01*
X9998232Y-18662329D01*
X10012518Y-18619472D01*
X10026803Y-18590900D01*
X10055375Y-18548043D01*
X10069661Y-18533757D01*
X10226803Y-18705186D02*
X10198232Y-18690900D01*
X10183946Y-18676614D01*
X10169661Y-18648043D01*
X10169661Y-18633757D01*
X10183946Y-18605186D01*
X10198232Y-18590900D01*
X10226803Y-18576614D01*
X10283946Y-18576614D01*
X10312518Y-18590900D01*
X10326803Y-18605186D01*
X10341089Y-18633757D01*
X10341089Y-18648043D01*
X10326803Y-18676614D01*
X10312518Y-18690900D01*
X10283946Y-18705186D01*
X10226803Y-18705186D01*
X10198232Y-18719472D01*
X10183946Y-18733757D01*
X10169661Y-18762329D01*
X10169661Y-18819472D01*
X10183946Y-18848043D01*
X10198232Y-18862329D01*
X10226803Y-18876614D01*
X10283946Y-18876614D01*
X10312518Y-18862329D01*
X10326803Y-18848043D01*
X10341089Y-18819472D01*
X10341089Y-18762329D01*
X10326803Y-18733757D01*
X10312518Y-18719472D01*
X10283946Y-18705186D01*
X10698232Y-18876614D02*
X10698232Y-18576614D01*
X10826803Y-18876614D02*
X10826803Y-18719472D01*
X10812518Y-18690900D01*
X10783946Y-18676614D01*
X10741089Y-18676614D01*
X10712518Y-18690900D01*
X10698232Y-18705186D01*
X11012518Y-18876614D02*
X10983946Y-18862329D01*
X10969661Y-18848043D01*
X10955375Y-18819472D01*
X10955375Y-18733757D01*
X10969661Y-18705186D01*
X10983946Y-18690900D01*
X11012518Y-18676614D01*
X11055375Y-18676614D01*
X11083946Y-18690900D01*
X11098232Y-18705186D01*
X11112518Y-18733757D01*
X11112518Y-18819472D01*
X11098232Y-18848043D01*
X11083946Y-18862329D01*
X11055375Y-18876614D01*
X11012518Y-18876614D01*
X11283946Y-18876614D02*
X11255375Y-18862329D01*
X11241089Y-18833757D01*
X11241089Y-18576614D01*
X11512518Y-18862329D02*
X11483946Y-18876614D01*
X11426803Y-18876614D01*
X11398232Y-18862329D01*
X11383946Y-18833757D01*
X11383946Y-18719472D01*
X11398232Y-18690900D01*
X11426803Y-18676614D01*
X11483946Y-18676614D01*
X11512518Y-18690900D01*
X11526803Y-18719472D01*
X11526803Y-18748043D01*
X11383946Y-18776614D01*
X11641089Y-18862329D02*
X11669660Y-18876614D01*
X11726803Y-18876614D01*
X11755375Y-18862329D01*
X11769660Y-18833757D01*
X11769660Y-18819472D01*
X11755375Y-18790900D01*
X11726803Y-18776614D01*
X11683946Y-18776614D01*
X11655375Y-18762329D01*
X11641089Y-18733757D01*
X11641089Y-18719472D01*
X11655375Y-18690900D01*
X11683946Y-18676614D01*
X11726803Y-18676614D01*
X11755375Y-18690900D01*
X11869660Y-18990900D02*
X11883946Y-18976614D01*
X11912518Y-18933757D01*
X11926803Y-18905186D01*
X11941089Y-18862329D01*
X11955375Y-18790900D01*
X11955375Y-18733757D01*
X11941089Y-18662329D01*
X11926803Y-18619472D01*
X11912518Y-18590900D01*
X11883946Y-18548043D01*
X11869660Y-18533757D01*
X4659803Y-19060900D02*
X4811803Y-19212900D01*
X4811803Y-19060900D02*
X4659803Y-19212900D01*
X4789544Y-19190641D02*
X4789544Y-19083160D01*
X4682063Y-19083160D01*
X4682063Y-19190641D01*
X4789544Y-19190641D01*
X5255375Y-19272614D02*
X5083946Y-19272614D01*
X5169661Y-19272614D02*
X5169661Y-18972614D01*
X5141089Y-19015472D01*
X5112518Y-19044043D01*
X5083946Y-19058329D01*
X5383946Y-19244043D02*
X5398232Y-19258329D01*
X5383946Y-19272614D01*
X5369661Y-19258329D01*
X5383946Y-19244043D01*
X5383946Y-19272614D01*
X5669660Y-18972614D02*
X5526803Y-18972614D01*
X5512518Y-19115472D01*
X5526803Y-19101186D01*
X5555375Y-19086900D01*
X5626803Y-19086900D01*
X5655375Y-19101186D01*
X5669660Y-19115472D01*
X5683946Y-19144043D01*
X5683946Y-19215472D01*
X5669660Y-19244043D01*
X5655375Y-19258329D01*
X5626803Y-19272614D01*
X5555375Y-19272614D01*
X5526803Y-19258329D01*
X5512518Y-19244043D01*
X5798232Y-19001186D02*
X5812518Y-18986900D01*
X5841089Y-18972614D01*
X5912518Y-18972614D01*
X5941089Y-18986900D01*
X5955375Y-19001186D01*
X5969660Y-19029757D01*
X5969660Y-19058329D01*
X5955375Y-19101186D01*
X5783946Y-19272614D01*
X5969660Y-19272614D01*
X6155375Y-18972614D02*
X6183946Y-18972614D01*
X6212518Y-18986900D01*
X6226803Y-19001186D01*
X6241089Y-19029757D01*
X6255375Y-19086900D01*
X6255375Y-19158329D01*
X6241089Y-19215472D01*
X6226803Y-19244043D01*
X6212518Y-19258329D01*
X6183946Y-19272614D01*
X6155375Y-19272614D01*
X6126803Y-19258329D01*
X6112518Y-19244043D01*
X6098232Y-19215472D01*
X6083946Y-19158329D01*
X6083946Y-19086900D01*
X6098232Y-19029757D01*
X6112518Y-19001186D01*
X6126803Y-18986900D01*
X6155375Y-18972614D01*
X6383946Y-19272614D02*
X6383946Y-19072614D01*
X6383946Y-19101186D02*
X6398232Y-19086900D01*
X6426803Y-19072614D01*
X6469660Y-19072614D01*
X6498232Y-19086900D01*
X6512518Y-19115472D01*
X6512518Y-19272614D01*
X6512518Y-19115472D02*
X6526803Y-19086900D01*
X6555375Y-19072614D01*
X6598232Y-19072614D01*
X6626803Y-19086900D01*
X6641089Y-19115472D01*
X6641089Y-19272614D01*
X6783946Y-19272614D02*
X6783946Y-19072614D01*
X6783946Y-19101186D02*
X6798232Y-19086900D01*
X6826803Y-19072614D01*
X6869660Y-19072614D01*
X6898232Y-19086900D01*
X6912518Y-19115472D01*
X6912518Y-19272614D01*
X6912518Y-19115472D02*
X6926803Y-19086900D01*
X6955375Y-19072614D01*
X6998232Y-19072614D01*
X7026803Y-19086900D01*
X7041089Y-19115472D01*
X7041089Y-19272614D01*
X7626803Y-18958329D02*
X7369660Y-19344043D01*
X8012518Y-18972614D02*
X8041089Y-18972614D01*
X8069660Y-18986900D01*
X8083946Y-19001186D01*
X8098232Y-19029757D01*
X8112518Y-19086900D01*
X8112518Y-19158329D01*
X8098232Y-19215472D01*
X8083946Y-19244043D01*
X8069660Y-19258329D01*
X8041089Y-19272614D01*
X8012518Y-19272614D01*
X7983946Y-19258329D01*
X7969660Y-19244043D01*
X7955375Y-19215472D01*
X7941089Y-19158329D01*
X7941089Y-19086900D01*
X7955375Y-19029757D01*
X7969660Y-19001186D01*
X7983946Y-18986900D01*
X8012518Y-18972614D01*
X8241089Y-19244043D02*
X8255375Y-19258329D01*
X8241089Y-19272614D01*
X8226803Y-19258329D01*
X8241089Y-19244043D01*
X8241089Y-19272614D01*
X8441089Y-18972614D02*
X8469661Y-18972614D01*
X8498232Y-18986900D01*
X8512518Y-19001186D01*
X8526803Y-19029757D01*
X8541089Y-19086900D01*
X8541089Y-19158329D01*
X8526803Y-19215472D01*
X8512518Y-19244043D01*
X8498232Y-19258329D01*
X8469661Y-19272614D01*
X8441089Y-19272614D01*
X8412518Y-19258329D01*
X8398232Y-19244043D01*
X8383946Y-19215472D01*
X8369660Y-19158329D01*
X8369660Y-19086900D01*
X8383946Y-19029757D01*
X8398232Y-19001186D01*
X8412518Y-18986900D01*
X8441089Y-18972614D01*
X8812518Y-18972614D02*
X8669661Y-18972614D01*
X8655375Y-19115472D01*
X8669661Y-19101186D01*
X8698232Y-19086900D01*
X8769661Y-19086900D01*
X8798232Y-19101186D01*
X8812518Y-19115472D01*
X8826803Y-19144043D01*
X8826803Y-19215472D01*
X8812518Y-19244043D01*
X8798232Y-19258329D01*
X8769661Y-19272614D01*
X8698232Y-19272614D01*
X8669661Y-19258329D01*
X8655375Y-19244043D01*
X8969661Y-19272614D02*
X9026803Y-19272614D01*
X9055375Y-19258329D01*
X9069661Y-19244043D01*
X9098232Y-19201186D01*
X9112518Y-19144043D01*
X9112518Y-19029757D01*
X9098232Y-19001186D01*
X9083946Y-18986900D01*
X9055375Y-18972614D01*
X8998232Y-18972614D01*
X8969661Y-18986900D01*
X8955375Y-19001186D01*
X8941089Y-19029757D01*
X8941089Y-19101186D01*
X8955375Y-19129757D01*
X8969661Y-19144043D01*
X8998232Y-19158329D01*
X9055375Y-19158329D01*
X9083946Y-19144043D01*
X9098232Y-19129757D01*
X9112518Y-19101186D01*
X9283946Y-19101186D02*
X9255375Y-19086900D01*
X9241089Y-19072614D01*
X9226803Y-19044043D01*
X9226803Y-19029757D01*
X9241089Y-19001186D01*
X9255375Y-18986900D01*
X9283946Y-18972614D01*
X9341089Y-18972614D01*
X9369661Y-18986900D01*
X9383946Y-19001186D01*
X9398232Y-19029757D01*
X9398232Y-19044043D01*
X9383946Y-19072614D01*
X9369661Y-19086900D01*
X9341089Y-19101186D01*
X9283946Y-19101186D01*
X9255375Y-19115472D01*
X9241089Y-19129757D01*
X9226803Y-19158329D01*
X9226803Y-19215472D01*
X9241089Y-19244043D01*
X9255375Y-19258329D01*
X9283946Y-19272614D01*
X9341089Y-19272614D01*
X9369661Y-19258329D01*
X9383946Y-19244043D01*
X9398232Y-19215472D01*
X9398232Y-19158329D01*
X9383946Y-19129757D01*
X9369661Y-19115472D01*
X9341089Y-19101186D01*
X9512518Y-18972614D02*
X9512518Y-19029757D01*
X9626803Y-18972614D02*
X9626803Y-19029757D01*
X10069661Y-19386900D02*
X10055375Y-19372614D01*
X10026803Y-19329757D01*
X10012518Y-19301186D01*
X9998232Y-19258329D01*
X9983946Y-19186900D01*
X9983946Y-19129757D01*
X9998232Y-19058329D01*
X10012518Y-19015472D01*
X10026803Y-18986900D01*
X10055375Y-18944043D01*
X10069661Y-18929757D01*
X10169661Y-19001186D02*
X10183946Y-18986900D01*
X10212518Y-18972614D01*
X10283946Y-18972614D01*
X10312518Y-18986900D01*
X10326803Y-19001186D01*
X10341089Y-19029757D01*
X10341089Y-19058329D01*
X10326803Y-19101186D01*
X10155375Y-19272614D01*
X10341089Y-19272614D01*
X10698232Y-19272614D02*
X10698232Y-18972614D01*
X10826803Y-19272614D02*
X10826803Y-19115472D01*
X10812518Y-19086900D01*
X10783946Y-19072614D01*
X10741089Y-19072614D01*
X10712518Y-19086900D01*
X10698232Y-19101186D01*
X11012518Y-19272614D02*
X10983946Y-19258329D01*
X10969661Y-19244043D01*
X10955375Y-19215472D01*
X10955375Y-19129757D01*
X10969661Y-19101186D01*
X10983946Y-19086900D01*
X11012518Y-19072614D01*
X11055375Y-19072614D01*
X11083946Y-19086900D01*
X11098232Y-19101186D01*
X11112518Y-19129757D01*
X11112518Y-19215472D01*
X11098232Y-19244043D01*
X11083946Y-19258329D01*
X11055375Y-19272614D01*
X11012518Y-19272614D01*
X11283946Y-19272614D02*
X11255375Y-19258329D01*
X11241089Y-19229757D01*
X11241089Y-18972614D01*
X11512518Y-19258329D02*
X11483946Y-19272614D01*
X11426803Y-19272614D01*
X11398232Y-19258329D01*
X11383946Y-19229757D01*
X11383946Y-19115472D01*
X11398232Y-19086900D01*
X11426803Y-19072614D01*
X11483946Y-19072614D01*
X11512518Y-19086900D01*
X11526803Y-19115472D01*
X11526803Y-19144043D01*
X11383946Y-19172614D01*
X11641089Y-19258329D02*
X11669660Y-19272614D01*
X11726803Y-19272614D01*
X11755375Y-19258329D01*
X11769660Y-19229757D01*
X11769660Y-19215472D01*
X11755375Y-19186900D01*
X11726803Y-19172614D01*
X11683946Y-19172614D01*
X11655375Y-19158329D01*
X11641089Y-19129757D01*
X11641089Y-19115472D01*
X11655375Y-19086900D01*
X11683946Y-19072614D01*
X11726803Y-19072614D01*
X11755375Y-19086900D01*
X11869660Y-19386900D02*
X11883946Y-19372614D01*
X11912518Y-19329757D01*
X11926803Y-19301186D01*
X11941089Y-19258329D01*
X11955375Y-19186900D01*
X11955375Y-19129757D01*
X11941089Y-19058329D01*
X11926803Y-19015472D01*
X11912518Y-18986900D01*
X11883946Y-18944043D01*
X11869660Y-18929757D01*
X4631803Y-19442900D02*
X4811803Y-19622900D01*
X4811803Y-19442900D02*
X4631803Y-19622900D01*
X4721803Y-19622900D02*
X4811803Y-19532900D01*
X4721803Y-19442900D01*
X4631803Y-19532900D01*
X4721803Y-19622900D01*
X5255375Y-19668614D02*
X5083946Y-19668614D01*
X5169661Y-19668614D02*
X5169661Y-19368614D01*
X5141089Y-19411472D01*
X5112518Y-19440043D01*
X5083946Y-19454329D01*
X5383946Y-19640043D02*
X5398232Y-19654329D01*
X5383946Y-19668614D01*
X5369661Y-19654329D01*
X5383946Y-19640043D01*
X5383946Y-19668614D01*
X5569661Y-19497186D02*
X5541089Y-19482900D01*
X5526803Y-19468614D01*
X5512518Y-19440043D01*
X5512518Y-19425757D01*
X5526803Y-19397186D01*
X5541089Y-19382900D01*
X5569661Y-19368614D01*
X5626803Y-19368614D01*
X5655375Y-19382900D01*
X5669660Y-19397186D01*
X5683946Y-19425757D01*
X5683946Y-19440043D01*
X5669660Y-19468614D01*
X5655375Y-19482900D01*
X5626803Y-19497186D01*
X5569661Y-19497186D01*
X5541089Y-19511472D01*
X5526803Y-19525757D01*
X5512518Y-19554329D01*
X5512518Y-19611472D01*
X5526803Y-19640043D01*
X5541089Y-19654329D01*
X5569661Y-19668614D01*
X5626803Y-19668614D01*
X5655375Y-19654329D01*
X5669660Y-19640043D01*
X5683946Y-19611472D01*
X5683946Y-19554329D01*
X5669660Y-19525757D01*
X5655375Y-19511472D01*
X5626803Y-19497186D01*
X5869660Y-19368614D02*
X5898232Y-19368614D01*
X5926803Y-19382900D01*
X5941089Y-19397186D01*
X5955375Y-19425757D01*
X5969660Y-19482900D01*
X5969660Y-19554329D01*
X5955375Y-19611472D01*
X5941089Y-19640043D01*
X5926803Y-19654329D01*
X5898232Y-19668614D01*
X5869660Y-19668614D01*
X5841089Y-19654329D01*
X5826803Y-19640043D01*
X5812518Y-19611472D01*
X5798232Y-19554329D01*
X5798232Y-19482900D01*
X5812518Y-19425757D01*
X5826803Y-19397186D01*
X5841089Y-19382900D01*
X5869660Y-19368614D01*
X6155375Y-19368614D02*
X6183946Y-19368614D01*
X6212518Y-19382900D01*
X6226803Y-19397186D01*
X6241089Y-19425757D01*
X6255375Y-19482900D01*
X6255375Y-19554329D01*
X6241089Y-19611472D01*
X6226803Y-19640043D01*
X6212518Y-19654329D01*
X6183946Y-19668614D01*
X6155375Y-19668614D01*
X6126803Y-19654329D01*
X6112518Y-19640043D01*
X6098232Y-19611472D01*
X6083946Y-19554329D01*
X6083946Y-19482900D01*
X6098232Y-19425757D01*
X6112518Y-19397186D01*
X6126803Y-19382900D01*
X6155375Y-19368614D01*
X6383946Y-19668614D02*
X6383946Y-19468614D01*
X6383946Y-19497186D02*
X6398232Y-19482900D01*
X6426803Y-19468614D01*
X6469660Y-19468614D01*
X6498232Y-19482900D01*
X6512518Y-19511472D01*
X6512518Y-19668614D01*
X6512518Y-19511472D02*
X6526803Y-19482900D01*
X6555375Y-19468614D01*
X6598232Y-19468614D01*
X6626803Y-19482900D01*
X6641089Y-19511472D01*
X6641089Y-19668614D01*
X6783946Y-19668614D02*
X6783946Y-19468614D01*
X6783946Y-19497186D02*
X6798232Y-19482900D01*
X6826803Y-19468614D01*
X6869660Y-19468614D01*
X6898232Y-19482900D01*
X6912518Y-19511472D01*
X6912518Y-19668614D01*
X6912518Y-19511472D02*
X6926803Y-19482900D01*
X6955375Y-19468614D01*
X6998232Y-19468614D01*
X7026803Y-19482900D01*
X7041089Y-19511472D01*
X7041089Y-19668614D01*
X7626803Y-19354329D02*
X7369660Y-19740043D01*
X8012518Y-19368614D02*
X8041089Y-19368614D01*
X8069660Y-19382900D01*
X8083946Y-19397186D01*
X8098232Y-19425757D01*
X8112518Y-19482900D01*
X8112518Y-19554329D01*
X8098232Y-19611472D01*
X8083946Y-19640043D01*
X8069660Y-19654329D01*
X8041089Y-19668614D01*
X8012518Y-19668614D01*
X7983946Y-19654329D01*
X7969660Y-19640043D01*
X7955375Y-19611472D01*
X7941089Y-19554329D01*
X7941089Y-19482900D01*
X7955375Y-19425757D01*
X7969660Y-19397186D01*
X7983946Y-19382900D01*
X8012518Y-19368614D01*
X8241089Y-19640043D02*
X8255375Y-19654329D01*
X8241089Y-19668614D01*
X8226803Y-19654329D01*
X8241089Y-19640043D01*
X8241089Y-19668614D01*
X8441089Y-19368614D02*
X8469661Y-19368614D01*
X8498232Y-19382900D01*
X8512518Y-19397186D01*
X8526803Y-19425757D01*
X8541089Y-19482900D01*
X8541089Y-19554329D01*
X8526803Y-19611472D01*
X8512518Y-19640043D01*
X8498232Y-19654329D01*
X8469661Y-19668614D01*
X8441089Y-19668614D01*
X8412518Y-19654329D01*
X8398232Y-19640043D01*
X8383946Y-19611472D01*
X8369660Y-19554329D01*
X8369660Y-19482900D01*
X8383946Y-19425757D01*
X8398232Y-19397186D01*
X8412518Y-19382900D01*
X8441089Y-19368614D01*
X8641089Y-19368614D02*
X8841089Y-19368614D01*
X8712518Y-19668614D01*
X9012518Y-19368614D02*
X9041089Y-19368614D01*
X9069661Y-19382900D01*
X9083946Y-19397186D01*
X9098232Y-19425757D01*
X9112518Y-19482900D01*
X9112518Y-19554329D01*
X9098232Y-19611472D01*
X9083946Y-19640043D01*
X9069661Y-19654329D01*
X9041089Y-19668614D01*
X9012518Y-19668614D01*
X8983946Y-19654329D01*
X8969661Y-19640043D01*
X8955375Y-19611472D01*
X8941089Y-19554329D01*
X8941089Y-19482900D01*
X8955375Y-19425757D01*
X8969661Y-19397186D01*
X8983946Y-19382900D01*
X9012518Y-19368614D01*
X9255375Y-19668614D02*
X9312518Y-19668614D01*
X9341089Y-19654329D01*
X9355375Y-19640043D01*
X9383946Y-19597186D01*
X9398232Y-19540043D01*
X9398232Y-19425757D01*
X9383946Y-19397186D01*
X9369661Y-19382900D01*
X9341089Y-19368614D01*
X9283946Y-19368614D01*
X9255375Y-19382900D01*
X9241089Y-19397186D01*
X9226803Y-19425757D01*
X9226803Y-19497186D01*
X9241089Y-19525757D01*
X9255375Y-19540043D01*
X9283946Y-19554329D01*
X9341089Y-19554329D01*
X9369661Y-19540043D01*
X9383946Y-19525757D01*
X9398232Y-19497186D01*
X9512518Y-19368614D02*
X9512518Y-19425757D01*
X9626803Y-19368614D02*
X9626803Y-19425757D01*
X10069661Y-19782900D02*
X10055375Y-19768614D01*
X10026803Y-19725757D01*
X10012518Y-19697186D01*
X9998232Y-19654329D01*
X9983946Y-19582900D01*
X9983946Y-19525757D01*
X9998232Y-19454329D01*
X10012518Y-19411472D01*
X10026803Y-19382900D01*
X10055375Y-19340043D01*
X10069661Y-19325757D01*
X10312518Y-19468614D02*
X10312518Y-19668614D01*
X10241089Y-19354329D02*
X10169661Y-19568614D01*
X10355375Y-19568614D01*
X10698232Y-19668614D02*
X10698232Y-19368614D01*
X10826803Y-19668614D02*
X10826803Y-19511472D01*
X10812518Y-19482900D01*
X10783946Y-19468614D01*
X10741089Y-19468614D01*
X10712518Y-19482900D01*
X10698232Y-19497186D01*
X11012518Y-19668614D02*
X10983946Y-19654329D01*
X10969661Y-19640043D01*
X10955375Y-19611472D01*
X10955375Y-19525757D01*
X10969661Y-19497186D01*
X10983946Y-19482900D01*
X11012518Y-19468614D01*
X11055375Y-19468614D01*
X11083946Y-19482900D01*
X11098232Y-19497186D01*
X11112518Y-19525757D01*
X11112518Y-19611472D01*
X11098232Y-19640043D01*
X11083946Y-19654329D01*
X11055375Y-19668614D01*
X11012518Y-19668614D01*
X11283946Y-19668614D02*
X11255375Y-19654329D01*
X11241089Y-19625757D01*
X11241089Y-19368614D01*
X11512518Y-19654329D02*
X11483946Y-19668614D01*
X11426803Y-19668614D01*
X11398232Y-19654329D01*
X11383946Y-19625757D01*
X11383946Y-19511472D01*
X11398232Y-19482900D01*
X11426803Y-19468614D01*
X11483946Y-19468614D01*
X11512518Y-19482900D01*
X11526803Y-19511472D01*
X11526803Y-19540043D01*
X11383946Y-19568614D01*
X11641089Y-19654329D02*
X11669660Y-19668614D01*
X11726803Y-19668614D01*
X11755375Y-19654329D01*
X11769660Y-19625757D01*
X11769660Y-19611472D01*
X11755375Y-19582900D01*
X11726803Y-19568614D01*
X11683946Y-19568614D01*
X11655375Y-19554329D01*
X11641089Y-19525757D01*
X11641089Y-19511472D01*
X11655375Y-19482900D01*
X11683946Y-19468614D01*
X11726803Y-19468614D01*
X11755375Y-19482900D01*
X11869660Y-19782900D02*
X11883946Y-19768614D01*
X11912518Y-19725757D01*
X11926803Y-19697186D01*
X11941089Y-19654329D01*
X11955375Y-19582900D01*
X11955375Y-19525757D01*
X11941089Y-19454329D01*
X11926803Y-19411472D01*
X11912518Y-19382900D01*
X11883946Y-19340043D01*
X11869660Y-19325757D01*
M02*
